<svg width="118" height="113" viewBox="0 0 118 113" fill="none" xmlns="http://www.w3.org/2000/svg">
<g clip-path="url(#clip0_5_3852)">
<path d="M99.9603 66.6149C99.3003 69.3149 98.1203 71.8449 97.0603 74.4049C96.0003 76.9649 95.1103 79.6049 94.9703 82.3849C94.8903 83.9049 95.0603 85.4549 95.5703 86.8949C95.6403 87.1049 95.8503 87.2449 96.0803 87.1849C96.2803 87.1249 96.4503 86.8849 96.3703 86.6749C95.4803 84.1449 95.7003 81.4149 96.3703 78.8649C97.0403 76.3149 98.2503 73.7449 99.2703 71.2149C99.8503 69.7849 100.38 68.3349 100.75 66.8349C100.8 66.6149 100.68 66.3849 100.46 66.3249C100.24 66.2649 100 66.3949 99.9503 66.6149H99.9603Z" fill="black"/>
<path d="M100.86 65.8149C101.64 66.9649 102.24 68.2449 102.73 69.5249C103.27 70.9049 103.7 72.3349 104.09 73.7649C104.48 75.1949 104.8 76.6349 105.12 78.0649C105.53 79.8649 105.94 81.6649 106.34 83.4649C106.56 84.4349 106.8 85.3949 106.99 86.3649C107.15 87.1849 107.28 88.0949 106.94 88.8749L107.59 88.7949C106.9 88.1349 106.17 87.4849 105.27 87.1149C104.37 86.7449 103.47 86.8149 102.61 87.1649C101.75 87.5149 101.02 88.0249 100.21 88.2949C100.01 88.3649 99.8102 88.4149 99.6002 88.4549C99.5802 88.4549 99.5602 88.4549 99.5402 88.4549C99.4902 88.4549 99.4402 88.4549 99.3902 88.4649C99.2902 88.4649 99.1902 88.4649 99.0902 88.4649C99.0002 88.4649 98.9002 88.4549 98.8102 88.4449C98.7802 88.4449 98.7502 88.4449 98.7202 88.4349C98.6702 88.4349 98.6202 88.4149 98.5702 88.4049C98.3702 88.3649 98.1802 88.3049 97.9902 88.2249C97.9602 88.2149 97.9402 88.2049 97.9102 88.1849C97.8602 88.1649 97.8102 88.1349 97.7502 88.1049C97.6502 88.0549 97.5602 88.0049 97.4702 87.9449C97.2702 87.8149 97.1702 87.7449 96.9902 87.5649C96.9102 87.4949 96.8402 87.4149 96.7702 87.3349C96.7402 87.3049 96.6802 87.2249 96.6802 87.2249C96.6802 87.2249 96.6302 87.1549 96.6102 87.1249C96.5402 87.0349 96.4802 86.9349 96.4302 86.8349C96.4102 86.7949 96.3802 86.7449 96.3602 86.7049C96.3502 86.6749 96.3402 86.6549 96.3202 86.6249C96.2902 86.5549 96.3502 86.7149 96.3002 86.5849C96.2202 86.3749 96.0202 86.2349 95.7902 86.2949C95.5902 86.3449 95.4202 86.5949 95.5002 86.8049C96.1402 88.3949 97.8702 89.4849 99.5902 89.2749C100.51 89.1649 101.32 88.7049 102.14 88.2849C102.54 88.0749 102.88 87.9149 103.31 87.7949C103.7 87.6849 104.09 87.6549 104.48 87.7349C105.47 87.9449 106.26 88.6849 106.99 89.3749C107.16 89.5449 107.53 89.5449 107.64 89.2949C108 88.4749 108.01 87.6149 107.88 86.7449C107.75 85.8749 107.52 85.0149 107.33 84.1549C106.92 82.3349 106.5 80.5149 106.09 78.6849C105.41 75.6749 104.75 72.6549 103.68 69.7649C103.12 68.2449 102.46 66.7349 101.54 65.3849C101.41 65.1949 101.17 65.1149 100.97 65.2349C100.79 65.3449 100.69 65.6149 100.82 65.8049L100.86 65.8149Z" fill="black"/>
<path d="M35.2103 35.945C37.3403 30.625 39.3703 25.275 41.4403 19.935C42.4903 17.245 43.5403 14.555 44.6303 11.875C45.1503 10.605 45.6703 9.33498 46.2003 8.06498C46.4503 7.47498 46.6603 6.57498 47.1103 6.19498C47.7703 5.64498 48.7203 5.35498 49.5403 5.08498C50.9103 4.64498 52.3103 4.30498 53.7103 4.00498C57.3403 3.23498 61.0403 2.70498 64.7303 2.30498C68.3303 1.92498 72.0003 1.58498 75.6203 1.81498L75.4103 1.04498C71.8703 2.68498 68.3003 4.24498 64.7103 5.77498C62.3903 6.76498 60.0503 7.71498 57.7803 8.80498C56.9803 9.19498 55.3903 9.77498 55.1103 10.755C55.0303 11.045 55.0503 11.385 55.0403 11.685C55.0103 12.265 54.9803 12.835 54.9503 13.415C54.9003 14.525 54.8603 15.635 54.8403 16.745C54.8003 18.935 54.8103 21.115 54.8603 23.305C54.9703 27.955 55.2903 32.595 55.7203 37.225L56.1403 36.805C49.0803 36.065 41.9703 35.805 34.8703 36.015C34.3403 36.035 34.3303 36.865 34.8703 36.845C41.9703 36.625 49.0703 36.895 56.1403 37.635C56.3503 37.655 56.5703 37.425 56.5603 37.215C55.7903 29.015 55.4003 20.765 55.8303 12.545C55.8603 12.025 55.8303 11.445 55.9303 10.935C55.9203 11.005 55.9003 10.975 55.9603 10.915C56.0003 10.875 56.1403 10.715 56.2503 10.625C56.7503 10.235 57.3503 9.94498 57.9103 9.66498C60.0103 8.62498 62.1903 7.74498 64.3403 6.82498C68.2003 5.18498 72.0403 3.51498 75.8403 1.74498C76.2403 1.55498 76.0003 0.99498 75.6303 0.97498C72.3703 0.77498 69.0603 1.04498 65.8103 1.35498C62.0203 1.72498 58.2403 2.24498 54.5103 2.98498C52.9903 3.28498 51.4603 3.62498 49.9703 4.06498C48.9603 4.36498 47.8903 4.69498 46.9903 5.25498C46.7103 5.43498 46.4103 5.64498 46.2303 5.93498C46.0103 6.28498 45.8803 6.71498 45.7203 7.09498C45.4403 7.75498 45.1603 8.41498 44.8903 9.07498C43.7603 11.795 42.6703 14.525 41.6003 17.265C39.2003 23.405 36.8803 29.575 34.4303 35.695C34.2303 36.195 35.0303 36.405 35.2303 35.915L35.2103 35.945Z" fill="black"/>
<path d="M34.6802 35.0451C33.1702 38.7851 31.9202 42.6351 30.8002 46.5051C30.2402 48.4551 29.7102 50.4151 29.2902 52.3951C29.2002 52.8151 29.1102 53.2451 29.0402 53.6651C28.9602 54.1251 28.7302 54.6151 28.7802 55.0851C28.8202 55.4351 28.9802 55.8551 29.2502 56.0951C29.6302 56.4351 30.1002 56.2951 30.5702 56.2451C35.7202 55.7251 40.8902 55.7551 46.0602 55.8551C47.3702 55.8751 48.6702 55.9051 49.9802 55.9251C51.1802 55.9451 52.3902 55.8851 53.5802 56.0651C55.2302 56.3151 57.2502 56.6251 57.7002 54.5151C58.0002 53.1051 57.6502 51.4951 57.5402 50.0751C57.4202 48.5651 57.3002 47.0551 57.1802 45.5451C56.9302 42.4751 56.6902 39.3951 56.4402 36.3251C56.4002 35.7951 55.5702 35.7951 55.6102 36.3251C56.0102 41.3551 56.4102 46.3851 56.8102 51.4151C56.8902 52.4351 57.3302 54.2351 56.5602 55.0851C56.0002 55.7051 54.8502 55.4251 54.1402 55.3151C51.9702 54.9751 49.7402 55.0951 47.5402 55.0551C42.8002 54.9651 38.0602 54.8651 33.3302 55.1851C32.7302 55.2251 32.1402 55.2751 31.5402 55.3251C31.2202 55.3551 30.8902 55.3851 30.5702 55.4151C30.2602 55.4451 29.9102 55.5951 29.7202 55.3451C29.4402 54.9651 29.7502 54.3751 29.8202 53.9651C29.8902 53.5551 29.9702 53.1751 30.0502 52.7751C30.4402 50.9251 30.9202 49.0951 31.4302 47.2851C32.5802 43.2251 33.8902 39.1951 35.4702 35.2751C35.6702 34.7751 34.8702 34.5651 34.6702 35.0551L34.6802 35.0451Z" fill="black"/>
<path d="M36.6901 36.325C35.7301 36.945 36.4001 38.835 37.1601 38.905C37.9601 38.975 38.7501 39.065 39.4401 38.645C40.4201 38.055 41.2501 37.205 41.8201 36.205C42.0601 35.785 42.2201 35.185 41.8501 34.875C41.6501 34.715 41.3801 34.695 41.1201 34.705C39.4201 34.755 37.7401 35.335 36.3801 36.345" fill="#F1E0C6"/>
<path d="M36.4802 35.965C35.6302 36.545 35.6602 37.715 36.1202 38.535C36.3302 38.925 36.6702 39.255 37.1302 39.3149C37.7802 39.3949 38.5002 39.445 39.1302 39.245C39.7602 39.045 40.3702 38.5549 40.8602 38.0949C41.3502 37.6349 41.7502 37.135 42.0902 36.575C42.3902 36.075 42.6702 35.385 42.3402 34.825C41.9702 34.205 41.1902 34.265 40.5702 34.325C38.9802 34.475 37.4602 35.045 36.1702 35.995C35.9902 36.125 35.9002 36.3549 36.0202 36.5649C36.1202 36.7449 36.4102 36.845 36.5902 36.715C37.4902 36.055 38.5002 35.585 39.5802 35.325C40.1002 35.205 40.6302 35.135 41.1602 35.125C41.3102 35.125 41.5502 35.105 41.6302 35.265C41.7102 35.425 41.6002 35.7049 41.5402 35.8449C41.1302 36.7449 40.3402 37.5449 39.5302 38.0949C39.0502 38.4149 38.6002 38.5549 38.0202 38.5449C37.7502 38.5449 37.4802 38.525 37.2102 38.495C37.0602 38.475 37.2502 38.515 37.1802 38.495C37.1202 38.475 37.2202 38.525 37.1702 38.495C37.0902 38.445 37.0902 38.455 37.0402 38.395C36.6802 38.035 36.3802 37.055 36.9102 36.695C37.3502 36.395 36.9302 35.6749 36.4902 35.9749L36.4802 35.965Z" fill="black"/>
<path d="M50.6002 35.095C49.9602 34.865 49.2802 34.635 48.6202 34.765C47.9502 34.895 47.3402 35.535 47.4902 36.195C47.5702 36.545 47.8402 36.815 48.1102 37.055C48.8702 37.745 49.7002 38.345 50.5802 38.865C51.3002 39.285 52.3102 39.605 52.8902 39.005C53.5202 38.345 52.9302 37.525 52.5502 36.695C52.1702 35.855 51.4002 35.465 50.6002 35.105" fill="#F1E0C6"/>
<path d="M50.7103 34.6951C50.0303 34.4551 49.3303 34.2351 48.6103 34.3451C48.0703 34.4251 47.5703 34.7551 47.2803 35.2151C46.5103 36.4451 47.8803 37.4451 48.7403 38.1151C49.6503 38.8151 50.7503 39.6751 51.9403 39.7451C52.5003 39.7751 53.0503 39.5451 53.3603 39.0751C53.7003 38.5651 53.5903 37.9651 53.3603 37.4351C53.1103 36.8351 52.8303 36.1851 52.3703 35.7251C51.9103 35.2651 51.3703 34.9951 50.8003 34.7451C50.5903 34.6551 50.3603 34.6851 50.2303 34.8951C50.1203 35.0751 50.1803 35.3751 50.3803 35.4651C50.7603 35.6351 51.1403 35.8151 51.4803 36.0651C51.8203 36.3151 52.0403 36.6251 52.2203 36.9951C52.4703 37.5151 53.2503 38.8051 52.1503 38.9251C51.3003 39.0151 50.4203 38.3251 49.7703 37.8651C49.3503 37.5751 48.9503 37.2651 48.5703 36.9251C48.3003 36.6851 47.8403 36.3551 47.8703 35.9451C47.9003 35.5351 48.3203 35.2551 48.6803 35.1751C49.2803 35.0451 49.9203 35.3051 50.4803 35.5051C50.9803 35.6851 51.2003 34.8851 50.7003 34.7051L50.7103 34.6951Z" fill="black"/>
<path d="M56.7803 41.5151C57.3303 40.9751 58.1803 41.0651 58.8003 41.4151C59.6103 41.8751 59.9703 42.7651 60.1203 43.6451C60.2003 44.1151 60.2203 44.6051 60.2203 45.0851C60.2203 45.5351 60.2203 45.9951 60.1203 46.4351C60.0403 46.7851 59.8603 47.1751 59.5803 47.3451C59.3403 47.4851 59.0703 47.5651 58.8103 47.6351C58.4803 47.7151 58.1403 47.7551 57.8003 47.7351C57.6803 47.7351 57.5403 47.7051 57.4503 47.6651C57.4103 47.6451 57.3803 47.6251 57.3803 47.6251C57.3803 47.6251 57.4003 47.6951 57.3803 47.5851C57.2903 47.0551 56.4903 47.2851 56.5803 47.8051C56.7203 48.6051 57.8303 48.6051 58.4403 48.5351C59.2803 48.4351 60.1703 48.1851 60.6303 47.4151C60.9303 46.9151 61.0203 46.3051 61.0503 45.7351C61.0803 45.1251 61.0703 44.5051 61.0003 43.8951C60.8603 42.7251 60.4503 41.5351 59.4503 40.8451C58.4503 40.1551 57.0803 40.0751 56.2003 40.9351C55.8203 41.3151 56.4103 41.8951 56.7903 41.5251L56.7803 41.5151Z" fill="black"/>
<path d="M35.7702 51.1452C31.8802 59.2552 29.1802 67.8752 26.4802 76.4552C25.7102 78.9152 24.9302 81.4452 25.1102 84.0152C25.2602 86.1352 26.0402 88.1452 26.8302 90.1152C28.6002 94.5252 30.4402 98.9152 32.3402 103.275C32.9702 104.715 34.0202 106.415 35.5802 106.225C36.0402 106.165 36.4702 105.945 36.8702 105.715C41.1902 103.295 45.1102 100.165 48.4502 96.5152C49.4102 95.4652 50.3202 94.3552 50.9202 93.0752C51.6002 91.5952 51.8302 89.9452 52.0002 88.3252C53.3502 75.8552 52.3602 63.1352 49.0702 51.0352" fill="#F1E0C6"/>
<path d="M35.4101 50.9351C31.7701 58.5651 29.1401 66.6051 26.6101 74.6551C25.9801 76.6751 25.2701 78.6851 24.9001 80.7751C24.5301 82.8651 24.6201 84.7351 25.1601 86.6851C25.7001 88.6351 26.5701 90.5951 27.3501 92.5051C28.1701 94.5151 29.0001 96.5151 29.8401 98.5151C30.6801 100.515 31.3701 102.445 32.3501 104.275C32.9901 105.475 34.0601 106.795 35.5801 106.645C36.4001 106.565 37.1501 106.055 37.8401 105.645C38.6901 105.145 39.5201 104.625 40.3301 104.075C41.9301 102.995 43.4601 101.815 44.9101 100.555C46.3601 99.2951 47.7901 97.8951 49.0901 96.4251C50.3901 94.9551 51.3701 93.4751 51.8601 91.6251C52.3501 89.7751 52.4901 87.6851 52.6501 85.7251C52.8301 83.5851 52.9301 81.4451 52.9701 79.3051C53.1201 70.8151 52.2101 62.3051 50.2501 54.0451C50.0001 53.0051 49.7401 51.9651 49.4601 50.9251C49.3201 50.4051 48.5201 50.6251 48.6601 51.1451C50.7701 58.9651 51.9401 67.0251 52.1301 75.1251C52.2201 79.1751 52.0701 83.2251 51.6801 87.2551C51.4901 89.2051 51.3301 91.2651 50.4501 93.0551C49.6301 94.7151 48.3001 96.1051 47.0101 97.4151C44.4101 100.075 41.4901 102.405 38.3301 104.365C37.5601 104.845 36.7101 105.485 35.8301 105.745C35.0201 105.985 34.3401 105.605 33.8201 105.005C33.3001 104.405 32.9401 103.675 32.6201 102.955C32.2101 102.015 31.8101 101.075 31.4001 100.135C29.7601 96.2951 28.0901 92.4351 26.6201 88.5251C25.9401 86.6951 25.4101 84.8251 25.4801 82.8551C25.5501 80.8851 26.1501 78.8351 26.7501 76.9051C29.1601 69.1851 31.5801 61.4451 34.8601 54.0451C35.2601 53.1451 35.6701 52.2451 36.1001 51.3551C36.3301 50.8751 35.6101 50.4551 35.3801 50.9351H35.4101Z" fill="black"/>
<path d="M43.5902 44.435C38.9402 45.795 33.3302 48.1051 29.5002 51.0751C31.4002 51.9351 36.9902 50.8951 37.9602 50.5751C40.1002 49.8551 41.7102 48.115 43.2202 46.435C43.7202 45.885 43.9802 45.065 43.5902 44.425" fill="#F1E0C6"/>
<path d="M43.4802 44.035C38.5002 45.495 33.4302 47.535 29.2902 50.715C29.0802 50.875 28.9702 51.295 29.2902 51.435C30.5002 51.955 31.9502 51.865 33.2302 51.765C34.6402 51.655 36.0502 51.455 37.4202 51.145C38.9802 50.785 40.3202 49.895 41.4902 48.825C42.2402 48.135 43.0002 47.385 43.6302 46.585C44.1802 45.885 44.3702 45.015 43.9402 44.215C43.6902 43.745 42.9702 44.165 43.2202 44.635C43.7202 45.565 42.6802 46.415 42.1102 47.025C41.5402 47.635 40.9002 48.275 40.2202 48.815C39.2002 49.635 38.0802 50.155 36.8102 50.415C35.6102 50.665 34.3802 50.835 33.1602 50.925C32.0802 51.005 30.7402 51.145 29.7102 50.705V51.425C33.8002 48.275 38.7802 46.265 43.7002 44.825C44.2102 44.675 43.9902 43.875 43.4802 44.025V44.035Z" fill="black"/>
<path d="M44.0203 44.3149C47.9903 46.0149 51.9503 48.8049 53.0503 52.9849C53.1003 53.1849 53.1503 53.3949 53.1103 53.5949C53.0103 54.0849 52.4303 54.3449 51.9403 54.2749C51.4503 54.2049 51.0303 53.8949 50.6303 53.5949C49.2003 52.5249 47.7803 51.4449 46.3503 50.3749C45.8603 50.0049 43.7203 46.5149 43.3503 45.0149" fill="#F1E0C6"/>
<path d="M43.8102 44.675C47.0802 46.085 50.4302 48.1749 52.0502 51.4749C52.2402 51.8549 52.4002 52.255 52.5302 52.665C52.6802 53.135 52.9002 53.7849 52.2002 53.8649C51.7302 53.9149 51.2702 53.555 50.9202 53.285C50.4202 52.915 49.9202 52.535 49.4302 52.165C48.5102 51.475 47.5002 50.825 46.6402 50.0649C46.3202 49.775 46.0902 49.365 45.8602 49.015C45.0502 47.765 44.1602 46.365 43.7802 44.915C43.6402 44.395 42.8402 44.6149 42.9802 45.1349C43.3702 46.6249 44.2702 48.0549 45.0902 49.3449C45.3802 49.7949 45.6702 50.295 46.0602 50.655C46.5002 51.0649 47.0402 51.395 47.5202 51.755C48.0702 52.175 48.6302 52.585 49.1802 53.005C50.0202 53.635 51.0702 54.755 52.2202 54.695C53.2402 54.645 53.7102 53.7949 53.4802 52.8649C52.9902 50.8749 51.7402 49.105 50.2702 47.715C48.5302 46.085 46.4402 44.885 44.2602 43.945C43.7702 43.735 43.3502 44.455 43.8402 44.665L43.8102 44.675Z" fill="black"/>
<path d="M55.1203 21.625C53.7403 20.615 52.1303 19.905 50.4803 19.485C50.1803 19.405 49.8703 19.685 49.9703 19.995C50.1803 20.705 50.4003 21.415 50.6103 22.115C50.7203 22.495 50.9103 22.905 50.9703 23.295C51.0303 23.715 50.7103 23.755 50.3903 23.945C49.2703 24.605 48.2403 25.415 47.3103 26.315C47.0303 26.585 47.2703 26.985 47.6003 27.025C48.7203 27.145 49.8503 27.265 50.9703 27.385L50.5703 26.855C49.9703 28.445 49.4803 30.075 49.1103 31.735C49.0303 32.105 49.3903 32.365 49.7203 32.205C51.1203 31.525 52.4103 30.685 53.6003 29.695L52.9103 29.515C53.5003 31.105 54.5603 32.475 55.1503 34.065C55.3303 34.565 56.1403 34.345 55.9503 33.845C55.3603 32.255 54.3003 30.885 53.7103 29.295C53.6003 28.985 53.2703 28.905 53.0203 29.115C51.8803 30.055 50.6303 30.845 49.3003 31.495L49.9103 31.965C50.2903 30.305 50.7803 28.685 51.3703 27.085C51.4703 26.805 51.2103 26.585 50.9703 26.555C49.8503 26.435 48.7203 26.315 47.6003 26.195L47.8903 26.905C48.4903 26.325 49.1203 25.785 49.8003 25.305C50.1303 25.075 50.4603 24.865 50.8003 24.655C51.0503 24.505 51.3803 24.385 51.5903 24.175C52.0903 23.675 51.7303 22.935 51.5603 22.365C51.3003 21.495 51.0403 20.635 50.7703 19.765L50.2603 20.275C51.8503 20.675 53.3803 21.355 54.7003 22.325C55.1303 22.645 55.5503 21.925 55.1203 21.605V21.625Z" fill="black"/>
<path d="M63.9902 66.8351C67.0602 74.8051 71.5402 82.1151 76.0702 89.3251C77.1902 91.1151 78.3202 92.9051 79.4402 94.6951C80.0002 95.6051 80.5702 96.5151 81.1202 97.4251C81.6502 98.2851 82.3801 99.2251 82.5602 100.235C82.9001 102.135 80.4802 103.305 79.1502 104.075C77.4002 105.085 75.5702 105.945 73.6902 106.665C69.8602 108.125 65.8502 109.045 61.8002 109.655C58.4002 110.165 54.9602 110.425 51.5402 110.725C46.1802 111.195 40.8102 111.505 35.4402 111.085C28.4902 110.535 21.6702 108.885 15.0102 106.845C13.9602 106.525 12.9102 106.185 11.8602 105.845L12.1502 106.355C14.4302 99.2951 15.8002 91.9951 17.2102 84.7251C18.6202 77.4551 20.1102 70.5651 22.7802 63.8351C23.1702 62.8551 23.5802 61.8751 24.0202 60.9151C24.3902 60.1051 24.7802 59.2751 25.3502 58.5851C25.9202 57.8951 26.6902 57.4251 27.4402 56.9951C28.1902 56.5651 28.9802 56.2051 29.8302 56.3251C30.0502 56.3551 30.2402 56.1151 30.2502 55.9051C30.2502 55.6551 30.0602 55.5151 29.8302 55.4851C28.3002 55.2851 26.7102 56.3651 25.5502 57.2451C24.2302 58.2451 23.5702 59.8351 22.9302 61.3051C21.4202 64.7451 20.2102 68.3051 19.2102 71.9351C17.2602 79.0351 16.1302 86.3251 14.6102 93.5151C13.7102 97.7651 12.6702 101.995 11.3302 106.125C11.2602 106.345 11.4102 106.565 11.6202 106.635C15.5902 107.935 19.6102 109.115 23.6902 110.045C26.8802 110.775 30.1202 111.355 33.3802 111.705C36.1702 112.005 38.9802 112.135 41.7802 112.105C44.5802 112.075 47.1902 111.905 49.8902 111.685C53.0902 111.425 56.3002 111.175 59.4802 110.785C63.6102 110.285 67.7202 109.525 71.6802 108.235C73.6302 107.605 75.5402 106.845 77.3802 105.945C78.3202 105.485 79.2402 104.985 80.1402 104.435C80.9402 103.955 81.7602 103.455 82.4102 102.785C83.0202 102.155 83.4702 101.325 83.4002 100.415C83.3202 99.3651 82.7102 98.4651 82.1802 97.5851C81.0702 95.7551 79.9402 93.9351 78.8002 92.1251C76.4802 88.4351 74.1402 84.7651 71.9402 81.0051C69.7402 77.2451 67.6902 73.4651 65.9602 69.5051C65.5402 68.5451 65.1402 67.5751 64.7702 66.5951C64.5802 66.1051 63.7802 66.3151 63.9702 66.8151L63.9902 66.8351Z" fill="black"/>
<path d="M75.2303 86.815C72.4803 86.485 69.7303 86.155 66.9803 85.815C66.7203 85.785 66.5003 86.105 66.5803 86.345C67.5503 89.285 68.5303 92.235 69.5003 95.175L69.7903 94.665C67.5603 95.075 65.3603 95.605 63.1903 96.255C62.8403 96.355 62.7903 96.8249 63.0903 97.0149C64.3203 97.7849 65.5403 98.555 66.7703 99.315C67.4003 99.705 68.0303 100.105 68.6603 100.495C69.2503 100.865 70.0103 101.175 70.0003 101.975C69.9803 103.085 69.5103 104.295 69.1903 105.345C68.8703 106.395 68.5103 107.505 68.2303 108.605C68.1003 109.125 68.9003 109.345 69.0303 108.825C69.3403 107.615 69.7303 106.435 70.0903 105.245C70.2703 104.645 70.4403 104.045 70.5803 103.435C70.7203 102.825 70.9303 102.115 70.8003 101.485C70.6803 100.935 70.3003 100.565 69.8503 100.255C69.2003 99.805 68.5003 99.405 67.8303 98.985C66.3903 98.085 64.9603 97.185 63.5203 96.285L63.4203 97.045C65.5903 96.395 67.7903 95.865 70.0203 95.455C70.2303 95.415 70.3803 95.1449 70.3103 94.9449C69.3403 92.0049 68.3603 89.055 67.3903 86.115L66.9903 86.645C69.7403 86.975 72.4903 87.305 75.2403 87.645C75.7703 87.705 75.7703 86.875 75.2403 86.815H75.2303Z" fill="black"/>
<path d="M18.4902 57.7151C18.4902 57.7151 18.5102 57.7551 18.5202 57.7651C18.5602 57.8351 18.4802 57.6451 18.5102 57.7351C18.5202 57.7851 18.5402 57.8351 18.5502 57.8751C18.5502 57.9151 18.5502 57.9951 18.5802 58.0351C18.5502 57.9851 18.5702 57.9251 18.5802 57.9851C18.5802 58.0051 18.5802 58.0151 18.5802 58.0351C18.5802 58.0651 18.5802 58.1051 18.5802 58.1351C18.6002 58.4651 18.5802 58.7951 18.5602 59.1251C18.5402 59.3251 18.5202 59.5151 18.5002 59.7151C18.5002 59.7651 18.4902 59.8251 18.4802 59.8751C18.4802 59.9051 18.4802 59.9351 18.4702 59.9551C18.4702 59.9551 18.4802 59.8551 18.4702 59.9251C18.4502 60.0451 18.4402 60.1651 18.4202 60.2851C18.3502 60.7751 18.2602 61.2551 18.1702 61.7351C17.7702 63.8051 17.2502 65.8551 16.6702 67.8851C16.4702 68.5951 16.2602 69.3051 16.0202 69.9951C15.9802 70.1051 15.9402 70.2151 15.9002 70.3251C15.8702 70.3951 15.8402 70.4751 15.9002 70.3451C15.8702 70.4051 15.8502 70.4651 15.8202 70.5351C15.7502 70.7151 15.7002 70.8951 15.6502 71.0751C15.2502 72.4451 14.8702 73.8251 14.3502 75.1551C14.3102 75.2651 14.2602 75.3751 14.2202 75.4851C14.2002 75.5351 14.1802 75.5751 14.1602 75.6251C14.1502 75.6551 14.1402 75.6751 14.1302 75.7051C14.1802 75.5951 14.1302 75.7251 14.1102 75.7451C14.0202 75.9551 13.9202 76.1751 13.8302 76.3851C13.6202 76.8251 13.4002 77.2651 13.1602 77.6951C12.9202 78.1251 12.6602 78.5351 12.3802 78.9351C12.3102 79.0451 12.2302 79.1451 12.1502 79.2451C12.1202 79.2851 12.0902 79.3351 12.0502 79.3751C11.9802 79.4651 12.1002 79.3051 12.0402 79.3951C12.0102 79.4251 11.9902 79.4651 11.9602 79.4951C11.8002 79.6851 11.6402 79.8751 11.4802 80.0651C11.1402 80.4451 10.7702 80.8051 10.3702 81.1251C10.3302 81.1551 10.2902 81.1951 10.2402 81.2251C10.2102 81.2451 10.1902 81.2651 10.1602 81.2851C10.2402 81.2251 10.1602 81.2851 10.1402 81.3051C10.0302 81.3851 9.93021 81.4651 9.82022 81.5351C9.61022 81.6851 9.39021 81.8151 9.17021 81.9451C8.93021 82.0851 8.69021 82.2051 8.44021 82.3151C8.39021 82.3351 8.34021 82.3651 8.28021 82.3851C8.17021 82.4351 8.36021 82.3551 8.25021 82.3951C8.22021 82.4051 8.19021 82.4251 8.15021 82.4351C8.02021 82.4851 7.89021 82.5351 7.76021 82.5851C7.23021 82.7651 6.65021 82.9251 6.09021 82.9851C6.17021 82.9851 6.06021 82.9851 6.03021 82.9851C5.96021 82.9851 5.90021 82.9851 5.83021 82.9751C5.81021 82.9751 5.79021 82.9751 5.76021 82.9751C5.65021 82.9651 5.82021 82.9751 5.79021 82.9751C5.74021 82.9751 5.68021 82.9551 5.63021 82.9451C5.51021 82.9251 5.39021 82.8951 5.27021 82.8651C5.13021 82.8351 4.99021 82.7951 4.85021 82.7451C4.78021 82.7251 4.70021 82.6951 4.63021 82.6651C4.60021 82.6551 4.57021 82.6351 4.53021 82.6251C4.45021 82.5951 4.63021 82.6651 4.55021 82.6251C4.52021 82.6151 4.50021 82.6051 4.47021 82.5951C4.32021 82.5251 4.16021 82.4451 4.02021 82.3651C3.95021 82.3251 3.88021 82.2751 3.81021 82.2251C3.77021 82.1951 3.73021 82.1751 3.69021 82.1451C3.67021 82.1351 3.65021 82.1151 3.63021 82.1051C3.57021 82.0551 3.71021 82.1651 3.63021 82.1051C3.48021 81.9751 3.34021 81.8551 3.20021 81.7051C3.14021 81.6351 3.08021 81.5651 3.02021 81.4851C3.10021 81.5851 2.99021 81.4451 2.97021 81.4251C2.94021 81.3851 2.91021 81.3351 2.88021 81.2951C2.82021 81.2051 2.77021 81.1251 2.73021 81.0351C2.70021 80.9851 2.68021 80.9351 2.65021 80.8851C2.64021 80.8551 2.63021 80.8351 2.61021 80.8051C2.61021 80.7851 2.59021 80.7651 2.59021 80.7551C2.61021 80.8051 2.61021 80.8151 2.60021 80.7851C2.52021 80.5451 2.44021 80.3251 2.38021 80.0751C2.35021 79.9551 2.33021 79.8251 2.31021 79.7051C2.32021 79.8051 2.31021 79.6851 2.31021 79.6751C2.31021 79.6351 2.31021 79.6051 2.30021 79.5651C2.30021 79.4951 2.29021 79.4151 2.28021 79.3451C2.26021 79.0151 2.28021 78.6851 2.30021 78.3651C2.33021 78.0651 2.37021 77.8151 2.42021 77.4851C2.46021 77.2051 2.51021 76.9251 2.56021 76.6451C2.74021 75.5951 2.97021 74.5451 3.27021 73.5251C3.41021 73.0451 3.57021 72.5651 3.74021 72.0951C3.83021 71.8451 3.92021 71.5951 4.02021 71.3451C4.07021 71.2251 4.11021 71.1151 4.16021 70.9951C4.18021 70.9451 4.20021 70.8851 4.23021 70.8351C4.27021 70.7251 4.20021 70.9151 4.24021 70.8051C4.26021 70.7651 4.28021 70.7251 4.29021 70.6751C5.35021 68.2151 6.71021 65.8951 8.07021 63.5951C8.52021 62.8451 8.97021 62.0851 9.42021 61.3351C9.70021 60.8751 8.98021 60.4551 8.70021 60.9151C7.13021 63.5251 5.53021 66.1351 4.20021 68.8851C3.25021 70.8451 2.50021 72.8751 2.04021 75.0051C1.92021 75.5551 1.81021 76.1151 1.72021 76.6751C1.61021 77.3151 1.49021 77.9751 1.46021 78.6251C1.40021 79.7251 1.59021 80.8751 2.21021 81.8051C3.02021 83.0051 4.39021 83.6651 5.80021 83.8251C5.90021 83.8351 6.01021 83.8451 6.11021 83.8451C6.43021 83.8251 6.76021 83.7451 7.07021 83.6751C7.35021 83.6151 7.63021 83.5351 7.90021 83.4451C8.97021 83.0851 9.95021 82.5351 10.8302 81.8251C12.4402 80.5351 13.6102 78.7651 14.4902 76.9151C15.2102 75.3851 15.7402 73.7751 16.2002 72.1551C16.3302 71.7051 16.4402 71.2351 16.6002 70.7951C16.6002 70.7751 16.6102 70.7651 16.6202 70.7451C16.6402 70.6751 16.5702 70.8751 16.6002 70.7851C16.6302 70.7151 16.6602 70.6451 16.6902 70.5751C16.7302 70.4651 16.7702 70.3551 16.8102 70.2451C16.9202 69.9351 17.0102 69.6351 17.1102 69.3251C17.7102 67.3851 18.2202 65.4051 18.6702 63.4251C18.9002 62.4151 19.1002 61.3951 19.2502 60.3751C19.3602 59.6251 19.4802 58.8351 19.4102 58.0751C19.3902 57.8151 19.3502 57.5451 19.2102 57.3151C18.9402 56.8551 18.2202 57.2751 18.4902 57.7351V57.7151Z" fill="black"/>
<path d="M19.5803 57.5051C19.5803 57.5051 19.6503 57.4851 19.6803 57.4751C19.7503 57.4551 19.5703 57.4751 19.6503 57.4751C19.6603 57.4751 19.6803 57.4751 19.6903 57.4751C19.7003 57.4751 19.7203 57.4751 19.7403 57.4751C19.8103 57.4751 19.7103 57.5051 19.6903 57.4751C19.6903 57.4751 19.7903 57.4951 19.7903 57.5051C19.7803 57.5151 19.6803 57.4451 19.7703 57.5051C19.8603 57.5651 19.7603 57.5051 19.7703 57.4951C19.7703 57.4951 19.8303 57.5451 19.8303 57.5551C19.8403 57.5651 19.8503 57.5851 19.8703 57.5951C19.9203 57.6451 19.8203 57.5051 19.8503 57.5651C19.8803 57.6251 19.9203 57.6751 19.9503 57.7351C19.9503 57.7451 19.9603 57.7651 19.9703 57.7751C20.0103 57.8451 19.9403 57.6751 19.9703 57.7551C19.9803 57.7951 20.0003 57.8251 20.0103 57.8651C20.0603 58.0251 20.1003 58.1951 20.1303 58.3651C20.1303 58.3851 20.1503 58.5151 20.1403 58.4351C20.1303 58.3551 20.1403 58.4851 20.1403 58.5151C20.1503 58.6151 20.1603 58.7151 20.1703 58.8151C20.1803 58.9951 20.1903 59.1751 20.1903 59.3551C20.1903 59.6751 20.1903 59.9851 20.1603 60.3051C20.1403 60.5551 20.0703 60.8151 20.2503 61.0251C20.4003 61.2051 20.6803 61.1551 20.8403 61.0251C20.9403 60.9351 20.9703 60.7751 21.0003 60.6551C21.0403 60.5151 21.0903 60.3651 21.1303 60.2251C21.1703 60.0951 21.2203 59.9651 21.2703 59.8351C21.3303 59.6851 21.3703 59.5651 21.4203 59.4551C21.5403 59.1751 21.6903 58.9151 21.8703 58.6651C21.8703 58.6651 21.9203 58.6051 21.8703 58.6551C21.8903 58.6251 21.9103 58.6051 21.9303 58.5751C21.9703 58.5351 22.0103 58.4851 22.0503 58.4451C22.0803 58.4151 22.1103 58.3951 22.1303 58.3651C22.1503 58.3451 22.1903 58.3151 22.1303 58.3651C22.1803 58.3251 22.2303 58.2951 22.2803 58.2651C22.4003 58.1851 22.5203 58.1151 22.6503 58.0451C22.7103 58.0151 22.7703 57.9851 22.8303 57.9551C22.8603 57.9351 22.9003 57.9251 22.9303 57.9051C23.0103 57.8651 22.8303 57.9451 22.9103 57.9051C22.9303 57.9051 22.9503 57.8851 22.9703 57.8751C23.1303 57.8151 23.2903 57.7651 23.4503 57.7251C23.5403 57.7051 23.6403 57.6851 23.7403 57.6651C23.7903 57.6651 23.8403 57.6451 23.9003 57.6351C23.9303 57.6351 23.9503 57.6351 23.9803 57.6251C24.0103 57.6251 24.0003 57.6251 23.9503 57.6251C23.9703 57.6251 24.0003 57.6251 24.0203 57.6251C24.7403 57.5351 25.4703 57.5451 26.1903 57.5651C26.4103 57.5651 26.6103 57.3651 26.6103 57.1451C26.6103 56.9251 26.4203 56.7351 26.1903 56.7251C25.5103 56.7051 24.8303 56.7051 24.1603 56.7751C23.7203 56.8151 23.2703 56.8851 22.8503 57.0351C22.5303 57.1451 22.2303 57.2951 21.9503 57.4651C21.4603 57.7651 21.1103 58.1751 20.8403 58.6851C20.6703 59.0151 20.5303 59.3551 20.4003 59.7051C20.3403 59.8651 20.2903 60.0351 20.2403 60.1951C20.2203 60.2751 20.1903 60.3451 20.1703 60.4251C20.1703 60.4451 20.1603 60.4751 20.1503 60.4951C20.1503 60.5151 20.1403 60.5451 20.1303 60.5651C20.1003 60.6651 20.1303 60.6151 20.2303 60.4151H20.8203C20.8603 60.4751 20.8903 60.5351 20.9303 60.5951C20.9703 60.7951 20.9503 60.6551 20.9503 60.5651C20.9503 60.4551 20.9703 60.3451 20.9703 60.2351C20.9903 59.9051 21.0003 59.5751 21.0003 59.2451C21.0003 58.8351 20.9703 58.4151 20.8903 58.0151C20.8203 57.6551 20.7103 57.2951 20.4703 57.0051C20.2003 56.6651 19.7703 56.5551 19.3603 56.6851C19.1403 56.7451 19.0103 56.9751 19.0703 57.1951C19.1303 57.4151 19.3703 57.5451 19.5803 57.4851V57.5051Z" fill="black"/>
<path d="M1.46013 78.9651C1.28013 79.5351 1.19013 80.1351 1.12013 80.7251C1.03013 81.4751 0.980127 82.2451 0.980127 83.0051C0.970127 83.8851 1.00013 84.7751 1.08013 85.6551C1.16013 86.6151 1.30013 87.5751 1.49013 88.5151C1.68013 89.4551 1.92013 90.3251 2.25013 91.2051C2.58013 92.0851 2.96013 92.8751 3.47013 93.6251C3.98013 94.3751 4.55013 94.9951 5.25013 95.5151C5.95013 96.0351 6.71013 96.3551 7.53013 96.5151C8.51013 96.7051 9.51013 96.6551 10.4801 96.4551C11.7101 96.1951 12.8901 95.6851 13.9901 95.0951C14.3101 94.9251 14.6301 94.7351 14.9401 94.5451C15.4001 94.2651 14.9801 93.5451 14.5201 93.8251C13.9201 94.1951 13.3001 94.5351 12.6601 94.8351C12.5201 94.9051 12.3701 94.9651 12.2201 95.0351C12.1801 95.0551 12.2301 95.0351 12.2401 95.0351C12.2201 95.0351 12.2001 95.0551 12.1801 95.0651C12.1501 95.0751 12.1201 95.0951 12.0801 95.1051C12.0101 95.1351 11.9301 95.1651 11.8601 95.1951C11.5901 95.2951 11.3201 95.3951 11.0401 95.4751C10.7801 95.5551 10.5201 95.6151 10.2601 95.6751C10.1301 95.7051 10.0001 95.7251 9.87013 95.7451C9.82013 95.7451 9.76013 95.7651 9.71013 95.7751C9.64013 95.7851 9.80013 95.7651 9.70013 95.7751C9.67013 95.7751 9.64013 95.7751 9.61013 95.7851C9.15013 95.8351 8.69013 95.8451 8.23013 95.8051C8.18013 95.8051 8.13013 95.7951 8.08013 95.7851C8.06013 95.7851 8.03013 95.7851 8.01013 95.7851C8.07013 95.7851 8.09013 95.8051 8.01013 95.7851C7.91013 95.7651 7.80013 95.7551 7.70013 95.7251C7.50013 95.6851 7.30013 95.6351 7.11013 95.5651C7.02013 95.5351 6.92013 95.4951 6.83013 95.4651C6.81013 95.4651 6.79013 95.4451 6.77013 95.4451C6.69013 95.4151 6.79013 95.4451 6.77013 95.4451C6.72013 95.4251 6.68013 95.4051 6.63013 95.3851C6.45013 95.3051 6.28013 95.2151 6.11013 95.1051C5.94013 94.9951 5.78013 94.8951 5.63013 94.7751C5.57013 94.7751 5.58013 94.7351 5.63013 94.7751C5.61013 94.7751 5.59013 94.7451 5.58013 94.7351C5.54013 94.7051 5.50013 94.6751 5.46013 94.6351C5.38013 94.5751 5.31013 94.5051 5.24013 94.4451C5.09013 94.3151 4.95013 94.1651 4.82013 94.0251C4.75013 93.9551 4.69013 93.8751 4.62013 93.7951C4.59013 93.7551 4.56013 93.7151 4.53013 93.6851C4.51013 93.6651 4.50013 93.6451 4.48013 93.6251C4.48013 93.6251 4.47013 93.6051 4.46013 93.5951C4.43013 93.5551 4.51013 93.6651 4.48013 93.6251C3.97013 92.9351 3.56013 92.1951 3.22013 91.4051C3.19013 91.3351 3.25013 91.4851 3.22013 91.4051C3.21013 91.3751 3.20013 91.3551 3.19013 91.3251C3.17013 91.2751 3.15013 91.2151 3.13013 91.1651C3.09013 91.0651 3.05013 90.9551 3.01013 90.8551C2.93013 90.6451 2.86013 90.4251 2.79013 90.2151C2.65013 89.7751 2.53013 89.3351 2.42013 88.8851C2.31013 88.4351 2.22013 87.9751 2.14013 87.5251C2.10013 87.2951 2.07013 87.0651 2.03013 86.8351C2.03013 86.8051 2.03013 86.7751 2.02013 86.7451C2.02013 86.7151 2.03013 86.8351 2.02013 86.7451C2.02013 86.6851 2.00013 86.6251 2.00013 86.5651C1.99013 86.4551 1.97013 86.3351 1.96013 86.2251C1.86013 85.3451 1.81013 84.4551 1.80013 83.5751C1.80013 82.7851 1.82013 82.0051 1.89013 81.2251C1.91013 81.0551 1.92013 80.8851 1.95013 80.7151C1.95013 80.6751 1.96013 80.6351 1.96013 80.5951C1.96013 80.5251 1.95013 80.7051 1.96013 80.6351C1.96013 80.6151 1.96013 80.5851 1.96013 80.5651C1.97013 80.4851 1.98013 80.4151 1.99013 80.3351C2.03013 80.0651 2.09013 79.7851 2.15013 79.5151C2.18013 79.4051 2.21013 79.2951 2.24013 79.1851C2.31013 78.9751 2.16013 78.7351 1.95013 78.6751C1.73013 78.6151 1.51013 78.7551 1.44013 78.9651H1.46013Z" fill="black"/>
<path d="M79.9203 62.5949C79.3903 62.8849 79.1203 63.5349 78.9003 64.0649C78.5903 64.8249 78.3903 65.6249 78.2203 66.4149C77.8403 68.1149 77.5903 69.8449 77.3703 71.5649C77.2603 72.4349 77.1603 73.2849 77.1403 74.1549C77.1003 75.6149 77.1703 77.0749 77.3503 78.5149C77.5803 80.3949 77.9703 82.2649 78.6203 84.0349C79.3203 85.9249 80.3103 87.7249 81.7103 89.1949C82.2803 89.7949 82.9303 90.3049 83.5903 90.8149C83.8803 91.0449 84.1803 91.2649 84.4703 91.4949C84.7803 91.7349 85.1303 91.7949 85.5103 91.8049C85.9703 91.8149 86.4503 91.7649 86.9003 91.6549C87.1003 91.6049 87.2903 91.5449 87.4703 91.4449C87.6903 91.3249 87.8203 91.1349 87.9403 90.9249C88.2903 90.3149 88.4903 89.6349 88.6303 88.9549C88.7803 88.2349 88.8903 87.5049 88.9603 86.7749C89.2403 84.1649 88.9403 81.5649 88.2703 79.0349C87.6003 76.5049 86.6203 74.0449 85.8103 71.5449C85.5903 70.8749 85.3903 70.2049 85.1903 69.5249C85.0403 69.0149 84.2403 69.2249 84.3903 69.7449C85.1203 72.3149 86.0903 74.8149 86.9003 77.3549C87.6603 79.7149 88.2103 82.0849 88.2303 84.5449C88.2403 85.8949 88.1003 87.2449 87.8503 88.5749C87.7303 89.2049 87.5703 89.8449 87.2603 90.4049C87.2203 90.4849 87.1703 90.5649 87.1303 90.6349C87.1303 90.6449 87.0803 90.7249 87.0703 90.7249C87.0903 90.7249 87.1403 90.6349 87.1103 90.6749C87.1103 90.6849 87.0903 90.6949 87.0803 90.7049C87.0403 90.7349 87.1803 90.6449 87.1103 90.6849C87.0803 90.7049 87.0503 90.7249 87.0103 90.7349C86.9103 90.7849 87.0803 90.7149 86.9703 90.7549C86.9303 90.7649 86.9003 90.7849 86.8603 90.7949C86.7603 90.8249 86.6603 90.8549 86.5603 90.8749C86.4603 90.8949 86.3603 90.9149 86.2603 90.9249C86.3603 90.9149 86.2003 90.9249 86.1803 90.9249C86.1203 90.9249 86.0503 90.9349 85.9903 90.9449C85.7803 90.9549 85.5803 90.9649 85.3703 90.9449C85.3303 90.9449 85.2803 90.9349 85.2403 90.9349C85.3603 90.9349 85.2403 90.9349 85.2103 90.9349C85.1803 90.9349 85.1403 90.9149 85.1103 90.9049C85.1003 90.9049 85.0803 90.8949 85.0703 90.8949C85.0003 90.8749 85.1603 90.9349 85.1003 90.9049C84.9903 90.8449 85.1703 90.9749 85.0703 90.8949C85.0203 90.8549 84.9703 90.8149 84.9203 90.7749C84.3403 90.3249 83.7503 89.8949 83.1903 89.4149C82.8103 89.0949 82.4603 88.7449 82.1203 88.3749C81.9603 88.1949 81.8003 88.0149 81.6503 87.8249C81.6103 87.7749 81.5803 87.7349 81.5403 87.6849C81.5203 87.6549 81.5003 87.6349 81.4803 87.6049C81.4103 87.5049 81.3303 87.4049 81.2603 87.3049C80.7003 86.5149 80.2403 85.6749 79.8403 84.7949C79.8103 84.7349 79.7903 84.6749 79.7603 84.6149C79.7503 84.5949 79.7003 84.4649 79.7303 84.5349C79.6803 84.4149 79.6303 84.2949 79.5903 84.1849C79.5003 83.9649 79.4203 83.7349 79.3403 83.5049C79.1803 83.0549 79.0403 82.6049 78.9203 82.1549C78.6803 81.2749 78.4903 80.3749 78.3403 79.4749C78.3103 79.2649 78.2703 79.0449 78.2403 78.8349C78.2203 78.7249 78.2403 78.8949 78.2403 78.8349C78.2403 78.8049 78.2403 78.7749 78.2303 78.7549C78.2303 78.7049 78.2203 78.6649 78.2103 78.6149C78.2003 78.5049 78.1803 78.3949 78.1703 78.2749C78.1203 77.8649 78.0903 77.4549 78.0603 77.0449C78.0103 76.3349 77.9803 75.6249 77.9803 74.9249C77.9803 74.0649 78.0103 73.2049 78.1203 72.3549C78.1503 72.0849 78.1903 71.8149 78.2203 71.5449C78.2403 71.3749 78.2603 71.2149 78.2903 71.0449C78.2903 71.1149 78.3003 70.9449 78.2903 71.0449C78.2903 71.0249 78.2903 70.9949 78.2903 70.9749C78.2903 70.9349 78.3003 70.8949 78.3103 70.8549C78.3203 70.7549 78.3403 70.6549 78.3503 70.5449C78.4703 69.6849 78.6003 68.8249 78.7603 67.9749C78.9203 67.1249 79.1003 66.2449 79.3403 65.4049C79.4403 65.0349 79.5603 64.6749 79.7003 64.3149C79.7103 64.2749 79.7303 64.2349 79.7503 64.2049C79.7903 64.1149 79.7203 64.2749 79.7603 64.1749C79.7903 64.0949 79.8303 64.0249 79.8603 63.9449C79.9203 63.8249 79.9903 63.7049 80.0603 63.5849C80.0803 63.5549 80.0903 63.5349 80.1103 63.5149C80.1203 63.4949 80.1803 63.4149 80.1303 63.4849C80.0803 63.5549 80.1403 63.4749 80.1503 63.4549C80.1703 63.4349 80.1803 63.4149 80.2003 63.3949C80.2303 63.3649 80.2803 63.3349 80.3103 63.2949C80.2903 63.3149 80.2203 63.3449 80.2903 63.3149C80.3103 63.3049 80.3303 63.2849 80.3503 63.2749C80.5503 63.1649 80.6103 62.8949 80.5003 62.7049C80.3803 62.5049 80.1303 62.4449 79.9303 62.5549L79.9203 62.5949Z" fill="black"/>
<path d="M18.22 57.7451C20.31 54.1551 30.95 47.7651 32.11 47.0451C33.49 46.1951 33.7 43.7751 34.6 42.4351C34.79 42.1551 35.23 41.4151 35.27 41.0851C35.39 40.1651 34.34 39.3951 33.42 39.5351C32.5 39.6751 31.79 40.8051 31.37 41.6351C31.35 41.6751 30.69 42.3151 30.65 42.2951" fill="#F1E0C6"/>
<path d="M18.5801 57.9551C18.6701 57.8051 18.7701 57.6551 18.8701 57.5051C18.9001 57.4651 18.9301 57.4251 18.9601 57.3851C18.9601 57.3751 18.9801 57.3551 18.9901 57.3451C18.9301 57.4251 19.0401 57.2751 18.9901 57.3451C19.0501 57.2651 19.1201 57.1851 19.1801 57.1051C19.4701 56.7551 19.7801 56.4351 20.1101 56.1151C20.8801 55.3651 21.7001 54.6751 22.5401 54.0051C22.6501 53.9251 22.7501 53.8351 22.8601 53.7551C22.8901 53.7351 22.9201 53.7051 22.9501 53.6851C22.9701 53.6751 23.0101 53.6351 22.9501 53.6851C23.0201 53.6351 23.0901 53.5751 23.1601 53.5251C23.4001 53.3451 23.6401 53.1651 23.8801 52.9851C24.3601 52.6351 24.8401 52.2851 25.3301 51.9451C26.2601 51.2851 27.2101 50.6451 28.1601 50.0251C29.4601 49.1751 30.7701 48.3451 32.0901 47.5451C32.3701 47.3751 32.6501 47.1951 32.8801 46.9451C33.3301 46.4551 33.6201 45.8451 33.8601 45.2351C33.9801 44.9351 34.0901 44.6251 34.2001 44.3251C34.2601 44.1651 34.3101 44.0051 34.3701 43.8551C34.3901 43.7951 34.4201 43.7251 34.4401 43.6651C34.4601 43.6251 34.4701 43.5851 34.4901 43.5551C34.5001 43.5251 34.5101 43.5051 34.5201 43.4751C34.5001 43.5151 34.5101 43.5051 34.5201 43.4651C34.7601 42.9251 35.1101 42.4451 35.3801 41.9251C35.5301 41.6351 35.6701 41.3351 35.6901 41.0151C35.7101 40.6551 35.5901 40.2851 35.3801 40.0051C34.9501 39.4151 34.2001 39.0451 33.4601 39.1251C32.6801 39.2051 32.1101 39.7551 31.6601 40.3551C31.4601 40.6251 31.2801 40.9251 31.1201 41.2151C31.1001 41.2451 31.0001 41.3951 31.0101 41.4351C31.0101 41.4051 31.1101 41.3151 31.0201 41.4051C30.9501 41.4851 30.8701 41.5551 30.8001 41.6251C30.7201 41.7051 30.6401 41.7851 30.5501 41.8551C30.5101 41.8851 30.4801 41.9151 30.4401 41.9551C30.3801 42.0051 30.5301 41.8951 30.4701 41.9351C30.4301 41.9651 30.4401 41.9351 30.5401 41.9051H30.7601C30.5401 41.8751 30.3101 41.9551 30.2501 42.1951C30.2001 42.3951 30.3201 42.6751 30.5401 42.7051C30.8501 42.7551 31.0401 42.5451 31.2501 42.3451C31.3901 42.2151 31.5301 42.0851 31.6501 41.9451C31.7501 41.8351 31.8001 41.6951 31.8801 41.5651C31.9701 41.4151 32.0501 41.2551 32.1501 41.1151C32.3401 40.8251 32.5001 40.6051 32.7601 40.3551C32.9701 40.1551 33.1801 40.0351 33.4501 39.9551C33.5601 39.9251 33.3801 39.9551 33.5001 39.9551C33.5401 39.9551 33.5801 39.9551 33.6201 39.9551C33.6901 39.9551 33.7601 39.9551 33.8301 39.9651C33.7401 39.9551 33.8801 39.9751 33.8801 39.9751C33.9201 39.9751 33.9601 39.9951 34.0001 40.0051C34.0401 40.0151 34.0801 40.0351 34.1201 40.0451C34.2001 40.0751 34.0901 40.0251 34.1701 40.0651C34.2401 40.1051 34.3201 40.1451 34.3901 40.1851C34.3901 40.1851 34.5001 40.2651 34.4401 40.2151C34.4601 40.2351 34.4801 40.2451 34.5001 40.2651C34.6401 40.3951 34.6901 40.4451 34.7601 40.5851C34.7801 40.6151 34.8001 40.6551 34.8101 40.6851C34.7801 40.6051 34.8101 40.7251 34.8201 40.7351C34.8301 40.7751 34.8401 40.8151 34.8501 40.8451C34.8701 40.9551 34.8501 40.7751 34.8501 40.8951C34.8501 40.9351 34.8301 41.1151 34.8501 41.0051C34.8401 41.0751 34.8101 41.1451 34.7901 41.2051C34.7901 41.2251 34.7701 41.2451 34.7601 41.2751C34.7901 41.1951 34.7401 41.3151 34.7401 41.3151C34.7101 41.3951 34.6701 41.4651 34.6301 41.5351C34.5501 41.6851 34.4701 41.8251 34.3901 41.9651C34.2501 42.1951 34.1001 42.4151 33.9801 42.6551C33.6801 43.2351 33.4701 43.8551 33.2501 44.4651C33.2001 44.6151 33.1401 44.7551 33.0901 44.8951C33.0601 44.9751 33.0301 45.0551 33.0001 45.1251C32.9501 45.2551 33.0301 45.0551 32.9801 45.1751C32.9601 45.2151 32.9501 45.2551 32.9301 45.2851C32.8001 45.5651 32.6601 45.8451 32.4801 46.0951C32.4601 46.1251 32.4401 46.1451 32.4301 46.1751C32.3601 46.2751 32.4801 46.1151 32.4001 46.2051C32.3501 46.2651 32.3101 46.3151 32.2501 46.3751C32.2101 46.4151 32.1601 46.4651 32.1201 46.5051C32.0901 46.5251 32.0701 46.5551 32.0401 46.5751C32.0001 46.6051 32.0001 46.6051 32.0401 46.5751C32.0201 46.5851 32.0001 46.6051 31.9801 46.6151C31.9001 46.6651 31.8201 46.7151 31.7401 46.7651C30.5001 47.5251 29.2801 48.2851 28.0601 49.0851C26.1601 50.3251 24.2801 51.6151 22.4901 52.9951C21.6101 53.6751 20.7501 54.3751 19.9301 55.1251C19.2801 55.7251 18.6501 56.3651 18.1301 57.0951C18.0301 57.2351 17.9401 57.3751 17.8501 57.5251C17.5801 57.9851 18.3001 58.4051 18.5701 57.9451L18.5801 57.9551Z" fill="black"/>
<path d="M25.7402 47.4651C26.1502 45.9951 27.1302 44.7151 28.4502 43.9451C28.9102 43.6751 28.4902 42.9551 28.0302 43.2251C26.5302 44.0951 25.4002 45.5651 24.9302 47.2451C24.7902 47.7651 25.5902 47.9851 25.7302 47.4651H25.7402Z" fill="black"/>
<path d="M22.0502 44.6451C21.7502 43.8851 21.6002 43.0851 21.4002 42.3051C21.3102 41.9651 21.1902 41.6251 21.0702 41.2951C21.0402 41.2051 21.0302 41.1251 21.0102 41.0351C20.9902 40.9451 21.0102 41.1251 21.0102 41.0351C21.0102 41.0051 21.0102 40.9751 21.0102 40.9451C21.0102 40.8851 21.0102 40.8251 21.0002 40.7651C20.9702 40.1751 21.0402 39.6051 21.1302 39.0751C21.2302 38.5051 21.3602 37.9351 21.5602 37.3951C21.5702 37.3651 21.6402 37.1951 21.6002 37.2851C21.6202 37.2351 21.6502 37.1751 21.6702 37.1251C21.7202 37.0351 21.7702 36.9451 21.8302 36.8551C22.0002 36.5951 22.1702 36.3251 22.3302 36.0551C22.6702 35.5051 22.9802 34.9951 23.4602 34.5751C23.4902 34.5551 23.5102 34.5251 23.5402 34.5051C23.4702 34.5551 23.5602 34.4851 23.5702 34.4851C23.6202 34.4451 23.6802 34.4151 23.7402 34.3851C23.7602 34.3851 23.7802 34.3651 23.8002 34.3551C23.7102 34.3951 23.8002 34.3551 23.8202 34.3551C23.8502 34.3551 23.8802 34.3351 23.9102 34.3351C23.9302 34.3351 23.9502 34.3351 23.9702 34.3251C23.9102 34.3251 23.9102 34.3251 23.9502 34.3251C24.0002 34.3251 24.0502 34.3251 24.1002 34.3251C24.0002 34.3151 24.1002 34.3251 24.1202 34.3251C24.0402 34.2951 24.1702 34.3451 24.1802 34.3451C24.2402 34.3751 24.3002 34.4151 24.3602 34.4551C24.3002 34.4151 24.4002 34.4951 24.4002 34.4951C24.4402 34.5251 24.4702 34.5651 24.5102 34.6051C24.5802 34.6851 24.4802 34.5451 24.5402 34.6451C24.5502 34.6651 24.5702 34.6851 24.5802 34.7051C24.6002 34.7351 24.6202 34.7651 24.6302 34.8051C24.5902 34.7351 24.6402 34.8351 24.6502 34.8451C24.6702 34.9151 24.6902 34.9851 24.7002 35.0651C24.7002 35.0851 24.7202 35.1451 24.7002 35.0651C24.7002 35.1151 24.7002 35.1651 24.7002 35.2151C24.7002 35.4651 24.6302 35.7851 24.5202 36.0251C24.3202 36.4651 24.1002 36.8751 23.9302 37.3251C23.7802 37.7351 23.6602 38.1651 23.5602 38.5951C23.4802 38.9551 23.4202 39.3251 23.3702 39.6951C23.3502 39.8551 23.3302 40.0251 23.3102 40.1851C23.3102 40.2451 23.3002 40.3051 23.2902 40.3551C23.2902 40.3951 23.2602 40.5751 23.2902 40.4251C23.2602 40.6351 23.3402 40.8451 23.5702 40.9151C23.7502 40.9651 24.0302 40.8551 24.0602 40.6351C24.0902 40.3851 24.1202 40.1351 24.1502 39.8851C24.1402 39.9851 24.1502 39.8651 24.1502 39.8451C24.1502 39.8051 24.1602 39.7751 24.1702 39.7351C24.1802 39.6551 24.1902 39.5751 24.2102 39.5051C24.2402 39.3151 24.2702 39.1351 24.3102 38.9451C24.4802 38.1151 24.7502 37.3351 25.1402 36.5851C25.4802 35.9251 25.6502 35.1351 25.3302 34.4351C25.0502 33.8051 24.3102 33.3551 23.6202 33.5751C22.9302 33.7951 22.4902 34.3951 22.1102 34.9451C21.9102 35.2351 21.7202 35.5251 21.5402 35.8251C21.3802 36.0851 21.2002 36.3351 21.0602 36.5951C20.7802 37.0951 20.6202 37.6651 20.5002 38.2251C20.3502 38.8751 20.2502 39.5351 20.2202 40.2051C20.2002 40.5351 20.2202 40.8551 20.2602 41.1851C20.3102 41.4951 20.4402 41.7751 20.5302 42.0651C20.8102 42.9851 20.9602 43.9551 21.3102 44.8551C21.3902 45.0551 21.5702 45.1951 21.8002 45.1351C21.9902 45.0851 22.1502 44.8451 22.0802 44.6451H22.0502Z" fill="black"/>
<path d="M21.3101 44.535C21.2701 44.585 21.4001 44.425 21.3401 44.495C21.3201 44.515 21.3101 44.525 21.3001 44.545C21.2601 44.585 21.2201 44.625 21.1801 44.665C21.0701 44.775 20.9501 44.875 20.8301 44.985C20.4601 45.305 20.0901 45.615 19.7101 45.925C18.5901 46.845 17.4501 47.755 16.3301 48.675C14.9901 49.765 13.6501 50.875 12.3401 52.005C11.1501 53.035 9.97014 54.075 8.86014 55.195C8.44014 55.615 8.04014 56.045 7.67014 56.505C7.38014 56.865 7.10014 57.245 6.92014 57.685C6.89014 57.745 6.87014 57.815 6.86014 57.885C6.81014 58.105 6.93014 58.335 7.15014 58.395C7.37014 58.455 7.61014 58.325 7.66014 58.105C7.66014 58.075 7.68014 58.045 7.69014 58.015C7.69014 57.985 7.75014 57.865 7.71014 57.955C7.67014 58.045 7.73014 57.925 7.74014 57.895C7.76014 57.855 7.78014 57.815 7.80014 57.775C7.90014 57.595 8.02014 57.425 8.14014 57.255C8.16014 57.235 8.17014 57.215 8.19014 57.185C8.12014 57.265 8.24014 57.115 8.19014 57.185C8.23014 57.135 8.27014 57.085 8.31014 57.035C8.39014 56.935 8.48014 56.835 8.57014 56.735C8.77014 56.505 8.98014 56.285 9.18014 56.065C10.2401 54.965 11.3801 53.945 12.5301 52.945C13.8401 51.805 15.1701 50.695 16.5201 49.595C17.6801 48.645 18.8501 47.705 20.0101 46.755C20.4201 46.425 20.8201 46.085 21.2201 45.745C21.4501 45.545 21.6901 45.355 21.9001 45.125C21.9501 45.075 21.9901 45.015 22.0301 44.965C22.1601 44.785 22.0601 44.505 21.8801 44.395C21.6701 44.275 21.4401 44.365 21.3101 44.545V44.535Z" fill="black"/>
<path d="M25.7202 35.125C25.8002 34.865 25.8602 34.605 25.9502 34.355C26.0002 34.195 26.0302 34.125 26.0902 34.015C26.1202 33.955 26.1602 33.895 26.1902 33.835C26.2002 33.815 26.2402 33.785 26.1902 33.835C26.2102 33.815 26.3002 33.745 26.2102 33.805C26.2502 33.775 26.3402 33.725 26.3602 33.715C26.4002 33.695 26.4402 33.685 26.4902 33.675C26.4902 33.675 26.6202 33.655 26.5402 33.665C26.5802 33.665 26.6102 33.665 26.6502 33.665C26.5802 33.645 26.6302 33.665 26.6502 33.665C26.6802 33.665 26.7102 33.685 26.7502 33.695C26.6602 33.665 26.7802 33.715 26.8002 33.725C26.8202 33.735 26.8402 33.745 26.8502 33.765C26.7702 33.715 26.8502 33.765 26.8702 33.785C26.8902 33.805 27.0102 33.945 26.9502 33.865C27.0102 33.945 27.0702 34.035 27.1102 34.135C27.3802 34.715 27.1102 35.395 26.9102 36.015C26.7902 36.385 26.6702 36.755 26.6102 37.145C26.6002 37.245 26.5802 37.345 26.5702 37.445C26.5702 37.445 26.5502 37.585 26.5702 37.515C26.5702 37.555 26.5502 37.605 26.5402 37.645C26.5002 37.825 26.4502 37.995 26.3902 38.165C26.1002 38.965 25.6702 39.725 25.8002 40.605C25.8302 40.815 26.1002 40.935 26.2902 40.885C26.5202 40.825 26.6002 40.615 26.5702 40.395C26.5802 40.465 26.5702 40.325 26.5702 40.325C26.5702 40.285 26.5702 40.235 26.5702 40.195C26.5702 40.085 26.5702 40.075 26.5902 39.985C26.6302 39.785 26.6902 39.585 26.7602 39.395C26.9002 39.015 27.0702 38.635 27.2002 38.255C27.2602 38.075 27.3102 37.895 27.3402 37.715C27.3802 37.495 27.3802 37.305 27.4302 37.095C27.5102 36.695 27.6502 36.315 27.7802 35.925C28.0202 35.165 28.1702 34.355 27.7602 33.615C27.6202 33.365 27.4202 33.135 27.1602 32.995C26.7802 32.795 26.3702 32.835 26.0002 33.025C25.6302 33.215 25.4402 33.565 25.3002 33.945C25.1802 34.255 25.1002 34.585 25.0002 34.905C24.8502 35.395 25.6202 35.605 25.7602 35.115L25.7202 35.125Z" fill="black"/>
<path d="M28.0801 34.2451C28.2101 33.7951 28.4401 33.3751 28.7701 33.0251C28.9201 32.8751 29.0801 32.7451 29.2401 32.6051C29.4101 32.4551 29.4901 32.3951 29.6701 32.2751C29.7501 32.2251 29.8301 32.1751 29.9101 32.1451C29.8601 32.1651 29.9801 32.1251 30.0001 32.1151C30.0201 32.1151 30.1501 32.0851 30.0901 32.0951C30.1401 32.0951 30.1801 32.0951 30.2301 32.0951C30.2301 32.0951 30.3201 32.0951 30.2801 32.0951C30.2401 32.0951 30.3101 32.0951 30.3101 32.0951C30.4301 32.1251 30.4801 32.1451 30.5901 32.2251C30.6401 32.2551 30.6801 32.2951 30.7301 32.3351C30.7301 32.3351 30.8001 32.3951 30.7701 32.3751C30.7401 32.3451 30.7901 32.4351 30.7801 32.3951C30.7701 32.3651 30.7801 32.4251 30.7801 32.4251C30.7801 32.3751 30.7801 32.4351 30.7801 32.4451C30.7801 32.4751 30.7801 32.5051 30.7801 32.5351C30.7801 32.5851 30.7801 32.5551 30.7801 32.5851C30.7401 32.8051 30.6701 33.0351 30.6001 33.2451C30.4401 33.7851 30.2601 34.3351 30.0401 34.8551C29.9701 35.0351 30.1101 35.2551 30.2701 35.3251C30.4601 35.4051 30.6501 35.3251 30.7601 35.1651C31.0401 34.7451 31.3901 34.2951 31.8401 34.0751C31.9601 34.0151 31.8101 34.0751 31.8801 34.0551C31.9101 34.0551 31.9301 34.0351 31.9601 34.0351C31.9901 34.0351 32.0201 34.0151 32.0601 34.0151C32.0101 34.0151 32.0301 34.0151 32.0601 34.0151C32.1601 34.0251 32.2501 34.0551 32.3501 34.1251C32.5401 34.2651 32.6801 34.4651 32.7301 34.6651C32.7301 34.6951 32.7501 34.7351 32.7501 34.7651C32.7601 34.8351 32.7501 34.6751 32.7501 34.8051C32.7501 34.8651 32.7501 34.9151 32.7501 34.9751C32.7501 35.0051 32.7501 35.0351 32.7501 35.0651C32.7501 35.0151 32.7501 35.0851 32.7501 35.0851C32.7401 35.1651 32.7201 35.2451 32.6901 35.3251C32.6101 35.6051 32.4901 35.8551 32.3601 36.1151C32.2801 36.2651 32.1701 36.4151 32.1201 36.5751C32.1201 36.5651 32.0901 36.7851 32.1201 36.6451C32.1301 36.5451 32.1201 36.6051 32.1201 36.6251C32.1001 36.6851 32.0801 36.7451 32.0601 36.8051C32.0601 36.8251 32.0401 36.8451 32.0301 36.8651C32.0001 36.9251 32.0301 36.8951 32.0301 36.8451C32.0101 36.9051 31.9801 36.9551 31.9601 37.0151C31.9001 37.1451 31.8501 37.2651 31.7901 37.3951C31.6501 37.7151 31.5001 38.0251 31.3601 38.3451C31.0301 39.0751 30.7101 39.8051 30.4401 40.5651C30.3301 40.8851 30.2201 41.2051 30.1501 41.5351C30.1001 41.8051 30.0501 42.1251 30.2001 42.3851C30.4601 42.8251 31.1401 42.4251 30.8801 41.9851C30.8401 41.9051 30.9201 42.0851 30.8901 42.0151C30.8601 41.9251 30.8901 42.0551 30.8901 42.0351C30.8901 41.9751 30.8901 41.9051 30.8901 41.8451C30.8801 41.8851 30.8901 41.7351 30.8901 41.8451C30.8901 41.8051 30.9001 41.7651 30.9101 41.7251C30.9301 41.6251 30.9501 41.5351 30.9801 41.4451C31.1001 41.0051 31.2701 40.5651 31.4401 40.1451C31.4901 40.0251 31.5401 39.9051 31.5901 39.7851C31.5901 39.7651 31.6101 39.7451 31.6201 39.7251C31.6601 39.6251 31.5901 39.7951 31.6301 39.6951C31.6601 39.6251 31.6901 39.5551 31.7201 39.4851C31.8201 39.2451 31.9301 39.0051 32.0301 38.7651C32.2101 38.3551 32.4001 37.9551 32.5801 37.5451C32.6601 37.3651 32.7401 37.1851 32.8101 37.0051C32.8501 36.9051 32.9001 36.7851 32.8901 36.6851L32.8401 36.8851C33.2701 36.1051 33.7901 35.1551 33.4101 34.2551C33.2201 33.8151 32.8201 33.3851 32.3401 33.2751C31.8601 33.1651 31.4201 33.3651 31.0601 33.6551C30.6701 33.9651 30.3501 34.3651 30.0801 34.7751L30.8001 35.0751C31.0201 34.5451 31.2101 33.9951 31.3701 33.4351C31.5301 32.8751 31.7601 32.1951 31.2501 31.7351C30.7701 31.3051 30.1701 31.1751 29.5701 31.4351C29.1401 31.6251 28.7801 31.9651 28.4301 32.2651C27.9001 32.7251 27.5401 33.3551 27.3401 34.0151C27.1901 34.5051 27.9601 34.7151 28.1001 34.2251L28.0801 34.2451Z" fill="black"/>
<path d="M30.1402 34.5051C29.9202 34.9051 29.8002 35.3751 29.6602 35.8051C29.4502 36.4451 29.2502 37.0951 29.1002 37.7551C29.0302 38.0451 28.9702 38.3351 28.9502 38.6351C28.9502 38.8451 29.1402 39.0251 29.3402 39.0251C29.5602 39.0251 29.7302 38.8451 29.7302 38.6351C29.7302 38.5951 29.7302 38.5551 29.7302 38.5051C29.7302 38.4451 29.7402 38.4551 29.7302 38.5051C29.7302 38.4751 29.7302 38.4451 29.7502 38.4051C29.7702 38.2751 29.8002 38.1551 29.8302 38.0251C29.9002 37.7151 29.9802 37.4051 30.0702 37.1051C30.2402 36.5051 30.4302 35.9051 30.6502 35.3151C30.6902 35.2051 30.7302 35.1051 30.7702 34.9951C30.7702 34.9751 30.7902 34.9551 30.8002 34.9351C30.8302 34.8551 30.7702 34.9951 30.7902 34.9651C30.8002 34.9451 30.8102 34.9151 30.8202 34.8951C31.0602 34.4451 30.3802 34.0451 30.1402 34.4951V34.5051Z" fill="black"/>
<path d="M16.2202 67.5751C14.9102 67.1351 11.7702 63.1751 10.5702 62.5051C10.3502 64.9451 10.0702 66.5451 10.9602 72.7151C13.8502 82.8251 16.8202 69.9551 16.9102 68.6651" fill="black"/>
<path d="M80.6402 62.415C79.0902 61.425 77.3102 60.795 75.5702 60.255C73.6702 59.665 71.7302 59.205 69.7902 58.785C68.3102 58.465 66.8202 58.195 65.3402 57.855C65.1202 57.805 64.9002 57.755 64.6802 57.695C64.6002 57.675 64.5202 57.655 64.4402 57.625C64.4102 57.615 64.3802 57.605 64.3502 57.595C64.2402 57.555 64.4402 57.645 64.3602 57.595C64.1402 57.465 63.9402 57.315 63.7202 57.185C63.3502 56.955 62.9602 56.745 62.5702 56.545C61.6602 56.075 60.7302 55.645 59.7802 55.265C59.0202 54.965 58.2302 54.665 57.4102 54.595C57.2502 54.585 57.1102 54.595 56.9502 54.615C56.7302 54.645 56.6102 54.925 56.6602 55.125C56.7302 55.365 56.9502 55.445 57.1702 55.415C57.0002 55.435 57.1902 55.415 57.2402 55.415C57.3102 55.415 57.3802 55.415 57.4502 55.425C57.4702 55.425 57.4802 55.425 57.5002 55.425C57.5802 55.425 57.4202 55.405 57.4702 55.425C57.5102 55.425 57.5402 55.435 57.5802 55.445C57.6702 55.465 57.7602 55.475 57.8502 55.495C58.2502 55.585 58.6402 55.715 59.0302 55.855C59.2502 55.935 59.4702 56.015 59.6802 56.105C59.7902 56.145 59.9002 56.195 60.0102 56.235C60.1302 56.285 59.9702 56.215 60.0402 56.245C60.0702 56.255 60.1002 56.275 60.1302 56.285C60.1902 56.315 60.2502 56.335 60.3102 56.365C60.7802 56.565 61.2402 56.785 61.6902 57.015C62.4302 57.385 63.1502 57.775 63.8302 58.245C64.1002 58.425 64.4602 58.495 64.7702 58.565C66.1402 58.895 67.5202 59.145 68.9002 59.435C70.8102 59.835 72.7202 60.275 74.5902 60.825C75.5302 61.095 76.4502 61.395 77.3602 61.745C77.5802 61.825 77.8002 61.915 78.0102 62.005C78.0302 62.005 78.0502 62.025 78.0802 62.035C78.0002 62.005 78.0802 62.035 78.1002 62.035C78.1502 62.055 78.2002 62.075 78.2502 62.095C78.3602 62.145 78.4702 62.195 78.5702 62.235C78.9502 62.415 79.3302 62.595 79.6902 62.805C79.8602 62.905 80.0202 62.995 80.1902 63.105C80.3802 63.225 80.6502 63.145 80.7602 62.955C80.8802 62.755 80.8002 62.505 80.6102 62.385L80.6402 62.415Z" fill="black"/>
<path d="M85.1701 91.0551C84.5601 91.1951 83.9201 91.2451 83.2901 91.2651C82.6601 91.2851 82.0301 91.2651 81.4101 91.1551C80.7901 91.0451 80.2601 90.8651 79.6801 90.7151C79.1901 90.5851 78.7001 90.4551 78.2401 90.2651C78.1701 90.2351 78.1901 90.2451 78.1101 90.2151C78.0401 90.1851 77.9801 90.1551 77.9101 90.1151C77.7901 90.0551 77.6801 89.9851 77.5801 89.9151C77.4201 89.8051 77.2001 89.5851 77.0801 89.4251C76.9501 89.2451 76.7201 89.1551 76.5101 89.2751C76.3301 89.3851 76.2301 89.6551 76.3601 89.8451C77.0201 90.7951 78.1001 91.1451 79.1701 91.4351C79.7501 91.5951 80.3201 91.7851 80.9001 91.9051C81.5901 92.0451 82.2901 92.1051 82.9901 92.0951C83.7901 92.0951 84.6001 92.0251 85.3801 91.8451C85.6001 91.7951 85.7301 91.5451 85.6701 91.3351C85.6101 91.1151 85.3801 90.9951 85.1601 91.0451L85.1701 91.0551Z" fill="black"/>
<path d="M84.7903 69.645C84.4803 72.555 79.4103 83.165 78.8803 83.555C78.3503 83.935 78.1503 80.245 78.0803 79.205C77.6003 77.495 77.2703 75.505 77.6903 73.785C77.7903 73.385 79.3003 72.875 79.6103 72.655C80.5403 72.005 81.4703 71.355 82.4003 70.715C82.9503 70.335 83.7303 69.185 84.3903 69.295" fill="black"/>
<path d="M48.1301 41.435C49.5801 41.955 50.9501 42.675 52.2101 43.555C52.3901 43.685 52.6701 43.585 52.7801 43.405C52.9001 43.195 52.8201 42.965 52.6301 42.835C51.3101 41.915 49.8601 41.175 48.3501 40.635C48.1401 40.555 47.9001 40.725 47.8401 40.925C47.7801 41.155 47.9201 41.355 48.1301 41.435Z" fill="black"/>
<path d="M37.1702 42.2951C38.5102 41.5251 39.9302 40.9351 41.4202 40.5351C41.9402 40.3951 41.7202 39.5951 41.2002 39.7351C39.6402 40.1551 38.1402 40.7751 36.7502 41.5751C36.2902 41.8451 36.7002 42.5651 37.1702 42.2951Z" fill="black"/>
<path d="M80.4303 63.3752C81.1203 63.3252 81.7703 63.1152 82.4103 62.8452C83.0503 62.5752 83.7203 62.2952 84.3703 62.0252C85.6703 61.4852 86.9803 60.9352 88.2803 60.3952C89.0303 60.0852 89.7703 59.7752 90.5203 59.4552C90.7303 59.3652 90.8802 59.1752 90.8102 58.9452C90.7602 58.7452 90.5103 58.5652 90.3003 58.6552C87.7003 59.7352 85.1103 60.8252 82.5103 61.9052C81.8403 62.1852 81.1503 62.4852 80.4303 62.5352C80.2103 62.5552 80.0103 62.7152 80.0103 62.9552C80.0103 63.1652 80.2003 63.3852 80.4303 63.3752Z" fill="black"/>
<path d="M92.6802 60.7151C93.8702 60.6351 95.0702 60.6251 96.2702 60.5951C96.8902 60.5851 97.5202 60.5651 98.1402 60.5451C98.4202 60.5351 98.7002 60.5251 98.9802 60.5051C99.1002 60.5051 99.2202 60.4851 99.3302 60.4851C99.3902 60.4851 99.4502 60.4851 99.5102 60.4851C99.5102 60.4851 99.6102 60.4851 99.5602 60.4851C99.5302 60.4851 99.6402 60.4951 99.6602 60.5051C99.7902 60.5251 99.9102 60.5551 100.04 60.5951C100.18 60.6351 100.28 60.6751 100.38 60.7251C100.48 60.7751 100.59 60.8351 100.68 60.9051C100.62 60.8551 100.68 60.9051 100.69 60.9151C100.72 60.9451 100.75 60.9751 100.78 61.0051C100.81 61.0451 100.86 61.1051 100.89 61.1651C101.07 61.4651 101.22 61.7851 101.38 62.0851C101.55 62.4151 101.72 62.7451 101.89 63.0751C102.05 63.3751 102.21 63.6751 102.35 63.9851C102.35 63.9951 102.39 64.0851 102.37 64.0151C102.38 64.0451 102.39 64.0651 102.4 64.0951C102.42 64.1451 102.44 64.2051 102.46 64.2551C102.48 64.3151 102.5 64.3751 102.51 64.4351C102.51 64.4651 102.53 64.5051 102.53 64.5351C102.53 64.5551 102.55 64.6651 102.53 64.5851C102.54 64.6851 102.55 64.7951 102.53 64.8951C102.54 64.8051 102.5 64.9751 102.5 64.9951C102.53 64.8951 102.42 65.1051 102.49 65.0251C102.47 65.0451 102.38 65.1252 102.44 65.0852C102.42 65.0952 102.4 65.1151 102.37 65.1251C102.24 65.1951 102.33 65.1451 102.33 65.1451C102.21 65.1851 102.1 65.1751 101.96 65.1351C101.64 65.0551 101.36 64.9151 101.06 64.7551C100.76 64.5951 100.51 64.4251 100.28 64.1851C99.8102 63.7051 99.4102 63.0651 99.1902 62.4251C99.1302 62.2551 98.9802 62.1251 98.7902 62.1151C97.3902 62.1151 96.0602 62.5051 94.6702 62.5051C94.1402 62.5051 94.1302 63.3351 94.6702 63.3351C96.0702 63.3351 97.4002 62.9451 98.7902 62.9451L98.3902 62.6351C98.6302 63.3551 99.0402 63.9951 99.5202 64.5751C99.9602 65.1051 100.57 65.4552 101.2 65.7252C101.54 65.8752 101.91 66.0152 102.3 65.9752C102.66 65.9352 102.99 65.7551 103.19 65.4451C103.5 64.9351 103.36 64.2651 103.15 63.7351C103.01 63.3951 102.83 63.0651 102.66 62.7451C102.47 62.3851 102.29 62.0251 102.1 61.6651C101.93 61.3251 101.77 60.9651 101.56 60.6451C101.38 60.3651 101.14 60.1451 100.83 59.9851C100.27 59.6951 99.6602 59.5751 99.0402 59.6151C98.4202 59.6551 97.7802 59.6751 97.1502 59.6851C95.6602 59.7251 94.1602 59.7251 92.6702 59.8251C92.4502 59.8351 92.2502 60.0051 92.2502 60.2451C92.2502 60.4551 92.4402 60.6751 92.6702 60.6651L92.6802 60.7151Z" fill="black"/>
<path d="M94.5402 62.9551C94.0602 63.2051 94.0902 63.7651 94.0802 64.3651C94.0802 64.4851 94.6102 65.2351 94.7002 65.3151C94.8102 65.4251 97.3202 65.6451 98.4102 65.5751C99.3302 65.5251 100.42 65.5751 100.73 66.0751C101.92 67.9951 96.2902 68.3651 94.7602 68.1251C93.2302 67.8851 91.7602 67.3551 90.2502 67.0051C89.8502 66.9151 89.4302 66.8351 89.0202 66.8951C88.6902 66.9451 88.3802 67.0751 88.0702 67.2051C87.1502 67.6051 78.6702 73.1451 77.7502 73.5451" fill="#F1E0C6"/>
<path d="M94.3301 62.595C93.8901 62.835 93.7301 63.285 93.6801 63.755C93.6601 63.955 93.6501 64.165 93.6601 64.365C93.6601 64.525 93.7501 64.665 93.8301 64.795C93.9901 65.055 94.1701 65.325 94.3701 65.555C94.4901 65.705 94.6701 65.745 94.8601 65.775C95.5101 65.885 96.1701 65.925 96.8301 65.965C97.1901 65.985 97.5501 65.995 97.9001 66.005C98.2501 66.015 98.6301 65.975 99.0001 65.975C99.4301 65.975 99.7801 65.985 100.18 66.145C100.12 66.115 100.19 66.145 100.22 66.165C100.26 66.185 100.29 66.205 100.32 66.225C100.36 66.245 100.31 66.215 100.3 66.205C100.32 66.215 100.33 66.235 100.35 66.245C100.36 66.255 100.37 66.265 100.38 66.275C100.35 66.215 100.41 66.305 100.38 66.275C100.4 66.315 100.43 66.365 100.45 66.405C100.49 66.485 100.43 66.335 100.45 66.395C100.45 66.425 100.47 66.445 100.47 66.465C100.47 66.485 100.47 66.505 100.49 66.525C100.51 66.595 100.49 66.465 100.49 66.485C100.49 66.525 100.49 66.575 100.49 66.615C100.49 66.665 100.52 66.505 100.49 66.575C100.49 66.595 100.49 66.605 100.48 66.625C100.48 66.645 100.47 66.665 100.46 66.685C100.45 66.735 100.51 66.585 100.46 66.665C100.44 66.695 100.42 66.735 100.4 66.765C100.36 66.825 100.4 66.735 100.42 66.735C100.42 66.735 100.38 66.785 100.37 66.795C100.34 66.825 100.31 66.855 100.27 66.885C100.26 66.895 100.24 66.915 100.22 66.925C100.26 66.895 100.32 66.885 100.22 66.925C100.13 66.985 100.04 67.035 99.9501 67.085C99.9001 67.115 99.8501 67.135 99.8001 67.155C99.7501 67.175 99.7501 67.175 99.8001 67.155C99.7701 67.165 99.7401 67.185 99.7001 67.195C99.4501 67.295 99.2001 67.365 98.9401 67.425C98.6501 67.495 98.3601 67.555 98.0601 67.595C97.9901 67.605 97.9201 67.615 97.8501 67.625C97.7701 67.635 97.9201 67.625 97.8201 67.625C97.7801 67.625 97.7301 67.635 97.6901 67.645C97.5401 67.665 97.3901 67.675 97.2401 67.695C96.6901 67.745 96.1301 67.765 95.5801 67.755C95.3701 67.755 95.1601 67.745 94.9401 67.715C94.9101 67.715 94.7701 67.695 94.8601 67.715C94.9501 67.735 94.8601 67.715 94.8501 67.715C94.7701 67.705 94.6901 67.685 94.6101 67.675C94.3401 67.625 94.0601 67.565 93.7901 67.505C92.7101 67.255 91.6401 66.915 90.5601 66.645C89.9901 66.505 89.4101 66.385 88.8201 66.485C88.4601 66.545 88.0901 66.695 87.7601 66.865C87.1301 67.175 86.5301 67.575 85.9401 67.945C84.9301 68.575 83.9201 69.205 82.9101 69.845C81.9001 70.485 80.8501 71.145 79.8101 71.795C79.1201 72.225 78.4401 72.665 77.7301 73.055C77.6601 73.095 77.5801 73.135 77.5001 73.165C77.2901 73.255 77.2501 73.555 77.3501 73.735C77.4701 73.945 77.7101 73.975 77.9201 73.885C78.1301 73.795 78.3201 73.675 78.5101 73.555C78.8701 73.345 79.2201 73.125 79.5801 72.905C80.5701 72.295 81.5601 71.665 82.5401 71.045C83.5801 70.385 84.6301 69.725 85.6801 69.065C86.4101 68.605 87.1501 68.135 87.9001 67.715C88.2701 67.505 88.6901 67.295 89.1301 67.265C89.6601 67.235 90.2001 67.395 90.7101 67.525C91.2601 67.665 91.8001 67.825 92.3501 67.975C93.2201 68.215 94.1101 68.465 95.0201 68.545C95.5101 68.585 96.0001 68.585 96.4901 68.565C97.1201 68.535 97.7401 68.475 98.3601 68.375C98.9001 68.285 99.4501 68.165 99.9601 67.965C100.4 67.785 100.86 67.545 101.12 67.125C101.39 66.675 101.29 66.105 100.96 65.705C100.71 65.405 100.3 65.265 99.9201 65.195C99.4601 65.115 98.9901 65.105 98.5201 65.125C97.8301 65.155 97.1401 65.125 96.4501 65.085C96.1101 65.065 95.7701 65.035 95.4301 64.995C95.3601 64.995 95.2901 64.975 95.2201 64.975C95.2001 64.975 95.0901 64.955 95.1701 64.975C95.2501 64.995 95.1301 64.975 95.1201 64.975C95.0401 64.965 94.9501 64.945 94.8701 64.925C94.7901 64.905 94.8401 64.905 94.9001 64.945C94.9901 64.995 94.9901 65.015 94.9201 64.945C94.8901 64.915 94.9601 64.995 94.9501 64.985C94.9501 64.975 94.9301 64.955 94.9201 64.945C94.9001 64.925 94.8901 64.895 94.8701 64.875C94.8201 64.805 94.7801 64.745 94.7301 64.675C94.6501 64.555 94.5601 64.425 94.4901 64.295C94.4801 64.275 94.4701 64.245 94.4501 64.225C94.4101 64.165 94.4801 64.315 94.4601 64.255C94.4501 64.205 94.4601 64.335 94.4601 64.335C94.4601 64.335 94.4601 64.275 94.4601 64.265C94.4601 64.205 94.4601 64.135 94.4601 64.075C94.4601 63.975 94.4601 63.875 94.4701 63.775C94.4701 63.745 94.4701 63.715 94.4701 63.685C94.4701 63.635 94.4901 63.595 94.5001 63.545C94.5001 63.525 94.5101 63.505 94.5201 63.485C94.5201 63.475 94.5501 63.395 94.5301 63.445C94.5101 63.485 94.5301 63.425 94.5401 63.425C94.5501 63.405 94.5701 63.385 94.5801 63.365C94.5401 63.415 94.6001 63.345 94.6101 63.335C94.6101 63.335 94.6701 63.295 94.6201 63.335C94.6401 63.315 94.6701 63.305 94.6901 63.295C95.1601 63.035 94.7401 62.315 94.2701 62.575L94.3301 62.595Z" fill="black"/>
<path d="M6.90018 58.5351C7.22018 59.0351 7.65018 59.4851 8.04018 59.9251C8.70018 60.6651 9.38018 61.3951 10.0602 62.1251C11.5502 63.7151 13.0702 65.2951 14.5602 66.8851C15.0202 67.3751 15.5102 67.8651 15.9302 68.3951C16.0702 68.5751 16.3702 68.5451 16.5202 68.3951C16.6902 68.2251 16.6602 67.9851 16.5202 67.8051C16.1602 67.3551 15.7602 66.9451 15.3602 66.5251C14.6802 65.8051 14.0002 65.0851 13.3202 64.3651C11.8202 62.7851 10.3202 61.2151 8.86018 59.6051C8.58018 59.2951 8.29018 58.9751 8.02018 58.6551C7.92018 58.5351 7.82018 58.4151 7.73018 58.2951C7.69018 58.2451 7.80018 58.3851 7.76018 58.3351C7.75018 58.3251 7.74018 58.3051 7.73018 58.2951C7.71018 58.2751 7.70018 58.2551 7.68018 58.2251C7.65018 58.1851 7.63018 58.1551 7.60018 58.1151C7.48018 57.9251 7.23018 57.8551 7.03018 57.9651C6.83018 58.0751 6.76018 58.3451 6.88018 58.5351H6.90018Z" fill="black"/>
<path d="M90.5303 59.615C93.2403 59.145 95.9303 58.605 98.6503 58.185C99.8303 58.005 100.98 57.845 102.2 57.775C102.46 57.755 102.71 57.755 102.97 57.745C102.99 57.745 103.01 57.745 103.03 57.745C102.93 57.745 102.99 57.745 103.03 57.745C103.09 57.765 102.96 57.705 103.05 57.755C102.97 57.705 103.13 57.805 103.05 57.755C103.06 57.755 103.07 57.785 103.09 57.795C103.02 57.725 103.06 57.755 103.09 57.795C103.11 57.825 103.12 57.855 103.14 57.885C103.16 57.915 103.14 57.945 103.14 57.865C103.14 57.885 103.15 57.905 103.16 57.925C103.17 57.975 103.19 58.025 103.2 58.075C103.2 58.105 103.2 58.125 103.21 58.155C103.21 58.055 103.23 58.215 103.21 58.155C103.21 58.205 103.21 58.265 103.21 58.315C103.21 58.365 103.21 58.425 103.21 58.475C103.21 58.505 103.19 58.675 103.21 58.545C103.2 58.635 103.18 58.725 103.15 58.805C103.15 58.815 103.11 58.885 103.15 58.815C103.19 58.745 103.15 58.825 103.13 58.835C103.12 58.855 103.11 58.875 103.09 58.895C103.04 58.985 103.14 58.845 103.07 58.915C103.02 58.965 102.98 59.015 102.92 59.065C102.9 59.085 102.88 59.095 102.87 59.115C102.8 59.175 102.91 59.095 102.84 59.135C102.72 59.215 102.61 59.285 102.48 59.345C102.44 59.365 102.41 59.375 102.37 59.395C102.29 59.435 102.41 59.385 102.32 59.415C102.26 59.445 102.19 59.465 102.13 59.485C101.59 59.675 101.03 59.785 100.47 59.895C100.25 59.945 100.12 60.195 100.18 60.405C100.24 60.635 100.47 60.745 100.69 60.695C101.21 60.585 101.73 60.485 102.23 60.325C102.77 60.145 103.33 59.895 103.69 59.445C103.99 59.055 104.07 58.555 104.01 58.075C103.94 57.525 103.67 56.945 103.04 56.915C102.79 56.905 102.52 56.925 102.27 56.945C101.99 56.965 101.7 56.985 101.42 57.015C100.75 57.075 100.09 57.165 99.4303 57.255C97.9903 57.455 96.5703 57.695 95.1403 57.955C93.5403 58.245 91.9303 58.545 90.3303 58.825C90.1103 58.865 89.9803 59.135 90.0403 59.335C90.1003 59.565 90.3303 59.665 90.5503 59.625L90.5303 59.615Z" fill="black"/>
<path d="M92.4903 59.205C93.7803 58.805 94.8803 57.995 96.0103 57.295C96.5503 56.965 97.1203 56.635 97.6803 56.435C97.9703 56.335 98.2803 56.235 98.5803 56.195C98.6703 56.195 98.7703 56.175 98.8603 56.195C98.8703 56.195 99.0203 56.245 98.9803 56.225C99.0103 56.235 99.0303 56.255 99.0603 56.265C99.1803 56.325 99.0103 56.225 99.1103 56.305C99.1103 56.305 99.1603 56.365 99.1303 56.315C99.1303 56.315 99.2003 56.425 99.1603 56.365V56.405C99.1603 56.325 99.1603 56.305 99.1603 56.345C99.1603 56.415 99.1903 56.245 99.1603 56.325C99.1403 56.375 99.1303 56.435 99.1103 56.495C99.0803 56.565 99.1103 56.515 99.1103 56.495C99.1003 56.525 99.0803 56.565 99.0703 56.595C99.0403 56.665 99.0003 56.735 98.9703 56.795C98.8603 57.005 98.7403 57.205 98.6103 57.405C98.4803 57.605 98.5703 57.865 98.7603 57.975C98.9603 58.095 99.2103 58.015 99.3303 57.825C99.4503 57.635 99.5703 57.445 99.6703 57.245C99.7903 57.015 99.9303 56.765 99.9803 56.505C100.05 56.105 99.8103 55.745 99.4803 55.545C99.0903 55.305 98.6303 55.335 98.2003 55.415C96.7703 55.695 95.5603 56.595 94.3603 57.355C93.6903 57.775 93.0103 58.175 92.2703 58.395C92.0603 58.465 91.9203 58.685 91.9803 58.905C92.0403 59.125 92.2803 59.265 92.4903 59.195V59.205Z" fill="black"/>
<path d="M90.9103 59.1649C91.2203 58.9349 91.4603 58.6349 91.7003 58.3349C92.0003 57.9649 92.2903 57.5849 92.6103 57.2249C92.7703 57.0449 92.9303 56.8649 93.1103 56.7049C93.1903 56.6249 93.2803 56.5549 93.3603 56.4849C93.3803 56.4649 93.4003 56.4549 93.4303 56.4349C93.4803 56.4049 93.5303 56.3649 93.5803 56.3349C93.6603 56.2849 93.7403 56.2449 93.8203 56.2049C93.7403 56.2249 93.9103 56.1649 93.8203 56.2049C93.8403 56.2049 93.8603 56.1949 93.8703 56.1849C93.9203 56.1649 93.9703 56.1549 94.0203 56.1449C94.0503 56.1449 94.1203 56.1449 94.0003 56.1449C94.0203 56.1449 94.0403 56.1449 94.0503 56.1449C94.1003 56.1449 94.1403 56.1449 94.1903 56.1449C94.2203 56.1449 94.2703 56.1649 94.1603 56.1449C94.1803 56.1449 94.2103 56.1449 94.2303 56.1549C94.2503 56.1649 94.2803 56.1649 94.3003 56.1749C94.3403 56.1849 94.3903 56.2349 94.3003 56.1749C94.3603 56.2149 94.2803 56.1549 94.2803 56.1549C94.3103 56.2049 94.3103 56.2049 94.2803 56.1549C94.2903 56.1749 94.3103 56.2049 94.3203 56.2349C94.3703 56.3049 94.3003 56.1649 94.3203 56.2549C94.3403 56.3149 94.3503 56.3649 94.3703 56.4249C94.3703 56.4549 94.3803 56.4849 94.3903 56.5149C94.3903 56.5349 94.4103 56.6649 94.4003 56.5749C94.4303 56.8249 94.4303 57.0749 94.4303 57.3349C94.4303 57.5549 94.6303 57.7549 94.8503 57.7549C95.0803 57.7549 95.2603 57.5649 95.2703 57.3349C95.2903 56.8349 95.2903 56.2249 95.0203 55.7749C94.7503 55.3249 94.1003 55.2649 93.6303 55.4249C92.6503 55.7649 91.9603 56.7149 91.3503 57.4949C91.1903 57.7049 91.0303 57.9049 90.8603 58.1049C90.7903 58.1849 90.7103 58.2749 90.6403 58.3549C90.6103 58.3849 90.5703 58.4249 90.5403 58.4549C90.5103 58.4849 90.3903 58.5749 90.5103 58.4849C90.3303 58.6149 90.2403 58.8449 90.3603 59.0549C90.4603 59.2349 90.7503 59.3349 90.9303 59.2049L90.9103 59.1649Z" fill="black"/>
<path d="M98.7101 83.675C98.9801 84.105 99.2301 84.555 99.5101 84.975C99.6501 85.185 99.9001 85.135 100.12 85.135H100.9L100.73 84.715L99.6801 85.595C99.6201 85.645 99.5901 85.765 99.6201 85.835C99.8001 86.315 99.9901 86.805 100.17 87.285L100.53 87.005C100.1 86.755 99.6801 86.515 99.2501 86.265C99.1801 86.225 99.1201 86.175 99.0401 86.165C98.9401 86.155 98.8601 86.205 98.7801 86.255L98.0301 86.665L97.4101 87.005L97.7501 87.345L98.3401 86.035C98.4001 85.905 98.3701 85.785 98.2501 85.695L97.2401 84.955L97.1801 85.405L97.8801 85.215L98.3301 85.095C98.4401 85.065 98.5601 85.045 98.6201 84.945C98.7401 84.745 98.8101 84.485 98.9001 84.265L99.1701 83.605C99.2201 83.485 99.1101 83.335 99.0001 83.305C98.8601 83.265 98.7501 83.355 98.7001 83.475C98.5301 83.905 98.3501 84.325 98.1801 84.755L98.3501 84.585C97.9201 84.705 97.4901 84.815 97.0601 84.935C96.8401 84.995 96.8401 85.265 97.0001 85.385L98.0101 86.125L97.9201 85.785L97.3301 87.095C97.2301 87.315 97.4401 87.555 97.6701 87.435C98.1601 87.165 98.6601 86.895 99.1501 86.625H98.9001C99.3701 86.895 99.8301 87.165 100.3 87.435C100.47 87.535 100.74 87.365 100.66 87.155L100.11 85.705L100.05 85.945L101.1 85.065C101.27 84.925 101.13 84.645 100.93 84.645H99.7801L99.9901 84.765C99.7201 84.315 99.4401 83.865 99.1701 83.415C99.0001 83.145 98.5801 83.395 98.7401 83.665L98.7101 83.675Z" fill="#0666FF"/>
<path d="M100.77 72.4551C101.04 72.8851 101.29 73.3351 101.57 73.7551C101.71 73.9651 101.96 73.9151 102.18 73.9151H102.96L102.79 73.4951L101.74 74.3751C101.68 74.4251 101.65 74.5451 101.68 74.6151L102.23 76.0651L102.59 75.7851C102.16 75.5351 101.74 75.2951 101.31 75.0451C101.24 75.0051 101.18 74.9551 101.1 74.9451C101 74.9351 100.92 74.9851 100.84 75.0351L100.09 75.4451L99.4702 75.7851L99.8102 76.1251L100.4 74.8151C100.46 74.6851 100.43 74.5651 100.31 74.4751L99.3002 73.7351L99.2402 74.1851L99.9402 73.9951L100.39 73.8751C100.5 73.8451 100.62 73.8251 100.68 73.7251C100.8 73.5251 100.87 73.2651 100.96 73.0451L101.23 72.3851C101.28 72.2651 101.17 72.1151 101.06 72.0851C100.92 72.0451 100.81 72.1351 100.76 72.2551C100.59 72.6851 100.41 73.1051 100.24 73.5351L100.41 73.3651C99.9802 73.4851 99.5502 73.5951 99.1202 73.7151C98.9002 73.7751 98.9002 74.0451 99.0602 74.1651L100.07 74.9051L99.9802 74.5651L99.3902 75.8751C99.2902 76.0951 99.5002 76.3351 99.7302 76.2151C100.22 75.9451 100.72 75.6751 101.21 75.4051H100.96C101.43 75.6751 101.89 75.9451 102.36 76.2151C102.53 76.3151 102.8 76.1451 102.72 75.9351C102.54 75.4551 102.35 74.9651 102.17 74.4851L102.11 74.7251L103.16 73.8451C103.33 73.7051 103.19 73.4251 102.99 73.4251H101.84L102.05 73.5451C101.78 73.0951 101.5 72.6451 101.23 72.1951C101.06 71.9251 100.64 72.1751 100.8 72.4451L100.77 72.4551Z" fill="#0666FF"/>
<path d="M102.67 79.655C102.94 80.085 103.19 80.535 103.47 80.955C103.61 81.165 103.86 81.115 104.08 81.115H104.86L104.69 80.695L103.64 81.575C103.58 81.625 103.55 81.745 103.58 81.815C103.76 82.295 103.95 82.785 104.13 83.265L104.49 82.985C104.06 82.735 103.64 82.495 103.21 82.245C103.14 82.205 103.08 82.155 103 82.145C102.9 82.135 102.82 82.185 102.74 82.235L101.99 82.645L101.37 82.985L101.71 83.325L102.3 82.015C102.36 81.885 102.33 81.765 102.21 81.675C101.87 81.425 101.54 81.185 101.2 80.935L101.14 81.385L101.84 81.195L102.29 81.075C102.4 81.045 102.52 81.025 102.58 80.925C102.7 80.725 102.77 80.465 102.86 80.245L103.13 79.585C103.18 79.465 103.07 79.315 102.96 79.285C102.82 79.245 102.71 79.335 102.66 79.455C102.49 79.885 102.31 80.305 102.14 80.735L102.31 80.565L101.02 80.915C100.8 80.975 100.8 81.245 100.96 81.365L101.97 82.105L101.88 81.765L101.29 83.075C101.19 83.295 101.4 83.535 101.63 83.415C102.12 83.145 102.62 82.875 103.11 82.605H102.86C103.33 82.875 103.79 83.145 104.26 83.415C104.43 83.515 104.7 83.345 104.62 83.135C104.44 82.655 104.25 82.165 104.07 81.685L104.01 81.925L105.06 81.045C105.23 80.905 105.09 80.625 104.89 80.625H103.74L103.95 80.745C103.68 80.295 103.4 79.845 103.13 79.395C102.96 79.125 102.54 79.375 102.7 79.645L102.67 79.655Z" fill="#0666FF"/>
<path d="M111.83 84.5651L117.12 83.5951C117.39 83.5451 117.54 83.2251 117.47 82.9751C117.39 82.6951 117.12 82.5751 116.85 82.6251L111.56 83.5951C111.29 83.6451 111.14 83.9651 111.21 84.2151C111.29 84.4951 111.56 84.6151 111.83 84.5651Z" fill="#F9809D"/>
<path d="M111.6 89.6151C113.29 90.3351 114.91 91.1951 116.45 92.1951C116.99 92.5451 117.49 91.6751 116.95 91.3351C115.41 90.3451 113.78 89.4751 112.1 88.7551C111.85 88.6451 111.56 88.6851 111.42 88.9351C111.3 89.1451 111.35 89.5151 111.6 89.6151Z" fill="#F9809D"/>
<path d="M106.93 94.0551C107.19 95.4251 107.34 96.8151 107.39 98.2151C107.41 98.8551 108.41 98.8551 108.39 98.2151C108.33 96.7351 108.17 95.2551 107.89 93.7951C107.84 93.5251 107.52 93.3751 107.27 93.4451C106.99 93.5251 106.87 93.7951 106.92 94.0651L106.93 94.0551Z" fill="#F9809D"/>
</g>
<defs>
<clipPath id="clip0_5_3852">
<rect width="116.51" height="111.2" fill="white" transform="translate(0.970215 0.925049)"/>
</clipPath>
</defs>
</svg>
