<svg width="93" height="131" viewBox="0 0 93 131" fill="none" xmlns="http://www.w3.org/2000/svg">
<g clip-path="url(#clip0_1_456)">
<path d="M57.6436 40.938C58.1736 41.808 58.6936 42.688 59.2436 43.548C59.5236 43.978 60.0136 43.868 60.4636 43.868H62.0236C61.9036 43.588 61.7936 43.308 61.6736 43.028L59.5736 44.788C59.4536 44.888 59.3936 45.118 59.4436 45.268C59.8136 46.238 60.1836 47.208 60.5536 48.168L61.2836 47.608C60.4336 47.118 59.5736 46.628 58.7236 46.138C58.5936 46.058 58.4536 45.958 58.3036 45.938C58.1036 45.908 57.9436 46.018 57.7736 46.108L56.2736 46.928L55.0236 47.608L55.7036 48.288C56.1036 47.418 56.4936 46.538 56.8936 45.668C57.0136 45.408 56.9536 45.168 56.7136 44.988C56.0436 44.498 55.3736 43.998 54.7036 43.508L54.5836 44.408L55.9836 44.028L56.8736 43.788C57.0936 43.728 57.3236 43.698 57.4536 43.488C57.6936 43.088 57.8336 42.568 58.0136 42.128L58.5536 40.818C58.6536 40.568 58.4436 40.278 58.2136 40.208C57.9336 40.128 57.7036 40.308 57.6036 40.548C57.2536 41.398 56.9136 42.248 56.5636 43.098L56.9036 42.758C56.0436 42.988 55.1836 43.218 54.3236 43.448C53.8836 43.568 53.8836 44.108 54.2036 44.348C54.8736 44.838 55.5436 45.338 56.2136 45.828L56.0336 45.148C55.6336 46.018 55.2436 46.898 54.8436 47.768C54.6436 48.208 55.0536 48.698 55.5236 48.448C56.5136 47.908 57.4936 47.378 58.4836 46.838H57.9836C58.9136 47.378 59.8536 47.908 60.7836 48.448C61.1336 48.648 61.6736 48.308 61.5136 47.888C61.1436 46.918 60.7736 45.948 60.4036 44.988L60.2736 45.468L62.3736 43.708C62.7136 43.428 62.4236 42.868 62.0236 42.868H59.7236C59.8636 42.948 60.0036 43.028 60.1536 43.108C59.6036 42.208 59.0536 41.318 58.5036 40.418C58.1736 39.878 57.3136 40.368 57.6536 40.918L57.6436 40.938Z" fill="#FFB401"/>
<path d="M12.7135 54.208C13.2435 55.078 13.7635 55.958 14.3135 56.818C14.5935 57.248 15.0835 57.138 15.5335 57.138H17.0935C16.9735 56.858 16.8635 56.578 16.7435 56.298L14.6435 58.058C14.5235 58.158 14.4635 58.388 14.5135 58.538C14.8835 59.508 15.2535 60.478 15.6235 61.438L16.3535 60.878C15.5035 60.388 14.6435 59.898 13.7935 59.408C13.6635 59.328 13.5235 59.228 13.3735 59.208C13.1735 59.178 13.0135 59.288 12.8435 59.378L11.3435 60.198C10.9235 60.428 10.5135 60.648 10.0935 60.878L10.7735 61.558C11.1735 60.688 11.5635 59.808 11.9635 58.938C12.0835 58.678 12.0235 58.438 11.7835 58.258C11.1135 57.768 10.4435 57.268 9.77354 56.778L9.65354 57.678L11.0535 57.298L11.9435 57.058C12.1635 56.998 12.3935 56.968 12.5235 56.758C12.7635 56.358 12.9035 55.838 13.0835 55.398L13.6235 54.088C13.7235 53.838 13.5135 53.548 13.2835 53.478C13.0035 53.398 12.7735 53.578 12.6735 53.818C12.3235 54.668 11.9835 55.518 11.6335 56.368L11.9735 56.028C11.1135 56.258 10.2535 56.488 9.39354 56.718C8.95354 56.838 8.95354 57.378 9.27354 57.618C9.94354 58.108 10.6135 58.608 11.2835 59.098L11.1035 58.418C10.7035 59.288 10.3135 60.168 9.91354 61.038C9.71354 61.478 10.1235 61.968 10.5935 61.718C11.5835 61.178 12.5635 60.648 13.5535 60.108H13.0535C13.9835 60.648 14.9235 61.178 15.8535 61.718C16.2035 61.918 16.7435 61.578 16.5835 61.158C16.2135 60.188 15.8435 59.218 15.4735 58.258L15.3435 58.738L17.4435 56.978C17.7835 56.698 17.4935 56.138 17.0935 56.138H14.7935C14.9335 56.218 15.0735 56.298 15.2235 56.378C14.6735 55.478 14.1235 54.588 13.5735 53.688C13.2435 53.148 12.3835 53.638 12.7235 54.188L12.7135 54.208Z" fill="#FF5275"/>
<path d="M62.9636 25.5982C63.5136 26.7982 64.0636 27.9982 64.6136 29.2082C64.6836 29.3582 64.8836 29.4482 65.0436 29.4482H69.5736C69.4936 29.1382 69.4036 28.8382 69.3236 28.5282L64.7936 30.5382C64.6436 30.6082 64.5536 30.8082 64.5536 30.9682C64.5536 32.5282 64.5536 34.0882 64.5536 35.6482L65.5236 35.5182L63.8736 30.8382C63.8036 30.6282 63.6236 30.4782 63.3936 30.4782C61.9636 30.4782 60.5436 30.4782 59.1136 30.4782L59.3636 31.3982L61.0836 30.4382C61.6936 30.0982 62.4036 29.7982 62.9736 29.3882C63.1936 29.2282 63.2136 29.0582 63.2636 28.8082L63.4936 27.5382C63.6236 26.8482 63.7436 26.1682 63.8736 25.4782C63.9836 24.8582 63.0336 24.5882 62.9236 25.2182C62.7036 26.4182 62.4836 27.6182 62.2636 28.8282L62.4936 28.5282L58.8736 30.5382C58.4436 30.7782 58.6436 31.4582 59.1236 31.4582C60.5536 31.4582 61.9736 31.4582 63.4036 31.4582L62.9236 31.0982L64.5736 35.7782C64.7536 36.2882 65.5436 36.2282 65.5436 35.6482C65.5436 34.0882 65.5436 32.5282 65.5436 30.9682L65.3036 31.3982C66.8136 30.7282 68.3236 30.0582 69.8336 29.3882C70.3036 29.1782 70.0436 28.4682 69.5836 28.4682H65.0536C65.1936 28.5482 65.3336 28.6282 65.4836 28.7082C64.9336 27.5082 64.3836 26.3082 63.8336 25.0982C63.5736 24.5182 62.7236 25.0182 62.9836 25.5982H62.9636Z" fill="#FF5275"/>
<path d="M6.69356 70.0682C7.24356 71.2682 7.79356 72.4682 8.34356 73.6782C8.41356 73.8282 8.61356 73.9182 8.77356 73.9182H13.3036C13.2236 73.6082 13.1336 73.3082 13.0536 72.9982C11.5436 73.6682 10.0336 74.3382 8.52356 75.0082C8.37356 75.0782 8.28356 75.2782 8.28356 75.4382C8.28356 76.9982 8.28356 78.5582 8.28356 80.1182L9.25356 79.9882C8.70356 78.4282 8.15356 76.8682 7.60356 75.3082C7.53356 75.0982 7.35356 74.9482 7.12356 74.9482C5.69356 74.9482 4.27356 74.9482 2.84356 74.9482L3.09356 75.8682L4.81356 74.9082C5.42356 74.5682 6.13356 74.2682 6.70356 73.8582C6.92356 73.6982 6.94356 73.5282 6.99356 73.2782L7.22356 72.0082C7.35356 71.3182 7.47356 70.6382 7.60356 69.9482C7.71356 69.3282 6.76356 69.0582 6.65356 69.6882C6.43356 70.8882 6.21356 72.0882 5.99356 73.2982L6.22356 72.9982C5.01356 73.6682 3.81356 74.3382 2.60356 75.0082C2.17356 75.2482 2.37356 75.9282 2.85356 75.9282C4.28356 75.9282 5.70356 75.9282 7.13356 75.9282L6.65356 75.5682L8.30356 80.2482C8.48356 80.7582 9.27356 80.6982 9.27356 80.1182C9.27356 78.5582 9.27356 76.9982 9.27356 75.4382L9.03356 75.8682C10.5436 75.1982 12.0536 74.5282 13.5636 73.8582C14.0336 73.6482 13.7736 72.9382 13.3136 72.9382H8.78356C8.92356 73.0182 9.06356 73.0982 9.21356 73.1782C8.66356 71.9782 8.11356 70.7782 7.56356 69.5682C7.30356 68.9882 6.45356 69.4882 6.71356 70.0682H6.69356Z" fill="#FFB401"/>
<path d="M76.3036 35.7782C76.4936 36.7382 77.0536 37.6482 77.5736 38.4682C77.7036 38.6682 77.8336 38.9582 78.0136 39.1282C78.1936 39.2982 78.4236 39.2782 78.6436 39.2782L82.3636 39.3982L82.1136 38.4782C80.5536 39.1682 78.9836 39.8682 77.4236 40.5582C77.2636 40.6282 77.1936 40.8182 77.1836 40.9882C77.0636 42.3082 76.9436 43.6382 76.8236 44.9582L77.7936 44.8282C77.3936 43.5082 76.9936 42.1882 76.5836 40.8682C76.5336 40.7182 76.4036 40.5482 76.2436 40.5282C75.2036 40.3682 74.1636 40.2082 73.1136 40.0382L73.2336 40.9382L74.8336 40.1182C75.3236 39.8682 75.9036 39.6582 76.3536 39.3382C76.5836 39.1782 76.6036 38.9482 76.6536 38.6882L76.8736 37.5882C76.9936 36.9882 77.1136 36.3782 77.2436 35.7782C77.3736 35.1782 76.4136 34.8882 76.2936 35.5182C76.0736 36.6082 75.8536 37.6882 75.6336 38.7782L75.8636 38.4782C74.8236 39.0082 73.7836 39.5482 72.7336 40.0782C72.3736 40.2582 72.4336 40.9182 72.8536 40.9782L75.9836 41.4682L75.6436 41.1282C76.0436 42.4482 76.4436 43.7682 76.8536 45.0882C77.0236 45.6382 77.7736 45.4982 77.8236 44.9582C77.9436 43.6382 78.0636 42.3082 78.1836 40.9882L77.9436 41.4182C79.5036 40.7282 81.0736 40.0282 82.6336 39.3382C83.1136 39.1282 82.8336 38.4282 82.3836 38.4182C81.0536 38.3782 79.7136 38.3282 78.3836 38.2882L78.8136 38.5282C78.1936 37.6382 77.4936 36.5982 77.2736 35.5182C77.1436 34.8982 76.1936 35.1582 76.3236 35.7782H76.3036Z" fill="#0666FF"/>
<path d="M72.3635 54.7181C72.8235 53.8481 73.2935 52.9781 73.7535 52.0981C73.8535 51.9081 73.8035 51.6381 73.6035 51.5281C73.4135 51.4281 73.1435 51.4681 73.0335 51.6781C72.5735 52.5481 72.1035 53.4181 71.6435 54.2981C71.5435 54.4881 71.5935 54.7581 71.7935 54.8681C71.9835 54.9681 72.2535 54.9281 72.3635 54.7181Z" fill="#FFB401"/>
<path d="M79.4735 62.4882C80.3235 61.7982 81.1735 61.0982 82.0235 60.4082C82.1935 60.2682 82.1735 59.9582 82.0235 59.8182C81.8435 59.6582 81.6135 59.6682 81.4335 59.8182C80.5835 60.5082 79.7335 61.2082 78.8835 61.8982C78.7135 62.0382 78.7335 62.3482 78.8835 62.4882C79.0635 62.6482 79.2935 62.6382 79.4735 62.4882Z" fill="#FFB401"/>
<path d="M85.2335 71.9081C86.7135 71.5881 88.1935 71.2681 89.6635 70.9481C90.1835 70.8381 89.9635 70.0381 89.4435 70.1481C87.9635 70.4681 86.4835 70.7881 85.0135 71.1081C84.4935 71.2181 84.7135 72.0181 85.2335 71.9081Z" fill="#FFB401"/>
<path d="M87.3135 80.6781L91.5835 82.2181C91.7935 82.2981 92.0335 82.1281 92.0935 81.9281C92.1535 81.6981 92.0135 81.4981 91.8035 81.4181C90.3835 80.9081 88.9635 80.3881 87.5335 79.8781C87.3235 79.7981 87.0835 79.9681 87.0235 80.1681C86.9635 80.3981 87.1035 80.5981 87.3135 80.6781Z" fill="#FFB401"/>
<path d="M50.2635 56.7581C46.5635 48.1781 42.8635 39.5981 39.1635 31.0081C37.6635 27.5181 36.1435 24.0381 34.7135 20.5181C33.2835 16.9981 31.9135 13.6381 30.3735 10.2481C28.8335 6.85806 27.2035 3.40806 24.9135 0.458057C24.6935 0.178057 24.1735 0.408057 24.2035 0.748057C24.8035 8.16806 25.3835 15.5881 25.8335 23.0081C26.3035 30.8081 26.6535 38.6181 26.6535 46.4281C26.6535 50.4881 26.5535 54.5581 26.2835 58.6081C26.2735 58.8081 26.4835 59.0481 26.7035 59.0281C34.2635 58.0381 41.8835 57.5581 49.5135 57.5881C50.0435 57.5881 50.0535 56.7581 49.5135 56.7581C41.8835 56.7281 34.2635 57.2081 26.7035 58.1981L27.1235 58.6181C27.6235 51.2081 27.5635 43.7681 27.3135 36.3481C27.0535 28.5381 26.5635 20.7281 25.9835 12.9381C25.6835 8.87806 25.3635 4.81806 25.0335 0.758057L24.3235 1.04806C26.3435 3.64806 27.8035 6.69806 29.1935 9.66806C30.7835 13.0781 32.2035 16.5581 33.6235 20.0381C36.7435 27.6981 40.0935 35.2681 43.3635 42.8581C45.4235 47.6281 47.4735 52.4081 49.5335 57.1781C49.7435 57.6681 50.4635 57.2481 50.2535 56.7581H50.2635Z" fill="black"/>
<path d="M28.1636 44.4882C28.3936 43.0282 28.9436 41.6082 29.3836 40.2082C29.6036 39.5182 29.8236 38.8282 30.0236 38.1282C30.1336 37.7182 30.2836 37.2582 30.2236 36.8282L29.4236 37.0482C29.9136 38.7282 30.8736 40.3182 31.7536 41.8082C31.9036 42.0582 32.1936 42.0582 32.4036 41.8882C33.6936 40.8882 35.1636 40.1582 36.7436 39.7182L36.2336 39.2082C36.0636 39.8482 35.8836 40.4782 35.7136 41.1182L35.4236 42.1882C35.3636 42.3982 35.2336 42.6782 35.2436 42.8982C35.2736 43.2982 35.7336 43.6082 36.0136 43.8382C37.1636 44.8282 38.4036 45.7182 39.5136 46.7582L39.8036 46.0482C38.6036 46.2082 37.4036 46.3682 36.1936 46.5282C35.9636 46.5582 35.6836 46.7782 35.7936 47.0582C36.4836 48.7482 37.0536 50.4882 37.5036 52.2582L38.1136 51.7882C36.6636 51.1282 35.3036 50.3182 34.0536 49.3382C33.8036 49.1482 33.4636 49.1982 33.3636 49.5182C32.7736 51.3082 31.9936 53.0382 31.2436 54.7582H31.9636C31.0336 52.9682 30.2636 51.1182 29.6536 49.1982C29.5936 49.0082 29.4436 48.9082 29.2536 48.8882C28.4136 48.8082 27.6336 49.1182 27.0536 49.7282C26.6836 50.1182 27.2736 50.7082 27.6436 50.3182C28.0836 49.8482 28.6236 49.6682 29.2536 49.7282L28.8536 49.4182C29.4836 51.4082 30.2836 53.3282 31.2536 55.1782C31.3836 55.4382 31.8436 55.4682 31.9736 55.1782C32.7536 53.3882 33.5636 51.5882 34.1836 49.7382L33.4936 49.9182C34.8036 50.9482 36.2136 51.8082 37.7236 52.4982C38.0436 52.6482 38.4336 52.4082 38.3336 52.0282C37.8836 50.2582 37.3136 48.5282 36.6236 46.8282L36.2236 47.3582C37.4236 47.1982 38.6236 47.0382 39.8336 46.8782C40.1636 46.8382 40.4236 46.4382 40.1236 46.1682C39.1336 45.2482 38.0436 44.4382 37.0036 43.5682C36.8036 43.3982 36.1036 42.9482 36.0636 42.7382C36.1936 42.7882 36.2436 42.7182 36.2136 42.5182L36.3436 42.0382L36.5436 41.3282C36.7136 40.6882 36.8936 40.0582 37.0636 39.4182C37.1436 39.1182 36.8536 38.8182 36.5536 38.9082C34.8336 39.3882 33.2536 40.1982 31.8436 41.2882L32.4936 41.3682C31.6536 39.9382 30.7036 38.4082 30.2436 36.8082C30.0936 36.2782 29.3736 36.5182 29.4436 37.0282C29.4636 37.1982 29.2536 37.8582 29.1636 38.1582C28.9636 38.8582 28.7336 39.5582 28.5136 40.2582C28.0936 41.5682 27.6036 42.8982 27.3836 44.2482C27.3036 44.7682 28.1036 44.9982 28.1836 44.4682L28.1636 44.4882Z" fill="black"/>
<path d="M49.4735 57.5982L49.5235 57.7382C49.5335 57.7882 49.5635 57.8382 49.5935 57.8782C49.6235 57.9282 49.6635 57.9582 49.7135 57.9882C49.7635 58.0182 49.8135 58.0382 49.8635 58.0382C49.9235 58.0482 49.9735 58.0382 50.0335 58.0382L50.1335 57.9982C50.1935 57.9582 50.2435 57.9082 50.2835 57.8482L50.3235 57.7482C50.3435 57.6782 50.3435 57.5982 50.3235 57.5282L50.2735 57.3882C50.2635 57.3382 50.2335 57.2882 50.2035 57.2482C50.1735 57.1982 50.1335 57.1682 50.0835 57.1382C50.0335 57.1082 49.9835 57.0882 49.9335 57.0882C49.8735 57.0782 49.8235 57.0882 49.7635 57.0882L49.6635 57.1282C49.6035 57.1682 49.5535 57.2182 49.5135 57.2782L49.4735 57.3782C49.4535 57.4482 49.4535 57.5282 49.4735 57.5982Z" fill="black"/>
<path d="M49.6235 57.6382C50.2335 58.8182 50.5035 60.1682 50.8435 61.4382C51.1835 62.7082 51.5535 64.0582 51.9035 65.3582C52.6035 67.9482 53.3035 70.5282 54.0035 73.1182C54.1435 73.6382 54.9435 73.4182 54.8035 72.8982C54.0835 70.2382 53.3635 67.5882 52.6435 64.9282C52.2835 63.6182 51.9335 62.2982 51.5735 60.9882C51.2135 59.6782 50.9435 58.3982 50.3335 57.2182C50.0835 56.7482 49.3735 57.1682 49.6135 57.6382H49.6235Z" fill="black"/>
<path d="M26.3436 58.0282C26.5836 59.0982 26.4636 60.2582 26.3736 61.3482C26.2736 62.6182 26.1536 63.8882 26.0136 65.1582C25.6836 68.1282 25.2736 71.0882 25.3736 74.0882C25.3936 74.6182 26.2236 74.6282 26.2036 74.0882C26.1036 71.0082 26.5336 67.9782 26.8636 64.9182C27.0036 63.6682 27.1136 62.4182 27.2136 61.1582C27.3036 60.0482 27.3836 58.8982 27.1336 57.8082C27.0136 57.2882 26.2136 57.5082 26.3336 58.0282H26.3436Z" fill="black"/>
<path d="M33.7336 64.2882C32.0536 62.5682 29.3136 61.9282 27.3236 63.5182C26.3536 64.2882 25.8736 65.4482 25.9136 66.6782C25.9536 67.9082 26.3236 69.3682 27.4436 70.0182C28.0936 70.3982 28.8736 70.5782 29.5936 70.7482C30.3836 70.9382 31.1736 71.0582 31.9836 71.1382C32.5136 71.1882 32.5136 70.3582 31.9836 70.3082C31.2036 70.2282 30.4336 70.0982 29.6736 69.9082C29.0436 69.7482 28.3136 69.5982 27.7636 69.2282C27.1536 68.8182 26.9536 68.0382 26.8236 67.3582C26.6936 66.6782 26.7036 65.9782 26.9536 65.3482C27.3836 64.2382 28.5436 63.5082 29.7136 63.4182C31.0236 63.3282 32.2536 63.9482 33.1536 64.8682C33.5236 65.2482 34.1136 64.6682 33.7436 64.2782L33.7336 64.2882Z" fill="black"/>
<path d="M38.6936 58.3781C39.6236 58.5781 40.5036 58.9581 41.2636 59.5381C41.6036 59.7981 42.0636 60.1381 42.2536 60.5281C42.4336 60.8881 42.0236 60.9881 41.7436 61.0281C41.2536 61.1081 40.7336 61.1081 40.2436 61.0981C39.7236 61.0981 39.2136 61.0381 38.7136 60.8681C38.0136 60.6281 37.0036 59.9181 37.2036 59.0481C37.3836 58.2481 38.6336 58.2981 39.2436 58.3381C39.7736 58.3681 39.7736 57.5381 39.2436 57.5081C38.3136 57.4581 37.0736 57.5281 36.5536 58.4381C35.9036 59.5781 36.8736 60.8681 37.8636 61.3981C39.0136 62.0081 40.4336 61.9981 41.6936 61.8581C42.1936 61.7981 42.7536 61.6581 43.0136 61.1781C43.3336 60.5881 42.9536 59.9881 42.5436 59.5581C41.5736 58.5481 40.2736 57.8481 38.9036 57.5581C38.3836 57.4481 38.1636 58.2481 38.6836 58.3581L38.6936 58.3781Z" fill="black"/>
<path d="M46.7835 59.9581C46.9235 59.2281 47.3835 58.6181 48.0335 58.2581C48.5635 57.9681 49.5035 57.7681 49.9535 58.3181C50.4035 58.8681 50.1535 59.7381 49.8235 60.2881C49.4635 60.8881 48.8235 61.3681 48.0835 61.2781C47.8835 61.2581 47.6935 61.1881 47.5235 61.0781C47.3435 60.9681 47.2135 60.7881 47.0635 60.6381C46.9135 60.4881 46.7435 60.3681 46.6135 60.1981C46.6535 60.2381 46.5635 60.1281 46.5735 60.1381V60.1681C46.5735 60.1481 46.5635 60.2381 46.5535 60.2381C46.5335 60.2581 46.5335 60.2581 46.5735 60.2181C46.6035 60.1881 46.6335 60.1681 46.6635 60.1481C46.8435 60.0081 46.8035 59.7081 46.6635 59.5581C46.4835 59.3781 46.2535 59.4181 46.0735 59.5581C45.8735 59.7181 45.7335 59.9381 45.7335 60.1981C45.7335 60.4581 45.8935 60.6681 46.0635 60.8481C46.2335 61.0281 46.4235 61.1881 46.5935 61.3581C46.7735 61.5481 46.9535 61.7281 47.1835 61.8481C48.1735 62.3781 49.3735 62.0581 50.1135 61.2481C50.7835 60.5081 51.2135 59.3581 50.8835 58.3681C50.7035 57.8381 50.3135 57.4381 49.7735 57.2481C49.2735 57.0781 48.6835 57.1181 48.1835 57.2781C47.0835 57.6281 46.1835 58.5781 45.9635 59.7281C45.9235 59.9481 46.0235 60.1781 46.2535 60.2381C46.4535 60.2981 46.7235 60.1681 46.7635 59.9481L46.7835 59.9581Z" fill="black"/>
<path d="M47.3835 69.7682C49.4235 70.5582 51.3735 71.5482 53.2135 72.7282C54.8235 73.7582 56.6735 74.9782 57.2235 76.9282L57.4135 76.4582C56.4935 77.0082 55.1835 76.1682 54.3435 75.7682C53.3635 75.3082 52.3835 74.8082 51.4435 74.2582C50.5635 73.7382 49.7135 73.1482 49.0535 72.3582C48.3035 71.4682 47.6735 70.4482 47.0035 69.4982C46.6935 69.0682 45.9735 69.4782 46.2835 69.9182C47.0135 70.9582 47.7035 72.0582 48.5335 73.0282C49.3135 73.9282 50.3235 74.5882 51.3535 75.1682C52.4535 75.7882 53.5935 76.3482 54.7535 76.8682C55.7235 77.2982 56.8335 77.7782 57.8335 77.1782C57.9935 77.0882 58.0735 76.8882 58.0235 76.7082C57.4335 74.6582 55.6535 73.3482 53.9635 72.2282C51.9635 70.9182 49.8335 69.8382 47.6035 68.9782C47.1035 68.7882 46.8835 69.5882 47.3835 69.7782V69.7682Z" fill="black"/>
<path d="M46.9335 69.1682C42.8735 69.9782 38.4135 71.0982 35.7935 74.5982C35.2735 75.2882 34.8235 76.2482 35.2735 77.0982C35.6835 77.8682 36.6135 78.0882 37.4135 77.9882C38.4535 77.8582 39.4935 77.4182 40.4535 77.0082C41.4635 76.5782 42.4335 76.0682 43.3535 75.4782C44.2735 74.8882 45.1235 74.2882 45.7435 73.4382C46.0635 73.0082 46.2735 72.5282 46.4235 72.0182C46.5735 71.5082 46.6635 70.9382 47.0835 70.5382C47.4735 70.1682 46.8835 69.5882 46.4935 69.9482C45.9635 70.4482 45.8135 71.1182 45.6235 71.7882C45.3735 72.6582 44.8435 73.3182 44.1535 73.8882C42.7535 75.0482 41.0335 75.9182 39.3435 76.5482C38.5535 76.8482 37.4535 77.3582 36.6035 77.1182C35.3135 76.7582 36.2035 75.3582 36.7335 74.7282C37.8135 73.4382 39.2335 72.4882 40.7535 71.7882C42.7735 70.8582 44.9835 70.3882 47.1535 69.9582C47.6735 69.8582 47.4535 69.0482 46.9335 69.1582V69.1682Z" fill="black"/>
<path d="M38.2435 77.4881C38.2035 77.7381 38.1435 77.9781 38.0935 78.2281C38.0535 78.4181 38.0135 78.6181 38.0335 78.8081C38.0935 79.3881 38.5035 79.8781 38.8435 80.3281C38.9735 80.4981 39.2035 80.6081 39.4135 80.4781C39.5835 80.3681 39.7035 80.0981 39.5635 79.9081C39.3735 79.6481 39.1735 79.3981 39.0135 79.1181C38.9835 79.0681 38.9635 79.0181 38.9335 78.9681C38.9235 78.9481 38.9135 78.9281 38.9035 78.9081C38.8635 78.8381 38.9335 78.9981 38.9035 78.9281C38.8935 78.8881 38.8735 78.8481 38.8635 78.8081C38.8635 78.7881 38.8635 78.7681 38.8535 78.7481C38.8335 78.6781 38.8535 78.8581 38.8535 78.7881C38.8535 78.7181 38.8535 78.6481 38.8535 78.5681C38.8535 78.4781 38.8335 78.6681 38.8535 78.5981C38.8535 78.5781 38.8535 78.5581 38.8535 78.5381C38.8535 78.4981 38.8735 78.4581 38.8735 78.4181C38.9235 78.1781 38.9835 77.9381 39.0235 77.6981C39.0635 77.4881 38.9635 77.2381 38.7335 77.1881C38.5335 77.1381 38.2635 77.2481 38.2235 77.4781L38.2435 77.4881Z" fill="black"/>
<path d="M35.3036 75.8681C32.3336 75.5581 29.2936 74.9281 26.5436 73.7281C26.0536 73.5181 25.6336 74.2281 26.1236 74.4481C29.0236 75.7081 32.1736 76.3781 35.3036 76.7081C35.8336 76.7681 35.8336 75.9281 35.3036 75.8781V75.8681Z" fill="black"/>
<path d="M75.8036 86.9481C75.6836 84.9581 75.4236 82.9781 75.0936 81.0081C74.6636 78.4381 74.1336 75.7181 72.8936 73.3981C72.4036 72.4781 71.7336 71.5581 70.7136 71.2081C70.2036 71.0281 69.9936 71.8381 70.4936 72.0081C71.2736 72.2781 71.7836 73.0781 72.1536 73.7681C72.7136 74.7981 73.0836 75.9381 73.3936 77.0681C74.0636 79.4881 74.4636 81.9781 74.7436 84.4681C74.8336 85.2881 74.9236 86.1181 74.9736 86.9481C75.0036 87.4781 75.8336 87.4781 75.8036 86.9481Z" fill="black"/>
<path d="M54.9936 83.2582C56.7936 83.6082 58.5536 84.1182 60.3436 84.5382C60.9036 84.6682 61.9936 85.1382 62.4936 84.6682C62.7036 84.4682 62.7536 84.1682 62.8336 83.9082C62.9636 83.4982 63.1136 83.0882 63.3136 82.7082C63.6836 82.0082 64.2936 81.3182 65.1636 81.4882C66.3336 81.7182 66.7636 83.0182 66.8436 84.0582C66.8936 84.8382 66.9136 85.5682 67.6236 86.0482C68.1936 86.4382 68.9236 86.5182 69.5936 86.5782C71.4936 86.7482 73.4136 86.8782 75.2736 87.3482C75.7936 87.4782 76.0136 86.6782 75.4936 86.5482C73.8636 86.1382 72.1536 85.9682 70.4736 85.8282C69.7336 85.7582 68.8236 85.8082 68.1636 85.4182C67.6936 85.1382 67.7036 84.6682 67.6836 84.1682C67.6636 83.7082 67.6036 83.2482 67.4636 82.8082C67.0036 81.3182 65.4136 80.0682 63.8636 80.8982C63.2536 81.2282 62.8236 81.8182 62.5236 82.4282C62.3736 82.7382 62.2436 83.0482 62.1336 83.3682C62.0836 83.4982 62.0536 83.8182 61.9636 83.9082C61.8136 84.0582 61.5336 83.9482 61.3136 83.8982C59.2736 83.4582 57.2736 82.8482 55.2236 82.4482C54.7036 82.3482 54.4736 83.1482 55.0036 83.2482L54.9936 83.2582Z" fill="black"/>
<path d="M29.6135 82.718C29.8835 82.198 30.4935 81.978 31.0235 81.818C31.8135 81.578 32.6335 81.468 33.4435 81.388C34.9935 81.238 36.5535 81.248 38.0935 81.048C39.1435 80.908 40.1235 80.848 41.1635 81.118C41.7335 81.268 42.2735 81.498 42.7835 81.798C43.3635 82.138 43.8035 82.598 44.3235 83.018C45.1335 83.678 45.8835 83.658 46.5935 82.898C47.2535 82.188 48.0535 81.688 48.9835 81.418C51.0735 80.838 53.4335 81.438 54.8035 83.148L54.7435 82.648C52.2435 86.898 51.1235 91.738 50.5735 96.598C50.2935 99.068 50.1535 101.548 50.0435 104.028C49.9335 106.508 49.8935 108.878 50.0735 111.288C50.2535 113.698 50.6435 115.968 51.4435 118.168C51.8435 119.258 52.3335 120.318 52.9435 121.318C53.4535 122.158 54.1435 123.128 55.1835 123.328C56.2235 123.528 56.8535 122.768 57.2335 121.958C57.7835 120.798 58.1235 119.538 58.3735 118.278C58.8935 115.608 59.1735 112.868 59.4935 110.168C60.2535 103.768 60.7835 97.348 61.1035 90.908C61.1335 90.378 60.3035 90.378 60.2735 90.908C60.0135 96.188 59.6135 101.458 59.0535 106.718C58.7735 109.388 58.4535 112.058 58.0835 114.728C57.7635 117.078 57.5235 119.658 56.3935 121.778C54.9835 124.408 52.6835 119.118 52.2835 118.038C51.5035 115.938 51.1035 113.718 50.9235 111.488C50.5535 107.028 50.8435 102.438 51.2635 97.988C51.7535 92.808 52.8035 87.588 55.4735 83.048C55.5735 82.878 55.5235 82.688 55.4135 82.548C54.1735 81.008 52.1635 80.258 50.2135 80.378C49.2735 80.428 48.3435 80.678 47.5135 81.118C47.1135 81.328 46.7435 81.598 46.4035 81.908C46.2235 82.068 46.0835 82.278 45.9035 82.428C45.4735 82.798 45.1535 82.628 44.7635 82.298C43.8335 81.498 42.9535 80.818 41.7735 80.428C40.5935 80.038 39.4435 80.008 38.2535 80.188C36.6435 80.438 34.9935 80.398 33.3835 80.558C31.9835 80.698 29.6635 80.848 28.9035 82.288C28.6535 82.758 29.3735 83.178 29.6235 82.708L29.6135 82.718Z" fill="black"/>
<path d="M25.4335 74.4382C22.2435 80.5082 18.8235 86.4482 15.4735 92.4282C11.8335 98.9382 8.20352 105.458 4.89352 112.138C3.28352 115.388 1.74352 118.668 0.403521 122.038C0.203521 122.538 1.01352 122.748 1.20352 122.258C3.73352 115.908 6.91352 109.818 10.1435 103.808C13.6435 97.2882 17.3135 90.8582 20.9235 84.3982C22.6935 81.2282 24.4535 78.0582 26.1435 74.8482C26.3935 74.3782 25.6735 73.9582 25.4235 74.4282L25.4335 74.4382Z" fill="black"/>
<path d="M40.9136 63.7881C40.6236 63.8381 40.3936 64.0981 40.3336 64.3781C40.2636 64.6681 40.3336 64.9981 40.5436 65.2081C41.0436 65.7081 41.9336 65.4381 42.2336 64.8481C42.5336 64.2581 42.3536 63.4981 41.7036 63.2481C41.1336 63.0381 40.4336 63.4081 40.3736 64.0281C40.3436 64.3281 40.5136 64.6181 40.7436 64.7981C41.0036 64.9981 41.3436 65.0581 41.6536 64.9181C41.9236 64.7881 42.0936 64.4781 42.0736 64.1781C42.0536 63.8581 41.8836 63.5981 41.6336 63.4081C41.3636 63.2081 41.0236 63.2081 40.7336 63.3381C40.4536 63.4581 40.2636 63.7181 40.1636 63.9981C39.9436 64.5681 40.2236 65.3981 40.8836 65.5181C41.5436 65.6381 42.0336 64.9681 41.9236 64.3481C41.8136 63.7281 41.0536 63.4681 40.5036 63.6481C39.8836 63.8481 39.4336 64.5381 39.7336 65.1681C39.9336 65.5981 40.4836 65.8081 40.9336 65.7481C41.1736 65.7181 41.4036 65.6181 41.5636 65.4281C41.7736 65.1781 41.8436 64.8681 41.7836 64.5481C41.6836 63.9981 41.1436 63.5381 40.5836 63.5281C40.0236 63.5181 39.5736 63.9681 39.4436 64.4881C39.3036 65.0481 39.5036 65.6181 39.9836 65.9481C40.5136 66.3081 41.2936 66.2381 41.7136 65.7481C42.1336 65.2581 42.1836 64.5481 41.7336 64.0581C41.3536 63.6381 40.7036 63.5081 40.2036 63.7681C39.7036 64.0281 39.4936 64.6481 39.5936 65.1881C39.6436 65.4281 39.7736 65.6781 39.9636 65.8381C40.1336 65.9781 40.3936 66.0081 40.5536 65.8381C40.6936 65.6881 40.7336 65.3981 40.5536 65.2481C40.5236 65.2181 40.4936 65.1981 40.4636 65.1681C40.4136 65.1181 40.4836 65.1881 40.4836 65.1981C40.4836 65.1881 40.4636 65.1581 40.4536 65.1481C40.4436 65.1281 40.4336 65.1181 40.4236 65.0981C40.3936 65.0381 40.4336 65.1281 40.4336 65.1281C40.4336 65.0881 40.4036 65.0381 40.3936 64.9881C40.3936 64.9781 40.3936 64.9481 40.3936 64.9381C40.4236 64.9981 40.3936 65.0181 40.3936 64.9781C40.3936 64.9381 40.3936 64.8981 40.3936 64.8581C40.3936 64.8381 40.3936 64.8281 40.3936 64.8081C40.3936 64.7281 40.3736 64.8881 40.3936 64.8381C40.4036 64.7981 40.4136 64.7481 40.4236 64.7081C40.4236 64.6881 40.4336 64.6781 40.4436 64.6581C40.4736 64.5781 40.4036 64.7281 40.4436 64.6781C40.4636 64.6481 40.4736 64.6181 40.4936 64.5881C40.4936 64.5881 40.5436 64.5081 40.4936 64.5681C40.4436 64.6281 40.4936 64.5681 40.5036 64.5581C40.5136 64.5481 40.5236 64.5381 40.5336 64.5281C40.5936 64.4681 40.5536 64.5281 40.5236 64.5281C40.5236 64.5281 40.6236 64.4781 40.6236 64.4681C40.6136 64.4981 40.5436 64.4981 40.5936 64.4781C40.6136 64.4781 40.6336 64.4681 40.6536 64.4581C40.6736 64.4481 40.6936 64.4581 40.7136 64.4481C40.7836 64.4281 40.6836 64.4481 40.6736 64.4481C40.7036 64.4581 40.7836 64.4481 40.8236 64.4481C40.8736 64.4481 40.8336 64.4681 40.7836 64.4481C40.7836 64.4481 40.8236 64.4481 40.8336 64.4481C40.8736 64.4481 40.9136 64.4681 40.9536 64.4781C41.0236 64.4981 40.9236 64.4781 40.9236 64.4681C40.9236 64.4781 40.9636 64.4881 40.9836 64.4981C41.0136 64.5181 41.0636 64.5681 41.1036 64.5681C41.0636 64.5681 41.0436 64.5181 41.0736 64.5481C41.0936 64.5681 41.1136 64.5781 41.1236 64.5981C41.1336 64.6081 41.1436 64.6181 41.1536 64.6381C41.2036 64.6881 41.1336 64.6181 41.1336 64.6081C41.1436 64.6381 41.1836 64.6781 41.2036 64.7081C41.2036 64.7081 41.2136 64.7481 41.2236 64.7481C41.1936 64.6881 41.1936 64.6781 41.2036 64.7181V64.7381L41.2236 64.8081C41.2236 64.8081 41.2236 64.6981 41.2236 64.7781C41.2236 64.8181 41.2236 64.8581 41.2236 64.9081C41.2236 64.9681 41.2436 64.8081 41.2236 64.8981C41.2236 64.9181 41.2236 64.9381 41.2136 64.9581C41.2136 64.9781 41.1936 65.0081 41.1936 65.0281C41.1836 65.0581 41.1936 65.0481 41.2136 64.9981C41.2136 65.0181 41.1936 65.0281 41.1936 65.0481C41.1736 65.0781 41.1536 65.1181 41.1336 65.1481C41.0836 65.2281 41.1936 65.0881 41.1336 65.1481C41.1236 65.1581 41.1036 65.1781 41.0936 65.1881C41.0836 65.1981 41.0636 65.2181 41.0536 65.2281C40.9836 65.2981 41.1136 65.1981 41.0536 65.2281C41.0136 65.2481 40.9536 65.2781 40.9136 65.3081C40.9636 65.2681 40.9736 65.2881 40.9336 65.2981C40.9036 65.2981 40.8736 65.3081 40.8536 65.3181C40.8236 65.3181 40.7936 65.3181 40.8736 65.3181C40.8536 65.3181 40.8336 65.3181 40.8136 65.3181C40.7936 65.3181 40.6836 65.3281 40.6636 65.3181C40.6636 65.3181 40.7536 65.3381 40.6836 65.3181C40.6536 65.3181 40.6236 65.3081 40.5936 65.2981C40.5736 65.2981 40.5236 65.2881 40.5136 65.2681C40.5136 65.2681 40.6036 65.3081 40.5336 65.2681C40.4936 65.2481 40.4536 65.2181 40.4036 65.1981C40.3536 65.1681 40.4136 65.1881 40.4136 65.2081C40.4136 65.2081 40.3736 65.1781 40.3736 65.1681C40.3536 65.1481 40.3436 65.1381 40.3236 65.1181C40.2536 65.0481 40.3636 65.1781 40.3236 65.1181C40.3036 65.0881 40.2936 65.0681 40.2736 65.0381C40.2436 64.9881 40.2736 64.9681 40.2736 65.0481C40.2736 65.0381 40.2636 65.0181 40.2536 65.0081C40.2436 64.9681 40.2336 64.9381 40.2236 64.8981C40.2236 64.8681 40.2236 64.8481 40.2236 64.9381C40.2236 64.9181 40.2236 64.8881 40.2236 64.8681C40.2236 64.8281 40.2236 64.7881 40.2236 64.7481C40.2236 64.7381 40.2236 64.7181 40.2236 64.6981C40.2236 64.7881 40.2136 64.7781 40.2236 64.7381C40.2336 64.6981 40.2436 64.6581 40.2536 64.6281C40.2536 64.6181 40.2536 64.5981 40.2636 64.5881C40.2836 64.5181 40.2836 64.5681 40.2636 64.5981C40.2836 64.5681 40.3036 64.5281 40.3136 64.4981C40.3136 64.4881 40.3336 64.4681 40.3336 64.4581C40.3736 64.3881 40.2636 64.5281 40.3236 64.4681C40.3436 64.4481 40.3636 64.4181 40.3836 64.3981C40.4036 64.3881 40.4236 64.3681 40.4336 64.3581C40.4036 64.3881 40.3636 64.4081 40.4236 64.3681C40.4436 64.3481 40.4836 64.3481 40.5036 64.3281C40.4436 64.3781 40.4336 64.3581 40.4936 64.3281C40.5136 64.3281 40.5236 64.3281 40.5436 64.3181C40.6136 64.2981 40.5236 64.3181 40.5036 64.3181C40.5236 64.3181 40.5636 64.3181 40.5736 64.3181C40.5836 64.3181 40.6136 64.3181 40.6236 64.3181C40.5536 64.3081 40.5436 64.3081 40.5736 64.3181C40.5836 64.3181 40.5936 64.3181 40.6136 64.3181C40.6336 64.3181 40.6436 64.3181 40.6636 64.3281H40.6836C40.6836 64.3281 40.7136 64.3481 40.6536 64.3281C40.6736 64.3481 40.7136 64.3581 40.7436 64.3781C40.7436 64.3781 40.7936 64.4181 40.8036 64.4181C40.8036 64.4181 40.7236 64.3481 40.7836 64.3981C40.8136 64.4281 40.8536 64.4581 40.8836 64.4981C40.9336 64.5481 40.8736 64.5181 40.8836 64.4781L40.9136 64.5181C40.9336 64.5481 40.9536 64.6081 40.9736 64.6281C40.9736 64.6281 40.9436 64.5281 40.9636 64.5981C40.9636 64.6181 40.9736 64.6281 40.9736 64.6481C40.9736 64.6681 40.9736 64.7081 40.9936 64.7181C40.9736 64.6981 40.9936 64.6181 40.9936 64.6981C40.9936 64.7281 40.9936 64.7681 40.9936 64.7981C40.9836 64.7081 41.0036 64.7281 40.9936 64.7781C40.9936 64.7781 40.9736 64.8181 40.9736 64.8281C40.9736 64.7881 41.0136 64.7481 40.9836 64.7981C40.9836 64.8081 40.9536 64.8381 40.9536 64.8581C40.9536 64.8581 41.0236 64.7781 40.9836 64.8181C40.9736 64.8281 40.9536 64.8481 40.9436 64.8581C40.9036 64.9081 41.0136 64.8181 40.9736 64.8381C40.9636 64.8381 40.9436 64.8581 40.9336 64.8681C40.9236 64.8681 40.9136 64.8781 40.9036 64.8881C40.8536 64.9181 40.9436 64.8681 40.9536 64.8681C40.9436 64.8681 40.8736 64.8881 40.8636 64.8981C40.8636 64.8981 40.8336 64.8981 40.8236 64.8981C40.9036 64.8981 40.9136 64.8881 40.8736 64.8981C40.8636 64.8981 40.8536 64.8981 40.8436 64.8981C40.8136 64.8981 40.7836 64.8981 40.7536 64.8981C40.6936 64.8981 40.8036 64.8981 40.8036 64.8981C40.7836 64.8981 40.7636 64.8981 40.7436 64.8881C40.7136 64.8881 40.6936 64.8781 40.6636 64.8681C40.6636 64.8681 40.6136 64.8481 40.6036 64.8481C40.6236 64.8481 40.7036 64.8981 40.6336 64.8481C40.6036 64.8381 40.5836 64.8181 40.5536 64.7981C40.4836 64.7581 40.6236 64.8681 40.5536 64.7981C40.5536 64.7981 40.5336 64.7781 40.5236 64.7681C40.4736 64.7281 40.5236 64.7281 40.5436 64.7981C40.5436 64.7781 40.5036 64.7381 40.4936 64.7181C40.4536 64.6581 40.5136 64.8081 40.5136 64.7581C40.5136 64.7481 40.5136 64.7281 40.5036 64.7081C40.4936 64.6681 40.5236 64.6681 40.5036 64.7581C40.5036 64.7481 40.5036 64.7281 40.5036 64.7081C40.5036 64.6981 40.5036 64.6681 40.5036 64.6581C40.5036 64.6681 40.4836 64.7481 40.5036 64.6781C40.5036 64.6781 40.5136 64.6181 40.5236 64.6181C40.5036 64.6681 40.5036 64.6681 40.5236 64.6281C40.5236 64.6181 40.5336 64.5981 40.5436 64.5881C40.5536 64.5681 40.5736 64.5381 40.5836 64.5181C40.6036 64.4981 40.6236 64.4781 40.6436 64.4581C40.7036 64.3981 40.6436 64.4681 40.6336 64.4581C40.6336 64.4581 40.7136 64.4081 40.7236 64.3981H40.7436C40.7436 64.3981 40.7736 64.3681 40.7136 64.3981C40.7136 64.3981 40.7836 64.3781 40.7836 64.3681C40.8036 64.3681 40.9236 64.3481 40.8536 64.3481C40.7836 64.3481 40.9036 64.3481 40.9336 64.3481C40.9636 64.3481 40.9736 64.3481 40.9936 64.3481C41.0436 64.3481 40.8936 64.3181 40.9736 64.3481C40.9936 64.3481 41.0036 64.3481 41.0236 64.3581C41.0336 64.3581 41.0436 64.3581 41.0636 64.3681C41.0936 64.3781 41.0836 64.3681 41.0236 64.3481L41.1336 64.4081C41.1236 64.4081 41.0636 64.3381 41.1036 64.3881C41.1136 64.3981 41.1336 64.4181 41.1436 64.4381C41.1836 64.4681 41.0936 64.3581 41.1336 64.4181C41.1336 64.4181 41.1536 64.4481 41.1536 64.4581C41.1036 64.4081 41.1236 64.3781 41.1336 64.4181C41.1336 64.4381 41.1636 64.5281 41.1436 64.4481C41.1236 64.3681 41.1436 64.4881 41.1436 64.5081C41.1236 64.4381 41.1636 64.4181 41.1436 64.4781C41.1436 64.4981 41.1436 64.5181 41.1336 64.5381C41.1336 64.5481 41.1236 64.5681 41.1136 64.5781C41.1136 64.4981 41.1536 64.5081 41.1136 64.5481C41.1136 64.5681 41.0936 64.5781 41.0836 64.5981C41.0436 64.6581 41.1536 64.5281 41.0936 64.5881C41.0836 64.5881 41.0736 64.6081 41.0636 64.6181C41.0136 64.6781 41.1336 64.5781 41.0936 64.5981C41.0736 64.5981 41.0636 64.6181 41.0436 64.6281C41.0036 64.6481 41.0236 64.6081 41.0836 64.6081C41.0736 64.6081 41.0436 64.6081 41.0336 64.6181C40.9836 64.6381 41.1436 64.6181 41.0736 64.6181C41.0336 64.6181 41.0536 64.5981 41.1136 64.6181C41.1036 64.6181 41.0436 64.5981 41.0336 64.5981L41.0836 64.6181C41.0836 64.6181 41.0636 64.6081 41.0436 64.5981C40.9936 64.5781 41.1136 64.6681 41.0436 64.5981C41.0336 64.5881 41.0136 64.5681 41.0036 64.5581C40.9436 64.4881 41.0336 64.6181 41.0036 64.5581C40.9836 64.5281 40.9636 64.4681 40.9436 64.4481C40.9636 64.4981 40.9936 64.5081 40.9436 64.4481C40.9436 64.4181 40.9436 64.3881 40.9236 64.3681C40.9036 64.3181 40.9236 64.4781 40.9236 64.3881C40.9236 64.3681 40.9236 64.3481 40.9236 64.3381C40.9236 64.3181 40.9236 64.2881 40.9236 64.2681C40.9236 64.2181 40.9036 64.3681 40.9236 64.2881C40.9236 64.2481 40.9436 64.2081 40.9536 64.1681C40.9736 64.0881 40.9736 64.1781 40.9536 64.1781C40.9536 64.1781 40.9836 64.1181 40.9936 64.1081C40.9936 64.0881 41.0136 64.0781 41.0236 64.0681C41.0636 63.9981 40.9736 64.1181 41.0136 64.0781C41.0136 64.0781 41.0936 64.0081 41.0936 63.9981C41.0936 64.0281 41.0136 64.0481 41.0836 64.0081C41.1036 64.0081 41.1236 63.9881 41.1336 63.9781C41.1836 63.9481 41.1336 64.0081 41.1036 63.9881L41.1736 63.9681C41.1536 63.9981 41.0736 63.9681 41.1536 63.9681C41.2136 63.9681 41.1836 63.9881 41.1236 63.9681C41.1436 63.9681 41.2536 64.0081 41.1836 63.9781C41.1136 63.9481 41.2136 64.0081 41.2336 64.0081C41.1636 63.9881 41.1736 63.9581 41.2136 63.9981C41.2236 64.0181 41.2436 64.0381 41.2636 64.0481C41.3036 64.0781 41.2136 63.9581 41.2436 64.0281C41.2436 64.0381 41.2636 64.0581 41.2636 64.0681C41.2636 64.0781 41.3036 64.1481 41.2636 64.0781C41.2236 64.0081 41.2636 64.0781 41.2636 64.0881C41.2636 64.0981 41.2636 64.1181 41.2736 64.1281C41.2936 64.1981 41.2736 64.0481 41.2736 64.0881C41.2736 64.0981 41.2736 64.1281 41.2736 64.1381C41.2736 64.1081 41.2936 64.0281 41.2736 64.1081C41.2636 64.1681 41.2836 64.0681 41.2936 64.0681C41.2936 64.0681 41.2436 64.1481 41.2936 64.0781C41.3436 64.0081 41.2836 64.0781 41.2836 64.0781C41.2836 64.0781 41.3636 64.0181 41.3136 64.0581C41.2436 64.0981 41.3936 64.0281 41.3436 64.0481C41.2936 64.0681 41.3036 64.0281 41.3836 64.0481H41.3436C41.2636 64.0481 41.4336 64.0781 41.3636 64.0481C41.3436 64.0481 41.3236 64.0381 41.3136 64.0281C41.2636 64.0281 41.4036 64.0781 41.3336 64.0281C41.3236 64.0281 41.3036 64.0081 41.2936 64.0081C41.2236 63.9681 41.3436 64.0581 41.3136 64.0281C41.2936 64.0081 41.2636 63.9681 41.2436 63.9481C41.3036 63.9781 41.2936 64.0081 41.2636 63.9681C41.2236 63.8881 41.2636 64.0181 41.2636 63.9881C41.2636 63.9781 41.2636 63.9381 41.2436 63.9381C41.2836 63.9881 41.2436 64.0281 41.2436 63.9781C41.2436 63.8581 41.2236 64.0681 41.2436 63.9481C41.2536 63.8981 41.2736 63.9481 41.2236 63.9881C41.2236 63.9881 41.2436 63.9481 41.2536 63.9381C41.2736 63.8981 41.1836 64.0081 41.2336 63.9581C41.2536 63.9481 41.2736 63.9281 41.2836 63.9181C41.2336 63.9881 41.2236 63.9581 41.2536 63.9481C41.2636 63.9481 41.2936 63.9281 41.3036 63.9181C41.3436 63.8881 41.2036 63.9481 41.2736 63.9281C41.2836 63.9281 41.3036 63.9281 41.3136 63.9181C41.3336 63.9181 41.3536 63.9181 41.3736 63.9081C41.4236 63.8881 41.2636 63.9081 41.3436 63.9081C41.3836 63.9081 41.4236 63.9081 41.4636 63.9081C41.3836 63.9181 41.3836 63.8881 41.4336 63.9081C41.4536 63.9081 41.4736 63.9181 41.4936 63.9181C41.5536 63.9281 41.4636 63.9181 41.4536 63.8981C41.4636 63.9081 41.4936 63.9181 41.5036 63.9281C41.5536 63.9481 41.5236 63.9781 41.4836 63.9081C41.4836 63.9081 41.5136 63.9281 41.5136 63.9381C41.5236 63.9481 41.5636 64.0181 41.5336 63.9581C41.5036 63.8981 41.5436 63.9781 41.5536 63.9981C41.6036 64.0681 41.5336 63.9981 41.5536 63.9881C41.5536 63.9881 41.5736 64.0281 41.5736 64.0381C41.5736 64.0581 41.5736 64.0881 41.5936 64.1081C41.6136 64.1581 41.5936 63.9981 41.5936 64.0881C41.5936 64.1281 41.5936 64.1681 41.5936 64.2081C41.5936 64.2681 41.6136 64.1081 41.5936 64.1881C41.5936 64.2181 41.5836 64.2381 41.5736 64.2681L41.5536 64.3181C41.5536 64.3181 41.5936 64.2281 41.5536 64.3081C41.5536 64.3181 41.5036 64.4181 41.4936 64.4181C41.5036 64.4181 41.5536 64.3481 41.4936 64.4181C41.4736 64.4381 41.4636 64.4481 41.4436 64.4681C41.4036 64.5081 41.4636 64.4681 41.4636 64.4581C41.4636 64.4681 41.4036 64.4981 41.3936 64.4981C41.3736 64.4981 41.3036 64.5181 41.3636 64.5181C41.4236 64.5081 41.3436 64.5181 41.3336 64.5181C41.3136 64.5181 41.2936 64.5181 41.2736 64.5281C41.1836 64.5481 41.3436 64.5281 41.2836 64.5281C41.2636 64.5281 41.2336 64.5281 41.2136 64.5281C41.1336 64.5281 41.2436 64.5281 41.2436 64.5281C41.2436 64.5281 41.1836 64.5081 41.1736 64.5081C41.1436 64.5081 41.2536 64.5481 41.1736 64.5081C41.1036 64.4681 41.1736 64.4881 41.1736 64.5081L41.1436 64.4781C41.1936 64.4981 41.1936 64.5581 41.1636 64.4981C41.1336 64.4481 41.1636 64.4581 41.1636 64.5281C41.1636 64.5081 41.1336 64.3981 41.1436 64.4781C41.1436 64.4281 41.1736 64.3981 41.1436 64.4981C41.1436 64.4781 41.1836 64.3781 41.1436 64.4481C41.1036 64.5181 41.1636 64.4281 41.1736 64.4081C41.1436 64.4781 41.1236 64.4681 41.1536 64.4381C41.1836 64.4081 41.0636 64.4981 41.1236 64.4581C41.1836 64.4281 41.0836 64.4781 41.0836 64.4781C41.0936 64.4781 41.1336 64.4681 41.1436 64.4681C41.3636 64.4381 41.4936 64.1581 41.4336 63.9581C41.3536 63.7281 41.1536 63.6281 40.9236 63.6681L40.9136 63.7881Z" fill="black"/>
<path d="M48.9036 63.8181C48.5736 64.0381 48.4636 64.3981 48.5236 64.7781C48.5836 65.1181 48.8236 65.3981 49.1336 65.5181C49.4936 65.6581 49.9136 65.5081 50.1836 65.2481C50.4536 64.9881 50.5936 64.6281 50.5536 64.2681C50.5136 63.8681 50.3336 63.5281 50.0036 63.2881C49.6736 63.0481 49.2836 63.0581 48.9336 63.2181C48.6336 63.3581 48.3736 63.6681 48.3236 63.9981C48.2836 64.2281 48.3236 64.4281 48.4136 64.6381C48.4936 64.8081 48.6336 64.9481 48.7836 65.0581C49.0736 65.2681 49.5036 65.3081 49.8136 65.0981C50.1036 64.9081 50.2536 64.5881 50.2536 64.2481C50.2536 63.9481 50.1436 63.6281 49.9236 63.4181C49.6636 63.1581 49.2736 63.0781 48.9236 63.1781C48.2236 63.3681 47.8236 64.1381 48.0336 64.8281C48.1336 65.1481 48.3436 65.4481 48.6436 65.6181C48.9736 65.8081 49.3636 65.8081 49.6936 65.6281C50.2836 65.2981 50.5436 64.3881 50.0236 63.8881C49.5736 63.4481 48.7536 63.5781 48.4336 64.1181C48.3536 64.2581 48.3036 64.4281 48.3136 64.5881C48.3136 64.8281 48.5236 65.0681 48.7736 65.0481C49.0236 65.0281 49.2436 64.8481 49.2336 64.5881C49.2336 64.5781 49.2336 64.5481 49.2336 64.5381C49.2336 64.5581 49.2036 64.6681 49.2336 64.5981C49.2336 64.5781 49.2436 64.5681 49.2436 64.5481C49.2236 64.6681 49.2036 64.6381 49.2336 64.5881C49.2736 64.5181 49.2136 64.6381 49.2036 64.6281C49.2036 64.6281 49.2336 64.5981 49.2336 64.5881C49.2336 64.5781 49.2736 64.5581 49.2736 64.5581C49.2736 64.5581 49.1836 64.6181 49.2136 64.6081C49.2136 64.6081 49.2336 64.5981 49.2436 64.5881C49.2636 64.5781 49.2736 64.5681 49.2936 64.5581C49.3536 64.5281 49.1836 64.5981 49.2436 64.5781C49.2736 64.5781 49.3136 64.5581 49.3536 64.5481C49.3836 64.5481 49.2236 64.5481 49.2936 64.5481C49.3136 64.5481 49.3236 64.5481 49.3436 64.5481C49.3636 64.5481 49.3736 64.5481 49.3936 64.5481C49.4436 64.5481 49.2736 64.5281 49.3236 64.5481C49.3336 64.5481 49.3436 64.5481 49.3536 64.5481C49.3736 64.5481 49.3836 64.5581 49.4036 64.5581C49.4336 64.5581 49.3336 64.5281 49.3336 64.5281C49.3336 64.5281 49.3536 64.5281 49.3536 64.5381C49.3636 64.5381 49.3836 64.5581 49.3936 64.5581C49.4636 64.5981 49.3236 64.4881 49.3536 64.5281C49.3536 64.5381 49.3736 64.5581 49.3936 64.5681C49.3036 64.4981 49.3336 64.4881 49.3636 64.5381C49.3736 64.5581 49.4036 64.6281 49.3636 64.5381C49.3236 64.4481 49.3636 64.5381 49.3636 64.5581C49.3636 64.5581 49.3636 64.5781 49.3636 64.5881C49.3736 64.6281 49.3536 64.5181 49.3636 64.5181C49.3636 64.5181 49.3636 64.5681 49.3636 64.5781C49.3636 64.5881 49.3636 64.6381 49.3636 64.6381C49.3636 64.6381 49.3936 64.5081 49.3636 64.5781C49.3636 64.5881 49.3636 64.6081 49.3636 64.6181C49.3636 64.6381 49.3536 64.6581 49.3436 64.6781C49.3236 64.7481 49.3936 64.5781 49.3536 64.6481C49.3336 64.6881 49.3036 64.7281 49.2836 64.7681C49.2636 64.8081 49.3236 64.7081 49.3236 64.7181L49.3036 64.7381C49.2836 64.7581 49.2736 64.7781 49.2536 64.7881C49.2536 64.7881 49.2136 64.8281 49.2036 64.8281C49.1936 64.8281 49.2936 64.7681 49.2536 64.7881C49.2436 64.7881 49.2336 64.8081 49.2236 64.8081C49.2036 64.8181 49.1836 64.8281 49.1736 64.8381C49.1436 64.8581 49.2336 64.8081 49.2336 64.8081H49.2036C49.1836 64.8081 49.1636 64.8081 49.1436 64.8281C49.1136 64.8381 49.2136 64.8181 49.2136 64.8281C49.2136 64.8281 49.1736 64.8281 49.1636 64.8281C49.1436 64.8281 49.0636 64.8281 49.1536 64.8281C49.2436 64.8281 49.1536 64.8281 49.1436 64.8281C49.1336 64.8281 49.1036 64.8181 49.0836 64.8081C49.0336 64.8081 49.1536 64.8281 49.1436 64.8381C49.1436 64.8381 49.1136 64.8181 49.1036 64.8181C49.0836 64.8181 49.0636 64.7981 49.0536 64.7881C49.0536 64.7881 49.0236 64.7681 49.0136 64.7681C49.0136 64.7581 49.0936 64.8481 49.0636 64.8081C49.0336 64.7681 48.9936 64.7381 48.9636 64.7081C48.9136 64.6481 49.0236 64.7981 48.9836 64.7281C48.9736 64.7081 48.9636 64.6881 48.9436 64.6681C48.9236 64.6481 48.9236 64.6281 48.9136 64.6081C48.9136 64.5981 48.9136 64.5881 48.9036 64.5781C48.8736 64.5281 48.9436 64.6881 48.9236 64.6181C48.9136 64.5781 48.8936 64.5281 48.8836 64.4881C48.8836 64.4781 48.8836 64.4681 48.8836 64.4581C48.8736 64.4081 48.9036 64.5381 48.8836 64.5281C48.8736 64.5181 48.8836 64.4681 48.8836 64.4481C48.8836 64.4281 48.8836 64.3981 48.8836 64.3781C48.8836 64.2781 48.8636 64.4781 48.8836 64.3981C48.8836 64.3781 48.8836 64.3581 48.9036 64.3281C48.9036 64.3081 48.9436 64.2181 48.9036 64.2981C48.8636 64.3781 48.9036 64.2981 48.9136 64.2781C48.9236 64.2581 48.9336 64.2381 48.9436 64.2181C48.9536 64.1981 49.0036 64.1381 48.9536 64.1981C48.9036 64.2581 48.9736 64.1781 48.9836 64.1681C49.0036 64.1481 49.0136 64.1381 49.0336 64.1181C49.0336 64.1181 49.0536 64.0981 49.0636 64.0981C49.0736 64.0981 48.9736 64.1581 49.0136 64.1381C49.0536 64.1181 49.0936 64.0881 49.1336 64.0681C49.2036 64.0381 49.0336 64.0981 49.1036 64.0781C49.1236 64.0781 49.1536 64.0681 49.1736 64.0581H49.2036C49.2036 64.0581 49.0936 64.0581 49.1336 64.0581C49.1536 64.0581 49.1836 64.0581 49.2036 64.0581C49.2136 64.0581 49.2236 64.0581 49.2336 64.0581C49.2736 64.0581 49.1636 64.0581 49.1636 64.0581C49.1636 64.0581 49.2236 64.0681 49.2236 64.0781C49.2336 64.0781 49.2436 64.0781 49.2536 64.0881C49.2936 64.0881 49.1936 64.0681 49.1936 64.0581C49.1936 64.0581 49.2536 64.0881 49.2536 64.0981C49.3136 64.1281 49.1736 64.0181 49.2136 64.0681C49.2236 64.0781 49.2436 64.0981 49.2536 64.1081C49.3036 64.1581 49.1936 64.0181 49.2236 64.0681C49.2336 64.0881 49.2436 64.1081 49.2536 64.1181C49.2636 64.1281 49.2936 64.1981 49.2536 64.1181C49.2136 64.0281 49.2536 64.1181 49.2536 64.1281C49.2536 64.1481 49.2636 64.1681 49.2736 64.1781C49.2736 64.1981 49.2936 64.2881 49.2736 64.1881C49.2536 64.0881 49.2736 64.1681 49.2736 64.1881C49.2736 64.2081 49.2736 64.2281 49.2736 64.2481C49.2736 64.2681 49.2736 64.2881 49.2736 64.3081C49.2736 64.3481 49.2836 64.2281 49.2836 64.2281C49.2836 64.2281 49.2836 64.2581 49.2836 64.2681C49.2836 64.2881 49.2836 64.2981 49.2636 64.3181C49.2636 64.3181 49.2636 64.3381 49.2636 64.3481C49.2636 64.3481 49.3136 64.2481 49.2936 64.2781C49.2936 64.2881 49.2736 64.3081 49.2636 64.3281C49.2236 64.3981 49.3336 64.2581 49.2936 64.2981C49.2936 64.2981 49.2536 64.3281 49.2536 64.3381C49.2536 64.3181 49.3636 64.2681 49.2936 64.3081L49.2636 64.3281C49.2636 64.3281 49.3636 64.2981 49.3236 64.2981L49.2536 64.3181C49.2536 64.3181 49.3636 64.3181 49.3236 64.3081C49.3236 64.3081 49.3036 64.3081 49.2936 64.3081C49.2236 64.3081 49.4036 64.3381 49.3336 64.3081C49.3136 64.3081 49.2936 64.2981 49.2736 64.2881C49.2536 64.2881 49.2136 64.2681 49.2936 64.2881C49.3036 64.2881 49.3736 64.3181 49.2936 64.2881L49.2436 64.2581C49.2436 64.2581 49.3236 64.3281 49.2936 64.2981C49.2936 64.2981 49.2736 64.2881 49.2736 64.2781C49.2536 64.2681 49.2436 64.2481 49.2236 64.2281C49.1736 64.1781 49.2836 64.3181 49.2336 64.2481C49.2236 64.2281 49.2136 64.2081 49.2036 64.1881C49.1736 64.1481 49.2436 64.2581 49.2236 64.2481C49.2236 64.2481 49.2236 64.2181 49.2136 64.2181L49.1936 64.1481C49.1936 64.1481 49.1936 64.2681 49.2036 64.2181C49.2036 64.2081 49.2036 64.1881 49.2036 64.1781V64.1481C49.2036 64.1481 49.1836 64.2581 49.2036 64.2181C49.2036 64.1981 49.2136 64.1781 49.2236 64.1581C49.2236 64.1581 49.2236 64.1281 49.2336 64.1281C49.2436 64.1281 49.1836 64.2281 49.2136 64.1881C49.2236 64.1681 49.2436 64.1381 49.2536 64.1181C49.2836 64.0581 49.1736 64.1981 49.2436 64.1381C49.2636 64.1181 49.2736 64.1081 49.2936 64.0881L49.3136 64.0681C49.3136 64.0681 49.2236 64.1281 49.2636 64.1081C49.2836 64.0981 49.3036 64.0781 49.3236 64.0681C49.3336 64.0681 49.3636 64.0381 49.3836 64.0381C49.3936 64.0381 49.2736 64.0781 49.3236 64.0681C49.3336 64.0681 49.3436 64.0681 49.3536 64.0581C49.3736 64.0581 49.4036 64.0581 49.4236 64.0381C49.4636 64.0281 49.3536 64.0581 49.3536 64.0381H49.3936H49.4536C49.4536 64.0481 49.3436 64.0081 49.3836 64.0381C49.3836 64.0381 49.4036 64.0381 49.4136 64.0381C49.4336 64.0381 49.4636 64.0381 49.4736 64.0581C49.4736 64.0581 49.3736 64.0081 49.4136 64.0381C49.4236 64.0381 49.4436 64.0481 49.4536 64.0581C49.4636 64.0681 49.4736 64.0781 49.4936 64.0781C49.5336 64.0981 49.4336 64.0381 49.4436 64.0381C49.4636 64.0381 49.4836 64.0681 49.4936 64.0881C49.4936 64.0881 49.5336 64.1381 49.5436 64.1381C49.5436 64.1381 49.4836 64.0581 49.5036 64.0881C49.5036 64.0981 49.5236 64.1181 49.5336 64.1281C49.5436 64.1481 49.5536 64.1681 49.5736 64.1881C49.5736 64.2081 49.6136 64.2881 49.5836 64.2081C49.5536 64.1281 49.5836 64.2181 49.5836 64.2381C49.5836 64.2681 49.5936 64.2881 49.6036 64.3181C49.6036 64.3181 49.6036 64.3481 49.6036 64.3581C49.6036 64.3581 49.5936 64.2481 49.6036 64.2981C49.6036 64.3181 49.6036 64.3481 49.6036 64.3681C49.6036 64.3881 49.6036 64.4181 49.6036 64.4381C49.6036 64.4781 49.6036 64.3781 49.6036 64.3781C49.6036 64.3781 49.6036 64.4181 49.6036 64.4281C49.6036 64.4581 49.5836 64.4781 49.5836 64.5081C49.5736 64.5481 49.6036 64.4481 49.6036 64.4581C49.6036 64.4581 49.5936 64.4881 49.5836 64.4881C49.5736 64.5081 49.5636 64.5281 49.5436 64.5481C49.5436 64.5581 49.5336 64.5681 49.5236 64.5781C49.4836 64.6381 49.5536 64.5381 49.5536 64.5381L49.4536 64.6381C49.4536 64.6381 49.5336 64.5781 49.5036 64.5981C49.4936 64.5981 49.4736 64.6181 49.4636 64.6281C49.4436 64.6381 49.4136 64.6681 49.3936 64.6681C49.3836 64.6681 49.5036 64.6381 49.4536 64.6381C49.4436 64.6381 49.4336 64.6381 49.4236 64.6381C49.4136 64.6381 49.4036 64.6381 49.3936 64.6381C49.3436 64.6581 49.4736 64.6181 49.4636 64.6381C49.4636 64.6381 49.4036 64.6381 49.3936 64.6381C49.3736 64.6381 49.3336 64.6381 49.4136 64.6381C49.4336 64.6381 49.4936 64.6381 49.4136 64.6381C49.4136 64.6381 49.3936 64.6381 49.3836 64.6381C49.3236 64.6281 49.4436 64.6581 49.4436 64.6681C49.4436 64.6681 49.4036 64.6481 49.3936 64.6381C49.3336 64.6081 49.4736 64.7181 49.4336 64.6681C49.4236 64.6481 49.3636 64.5881 49.4236 64.6681C49.4336 64.6781 49.4836 64.7481 49.4236 64.6681C49.4236 64.6481 49.4036 64.6381 49.3936 64.6181C49.3536 64.5381 49.4236 64.7181 49.4036 64.6481C49.4036 64.6281 49.3936 64.6081 49.3836 64.5881C49.3636 64.4981 49.3736 64.5681 49.3836 64.5881C49.3836 64.6081 49.4036 64.6781 49.3836 64.5881C49.3836 64.5681 49.3836 64.5481 49.3836 64.5381C49.3836 64.4981 49.3736 64.6181 49.3736 64.6181V64.5881C49.3736 64.5681 49.4136 64.4881 49.3736 64.5781C49.3336 64.6681 49.3736 64.5981 49.3736 64.5781C49.3836 64.5481 49.3336 64.6381 49.3236 64.6381C49.3236 64.6381 49.3336 64.6181 49.3436 64.6181C49.4036 64.5581 49.2536 64.6781 49.3136 64.6381C49.5136 64.4981 49.6236 64.2281 49.4836 64.0081C49.3536 63.8081 49.0636 63.6981 48.8536 63.8381L48.9036 63.8181Z" fill="black"/>
<path d="M54.3736 76.6082C55.6936 79.0082 57.4436 81.1782 58.5736 83.6782C58.7936 84.1682 59.5136 83.7382 59.2936 83.2582C58.1636 80.7582 56.4136 78.5882 55.0936 76.1882C54.8336 75.7182 54.1136 76.1382 54.3736 76.6082Z" fill="black"/>
<path d="M68.9336 111.058C68.4536 111.408 69.0136 112.248 69.1836 112.638C69.6136 113.658 70.0536 114.668 70.4936 115.678C71.4936 117.988 72.5236 120.288 73.4836 122.628C73.5936 122.888 73.6636 123.198 73.8036 123.438C73.9036 123.618 73.7336 123.498 73.9236 123.458C73.5836 123.548 73.3436 123.688 73.0436 123.878C71.9336 124.598 70.6836 125.128 69.4536 125.618C66.1236 126.938 62.6436 127.918 59.1536 128.718C56.1536 129.408 53.1936 129.878 50.1136 129.868C46.4836 129.858 42.8636 129.748 39.2336 129.588C31.7136 129.248 24.1336 128.748 16.7036 127.508C14.2936 127.108 11.7436 126.688 9.48356 125.698C8.36356 125.208 7.26356 124.858 6.08356 124.558C4.69356 124.208 3.15356 123.918 1.91356 123.178C1.60356 122.998 1.14356 122.688 1.20356 122.258C1.28356 121.738 0.483562 121.508 0.403562 122.038C0.213562 123.258 1.37356 123.908 2.34356 124.308C3.76356 124.898 5.28356 125.198 6.76356 125.588C7.84356 125.878 8.80356 126.348 9.84356 126.728C10.9536 127.138 12.1036 127.428 13.2636 127.688C16.5436 128.418 19.8936 128.848 23.2336 129.218C27.2236 129.658 31.2336 129.968 35.2436 130.208C39.2536 130.448 43.0736 130.598 47.0036 130.658C48.6336 130.688 50.2636 130.738 51.8936 130.688C53.3236 130.638 54.7636 130.418 56.1736 130.168C59.8536 129.518 63.5036 128.558 67.0436 127.358C68.5636 126.848 70.0836 126.288 71.5336 125.608C72.1136 125.338 72.6936 125.048 73.2436 124.708C73.5036 124.548 73.7336 124.358 74.0236 124.268C74.3336 124.158 74.5436 124.108 74.6236 123.748C74.7536 123.178 74.2836 122.428 74.0736 121.938C73.5836 120.778 73.0836 119.618 72.5836 118.458C71.6236 116.238 70.6236 114.038 69.7136 111.798C69.6736 111.698 69.6336 111.588 69.5836 111.478C69.5436 111.378 69.5636 111.268 69.5436 111.418L69.3336 111.778C69.7636 111.468 69.3536 110.748 68.9136 111.058H68.9336Z" fill="black"/>
<path d="M40.4535 99.6082C40.8935 105.498 41.4135 111.738 44.8335 116.768C45.1335 117.208 45.8535 116.788 45.5535 116.348C42.2235 111.438 41.7135 105.358 41.2935 99.6082C41.2535 99.0782 40.4235 99.0782 40.4635 99.6082H40.4535Z" fill="black"/>
<path d="M32.2835 93.6681C28.4235 99.6181 28.0535 107.298 31.3635 113.568C32.2735 115.298 33.4435 116.878 34.8235 118.258C35.2035 118.638 35.7835 118.048 35.4135 117.668C32.4635 114.688 30.5135 110.738 30.0335 106.558C29.5535 102.378 30.6235 97.7581 33.0035 94.0781C33.2935 93.6281 32.5735 93.2081 32.2835 93.6581V93.6681Z" fill="black"/>
<path d="M40.8735 122.518C45.7235 124.668 51.3035 124.848 56.2535 122.938C56.7435 122.748 56.5335 121.948 56.0335 122.138C51.2935 123.958 45.9335 123.858 41.2935 121.798C40.8135 121.588 40.3835 122.298 40.8735 122.518Z" fill="black"/>
<path d="M59.3436 108.048C60.5936 109.288 62.3336 109.948 63.9836 110.478C65.7436 111.058 67.5636 111.418 69.4036 111.628C73.1036 112.048 76.8736 111.818 80.5236 111.078C81.0436 110.968 80.8236 110.168 80.3036 110.278C76.8636 110.978 73.3236 111.198 69.8336 110.848C68.0936 110.678 66.3736 110.348 64.7036 109.838C63.0336 109.328 61.1936 108.708 59.9336 107.458C59.5536 107.078 58.9636 107.668 59.3436 108.048Z" fill="black"/>
<path d="M64.3636 91.2082C66.6936 93.0982 69.2536 94.6982 71.6736 96.4782C72.9336 97.3982 74.1836 98.3482 75.3236 99.4182C76.5536 100.578 77.5136 101.978 78.3036 103.468C79.4136 105.578 80.0736 107.908 80.0036 110.308C79.9836 110.838 80.8236 110.838 80.8336 110.308C80.9436 106.438 79.2336 102.348 76.6136 99.5182C74.4336 97.1682 71.6036 95.3682 68.9936 93.5382C67.6336 92.5882 66.2536 91.6582 64.9736 90.6182C64.5636 90.2882 63.9736 90.8682 64.3836 91.2082H64.3636Z" fill="black"/>
<path d="M49.4235 124.158C51.6535 124.558 53.8535 125.088 56.0235 125.748L55.9235 124.988C53.6635 126.408 51.5835 128.118 49.3235 129.538C48.8735 129.818 49.2835 130.538 49.7435 130.258C52.0035 128.838 54.0835 127.128 56.3435 125.708C56.6435 125.518 56.5935 125.058 56.2435 124.948C54.0735 124.298 51.8735 123.768 49.6435 123.358C49.1235 123.268 48.8935 124.068 49.4235 124.158Z" fill="black"/>
<path d="M31.8336 114.668L31.5936 117.648C31.5536 118.088 31.4136 118.638 31.4736 119.078C31.5136 119.368 31.6136 119.328 31.3036 119.348C30.1636 119.418 29.0136 119.408 27.8636 119.418C27.2536 119.418 26.6536 119.418 26.0436 119.418C25.4836 119.418 24.8436 119.458 24.3936 119.848C23.9236 120.258 23.9536 120.838 24.2936 121.318C24.8336 122.078 25.4736 122.788 26.0536 123.508C26.2236 123.718 26.3836 123.958 26.5736 124.158L26.7936 124.348C26.8036 124.428 26.4436 124.728 26.3936 124.778C26.0336 125.158 25.6636 125.518 25.2836 125.868C24.4936 126.598 23.6936 127.318 22.9736 128.118C22.6136 128.518 23.2036 129.108 23.5636 128.708C24.2136 127.988 24.9236 127.328 25.6336 126.678C25.9536 126.378 26.2736 126.088 26.5936 125.778C26.9136 125.468 27.3336 125.138 27.5436 124.748C28.1336 123.648 24.3336 121.028 25.0236 120.428C25.4036 120.098 26.3336 120.258 26.7936 120.258C27.4736 120.258 28.1536 120.258 28.8336 120.248C29.4536 120.248 30.0836 120.238 30.7036 120.218C31.0336 120.208 31.4436 120.248 31.7636 120.138C32.4436 119.918 32.3336 118.808 32.3836 118.248L32.6736 114.668C32.7136 114.138 31.8836 114.138 31.8436 114.668H31.8336Z" fill="black"/>
<path d="M70.6035 72.0282C71.1335 72.0282 71.1435 71.1982 70.6035 71.1982C70.0635 71.1982 70.0635 72.0282 70.6035 72.0282Z" fill="black"/>
<path d="M53.6135 88.7181C53.5135 88.6981 53.4035 88.6881 53.3035 88.6681C52.7835 88.5881 52.5535 89.3781 53.0835 89.4681C56.3535 89.9981 59.6135 90.5381 62.8835 91.0681C68.1035 91.9181 73.3135 92.7781 78.5335 93.6481C79.7335 93.8481 80.9335 94.1281 82.1435 94.2681C83.5135 94.4281 82.5135 91.0581 82.3835 90.4581C81.7235 87.2881 80.8635 84.1581 79.9735 81.0481C79.0035 77.6481 77.9735 74.2681 76.8135 70.9281C76.5835 70.2581 76.3435 69.5981 76.0935 68.9381C75.9935 68.6681 75.9135 68.3181 75.7535 68.0681C75.6435 67.8881 75.4435 67.7481 75.2935 67.5981C74.4735 66.7381 73.5235 65.9981 72.5835 65.2581C70.3635 63.5081 68.0735 61.8381 65.7735 60.1881C65.6135 60.0781 65.4635 59.9681 65.3035 59.8481C64.8635 59.5381 64.4535 60.2581 64.8835 60.5681C66.5835 61.7781 68.2735 63.0081 69.9335 64.2581C71.1335 65.1581 72.3235 66.0681 73.4635 67.0381C73.8435 67.3581 74.2235 67.6881 74.5635 68.0381C74.6735 68.1581 74.7835 68.2781 74.9035 68.3881C74.9435 68.4281 75.0235 68.4781 75.0635 68.5281C74.9535 68.3881 75.0635 68.5481 75.0735 68.6081C75.1335 68.7481 75.1835 68.8981 75.2435 69.0481C77.5735 75.1381 79.3735 81.4981 80.9235 87.8281C81.2535 89.1881 81.5835 90.5581 81.8235 91.9481C81.8935 92.3581 81.9635 92.7581 81.9835 93.1781C81.9835 93.3181 81.9835 93.4581 81.9835 93.5981C81.9835 93.5481 81.9835 93.6581 81.9735 93.6481C81.9735 93.6481 82.0135 93.5481 82.0935 93.5081L82.4135 93.4681C81.3835 93.2181 80.3035 93.0981 79.2635 92.9281C76.9335 92.5381 74.6035 92.1581 72.2735 91.7681C67.1335 90.9181 61.9935 90.0781 56.8435 89.2381C55.6635 89.0481 54.4835 88.8481 53.3035 88.6581L53.0835 89.4581C53.1835 89.4781 53.2935 89.4881 53.3935 89.5081C53.9135 89.5981 54.1435 88.7881 53.6135 88.7081V88.7181Z" fill="black"/>
<path d="M70.4935 71.218C69.8635 71.418 69.1235 71.348 68.4735 71.328C67.5635 71.288 66.6535 71.208 65.7535 71.118C65.1135 71.048 64.4735 70.978 63.8335 70.898C63.7835 70.898 63.7035 70.868 63.6535 70.878C63.5435 70.898 63.8935 71.128 63.9135 70.998C63.9135 70.958 63.8435 70.818 63.8335 70.778C63.6035 70.138 63.4135 69.488 63.1835 68.848C63.0035 68.348 62.2035 68.568 62.3835 69.068C62.5835 69.628 62.7635 70.198 62.9535 70.768C63.0435 71.038 63.1335 71.488 63.4035 71.638C63.6735 71.788 64.1535 71.758 64.4435 71.798C65.8835 71.968 67.3235 72.128 68.7735 72.168C69.4035 72.188 70.1135 72.218 70.7235 72.018C71.2335 71.858 71.0135 71.048 70.5035 71.218H70.4935Z" fill="black"/>
<path d="M64.7935 59.9281C62.8435 61.9181 60.8235 64.6381 60.8335 67.5681C60.8335 68.1081 60.9135 69.1381 61.5435 69.3581C61.8435 69.4581 62.2235 69.4081 62.5235 69.3881C63.0735 69.3481 63.6235 69.2781 64.1635 69.2081C65.3235 69.0481 66.5335 68.9181 67.6535 68.5781C68.1635 68.4281 67.9435 67.6181 67.4335 67.7781C66.5935 68.0281 65.6935 68.1481 64.8235 68.2781C63.8935 68.4181 62.9335 68.5881 61.9935 68.5781C61.9335 68.5781 61.8735 68.5781 61.8135 68.5781C61.8835 68.5781 61.7635 68.5981 61.7535 68.5681C61.7735 68.6381 61.9135 68.6081 61.8735 68.6281C61.8935 68.6181 61.9035 68.7281 61.8735 68.6281C61.8635 68.5781 61.8135 68.5181 61.7835 68.4681C61.7235 68.3481 61.6635 67.9781 61.6535 67.7581C61.6035 66.7981 61.8835 65.8281 62.2535 64.9481C62.9635 63.2681 64.1035 61.8081 65.3735 60.5181C65.7435 60.1381 65.1635 59.5481 64.7835 59.9281H64.7935Z" fill="black"/>
<path d="M65.4536 64.2482C65.6636 65.1782 64.8236 66.0282 64.2336 66.6282C63.8936 66.9682 64.3236 67.4882 64.7336 67.2782C65.0336 67.1282 65.3436 66.9882 65.6736 66.9182C65.9136 66.8682 66.2036 66.8682 66.3736 66.9582C66.5736 67.0582 66.7436 67.2082 66.8736 67.3682C66.9236 67.4382 67.0036 67.5782 67.0236 67.6082C67.0436 67.6682 67.0636 67.7282 67.0736 67.7882C67.0636 67.6982 67.0636 67.9182 67.0736 67.8282C67.0436 68.0482 67.1236 68.2782 67.3636 68.3382C67.5536 68.3882 67.8436 68.2682 67.8736 68.0482C67.9836 67.3082 67.4736 66.6082 66.8436 66.2582C66.0236 65.8082 65.0836 66.1682 64.3136 66.5582L64.8136 67.2082C65.6536 66.3682 66.5336 65.2982 66.2536 64.0182C66.1336 63.4982 65.3336 63.7182 65.4536 64.2382V64.2482Z" fill="black"/>
</g>
<defs>
<clipPath id="clip0_1_456">
<rect width="91.73" height="130.39" fill="white" transform="translate(0.373535 0.328125)"/>
</clipPath>
</defs>
</svg>
