<svg width="81" height="155" viewBox="0 0 81 155" fill="none" xmlns="http://www.w3.org/2000/svg">
<g clip-path="url(#clip0_1_498)">
<path d="M14.4797 67.6309C11.8997 68.1209 9.2997 68.5109 6.6997 68.8209C6.4197 68.8509 6.1297 68.8909 5.8497 68.9209C5.5197 68.9509 5.3397 69.0309 5.1597 68.7309C4.9797 68.4309 4.8797 68.0209 4.7497 67.6909C4.5697 67.2409 4.3897 66.7809 4.2197 66.3309C3.6297 64.8209 3.0597 63.2909 2.4397 61.7909C2.2797 61.4109 2.0297 60.9809 1.5697 60.9409C1.0797 60.8909 0.799703 61.3009 0.669703 61.7109C0.199703 63.1709 0.169703 64.8409 0.209703 66.3609C0.249703 67.8809 0.439703 69.4609 0.639703 71.0009C0.699703 71.4809 0.639703 72.2809 1.1797 72.5009C1.3597 72.5709 1.5597 72.5209 1.7497 72.5009C2.1997 72.4309 2.6497 72.3609 3.1097 72.2809C6.8897 71.6809 10.6697 71.0709 14.4497 70.4709C14.9797 70.3909 14.7497 69.5909 14.2297 69.6709C11.2297 70.1509 8.2297 70.6309 5.2297 71.1109C4.5297 71.2209 3.8297 71.3309 3.1397 71.4409C2.7297 71.5009 2.3097 71.5409 1.9097 71.6409C1.8897 71.6409 1.5697 71.7209 1.5797 71.7309C1.5097 71.6909 1.4897 71.0909 1.4797 71.0209C1.2797 69.5509 1.0997 68.0809 1.0497 66.6009C0.999703 65.1209 1.0597 63.6509 1.3897 62.2309C1.4697 61.8609 1.4797 61.7009 1.6597 62.1009C1.8097 62.4409 1.9297 62.8009 2.0697 63.1409C2.3497 63.8609 2.6297 64.5809 2.9197 65.3009C3.4297 66.5909 3.8397 67.9809 4.4597 69.2209C4.9297 70.1609 6.2297 69.7209 7.0597 69.6209C9.6197 69.3109 12.1697 68.9209 14.6997 68.4409C15.2197 68.3409 14.9997 67.5409 14.4797 67.6409V67.6309Z" fill="black"/>
<path d="M11.4497 71.071L11.7697 71.731C11.8097 71.821 11.9297 71.901 12.0197 71.921C12.1197 71.951 12.2497 71.941 12.3397 71.881C12.4297 71.821 12.5097 71.741 12.5297 71.631V71.521C12.5397 71.451 12.5297 71.381 12.4897 71.311L12.1697 70.651C12.1297 70.561 12.0097 70.481 11.9197 70.461C11.8197 70.431 11.6897 70.441 11.5997 70.501C11.5097 70.561 11.4297 70.641 11.4097 70.751V70.861C11.3997 70.931 11.4097 71.001 11.4497 71.071Z" fill="black"/>
<path d="M7.50964 68.5209L7.12964 67.8609C7.07964 67.7709 6.97964 67.7009 6.87964 67.6709C6.77964 67.6409 6.64964 67.6509 6.55964 67.7109C6.46964 67.7709 6.38964 67.8509 6.36964 67.9609C6.34964 68.0709 6.35964 68.1809 6.40964 68.2809L6.78964 68.9409C6.83964 69.0309 6.93964 69.1009 7.03964 69.1309C7.13964 69.1609 7.26964 69.1509 7.35964 69.0909C7.44964 69.0309 7.52964 68.9509 7.54964 68.8409C7.56964 68.7309 7.55964 68.6209 7.50964 68.5209Z" fill="black"/>
<path d="M4.71973 69.591C4.78973 70.241 4.95973 70.851 5.22973 71.441C5.26973 71.531 5.38973 71.611 5.47973 71.631C5.57973 71.661 5.70973 71.651 5.79973 71.591C6.00973 71.461 6.04973 71.231 5.94973 71.021C5.92973 70.981 5.90973 70.951 5.89973 70.911C5.93973 71.011 5.89973 70.911 5.89973 70.901C5.86973 70.841 5.84973 70.771 5.82973 70.701C5.77973 70.571 5.73973 70.441 5.70973 70.311C5.67973 70.181 5.63973 70.051 5.61973 69.921C5.60973 69.851 5.58973 69.781 5.57973 69.711C5.57973 69.681 5.57973 69.651 5.56973 69.621C5.59973 69.741 5.56973 69.611 5.56973 69.581C5.55973 69.471 5.52973 69.371 5.44973 69.291C5.37973 69.221 5.25973 69.161 5.15973 69.171C4.95973 69.171 4.71973 69.351 4.73973 69.591H4.71973Z" fill="black"/>
<path d="M3.17974 65.011C2.98974 65.231 2.79974 65.451 2.59974 65.671C2.52974 65.751 2.47974 65.851 2.47974 65.961C2.47974 66.061 2.52974 66.181 2.59974 66.251C2.66974 66.321 2.77974 66.381 2.88974 66.371C2.99974 66.361 3.10974 66.331 3.17974 66.251C3.36974 66.031 3.55974 65.811 3.75974 65.591C3.82974 65.511 3.87974 65.411 3.87974 65.301C3.87974 65.201 3.82974 65.081 3.75974 65.011C3.68974 64.941 3.57974 64.881 3.46974 64.891C3.35974 64.901 3.24974 64.931 3.17974 65.011Z" fill="black"/>
<path d="M3.96966 67.2508C3.92966 67.3208 3.88966 67.3808 3.83966 67.4508L3.89966 67.3708C3.79966 67.5008 3.68966 67.6108 3.55966 67.7108L3.63966 67.6508C3.50966 67.7508 3.36966 67.8308 3.21966 67.9008L3.31966 67.8608C3.31966 67.8608 3.27966 67.8808 3.25966 67.8808C3.15966 67.9208 3.06966 67.9708 3.00966 68.0708C2.95966 68.1608 2.93966 68.2908 2.96966 68.3908C2.99966 68.4908 3.05966 68.5908 3.15966 68.6408C3.25966 68.6908 3.37966 68.7208 3.47966 68.6808C3.60966 68.6308 3.73966 68.5708 3.85966 68.5008C3.97966 68.4308 4.08966 68.3408 4.19966 68.2508C4.38966 68.0908 4.54966 67.8908 4.67966 67.6808C4.72966 67.5908 4.74966 67.4608 4.71966 67.3608C4.68966 67.2608 4.61966 67.1608 4.52966 67.1108C4.32966 67.0008 4.07966 67.0608 3.95966 67.2608L3.96966 67.2508Z" fill="black"/>
<path d="M15.7497 67.1809C14.4197 66.7209 13.0797 66.2909 11.7497 65.8009C11.1297 65.5709 10.5097 65.3309 9.89965 65.0709C9.66965 64.9709 8.97965 64.8009 8.89965 64.5009C8.81965 64.1809 9.02965 63.5809 9.07965 63.2509C9.30965 61.7209 9.52965 60.1909 9.75965 58.6609C9.84966 58.0209 10.0197 57.3509 10.0397 56.7109C10.0497 56.3009 9.90966 55.8209 9.46966 55.6909C8.99966 55.5509 8.61965 55.9209 8.32965 56.2309C7.86965 56.7209 7.45965 57.2609 7.06965 57.8009C6.28965 58.9009 5.64965 60.0909 5.07965 61.3109C4.50965 62.5309 3.90965 63.7209 3.52965 64.9609C3.40965 65.3609 3.52965 65.6409 3.87965 65.8409C4.50965 66.1809 5.25965 66.3709 5.92965 66.6309C8.69965 67.7009 11.4497 68.8109 14.2297 69.8609C14.7297 70.0509 14.9497 69.2509 14.4497 69.0609C12.2497 68.2309 10.0697 67.3609 7.87965 66.5009C7.36965 66.3009 6.85965 66.1009 6.34965 65.9009C6.07965 65.7909 5.79965 65.6909 5.52965 65.5809C5.25965 65.4709 4.62965 65.3709 4.42965 65.1609C4.30965 65.0309 4.24965 65.5409 4.40965 64.9709C4.44965 64.8409 4.51965 64.7009 4.56965 64.5709C4.67965 64.3109 4.77965 64.0409 4.88965 63.7809C5.14965 63.1509 5.41965 62.5309 5.69965 61.9109C6.19965 60.8109 6.75965 59.7409 7.41965 58.7309C7.74965 58.2309 8.09965 57.7409 8.47965 57.2809C8.64965 57.0809 8.82965 56.8109 9.03965 56.6409C9.27965 56.4609 9.16965 56.4709 9.18965 56.6909C9.20965 56.9109 9.10965 57.2409 9.07965 57.4609C8.87965 58.7909 8.68965 60.1109 8.48965 61.4409C8.38965 62.1209 8.28965 62.8109 8.18965 63.4909C8.12965 63.9209 7.93965 64.5009 8.12965 64.9209C8.34965 65.4009 9.00965 65.5609 9.44965 65.7509C10.0997 66.0209 10.7497 66.2809 11.4197 66.5309C12.7797 67.0309 14.1497 67.4809 15.5197 67.9509C16.0297 68.1209 16.2397 67.3209 15.7397 67.1509L15.7497 67.1809Z" fill="black"/>
<path d="M12.6097 68.9109C12.4897 69.2009 12.4697 69.5309 12.5597 69.8409L12.6097 68.9109Z" fill="white"/>
<path d="M12.2097 68.801C12.0697 69.161 12.0597 69.581 12.1597 69.951C12.1897 70.051 12.2597 70.151 12.3497 70.201C12.4397 70.251 12.5697 70.271 12.6697 70.241C12.8897 70.171 13.0197 69.951 12.9597 69.731C12.9397 69.671 12.9297 69.611 12.9197 69.551V69.661C12.9197 69.531 12.9197 69.391 12.9297 69.261V69.371C12.9297 69.251 12.9597 69.131 13.0097 69.021C13.0497 68.931 13.0097 68.781 12.9697 68.701C12.9297 68.621 12.8197 68.531 12.7197 68.511C12.6097 68.491 12.4897 68.491 12.3997 68.551L12.3197 68.611C12.2697 68.661 12.2297 68.721 12.2097 68.791V68.801Z" fill="black"/>
<path d="M13.9497 66.6807C14.1497 66.4907 14.3097 66.2607 14.4197 66.0107L13.9497 66.6807Z" fill="white"/>
<path d="M14.2497 66.9808C14.3797 66.8608 14.4797 66.7308 14.5797 66.5908C14.6597 66.4808 14.7297 66.3508 14.7797 66.2308C14.8097 66.1808 14.8297 66.1308 14.8297 66.0808C14.8397 66.0208 14.8297 65.9708 14.8297 65.9108C14.7997 65.8108 14.7297 65.7108 14.6397 65.6608C14.5397 65.6108 14.4297 65.5808 14.3197 65.6208L14.2197 65.6608C14.1597 65.7008 14.1097 65.7508 14.0697 65.8108C13.9997 65.9608 13.9197 66.1108 13.8197 66.2408L13.8797 66.1608C13.8097 66.2508 13.7397 66.3308 13.6597 66.4008C13.5797 66.4708 13.5397 66.5908 13.5397 66.6908C13.5397 66.7908 13.5897 66.9108 13.6597 66.9808C13.7297 67.0508 13.8397 67.1108 13.9497 67.1008C14.0597 67.0908 14.1597 67.0608 14.2397 66.9808H14.2497Z" fill="black"/>
<path d="M10.9097 68.281C10.6697 68.511 10.4197 68.731 10.1797 68.961L10.9097 68.281Z" fill="white"/>
<path d="M10.6197 67.981C10.3797 68.211 10.1297 68.431 9.88965 68.661C9.80965 68.731 9.76965 68.851 9.76965 68.951C9.76965 69.051 9.81965 69.171 9.88965 69.241C9.95965 69.311 10.0697 69.371 10.1797 69.361C10.2897 69.351 10.3897 69.321 10.4697 69.241C10.7097 69.011 10.9597 68.791 11.1997 68.561C11.2797 68.491 11.3197 68.371 11.3197 68.271C11.3197 68.171 11.2697 68.051 11.1997 67.981C11.1297 67.911 11.0197 67.851 10.9097 67.861C10.7997 67.871 10.6997 67.901 10.6197 67.981Z" fill="black"/>
<path d="M12.0297 66.2308L12.1097 65.5908L12.0297 66.2308Z" fill="white"/>
<path d="M12.4496 66.2308L12.5296 65.5908C12.5296 65.5308 12.5296 65.4808 12.4896 65.4308C12.4696 65.3808 12.4396 65.3308 12.3996 65.3008C12.3296 65.2308 12.2096 65.1708 12.1096 65.1808C12.0096 65.1908 11.8896 65.2208 11.8196 65.3008L11.7596 65.3808C11.7196 65.4408 11.6996 65.5108 11.6996 65.5908L11.6196 66.2308C11.6196 66.2908 11.6196 66.3408 11.6596 66.3908C11.6796 66.4408 11.7096 66.4908 11.7496 66.5208C11.8196 66.5908 11.9396 66.6508 12.0396 66.6408C12.1396 66.6308 12.2596 66.6008 12.3296 66.5208L12.3896 66.4408C12.4296 66.3808 12.4496 66.3108 12.4496 66.2308Z" fill="black"/>
<path d="M8.14966 66.7707C8.26966 66.3107 8.45966 65.8607 8.70966 65.4607L8.14966 66.7707Z" fill="white"/>
<path d="M8.54961 66.8808C8.60961 66.6608 8.67961 66.4508 8.76961 66.2408L8.72961 66.3408C8.82961 66.1108 8.93961 65.8908 9.06961 65.6708C9.17961 65.4808 9.11961 65.2008 8.91961 65.1008C8.71961 65.0008 8.46961 65.0508 8.34961 65.2508C8.07961 65.6908 7.87961 66.1708 7.73961 66.6608C7.67961 66.8708 7.80961 67.1208 8.02961 67.1708C8.24961 67.2208 8.47961 67.1008 8.53961 66.8808H8.54961Z" fill="black"/>
<path d="M8.56974 63.8609C8.24974 63.8009 7.92974 63.7309 7.60974 63.6709L8.56974 63.8609Z" fill="white"/>
<path d="M8.67971 63.461C8.35971 63.401 8.03972 63.331 7.71972 63.271C7.60972 63.251 7.49972 63.251 7.39972 63.311C7.30972 63.361 7.22972 63.461 7.20972 63.561C7.18972 63.671 7.18972 63.791 7.24972 63.881C7.30972 63.971 7.38972 64.051 7.49972 64.071C7.81972 64.131 8.13972 64.201 8.45972 64.261C8.56972 64.281 8.67972 64.281 8.77972 64.221C8.86972 64.171 8.94972 64.071 8.96972 63.971C8.98972 63.861 8.98971 63.741 8.92971 63.651C8.86971 63.561 8.78971 63.481 8.67971 63.461Z" fill="black"/>
<path d="M8.89965 60.9608C8.56965 61.0608 8.19965 61.0308 7.88965 60.8708L8.89965 60.9608Z" fill="white"/>
<path d="M8.78969 60.5609C8.71969 60.5809 8.64969 60.6009 8.56969 60.6109H8.67969C8.55969 60.6109 8.43969 60.6109 8.31969 60.5909H8.42969C8.30969 60.5909 8.19969 60.5609 8.08969 60.5109L8.18969 60.5509C8.18969 60.5509 8.12969 60.5209 8.09969 60.5109C7.99969 60.4609 7.88969 60.4409 7.77969 60.4709C7.67969 60.5009 7.57969 60.5709 7.52969 60.6609C7.42969 60.8509 7.46969 61.1209 7.67969 61.2309C8.08969 61.4409 8.5697 61.5009 9.0097 61.3709C9.1097 61.3409 9.1997 61.2709 9.2597 61.1809C9.3197 61.0909 9.3297 60.9609 9.2997 60.8609C9.2297 60.6509 9.00969 60.5009 8.78969 60.5709V60.5609Z" fill="black"/>
<path d="M58.6497 36.4008C60.9397 31.0908 63.2197 25.7908 65.5097 20.4808C67.3497 16.2108 69.0297 11.8708 70.9397 7.64081C71.8997 5.51081 72.9197 3.33081 74.3497 1.47081L73.5797 1.26081C72.8197 10.6908 72.0597 20.1508 72.0497 29.6208C72.0497 32.1508 72.1097 34.6908 72.2797 37.2208L72.6997 36.8008C67.9997 36.1908 63.2697 35.8908 58.5297 35.9108C57.9997 35.9108 57.9897 36.7408 58.5297 36.7408C63.2697 36.7208 67.9997 37.0208 72.6997 37.6308C72.9097 37.6608 73.1297 37.4208 73.1197 37.2108C72.4897 27.7808 73.1197 18.2608 73.8197 8.85081C74.0097 6.32082 74.2097 3.79081 74.4097 1.26081C74.4497 0.800815 73.8597 0.760815 73.6397 1.05081C72.3897 2.67081 71.4797 4.53082 70.6097 6.38082C69.6297 8.47081 68.7497 10.6108 67.8797 12.7508C65.9197 17.5508 63.8297 22.3008 61.7797 27.0608C60.4997 30.0408 59.2097 33.0108 57.9297 35.9908C57.7197 36.4808 58.4397 36.9008 58.6497 36.4108V36.4008Z" fill="black"/>
<path d="M72.4497 28.2608C72.3097 27.4108 71.9997 26.5708 71.7397 25.7508C71.5997 25.3208 71.4697 24.9008 71.3397 24.4708C71.2797 24.2508 71.1597 23.9808 71.1797 23.7508C71.2397 23.2708 70.4897 23.2108 70.3597 23.6408C70.0697 24.6208 69.4997 25.5608 68.9797 26.4408L69.5497 26.2908C68.6797 25.6208 67.6997 25.1308 66.6397 24.8308C66.3297 24.7408 66.0497 25.0408 66.1297 25.3408C66.2197 25.6808 66.3097 26.0108 66.4097 26.3508C66.4497 26.5108 66.5597 27.2808 66.6897 27.3608C66.6797 27.3608 66.9197 27.1508 66.7597 27.2908C66.7197 27.3308 66.6697 27.3708 66.6297 27.4108C66.4997 27.5308 66.3697 27.6408 66.2397 27.7508C65.5897 28.2908 64.8997 28.8108 64.2797 29.3808C63.9797 29.6508 64.2497 30.0508 64.5697 30.0908C65.3197 30.1908 66.0597 30.2908 66.8097 30.3908L66.4097 29.8608C65.9797 30.9108 65.6297 31.9908 65.3497 33.0908C65.2497 33.4708 65.6397 33.7108 65.9597 33.5608C66.9197 33.1208 67.7897 32.5808 68.6197 31.9308L67.9297 31.7508C68.3197 32.9108 68.8197 34.0508 69.3197 35.1708C69.4497 35.4608 69.8997 35.4308 70.0397 35.1708C70.6497 34.0108 71.1497 32.8008 71.5397 31.5508L71.1397 31.8608C71.4997 31.8308 71.7797 31.9208 72.0297 32.1808C72.4097 32.5608 72.9897 31.9708 72.6197 31.5908C72.2197 31.1808 71.7097 30.9808 71.1397 31.0208C70.9497 31.0308 70.7997 31.1408 70.7397 31.3308C70.3597 32.5108 69.8897 33.6508 69.3197 34.7508H70.0397C69.5797 33.6908 69.0997 32.6308 68.7397 31.5308C68.6297 31.2108 68.2897 31.1508 68.0497 31.3508C67.2797 31.9508 66.4397 32.4408 65.5597 32.8508L66.1697 33.3208C66.4497 32.2208 66.8097 31.1408 67.2297 30.0908C67.3397 29.8108 67.0597 29.6008 66.8297 29.5608C66.0797 29.4608 65.3397 29.3608 64.5897 29.2608L64.8797 29.9708C65.5997 29.3108 66.3997 28.7408 67.1297 28.0908C67.3297 27.9208 67.5597 27.7408 67.5797 27.4608C67.5997 27.1208 67.3797 26.6608 67.2897 26.3408C67.1797 25.9408 67.0697 25.5308 66.9597 25.1308L66.4497 25.6408C67.4397 25.9208 68.3397 26.3808 69.1597 27.0108C69.3397 27.1508 69.6297 27.0408 69.7297 26.8608C70.2897 25.9208 70.8797 24.9208 71.1997 23.8608L70.3797 23.7508C70.3497 24.0108 70.4597 24.3008 70.5197 24.5508C70.6397 24.9908 70.7797 25.4208 70.9197 25.8508C71.1897 26.7108 71.5197 27.5908 71.6697 28.4808C71.7597 29.0108 72.5597 28.7808 72.4697 28.2608H72.4497Z" fill="black"/>
<path d="M57.9097 36.4108L57.8797 36.5008C57.8597 36.5608 57.8597 36.6108 57.8797 36.6708C57.8797 36.7308 57.8997 36.7808 57.9297 36.8208C57.9597 36.8708 57.9897 36.9108 58.0397 36.9408C58.0797 36.9808 58.1297 37.0008 58.1797 37.0108H58.2897C58.3597 37.0208 58.4297 37.0108 58.4997 36.9708L58.5797 36.9108C58.6297 36.8608 58.6697 36.8008 58.6897 36.7308L58.7197 36.6408C58.7397 36.5808 58.7397 36.5308 58.7197 36.4708C58.7197 36.4108 58.6997 36.3608 58.6697 36.3208C58.6397 36.2708 58.6097 36.2308 58.5597 36.2008C58.5197 36.1608 58.4697 36.1408 58.4197 36.1308H58.3097C58.2397 36.1208 58.1697 36.1308 58.0997 36.1708L58.0197 36.2308C57.9697 36.2808 57.9297 36.3408 57.9097 36.4108Z" fill="black"/>
<path d="M57.8797 36.2708C57.4797 37.0508 57.2897 37.9208 57.0597 38.7608C56.8497 39.5508 56.6297 40.3408 56.4197 41.1408C55.9797 42.7808 55.5297 44.4208 55.0897 46.0608C54.9497 46.5808 55.7497 46.8008 55.8897 46.2808C56.3197 44.7008 56.7497 43.1108 57.1797 41.5208C57.3897 40.7308 57.6097 39.9408 57.8197 39.1608C58.0297 38.3808 58.2097 37.4608 58.5997 36.6908C58.8397 36.2108 58.1297 35.7908 57.8797 36.2708Z" fill="black"/>
<path d="M72.3898 37.3909C72.0498 38.9409 72.3898 40.6109 72.4698 42.181C72.5498 43.841 72.5498 45.5009 72.4898 47.1609C72.4698 47.6909 73.2998 47.6909 73.3198 47.1609C73.3798 45.5609 73.3798 43.961 73.3098 42.361C73.2798 41.581 73.2298 40.7909 73.1598 40.0109C73.0898 39.2309 73.0098 38.3909 73.1898 37.6009C73.3098 37.0809 72.4998 36.8609 72.3898 37.3809V37.3909Z" fill="black"/>
<path d="M69.1997 41.7408C69.7297 41.2008 70.4497 40.8308 71.2297 40.8908C71.8797 40.9408 72.5497 41.3508 72.7897 41.9708C72.9397 42.3408 72.9397 42.7508 72.8697 43.1408C72.7997 43.5308 72.6997 43.9808 72.3597 44.2108C72.0197 44.4408 71.5897 44.5208 71.2097 44.6208C70.7497 44.7308 70.2897 44.8208 69.8197 44.8608C69.5997 44.8808 69.3997 45.0408 69.3997 45.2808C69.3997 45.4908 69.5897 45.7208 69.8197 45.7008C70.6897 45.6108 71.5897 45.4608 72.4097 45.1208C72.8097 44.9608 73.1497 44.7108 73.3597 44.3308C73.5697 43.9508 73.6697 43.5208 73.7197 43.1008C73.8197 42.2908 73.6197 41.4708 73.0297 40.8808C72.5097 40.3508 71.7497 40.0608 71.0097 40.0708C70.0997 40.0908 69.2497 40.5308 68.6197 41.1708C68.2497 41.5508 68.8297 42.1408 69.2097 41.7608L69.1997 41.7408Z" fill="black"/>
<path d="M65.6897 36.7708C64.8497 36.5808 63.9497 36.6208 63.1297 36.9208C62.7597 37.0608 62.3497 37.2508 62.2297 37.6608C62.1097 38.0708 62.3897 38.4508 62.7197 38.6808C63.0497 38.9108 63.4597 39.0908 63.8297 39.2508C64.1997 39.4108 64.6097 39.5108 65.0197 39.5208C65.7597 39.5308 66.6997 39.1508 66.8597 38.3408C67.0397 37.4308 66.1697 36.9108 65.4497 36.6308C65.2397 36.5508 64.9897 36.7208 64.9397 36.9208C64.8797 37.1508 65.0197 37.3508 65.2297 37.4308C65.4397 37.5108 65.6397 37.6108 65.8197 37.7408C65.8697 37.7708 65.9597 37.8608 65.9797 37.8908C66.0097 37.9308 66.0397 37.9708 66.0497 38.0108C66.0297 37.9608 66.0697 38.1308 66.0597 38.0708C66.0997 38.5008 65.4297 38.6808 65.0897 38.6808C64.5197 38.6808 63.9997 38.4308 63.5097 38.1708C63.3997 38.1108 63.2697 38.0508 63.1697 37.9808C63.1397 37.9608 63.1097 37.9308 63.0797 37.9108C63.0797 37.9108 63.0197 37.8308 63.0297 37.8408C63.0497 37.8408 63.0297 37.8908 63.0297 37.8808C62.9897 37.9608 63.0497 37.8708 63.0497 37.8708C63.0497 37.8708 63.1097 37.8408 63.1197 37.8308C63.2297 37.7608 63.3597 37.7208 63.4797 37.6808C64.1197 37.4708 64.8097 37.4308 65.4597 37.5808C65.6797 37.6308 65.9097 37.5108 65.9697 37.2908C66.0297 37.0808 65.8997 36.8308 65.6797 36.7808L65.6897 36.7708Z" fill="black"/>
<path d="M59.5897 36.3808C58.9097 36.1808 58.1697 36.3508 57.6197 36.7908C57.0397 37.2508 56.6397 38.1308 57.1297 38.8008C57.5697 39.4008 58.3797 39.5708 59.0797 39.4408C59.8497 39.3008 60.4797 38.6808 60.5097 37.8808C60.5097 37.6808 60.4697 37.5008 60.4097 37.3208C60.3597 37.1708 60.3297 37.0108 60.2697 36.8608C60.2097 36.6808 60.1097 36.5108 59.9397 36.4108C59.7197 36.2808 59.4897 36.3308 59.2697 36.4308C59.0697 36.5208 59.0197 36.8208 59.1197 37.0008C59.2397 37.2108 59.4797 37.2408 59.6897 37.1508H59.6497H59.6197C59.6197 37.1508 59.6497 37.1508 59.5797 37.1508C59.5397 37.1408 59.4997 37.1108 59.4697 37.0808C59.5197 37.1308 59.4397 37.0508 59.4497 37.0508C59.4497 37.0508 59.4797 37.1008 59.4797 37.1108C59.5097 37.1508 59.4697 37.0408 59.4797 37.0908C59.4897 37.1408 59.5197 37.2108 59.5297 37.2608C59.5597 37.3708 59.5897 37.4708 59.6297 37.5708C59.6497 37.6208 59.6697 37.6708 59.6797 37.7208C59.6797 37.7208 59.6997 37.8408 59.6897 37.7808C59.6897 37.7308 59.6897 37.8508 59.6897 37.8608C59.6897 37.8808 59.6897 37.9708 59.6897 37.8908C59.6897 37.9208 59.6897 37.9408 59.6797 37.9708C59.6697 38.0208 59.6497 38.0708 59.6297 38.1208C59.6597 38.0508 59.6297 38.1308 59.6197 38.1508C59.5997 38.1808 59.5897 38.2108 59.5697 38.2408C59.5597 38.2608 59.5397 38.2808 59.5297 38.3108C59.5697 38.2508 59.4997 38.3508 59.4897 38.3508C59.4697 38.3708 59.4497 38.3908 59.4297 38.4108C59.4297 38.4108 59.3397 38.4908 59.3797 38.4608C59.4197 38.4308 59.3097 38.5108 59.3197 38.5008C59.2997 38.5108 59.2697 38.5308 59.2497 38.5408C59.2297 38.5508 59.1997 38.5708 59.1797 38.5808C59.2297 38.5508 59.1797 38.5808 59.1597 38.5808C59.0897 38.6108 59.0097 38.6308 58.9397 38.6408C58.9097 38.6408 58.8697 38.6508 58.8397 38.6608C58.8597 38.6608 58.9097 38.6608 58.8197 38.6608C58.7597 38.6608 58.6897 38.6608 58.6297 38.6608C58.5697 38.6608 58.4997 38.6608 58.4397 38.6508C58.4597 38.6508 58.5197 38.6508 58.4397 38.6508C58.3997 38.6508 58.3697 38.6408 58.3297 38.6308C58.2697 38.6208 58.2197 38.6008 58.1697 38.5808C58.0997 38.5608 58.2497 38.6208 58.1497 38.5808C58.1297 38.5708 58.1097 38.5608 58.0797 38.5508C58.0297 38.5208 57.9797 38.4908 57.9397 38.4608C57.8897 38.4208 57.9997 38.5308 57.9197 38.4508C57.8997 38.4208 57.8697 38.4008 57.8397 38.3708C57.7997 38.3108 57.8297 38.3608 57.8397 38.3708C57.8297 38.3508 57.8097 38.3308 57.7997 38.3108C57.7997 38.3108 57.7497 38.2108 57.7697 38.2608C57.7897 38.3108 57.7597 38.2108 57.7597 38.2108C57.7397 38.1408 57.7597 38.2008 57.7597 38.2108C57.7597 38.1808 57.7597 38.1508 57.7597 38.1208C57.7597 38.0708 57.7697 38.0408 57.7897 37.9608C57.8297 37.8308 57.7797 37.9808 57.8097 37.9108C57.8297 37.8708 57.8397 37.8408 57.8597 37.8108C57.8897 37.7608 57.9197 37.7208 57.9497 37.6808C57.9097 37.7408 57.9497 37.6808 57.9697 37.6608C57.9897 37.6408 58.0097 37.6108 58.0297 37.5908C58.0697 37.5408 58.1197 37.5008 58.1697 37.4608C58.1797 37.4608 58.2297 37.4208 58.1697 37.4608C58.1997 37.4408 58.2297 37.4208 58.2597 37.4008C58.3097 37.3708 58.3697 37.3408 58.4197 37.3108C58.4197 37.3108 58.5297 37.2608 58.4697 37.2808C58.4297 37.3008 58.5297 37.2608 58.5397 37.2508C58.6097 37.2308 58.6697 37.2108 58.7397 37.1908C58.7597 37.1908 58.7897 37.1908 58.8097 37.1808C58.9297 37.1608 58.7297 37.1808 58.8497 37.1808C58.9097 37.1808 58.9697 37.1808 59.0397 37.1808C59.0597 37.1808 59.0897 37.1808 59.1097 37.1808C59.1397 37.1808 59.2197 37.1908 59.1497 37.1808C59.2197 37.1908 59.2997 37.2108 59.3697 37.2308C59.5797 37.2908 59.8297 37.1608 59.8797 36.9408C59.9297 36.7208 59.8097 36.4908 59.5897 36.4308V36.3808Z" fill="black"/>
<path d="M59.6798 43.5009C58.2798 44.0409 56.9398 44.7109 55.6898 45.5409C54.5998 46.2609 53.4698 47.1009 53.0898 48.4209C53.0398 48.6009 53.1198 48.8009 53.2798 48.8909C53.9398 49.2809 54.6498 49.0109 55.2998 48.7209C56.0398 48.3909 56.7698 48.0409 57.4698 47.6409C58.0998 47.2909 58.7297 46.8809 59.2097 46.3309C59.7597 45.7209 60.1998 44.9909 60.6698 44.3209C60.9798 43.8809 60.2598 43.4709 59.9498 43.9009C59.5498 44.4709 59.1698 45.0609 58.7398 45.6009C58.3298 46.1109 57.8098 46.4809 57.2498 46.8009C56.6898 47.1209 56.0998 47.4309 55.5098 47.7109C55.0398 47.9309 54.2198 48.4709 53.6998 48.1609L53.8898 48.6309C54.2198 47.4609 55.3398 46.7309 56.3098 46.1209C57.4398 45.4009 58.6398 44.7809 59.8998 44.3009C60.3898 44.1109 60.1798 43.3109 59.6798 43.5009Z" fill="black"/>
<path d="M59.9597 44.4309C62.1397 44.8609 64.4997 45.4009 66.0997 47.0609C66.3597 47.3309 66.9897 47.9409 66.7997 48.3609C66.5797 48.8709 65.6597 48.4809 65.3097 48.3609C64.2397 48.0009 63.2197 47.4909 62.2997 46.8409C61.8497 46.5209 61.3897 46.1309 61.1797 45.6109C60.9697 45.0909 60.9497 44.5509 60.5197 44.1509C60.1297 43.7809 59.5397 44.3709 59.9297 44.7409C60.1297 44.9309 60.1897 45.1809 60.2597 45.4409C60.3397 45.7309 60.4297 46.0209 60.5897 46.2809C60.8997 46.8109 61.3797 47.2109 61.8797 47.5609C62.9697 48.3309 64.2197 48.9309 65.5097 49.2909C66.0997 49.4609 66.7797 49.5209 67.2697 49.0809C67.7597 48.6409 67.7197 48.0309 67.4697 47.5009C66.9397 46.4109 65.7697 45.5709 64.7297 45.0209C63.3097 44.2809 61.7397 43.9209 60.1797 43.6109C59.6597 43.5109 59.4297 44.3109 59.9597 44.4109V44.4309Z" fill="black"/>
<path d="M65.9998 76.1108C65.3298 77.1808 64.6397 78.2308 63.9097 79.2608C63.6397 79.6408 63.3597 80.0308 63.0697 80.4008C62.9797 80.5108 62.8997 80.6208 62.7997 80.7308C62.6797 80.8708 62.5498 80.8908 62.7397 80.8508L63.1397 80.9608C62.0497 79.9708 60.9997 78.9508 59.9597 77.9108C58.1497 76.1108 56.3097 74.2508 54.8197 72.1708C52.9597 69.5608 51.3797 66.4808 50.7197 63.3308C50.2097 60.8908 50.4397 58.4208 51.3597 56.1108C52.4697 53.3108 54.3697 50.8608 56.2197 48.5108C56.5497 48.0908 55.9597 47.5008 55.6297 47.9208C53.6597 50.4308 51.6698 53.0208 50.5098 56.0208C49.3498 59.0208 49.3897 61.9308 50.2497 64.8608C51.2897 68.3708 53.2197 71.7008 55.5897 74.4808C57.4797 76.7008 59.5698 78.7608 61.6898 80.7508C62.0898 81.1208 62.6797 81.9808 63.2497 81.4808C63.8197 80.9808 64.2097 80.2708 64.6297 79.6908C65.3597 78.6608 66.0497 77.6108 66.7197 76.5408C66.9997 76.0908 66.2898 75.6708 65.9998 76.1208V76.1108Z" fill="black"/>
<path d="M64.8397 49.1209C65.0997 50.6209 65.9397 52.0609 66.6097 53.4009C67.2797 54.7409 68.1397 56.1809 68.4997 57.6709C68.6297 58.1909 69.4297 57.9709 69.2997 57.4509C68.9297 55.9609 68.1097 54.5509 67.4297 53.1909C66.7497 51.8309 65.8997 50.4109 65.6397 48.9009C65.5497 48.3709 64.7497 48.6009 64.8397 49.1209Z" fill="black"/>
<path d="M67.3597 48.6109C69.2197 48.4109 71.0297 47.9409 72.7397 47.1909C72.9497 47.1009 72.9897 46.8009 72.8897 46.6209C72.7697 46.4109 72.5297 46.3809 72.3197 46.4709C70.7497 47.1609 69.0597 47.6009 67.3597 47.7809C67.1397 47.8009 66.9397 47.9509 66.9397 48.2009C66.9397 48.4109 67.1297 48.6409 67.3597 48.6209V48.6109Z" fill="black"/>
<path d="M71.6597 76.8109C71.3397 81.0509 70.7197 85.2809 70.1197 89.4809C69.2597 95.6109 68.3097 101.721 67.3497 107.841C66.3297 114.331 65.2797 120.811 64.2197 127.301C63.3397 132.651 62.4497 138.001 61.5697 143.351C61.1297 146.001 60.6397 148.641 60.2797 151.301C60.2697 151.401 60.2497 151.501 60.2397 151.611C60.1997 152.141 61.0297 152.141 61.0697 151.611C61.0797 151.441 61.0697 151.571 61.0897 151.481C61.1097 151.341 61.1297 151.201 61.1497 151.061C61.2197 150.591 61.2997 150.131 61.3697 149.661C61.6297 148.071 61.8897 146.481 62.1497 144.891C62.9997 139.781 63.8497 134.661 64.6897 129.551C65.7497 123.121 66.7897 116.691 67.8097 110.251C68.8297 103.811 69.7697 97.7509 70.6697 91.4909C71.3197 86.9809 71.9697 82.4608 72.3897 77.9308C72.4197 77.5608 72.4597 77.1908 72.4797 76.8308C72.5197 76.3008 71.6897 76.3008 71.6497 76.8308L71.6597 76.8109Z" fill="black"/>
<path d="M32.2097 61.2607C29.8197 61.8107 27.5497 62.8507 25.5797 64.3207C24.2497 65.3207 21.6897 67.5407 23.6097 69.2507C23.9397 69.5507 24.5497 69.1507 24.2597 68.7507C23.0697 67.0507 21.2397 65.7507 19.4297 64.7707C17.6197 63.7907 16.0297 63.3307 14.0597 63.6707C12.5197 63.9307 11.1897 64.8207 10.4897 66.2307C9.85974 67.4807 9.69974 68.9107 9.62974 70.2907C9.48974 72.9807 9.07974 75.6407 8.91974 78.3307C8.84974 79.6007 8.79974 80.8707 8.78974 82.1407C8.76974 83.5607 8.71974 85.0107 8.84974 86.4207C9.05974 88.6607 10.1597 90.7607 10.8997 92.8507C11.2497 93.8207 11.5997 94.8507 11.6197 95.9007C11.6397 97.1907 11.3897 98.4907 11.0497 99.7307C10.4497 101.851 9.41974 103.851 8.98974 106.021C8.29974 109.591 10.0797 113.151 11.6597 116.261C12.5697 118.061 13.5897 119.821 14.8197 121.431C15.2897 122.041 15.7897 122.651 16.3797 123.161C17.0497 123.731 17.6797 124.251 18.1797 124.981C20.2197 127.941 20.4097 131.911 22.7997 134.641C23.3097 135.221 23.9397 135.701 24.6397 136.011C25.8297 136.531 27.0997 136.491 28.3797 136.441C29.6597 136.391 30.9197 136.511 32.0797 137.171C33.0897 137.751 33.9197 138.591 34.6697 139.481C36.1597 141.261 37.2497 143.391 38.9597 144.961C40.4997 146.371 42.6397 147.641 44.7997 147.451C45.7697 147.361 46.6297 146.961 47.3497 146.301C47.7397 145.941 47.1497 145.351 46.7597 145.711C45.0197 147.321 42.5797 146.531 40.8197 145.371C38.8797 144.091 37.7097 142.161 36.3597 140.321C35.1297 138.641 33.7197 136.921 31.7497 136.091C30.6597 135.631 29.5397 135.571 28.3697 135.611C27.1197 135.651 25.8497 135.731 24.7097 135.131C23.2797 134.371 22.4697 132.881 21.8597 131.441C21.1697 129.811 20.6697 128.111 19.9497 126.501C19.5897 125.701 19.1697 124.921 18.6397 124.221C18.1597 123.581 17.5897 123.101 16.9797 122.591C15.7197 121.521 14.7797 120.061 13.9297 118.671C12.8797 116.951 11.9597 115.141 11.1597 113.291C10.5497 111.861 9.90974 110.341 9.67974 108.801C9.37974 106.881 10.0497 104.971 10.7097 103.191C11.4997 101.061 12.2597 98.9507 12.4097 96.6707C12.5497 94.5207 11.6697 92.5407 10.9097 90.5707C10.5197 89.5507 10.1197 88.5207 9.85974 87.4607C9.55974 86.2307 9.60974 84.9507 9.60974 83.6907C9.58974 79.9207 9.84974 76.1707 10.3097 72.4307C10.5797 70.2707 10.2297 67.7507 11.6597 65.9307C12.7297 64.5707 14.6897 64.2107 16.3297 64.4507C17.1697 64.5707 17.9797 64.9607 18.7197 65.3507C19.7097 65.8707 20.6597 66.4707 21.5297 67.1707C22.2697 67.7607 22.9897 68.4107 23.5397 69.1907L24.1897 68.6907C22.5297 67.2107 25.9997 65.0007 27.0197 64.3407C28.6797 63.2807 30.4997 62.5307 32.4197 62.0807C32.9397 61.9607 32.7197 61.1607 32.1997 61.2807L32.2097 61.2607Z" fill="black"/>
<path d="M46.9797 146.451C48.1197 145.061 49.9997 145.521 51.3297 146.341C52.6597 147.161 53.8297 148.351 54.6497 149.711C55.3397 150.861 55.9197 151.951 57.2297 152.491C58.4097 152.981 59.7497 152.911 60.8697 152.291C61.3397 152.031 60.9197 151.311 60.4497 151.571C59.1897 152.261 57.5197 152.071 56.4997 151.031C55.9497 150.461 55.6297 149.701 55.2097 149.041C54.8097 148.411 54.3397 147.821 53.8197 147.291C52.0697 145.491 48.4797 143.321 46.3897 145.871C46.0497 146.281 46.6397 146.871 46.9797 146.461V146.451Z" fill="black"/>
<path d="M35.2197 64.0808C34.7697 64.4308 33.7297 64.6908 33.8197 65.4208C33.8897 65.9908 34.3797 66.5708 34.5897 67.1108C34.8697 67.8408 35.0397 68.6008 35.0997 69.3808L35.6297 68.9808C34.4197 68.7408 33.2197 68.5008 32.0097 68.2608C31.3997 68.1408 30.7897 67.9708 30.1697 67.9008C29.8697 67.8708 29.5997 67.9108 29.3897 68.1508C29.1497 68.4108 29.1597 68.8208 29.1097 69.1508C29.0197 69.7308 28.8997 70.3008 28.7397 70.8608C28.4297 71.9508 27.9597 72.9808 27.3897 73.9608H28.1097C27.4297 72.6308 26.9097 71.2408 26.5297 69.7908C26.4697 69.5408 26.1397 69.3908 25.9197 69.5408C24.8997 70.2308 23.8397 70.8408 22.8697 71.6108C22.5497 71.8708 22.1997 72.1508 21.8297 72.2408C21.8297 72.2408 21.7797 72.2508 21.7397 72.1808C21.5997 71.9308 21.5697 71.6408 21.5397 71.3608C21.4297 69.9608 21.6497 68.5208 21.8497 67.1408C21.9197 66.6208 21.1197 66.3908 21.0497 66.9208C20.8297 68.4508 20.5497 70.0908 20.7397 71.6408C20.8097 72.2008 20.9897 72.9208 21.6397 73.0508C22.1697 73.1608 22.6797 72.7908 23.0797 72.4908C24.1397 71.7008 25.2397 71.0108 26.3297 70.2608L25.7197 70.0108C26.1097 71.5208 26.6697 72.9808 27.3797 74.3708C27.5197 74.6508 27.9497 74.6308 28.0997 74.3708C29.0297 72.8008 29.6597 71.0608 29.9297 69.2508C29.9497 69.1008 29.9297 68.8408 30.0497 68.7508C30.1897 68.6508 30.6497 68.8208 30.8297 68.8608C31.3097 68.9608 31.7897 69.0508 32.2797 69.1508C33.3197 69.3608 34.3697 69.5608 35.4097 69.7708C35.6497 69.8208 35.9597 69.6608 35.9397 69.3708C35.8497 68.1908 35.5497 67.0608 35.0097 66.0008C34.9597 65.9008 34.6197 65.4008 34.6197 65.4208C34.6497 65.3208 34.9697 65.1908 35.0597 65.1308C35.3097 64.9708 35.5797 64.8308 35.8197 64.6508C36.2397 64.3208 35.6497 63.7408 35.2297 64.0608L35.2197 64.0808Z" fill="black"/>
<path d="M9.02971 84.7808C10.8797 85.6708 12.4497 87.1608 13.9597 88.5308C14.1697 88.7208 14.4597 88.6808 14.6097 88.4508C15.2297 87.5208 16.4497 86.9108 17.3897 86.3508C18.3997 85.7508 19.4497 85.2208 20.4097 84.5408L19.7797 84.1808C19.6997 86.1208 19.1297 87.9708 18.1697 89.6508C18.0397 89.8908 18.1697 90.1808 18.4197 90.2608C20.3497 90.8408 22.1597 91.7208 23.7797 92.9208L23.8797 92.1608C22.2397 92.6708 20.6497 93.3008 19.1097 94.0608C18.9097 94.1608 18.8497 94.4508 18.9597 94.6308C19.9797 96.3308 20.8797 98.1008 21.6597 99.9308L22.1297 99.3208C20.2997 98.8608 18.4597 98.3908 16.6297 97.9308C16.3997 97.8708 16.0697 98.0508 16.0997 98.3308C16.3697 100.351 16.6397 102.371 16.9097 104.391L17.4397 103.991C15.3297 103.301 13.2297 102.561 11.1197 101.881C10.6097 101.711 10.3897 102.521 10.8997 102.681C13.0097 103.371 15.1097 104.111 17.2197 104.791C17.4497 104.871 17.7797 104.661 17.7497 104.391C17.4797 102.371 17.2097 100.351 16.9397 98.3308L16.4097 98.7308C18.2397 99.1908 20.0797 99.6608 21.9097 100.121C22.2897 100.221 22.5197 99.8308 22.3797 99.5108C21.5997 97.6808 20.6997 95.9208 19.6797 94.2108L19.5297 94.7808C21.0097 94.0608 22.5297 93.4608 24.0997 92.9708C24.4697 92.8608 24.4797 92.4208 24.1997 92.2108C22.5297 90.9608 20.6397 90.0608 18.6497 89.4608L18.8997 90.0708C19.9297 88.2608 20.5397 86.2608 20.6197 84.1808C20.6297 83.8808 20.2497 83.6408 19.9897 83.8208C18.9397 84.5608 17.7797 85.1408 16.6797 85.8008C15.6897 86.3908 14.5497 87.0408 13.8997 88.0208L14.5497 87.9408C12.9997 86.5308 11.3597 84.9808 9.44971 84.0608C8.96971 83.8308 8.54971 84.5508 9.02971 84.7808Z" fill="black"/>
<path d="M67.2197 105.081C66.5997 105.951 65.9597 106.811 65.2997 107.641C64.8297 108.231 64.3697 108.981 63.7497 109.411L64.3197 109.561C63.1897 107.561 61.8897 105.671 60.4297 103.891C60.2097 103.621 59.8397 103.821 59.7397 104.071C58.9197 106.041 58.0997 108.021 57.2797 109.991L57.7897 109.701C55.8297 109.361 53.8997 108.881 52.0097 108.271C51.5797 108.131 51.3697 108.671 51.6097 108.961C52.7297 110.331 53.8497 111.701 54.9697 113.071L55.1497 112.381C52.2097 113.191 49.3597 114.271 46.6197 115.601C46.3097 115.751 46.3897 116.151 46.6197 116.321C48.7597 117.851 51.0897 119.091 53.5597 120.011L53.3097 119.401C52.5197 121.181 51.7297 122.961 50.9397 124.751C50.7897 125.081 51.0297 125.451 51.4097 125.361C53.4397 124.901 55.4697 124.431 57.4897 123.971L56.9797 123.681C57.4697 125.481 57.9597 127.271 58.4497 129.071C58.5297 129.371 58.9197 129.471 59.1397 129.251C60.3497 128.061 61.2297 126.611 61.7297 124.991L61.0397 125.171C62.0797 126.021 62.9397 127.031 63.5997 128.201C63.8597 128.671 64.5797 128.251 64.3197 127.781C63.6297 126.551 62.7197 125.471 61.6297 124.581C61.3897 124.381 61.0297 124.441 60.9397 124.761C60.4797 126.251 59.6697 127.561 58.5697 128.661L59.2597 128.841C58.7697 127.041 58.2797 125.251 57.7897 123.451C57.7297 123.231 57.4997 123.111 57.2797 123.161C55.2497 123.621 53.2197 124.091 51.1997 124.551L51.6697 125.161C52.4597 123.381 53.2497 121.601 54.0397 119.811C54.1597 119.551 54.0597 119.301 53.7897 119.201C51.3897 118.301 49.1297 117.081 47.0497 115.591V116.311C49.7297 115.011 52.5197 113.971 55.3897 113.171C55.7097 113.081 55.7697 112.711 55.5697 112.481C54.4497 111.111 53.3297 109.741 52.2097 108.371L51.8097 109.061C53.6997 109.671 55.6297 110.141 57.5897 110.491C57.8297 110.531 58.0097 110.421 58.0997 110.201C58.9197 108.231 59.7397 106.251 60.5597 104.281L59.8697 104.461C61.2797 106.181 62.5397 108.021 63.6297 109.961C63.7297 110.151 64.0097 110.231 64.1997 110.111C64.8897 109.631 65.3997 108.871 65.9197 108.211C66.6297 107.321 67.3097 106.411 67.9697 105.481C68.2797 105.041 67.5597 104.631 67.2497 105.061L67.2197 105.081Z" fill="black"/>
<path d="M4.85974 111.811C6.44974 115.261 14.5597 129.911 16.2097 132.721C17.8597 135.531 21.5397 138.041 24.4897 139.421C27.0597 140.631 29.4397 140.701 31.7697 142.321C34.3297 144.091 35.1097 147.391 37.2397 149.651C39.3397 151.881 45.4497 152.391 48.3597 151.441C49.2797 151.141 56.1197 153.951 57.0597 153.731C59.0597 153.261 59.9397 152.261 58.2497 152.751C56.3797 152.101 54.0897 148.231 52.8497 147.261C51.9297 146.541 50.2497 144.921 49.0897 144.981C48.3097 145.021 47.4297 145.861 46.7097 146.161C45.1597 146.801 43.3797 147.301 41.8497 146.621C41.1197 146.301 40.5197 145.741 39.9297 145.191C38.4397 143.791 36.9497 142.381 35.7097 140.751C35.0497 139.871 34.4597 138.931 33.6897 138.151C32.4297 136.861 30.6897 136.061 28.8897 135.921C28.2797 135.871 27.6697 135.901 27.0597 135.831C25.2297 135.621 23.5997 134.491 22.4297 133.071C21.2597 131.651 20.4897 129.941 19.8097 128.231C19.1697 126.621 18.5497 124.911 17.2697 123.741C15.5297 122.141 8.42974 114.761 8.89974 106.911" fill="black"/>
<path d="M4.5097 112.021C6.0797 115.421 7.9697 118.701 9.7597 121.991C11.6497 125.441 13.5397 128.901 15.4997 132.311C16.7397 134.461 18.4497 136.141 20.4797 137.571C21.7397 138.461 23.0897 139.251 24.4997 139.881C25.9097 140.511 27.4997 140.881 28.9997 141.411C30.5697 141.961 31.9897 142.781 33.0397 144.091C33.9597 145.241 34.6097 146.581 35.3797 147.821C35.9997 148.831 36.6997 149.881 37.6897 150.571C38.6797 151.261 39.7697 151.611 40.8697 151.871C43.1497 152.401 45.7197 152.551 48.0097 151.981C48.3397 151.901 48.4497 151.821 48.7497 151.851C49.1197 151.891 49.4897 152.001 49.8497 152.101C50.7997 152.361 51.7297 152.671 52.6697 152.981C53.6097 153.291 54.5897 153.621 55.5697 153.891C56.1797 154.061 56.7797 154.241 57.3997 154.081C57.8597 153.961 60.0197 153.371 59.5097 152.471C59.3297 152.161 58.9297 152.191 58.6197 152.241C58.3097 152.291 58.2197 152.311 57.9397 152.131C57.6697 151.971 57.4397 151.771 57.2097 151.561C56.2697 150.701 55.4897 149.671 54.6897 148.671C54.0097 147.831 53.3297 147.111 52.4997 146.421C51.6297 145.701 50.6197 144.761 49.4597 144.581C48.8397 144.491 48.2797 144.741 47.7597 145.051C47.0397 145.481 46.3797 145.871 45.5697 146.131C44.7597 146.391 43.9397 146.571 43.0997 146.501C42.1397 146.411 41.3797 145.921 40.6797 145.291C39.3497 144.101 38.0497 142.841 36.8797 141.491C35.7097 140.141 34.8897 138.561 33.5697 137.421C32.4497 136.461 31.0797 135.801 29.6197 135.571C28.7997 135.441 27.9797 135.501 27.1497 135.401C26.2797 135.301 25.4697 134.981 24.7297 134.531C23.2997 133.651 22.2597 132.291 21.4697 130.831C20.6797 129.371 20.1297 127.701 19.4197 126.141C18.8897 124.971 18.1997 124.031 17.2797 123.141C13.9197 119.901 10.9597 115.711 9.7797 111.151C9.4197 109.761 9.2597 108.331 9.3397 106.901C9.3697 106.371 8.5397 106.371 8.5097 106.901C8.2297 112.261 11.1097 117.301 14.4397 121.291C15.0197 121.981 15.6197 122.651 16.2497 123.301C16.9397 124.001 17.6497 124.641 18.1597 125.501C18.9697 126.871 19.4297 128.421 20.0797 129.871C20.7297 131.321 21.5497 132.791 22.6897 133.951C23.7197 135.001 25.0297 135.841 26.4897 136.151C27.2897 136.321 28.0997 136.271 28.9097 136.331C29.7697 136.401 30.6197 136.631 31.3897 137.001C32.9797 137.761 33.9697 139.031 34.9797 140.431C35.9897 141.831 37.1197 143.051 38.3297 144.241C39.3997 145.281 40.5097 146.591 41.9497 147.111C43.4797 147.671 45.1697 147.231 46.6297 146.651C47.2497 146.401 47.7697 146.011 48.3497 145.691C49.0497 145.301 49.5697 145.391 50.2297 145.781C51.1897 146.331 52.1597 147.111 52.9397 147.901C54.5297 149.511 55.6597 151.901 57.7397 152.981C57.8997 153.061 58.0897 153.171 58.2597 153.171C58.3897 153.171 58.5897 153.121 58.6997 153.071L58.8397 153.041C59.0797 153.061 59.0597 152.901 58.7797 152.561C58.7197 152.561 58.3597 152.841 58.2997 152.871C57.9097 153.071 57.3897 153.291 56.9497 153.331C56.9297 153.331 56.5597 153.281 56.4197 153.251C56.0197 153.161 55.6297 153.051 55.2497 152.931C53.3797 152.371 51.5597 151.661 49.6697 151.191C49.0297 151.031 48.5497 150.971 47.9197 151.141C46.8297 151.431 45.6797 151.491 44.5597 151.471C42.3397 151.431 39.4297 151.111 37.7197 149.521C35.7097 147.651 34.9897 144.781 33.0497 142.831C30.7497 140.521 27.3797 140.331 24.5597 138.991C21.7397 137.651 19.2197 135.951 17.3497 133.611C16.3897 132.411 15.6897 130.951 14.9397 129.611C13.9297 127.811 12.9297 126.011 11.9397 124.211C9.9297 120.561 7.9097 116.911 6.0197 113.191C5.7497 112.661 5.4897 112.141 5.2397 111.601C5.0197 111.121 4.2997 111.541 4.5197 112.021H4.5097Z" fill="black"/>
<path d="M63.9897 41.7109C64.5897 41.7409 65.1897 41.7809 65.7897 41.8109C66.0097 41.8209 66.2197 41.6109 66.2097 41.3909C66.1997 41.1509 66.0297 40.9909 65.7897 40.9709C65.1897 40.9409 64.5897 40.9009 63.9897 40.8709C63.7697 40.8609 63.5597 41.0709 63.5697 41.2909C63.5797 41.5309 63.7497 41.6909 63.9897 41.7109Z" fill="black"/>
<path d="M57.9097 41.5607L59.2997 41.8207C59.4097 41.8407 59.5197 41.8407 59.6197 41.7807C59.7097 41.7307 59.7897 41.6307 59.8097 41.5307C59.8597 41.3307 59.7497 41.0607 59.5197 41.0207L58.1297 40.7607C58.0197 40.7407 57.9097 40.7407 57.8097 40.8007C57.7197 40.8507 57.6397 40.9507 57.6197 41.0507C57.5697 41.2507 57.6797 41.5207 57.9097 41.5607Z" fill="black"/>
<path d="M72.5497 47.3709C74.4597 50.1109 76.2297 52.9509 77.6397 55.9909C79.2297 59.4209 80.5197 63.3909 79.8997 67.2109C79.5697 69.2209 78.6697 70.9909 77.3197 72.5109C75.8697 74.1309 73.9797 75.6809 71.9097 76.4409C70.7197 76.8709 69.3597 76.6609 68.1597 76.3909C66.4697 76.0109 64.8297 75.3909 63.2397 74.7109C59.9397 73.2909 56.7897 71.5509 53.6897 69.7309C53.2297 69.4609 52.8097 70.1809 53.2697 70.4509C56.1597 72.1409 59.0897 73.7709 62.1497 75.1409C63.8097 75.8809 65.5097 76.5709 67.2697 77.0309C68.6397 77.3909 70.1297 77.6809 71.5397 77.4109C73.4497 77.0409 75.2897 75.6009 76.6897 74.3309C78.2697 72.9009 79.5897 71.1909 80.2697 69.1609C81.5397 65.3809 80.6197 61.2009 79.2097 57.6009C77.7197 53.8109 75.5797 50.3109 73.2597 46.9709C72.9597 46.5309 72.2397 46.9509 72.5397 47.3909L72.5497 47.3709Z" fill="black"/>
<path d="M54.2297 45.901C49.8197 45.951 45.3597 46.751 41.1997 48.181C39.2397 48.861 37.2997 49.691 35.5497 50.801C34.1197 51.711 32.6297 52.861 31.6597 54.271C30.7597 55.591 30.8197 57.641 31.0097 59.151C31.1997 60.661 31.7497 62.111 33.0797 63.011C35.3297 64.511 37.3297 66.441 39.4097 68.161C40.7997 69.311 42.1897 70.461 43.6397 71.531C44.5697 72.221 45.5797 73.041 46.6997 73.401C47.2097 73.561 47.4297 72.761 46.9197 72.601C46.0597 72.331 45.2697 71.691 44.5497 71.171C43.3397 70.301 42.1897 69.361 41.0397 68.421C38.8397 66.621 36.6997 64.731 34.4497 62.981C34.1297 62.731 33.7997 62.491 33.4597 62.251C32.8397 61.831 32.4497 61.271 32.1897 60.571C31.6297 59.021 31.5997 57.131 31.9897 55.541C32.1697 54.781 32.7497 54.181 33.2897 53.641C33.9297 53.011 34.6197 52.451 35.3497 51.931C36.8997 50.831 38.6397 50.011 40.4097 49.341C44.7897 47.681 49.5497 46.771 54.2297 46.721C54.7597 46.721 54.7697 45.881 54.2297 45.891V45.901Z" fill="black"/>
<path d="M48.6697 51.7108C46.9597 51.7308 45.3297 52.3508 44.1997 53.6508C43.3397 54.6408 42.9597 55.7408 42.6697 56.9908C41.7897 60.8208 42.0297 64.8308 43.5597 68.4508C43.9897 69.4708 44.5197 70.4408 45.1097 71.3808C45.8797 72.6208 46.6797 73.8908 48.2197 74.2308C50.4097 74.7208 52.2997 72.9908 53.0497 71.0908C53.3097 70.4208 53.5597 69.7608 53.5797 69.0408C53.5997 68.3808 53.5197 67.7208 53.4197 67.0708C53.1297 65.1608 52.6297 63.2908 52.1697 61.4308C51.8097 59.9508 51.2697 58.3508 51.2997 56.8108C51.3097 56.2808 50.4797 56.2808 50.4697 56.8108C50.4497 57.9608 50.7697 59.1308 51.0297 60.2408C51.3897 61.7608 51.7797 63.2608 52.1297 64.7808C52.4297 66.1208 52.7697 67.5208 52.7597 68.9108C52.7397 70.5308 51.7497 72.3908 50.3097 73.1408C47.5197 74.6108 45.7897 71.1508 44.7697 69.0908C43.2997 66.1208 42.7397 62.7908 43.0897 59.5008C43.2597 57.9508 43.4897 56.2008 44.3497 54.8508C45.3097 53.3308 46.9097 52.5708 48.6897 52.5408C49.2197 52.5408 49.2297 51.7008 48.6897 51.7108H48.6697Z" fill="black"/>
<path d="M26.4297 77.4208C29.8197 84.2608 30.7697 92.8908 37.3597 97.6908C37.7898 98.0108 38.2098 97.2808 37.7798 96.9708C31.3798 92.3108 30.4498 83.6508 27.1498 77.0008C26.9098 76.5208 26.1997 76.9408 26.4297 77.4208Z" fill="black"/>
<path d="M32.7197 75.5307C35.9197 78.3307 40.1397 79.8107 44.3997 79.5807C44.9297 79.5507 44.9397 78.7207 44.3997 78.7507C40.3697 78.9707 36.3497 77.6007 33.3097 74.9407C32.9097 74.5907 32.3197 75.1707 32.7197 75.5307Z" fill="black"/>
<path d="M48.9697 52.4209C49.8997 51.6609 50.6597 50.7009 51.4897 49.8309C52.3697 48.9209 53.3897 48.1709 54.3297 47.3309C54.7797 46.9309 55.1397 46.4509 55.5797 46.0309C55.8797 45.7509 55.9797 45.7709 56.0797 46.1609C56.1597 46.4909 56.1297 46.9109 56.0797 47.2509C55.9597 48.1409 54.9497 48.7309 54.2997 49.2609C53.9597 49.5409 54.3297 50.0509 54.6997 49.9509C55.8997 49.6609 57.0197 49.1209 58.1997 48.7909C58.8797 48.6009 59.5697 48.4609 60.2797 48.4509C60.6597 48.4509 61.1297 48.4409 61.4997 48.5809C61.6297 48.6309 61.8897 48.7109 61.8397 48.9209C61.8097 49.0609 61.1797 49.2209 61.0297 49.2709C59.6397 49.7309 58.1597 50.2109 56.8897 50.9609C56.4897 51.2009 56.7497 51.8609 57.2097 51.7209C57.5797 51.6109 57.9797 51.5809 58.3597 51.5609C58.6397 51.5409 59.5297 51.4609 59.1497 52.0209C59.0097 52.2309 58.5797 52.2309 58.3497 52.2909C57.6197 52.4709 56.9097 52.6409 56.1697 52.7509C55.7097 52.8209 55.8197 53.6209 56.2797 53.5709C56.7797 53.5109 57.3497 53.3609 57.8597 53.3709C57.9297 53.3709 58.3597 53.4709 58.3597 53.4509C58.4797 53.7309 57.8797 53.9809 57.6997 54.0109C57.1897 54.0809 56.6297 54.0909 56.1097 54.1209V54.9509C56.8897 54.8709 57.6697 54.7909 58.4497 54.7109L58.0297 54.2909C58.0397 55.4909 56.5297 55.1009 55.7497 55.2109C55.0797 55.3109 54.8097 55.4609 54.1897 55.6409C53.4397 55.8609 52.6797 56.0509 51.9197 56.2009C51.1997 56.3309 50.3597 56.5009 49.6397 56.3009C49.1297 56.1509 48.9097 56.9509 49.4197 57.1009C50.2397 57.3409 51.1697 57.1809 51.9997 57.0309C52.9097 56.8709 53.8097 56.6409 54.6897 56.3609C55.3697 56.1509 55.9397 56.0009 56.6597 56.0109C57.7797 56.0409 58.8797 55.5709 58.8697 54.2809C58.8697 54.0709 58.6797 53.8409 58.4497 53.8609C57.6697 53.9409 56.8897 54.0209 56.1097 54.1009C55.5897 54.1509 55.5697 54.9709 56.1097 54.9309C56.5497 54.9009 56.9797 54.8509 57.4297 54.8409C57.7597 54.8309 58.1197 54.8009 58.4197 54.6409C58.8997 54.3809 59.3897 53.6309 59.0997 53.1009C58.5997 52.1809 57.0997 52.6209 56.2897 52.7209L56.3997 53.5409C57.2597 53.4109 58.0897 53.2109 58.9297 53.0109C59.4997 52.8709 60.0297 52.5109 60.0397 51.8709C60.0497 50.3209 57.9997 50.6109 56.9897 50.9209L57.3097 51.6809C57.8297 51.3709 58.4097 51.1409 58.9697 50.9109C59.7197 50.6009 60.4897 50.3309 61.2597 50.0809C61.9097 49.8609 62.6397 49.6809 62.7297 48.8709C62.9097 47.3009 59.9497 47.5909 59.0697 47.7409C57.4797 48.0109 56.0497 48.7709 54.4897 49.1509L54.8897 49.8409C55.7597 49.1309 56.7797 48.4909 56.9097 47.3009C56.9797 46.6609 57.0097 45.8809 56.6197 45.3309C56.2597 44.8209 55.5397 44.9509 55.1197 45.3209C54.5597 45.8109 54.1097 46.4309 53.5397 46.9309C52.8997 47.4909 52.2297 48.0109 51.5997 48.5709C50.4697 49.5909 49.5797 50.8609 48.3997 51.8309C47.9897 52.1709 48.5797 52.7509 48.9897 52.4209H48.9697Z" fill="black"/>
<path d="M49.4097 56.3108C47.1097 57.0308 44.9897 58.2708 42.6697 58.9608C42.1597 59.1108 42.3797 59.9208 42.8897 59.7608C45.1997 59.0608 47.3197 57.8208 49.6297 57.1108C50.1397 56.9508 49.9197 56.1508 49.4097 56.3108Z" fill="black"/>
<path d="M72.1497 52.841C71.5597 52.531 70.6097 52.541 70.0297 52.871C69.3397 53.271 68.9997 54.271 68.7797 54.981C68.5797 55.611 68.2597 56.521 68.7697 57.091C69.2797 57.661 70.2297 57.691 70.9297 57.631L70.6397 56.921C70.2397 57.291 69.6497 57.231 69.1497 57.291C68.7097 57.341 68.2897 57.451 67.9197 57.701C67.1497 58.221 66.7597 59.111 66.4197 59.941L67.0297 59.691C65.3297 58.821 63.9997 57.371 62.0097 57.141C60.0197 56.911 58.0497 57.601 56.4097 58.551C54.7697 59.501 53.7197 60.971 53.1297 62.671C52.5797 64.281 52.8397 66.101 52.7597 67.771C52.7297 68.301 53.5597 68.301 53.5897 67.771C53.6597 66.281 53.4597 64.721 53.8197 63.271C54.2297 61.621 55.3597 60.111 56.8297 59.271C58.2997 58.431 60.3297 57.711 62.1097 57.991C63.8897 58.271 65.0897 59.641 66.6097 60.411C66.8697 60.541 67.1097 60.411 67.2197 60.161C67.5697 59.311 68.0097 58.341 69.0097 58.151C69.8097 57.991 70.5797 58.111 71.2297 57.511C71.4797 57.281 71.2997 56.771 70.9397 56.801C70.5197 56.831 69.8597 56.901 69.5097 56.621C69.1597 56.341 69.4797 55.571 69.5997 55.201C69.7497 54.721 69.9597 54.061 70.3397 53.701C70.6497 53.411 71.3697 53.351 71.7497 53.551C72.2197 53.801 72.6397 53.081 72.1697 52.831L72.1497 52.841Z" fill="black"/>
<path d="M51.7297 57.101C52.2497 57.591 52.8097 58.041 53.3797 58.481C53.9497 58.921 54.5197 59.351 55.1297 59.731C55.5897 60.011 55.9997 59.291 55.5497 59.011C54.9697 58.651 54.4097 58.241 53.8797 57.831C53.3497 57.421 52.8097 56.981 52.3097 56.521C51.9197 56.151 51.3297 56.741 51.7197 57.111L51.7297 57.101Z" fill="black"/>
<path d="M9.14972 70.9609C6.93972 74.9309 5.20972 79.2609 4.79972 83.8109C4.59972 86.0309 4.76972 88.2609 5.31972 90.4109C5.63972 91.6509 6.05972 92.8909 6.11972 94.1909C6.16972 95.4109 5.76972 96.5109 5.23972 97.5909C4.24972 99.6009 3.41972 101.541 3.12972 103.781C2.83972 106.021 2.94972 108.281 3.44972 110.461C3.75972 111.841 4.36972 113.161 4.97972 114.431C5.65972 115.841 6.39972 117.211 7.17972 118.571C8.51972 120.901 10.0297 123.131 11.3297 125.491C13.2597 129.001 14.9297 133.001 17.8397 135.841C20.7497 138.681 24.7797 139.941 28.5197 141.431C29.6097 141.861 30.6897 142.381 31.5697 143.171C32.2397 143.771 32.8097 144.471 33.3297 145.201C34.3497 146.651 35.1997 148.221 36.3697 149.561C37.6197 150.991 39.2297 151.911 41.1197 152.191C43.2697 152.501 45.4297 152.121 47.5797 152.111C48.7097 152.111 49.8097 152.211 50.8997 152.541C51.9897 152.871 53.0097 153.361 54.0897 153.711C55.7097 154.241 57.5397 154.381 59.1397 153.701C59.8097 153.421 60.3797 152.981 60.7497 152.341C61.0197 151.881 60.2997 151.461 60.0297 151.921C59.2197 153.331 57.0897 153.481 55.6497 153.251C53.5197 152.911 51.6697 151.671 49.5097 151.381C45.5697 150.861 40.9197 152.721 37.6397 149.691C35.1297 147.361 34.1197 143.771 31.1797 141.841C29.4397 140.691 27.3397 140.131 25.4197 139.371C23.4997 138.611 21.7497 137.801 20.1097 136.661C16.7897 134.351 14.9297 130.541 13.0897 127.061C11.7397 124.501 10.1997 122.081 8.71973 119.601C7.23973 117.121 5.74972 114.561 4.72972 111.841C3.34972 108.181 3.44972 103.741 4.92972 100.131C5.74972 98.1209 7.06972 96.3709 6.93972 94.0909C6.80972 91.8109 5.82972 89.6709 5.62972 87.3909C5.21972 82.8909 6.46972 78.3909 8.35972 74.3409C8.82972 73.3409 9.32972 72.3609 9.86972 71.3909C10.1297 70.9209 9.40972 70.5009 9.14972 70.9709V70.9609Z" fill="black"/>
<path d="M4.50975 111.211C3.91975 108.751 3.27975 105.581 3.87975 103.121C4.67975 99.8209 6.67975 97.2909 6.50975 93.9009C6.38975 91.4609 5.71975 89.1509 5.50975 86.7209C5.33975 84.7009 5.52975 82.1909 6.03975 80.2209C6.38975 78.8809 6.62975 77.4709 7.09975 76.1709C7.71975 74.4709 8.98975 72.6509 9.99975 71.1609C8.87975 74.4309 9.18975 78.5209 9.04975 82.1709C8.90975 85.6309 10.2297 88.9809 11.0697 92.3409C11.3897 93.6309 11.7197 94.9409 11.6897 96.2709C11.6597 97.5809 11.2897 98.8509 10.9197 100.101C10.2997 102.211 9.67975 104.331 9.04975 106.441C8.76975 107.401 8.47975 108.381 7.96975 109.241C7.19975 110.561 5.92975 111.581 4.47975 112.041C4.39975 111.691 4.32975 111.331 4.24975 110.981" fill="black"/>
<path d="M10.0798 65.5308C10.3598 65.2408 10.6398 64.9508 10.9098 64.6608C10.9798 64.5808 11.0298 64.4808 11.0298 64.3708C11.0298 64.2708 10.9798 64.1508 10.9098 64.0808C10.8398 64.0108 10.7298 63.9508 10.6198 63.9608C10.5098 63.9708 10.3998 64.0008 10.3298 64.0808C10.0498 64.3708 9.76976 64.6608 9.49976 64.9508C9.42976 65.0308 9.37976 65.1308 9.37976 65.2408C9.37976 65.3408 9.42976 65.4608 9.49976 65.5308C9.56976 65.6008 9.67976 65.6608 9.78976 65.6508C9.89976 65.6408 10.0098 65.6108 10.0798 65.5308Z" fill="black"/>
<path d="M6.37974 71.4409C6.30974 71.7609 6.25974 72.0909 6.22974 72.4209H7.05974V72.3809C7.05974 72.2709 7.01974 72.1709 6.93974 72.0909C6.86974 72.0209 6.74974 71.9609 6.64974 71.9709C6.54974 71.9809 6.42974 72.0109 6.35974 72.0909C6.28974 72.1709 6.22974 72.2709 6.23974 72.3809V72.4209C6.23974 72.5309 6.27974 72.6309 6.35974 72.7109C6.42974 72.7809 6.54974 72.8409 6.64974 72.8309C6.74974 72.8209 6.86974 72.7909 6.93974 72.7109C7.00974 72.6309 7.04974 72.5309 7.05974 72.4209C7.05974 72.3209 7.07974 72.2209 7.08974 72.1209V72.2309C7.09974 72.0409 7.13974 71.8509 7.17974 71.6609C7.19974 71.5509 7.18974 71.4409 7.13974 71.3409C7.08974 71.2509 6.98974 71.1709 6.88974 71.1509C6.77974 71.1309 6.65974 71.1309 6.56974 71.1909C6.47974 71.2509 6.39974 71.3309 6.37974 71.4409Z" fill="black"/>
</g>
<defs>
<clipPath id="clip0_1_498">
<rect width="80.68" height="153.29" fill="white" transform="translate(0.199707 0.87085)"/>
</clipPath>
</defs>
</svg>
