<svg width="81" height="155" viewBox="0 0 81 155" fill="none" xmlns="http://www.w3.org/2000/svg">
<g clip-path="url(#clip0_5_1409)">
<path d="M14.3549 67.595C11.7749 68.085 9.17495 68.475 6.57495 68.785C6.29495 68.815 6.00495 68.855 5.72495 68.885C5.39495 68.915 5.21495 68.995 5.03495 68.695C4.85495 68.395 4.75495 67.985 4.62495 67.655C4.44495 67.205 4.26495 66.745 4.09495 66.295C3.50495 64.785 2.93495 63.255 2.31495 61.755C2.15495 61.375 1.90495 60.945 1.44495 60.905C0.954947 60.855 0.674947 61.265 0.544947 61.675C0.0749468 63.135 0.0449468 64.805 0.0849468 66.325C0.124947 67.845 0.314947 69.425 0.514947 70.965C0.574947 71.445 0.514947 72.245 1.05495 72.465C1.23495 72.535 1.43495 72.485 1.62495 72.465C2.07495 72.395 2.52495 72.325 2.98495 72.245C6.76495 71.645 10.5449 71.035 14.3249 70.435C14.8549 70.355 14.6249 69.555 14.1049 69.635C11.1049 70.115 8.10495 70.595 5.10495 71.075C4.40495 71.185 3.70495 71.295 3.01495 71.405C2.60495 71.465 2.18495 71.505 1.78495 71.605C1.76495 71.605 1.44495 71.685 1.45495 71.695C1.38495 71.655 1.36495 71.055 1.35495 70.985C1.15495 69.515 0.974947 68.045 0.924947 66.565C0.874947 65.085 0.934947 63.615 1.26495 62.195C1.34495 61.825 1.35495 61.665 1.53495 62.065C1.68495 62.405 1.80495 62.765 1.94495 63.105C2.22495 63.825 2.50495 64.545 2.79495 65.265C3.30495 66.555 3.71495 67.945 4.33495 69.185C4.80495 70.125 6.10495 69.685 6.93495 69.585C9.49495 69.275 12.0449 68.885 14.5749 68.405C15.0949 68.305 14.8749 67.505 14.3549 67.605V67.595Z" fill="black"/>
<path d="M11.3249 71.0351L11.6449 71.6951C11.6849 71.7851 11.8049 71.8651 11.8949 71.8851C11.9949 71.9151 12.1249 71.9051 12.2149 71.8451C12.3049 71.7851 12.3849 71.7051 12.4049 71.5951V71.4851C12.4149 71.4151 12.4049 71.3451 12.3649 71.2751L12.0449 70.6151C12.0049 70.5251 11.8849 70.4451 11.7949 70.4251C11.6949 70.3951 11.5649 70.4051 11.4749 70.4651C11.3849 70.5251 11.3049 70.6051 11.2849 70.7151V70.8251C11.2749 70.8951 11.2849 70.9651 11.3249 71.0351Z" fill="black"/>
<path d="M7.38501 68.485L7.00501 67.825C6.95501 67.735 6.85501 67.665 6.75501 67.635C6.65501 67.605 6.52501 67.615 6.43501 67.675C6.34501 67.735 6.26501 67.815 6.24501 67.925C6.22501 68.035 6.23501 68.145 6.28501 68.245L6.66501 68.905C6.71501 68.995 6.81501 69.065 6.91501 69.095C7.01501 69.125 7.14501 69.115 7.23501 69.055C7.32501 68.995 7.40501 68.915 7.42501 68.805C7.44501 68.695 7.43501 68.585 7.38501 68.485Z" fill="black"/>
<path d="M4.59497 69.5551C4.66497 70.2051 4.83497 70.8151 5.10497 71.4051C5.14497 71.4951 5.26497 71.5751 5.35497 71.5951C5.45497 71.6251 5.58497 71.6151 5.67497 71.5551C5.88497 71.4251 5.92497 71.1951 5.82497 70.9851C5.80497 70.9451 5.78497 70.9151 5.77497 70.8751C5.81497 70.9751 5.77497 70.8751 5.77497 70.8651C5.74497 70.8051 5.72497 70.7351 5.70497 70.6651C5.65497 70.5351 5.61497 70.4051 5.58497 70.2751C5.55497 70.1451 5.51497 70.0151 5.49497 69.8851C5.48497 69.8151 5.46497 69.7451 5.45497 69.6751C5.45497 69.6451 5.45497 69.6151 5.44497 69.5851C5.47497 69.7051 5.44497 69.5751 5.44497 69.5451C5.43497 69.4351 5.40497 69.3351 5.32497 69.2551C5.25497 69.1851 5.13497 69.1251 5.03497 69.1351C4.83497 69.1351 4.59497 69.3151 4.61497 69.5551H4.59497Z" fill="black"/>
<path d="M3.05498 64.9751C2.86498 65.1951 2.67498 65.4151 2.47498 65.6351C2.40498 65.7151 2.35498 65.8151 2.35498 65.9251C2.35498 66.0251 2.40498 66.1451 2.47498 66.2151C2.54498 66.2851 2.65498 66.3451 2.76498 66.3351C2.87498 66.3251 2.98498 66.2951 3.05498 66.2151C3.24498 65.9951 3.43498 65.7751 3.63498 65.5551C3.70498 65.4751 3.75498 65.3751 3.75498 65.2651C3.75498 65.1651 3.70498 65.0451 3.63498 64.9751C3.56498 64.9051 3.45498 64.8451 3.34498 64.8551C3.23498 64.8651 3.12498 64.8951 3.05498 64.9751Z" fill="black"/>
<path d="M3.84491 67.215C3.80491 67.285 3.76491 67.345 3.71491 67.415L3.77491 67.335C3.67491 67.465 3.56491 67.575 3.43491 67.675L3.51491 67.615C3.38491 67.715 3.24491 67.795 3.09491 67.865L3.19491 67.825C3.19491 67.825 3.15491 67.845 3.13491 67.845C3.03491 67.885 2.94491 67.935 2.88491 68.035C2.83491 68.125 2.81491 68.255 2.84491 68.355C2.87491 68.455 2.93491 68.555 3.03491 68.605C3.13491 68.655 3.25491 68.685 3.35491 68.645C3.48491 68.595 3.61491 68.535 3.73491 68.465C3.85491 68.395 3.96491 68.305 4.07491 68.215C4.26491 68.055 4.42491 67.855 4.55491 67.645C4.60491 67.555 4.62491 67.425 4.59491 67.325C4.56491 67.225 4.49491 67.125 4.40491 67.075C4.20491 66.965 3.95491 67.025 3.83491 67.225L3.84491 67.215Z" fill="black"/>
<path d="M15.625 67.145C14.295 66.685 12.955 66.255 11.625 65.765C11.005 65.535 10.385 65.295 9.77502 65.035C9.54502 64.935 8.85502 64.765 8.77502 64.465C8.69502 64.145 8.90502 63.545 8.95502 63.215C9.18502 61.685 9.40502 60.155 9.63502 58.625C9.72502 57.985 9.89502 57.315 9.91502 56.675C9.92502 56.265 9.78502 55.785 9.34502 55.655C8.87502 55.515 8.49502 55.885 8.20502 56.195C7.74502 56.685 7.33502 57.225 6.94502 57.765C6.16502 58.865 5.52502 60.055 4.95502 61.275C4.38502 62.495 3.78502 63.685 3.40502 64.925C3.28502 65.325 3.40502 65.605 3.75502 65.805C4.38502 66.145 5.13502 66.335 5.80502 66.595C8.57502 67.665 11.325 68.775 14.105 69.825C14.605 70.015 14.825 69.215 14.325 69.025C12.125 68.195 9.94502 67.325 7.75502 66.465C7.24502 66.265 6.73502 66.065 6.22502 65.865C5.95502 65.755 5.67502 65.655 5.40502 65.545C5.13502 65.435 4.50502 65.335 4.30502 65.125C4.18502 64.995 4.12502 65.505 4.28502 64.935C4.32502 64.805 4.39502 64.665 4.44502 64.535C4.55502 64.275 4.65502 64.005 4.76502 63.745C5.02502 63.115 5.29502 62.495 5.57502 61.875C6.07502 60.775 6.63502 59.705 7.29502 58.695C7.62502 58.195 7.97502 57.705 8.35502 57.245C8.52502 57.045 8.70502 56.775 8.91502 56.605C9.15502 56.425 9.04502 56.435 9.06502 56.655C9.08502 56.875 8.98502 57.205 8.95502 57.425C8.75502 58.755 8.56502 60.075 8.36502 61.405C8.26502 62.085 8.16502 62.775 8.06502 63.455C8.00502 63.885 7.81502 64.465 8.00502 64.885C8.22502 65.365 8.88502 65.525 9.32502 65.715C9.97502 65.985 10.625 66.245 11.295 66.495C12.655 66.995 14.025 67.445 15.395 67.915C15.905 68.085 16.115 67.285 15.615 67.115L15.625 67.145Z" fill="black"/>
<path d="M12.4848 68.875C12.3648 69.165 12.3448 69.495 12.4348 69.805L12.4848 68.875Z" fill="white"/>
<path d="M12.0849 68.7651C11.9449 69.1251 11.9349 69.5451 12.0349 69.9151C12.0649 70.0151 12.1349 70.1151 12.2249 70.1651C12.3149 70.2151 12.4449 70.2351 12.5449 70.2051C12.7649 70.1351 12.8949 69.9151 12.8349 69.6951C12.8149 69.6351 12.8049 69.5751 12.7949 69.5151V69.6251C12.7949 69.4951 12.7949 69.3551 12.8049 69.2251V69.3351C12.8049 69.2151 12.8349 69.0951 12.8849 68.9851C12.9249 68.8951 12.8849 68.7451 12.8449 68.6651C12.8049 68.5851 12.6949 68.4951 12.5949 68.4751C12.4849 68.4551 12.3649 68.4551 12.2749 68.5151L12.1949 68.5751C12.1449 68.6251 12.1049 68.6851 12.0849 68.7551V68.7651Z" fill="black"/>
<path d="M13.825 66.6449C14.025 66.4549 14.185 66.2249 14.295 65.9749L13.825 66.6449Z" fill="white"/>
<path d="M14.125 66.9449C14.255 66.8249 14.355 66.6949 14.455 66.5549C14.535 66.4449 14.605 66.3149 14.655 66.1949C14.685 66.1449 14.705 66.0949 14.705 66.0449C14.715 65.9849 14.705 65.9349 14.705 65.8749C14.675 65.7749 14.605 65.6749 14.515 65.6249C14.415 65.5749 14.305 65.5449 14.195 65.5849L14.095 65.6249C14.035 65.6649 13.985 65.7149 13.945 65.7749C13.875 65.9249 13.795 66.0749 13.695 66.2049L13.755 66.1249C13.685 66.2149 13.615 66.2949 13.535 66.3649C13.455 66.4349 13.415 66.5549 13.415 66.6549C13.415 66.7549 13.465 66.8749 13.535 66.9449C13.605 67.0149 13.715 67.0749 13.825 67.0649C13.935 67.0549 14.035 67.0249 14.115 66.9449H14.125Z" fill="black"/>
<path d="M10.7849 68.2451C10.5449 68.4751 10.2949 68.6951 10.0549 68.9251L10.7849 68.2451Z" fill="white"/>
<path d="M10.495 67.9451C10.255 68.1751 10.005 68.3951 9.76502 68.6251C9.68502 68.6951 9.64502 68.8151 9.64502 68.9151C9.64502 69.0151 9.69502 69.1351 9.76502 69.2051C9.83502 69.2751 9.94502 69.3351 10.055 69.3251C10.165 69.3151 10.265 69.2851 10.345 69.2051C10.585 68.9751 10.835 68.7551 11.075 68.5251C11.155 68.4551 11.195 68.3351 11.195 68.2351C11.195 68.1351 11.145 68.0151 11.075 67.9451C11.005 67.8751 10.895 67.8151 10.785 67.8251C10.675 67.8351 10.575 67.8651 10.495 67.9451Z" fill="black"/>
<path d="M11.905 66.1949L11.985 65.5549L11.905 66.1949Z" fill="white"/>
<path d="M12.3251 66.1949L12.4051 65.5549C12.4051 65.4949 12.4051 65.4449 12.3651 65.3949C12.3451 65.3449 12.3151 65.2949 12.2751 65.2649C12.2051 65.1949 12.0851 65.1349 11.9851 65.1449C11.8851 65.1549 11.7651 65.1849 11.6951 65.2649L11.6351 65.3449C11.5951 65.4049 11.5751 65.4749 11.5751 65.5549L11.4951 66.1949C11.4951 66.2549 11.4951 66.3049 11.5351 66.3549C11.5551 66.4049 11.5851 66.4549 11.6251 66.4849C11.6951 66.5549 11.8151 66.6149 11.9151 66.6049C12.0151 66.5949 12.1351 66.5649 12.2051 66.4849L12.2651 66.4049C12.3051 66.3449 12.3251 66.2749 12.3251 66.1949Z" fill="black"/>
<path d="M8.0249 66.7348C8.1449 66.2748 8.3349 65.8248 8.5849 65.4248L8.0249 66.7348Z" fill="white"/>
<path d="M8.42497 66.8449C8.48497 66.6249 8.55497 66.4149 8.64497 66.2049L8.60497 66.3049C8.70497 66.0749 8.81497 65.8549 8.94497 65.6349C9.05497 65.4449 8.99497 65.1649 8.79497 65.0649C8.59497 64.9649 8.34497 65.0149 8.22497 65.2149C7.95497 65.6549 7.75497 66.1349 7.61497 66.6249C7.55497 66.8349 7.68497 67.0849 7.90497 67.1349C8.12497 67.1849 8.35497 67.0649 8.41497 66.8449H8.42497Z" fill="black"/>
<path d="M8.44486 63.825C8.12486 63.765 7.80486 63.695 7.48486 63.635L8.44486 63.825Z" fill="white"/>
<path d="M8.55496 63.4251C8.23496 63.3651 7.91496 63.2951 7.59496 63.2351C7.48496 63.2151 7.37496 63.2151 7.27496 63.2751C7.18496 63.3251 7.10496 63.4251 7.08496 63.5251C7.06496 63.6351 7.06496 63.7551 7.12496 63.8451C7.18496 63.9351 7.26496 64.0151 7.37496 64.0351C7.69496 64.0951 8.01496 64.1651 8.33496 64.2251C8.44496 64.2451 8.55496 64.2451 8.65496 64.1851C8.74496 64.1351 8.82496 64.0351 8.84496 63.9351C8.86496 63.8251 8.86496 63.7051 8.80496 63.6151C8.74496 63.5251 8.66496 63.4451 8.55496 63.4251Z" fill="black"/>
<path d="M8.77514 60.925C8.44514 61.025 8.07514 60.995 7.76514 60.835L8.77514 60.925Z" fill="white"/>
<path d="M8.66506 60.525C8.59506 60.545 8.52506 60.565 8.44506 60.575H8.55506C8.43506 60.575 8.31506 60.575 8.19506 60.555H8.30506C8.18506 60.555 8.07506 60.525 7.96506 60.475L8.06506 60.515C8.06506 60.515 8.00506 60.485 7.97506 60.475C7.87506 60.425 7.76506 60.405 7.65506 60.435C7.55506 60.465 7.45506 60.535 7.40506 60.625C7.30506 60.815 7.34506 61.085 7.55506 61.195C7.96506 61.405 8.44506 61.465 8.88506 61.335C8.98506 61.305 9.07506 61.235 9.13506 61.145C9.19506 61.055 9.20506 60.925 9.17506 60.825C9.10506 60.615 8.88506 60.465 8.66506 60.535V60.525Z" fill="black"/>
<path d="M58.5251 36.3649C60.8151 31.0549 63.0951 25.7549 65.3851 20.4449C67.2251 16.1749 68.9051 11.8349 70.8151 7.60493C71.7751 5.47493 72.7951 3.29493 74.2251 1.43493L73.4551 1.22493C72.6951 10.6549 71.9351 20.1149 71.9251 29.5849C71.9251 32.1149 71.9851 34.6549 72.1551 37.1849L72.5751 36.7649C67.8751 36.1549 63.1451 35.8549 58.4051 35.8749C57.8751 35.8749 57.8651 36.7049 58.4051 36.7049C63.1451 36.6849 67.8751 36.9849 72.5751 37.5949C72.7851 37.6249 73.0051 37.3849 72.9951 37.1749C72.3651 27.7449 72.9951 18.2249 73.6951 8.81493C73.8851 6.28493 74.0851 3.75493 74.2851 1.22493C74.3251 0.764926 73.7351 0.724926 73.5151 1.01493C72.2651 2.63493 71.3551 4.49493 70.4851 6.34493C69.5051 8.43493 68.6251 10.5749 67.7551 12.7149C65.7951 17.5149 63.7051 22.2649 61.6551 27.0249C60.3751 30.0049 59.0851 32.9749 57.8051 35.9549C57.5951 36.4449 58.3151 36.8649 58.5251 36.3749V36.3649Z" fill="black"/>
<path d="M72.3248 28.2249C72.1848 27.3749 71.8748 26.5349 71.6148 25.7149C71.4748 25.2849 71.3448 24.8649 71.2148 24.4349C71.1548 24.2149 71.0348 23.9449 71.0548 23.7149C71.1148 23.2349 70.3648 23.1749 70.2348 23.6049C69.9448 24.5849 69.3748 25.5249 68.8548 26.4049L69.4248 26.2549C68.5548 25.5849 67.5748 25.0949 66.5148 24.7949C66.2048 24.7049 65.9248 25.0049 66.0048 25.3049C66.0948 25.6449 66.1848 25.9749 66.2848 26.3149C66.3248 26.4749 66.4348 27.2449 66.5648 27.3249C66.5548 27.3249 66.7948 27.1149 66.6348 27.2549C66.5948 27.2949 66.5448 27.3349 66.5048 27.3749C66.3748 27.4949 66.2448 27.6049 66.1148 27.7149C65.4648 28.2549 64.7748 28.7749 64.1548 29.3449C63.8548 29.6149 64.1248 30.0149 64.4448 30.0549C65.1948 30.1549 65.9348 30.2549 66.6848 30.3549L66.2848 29.8249C65.8548 30.8749 65.5048 31.9549 65.2248 33.0549C65.1248 33.4349 65.5148 33.6749 65.8348 33.5249C66.7948 33.0849 67.6648 32.5449 68.4948 31.8949L67.8048 31.7149C68.1948 32.8749 68.6948 34.0149 69.1948 35.1349C69.3248 35.4249 69.7748 35.3949 69.9148 35.1349C70.5248 33.9749 71.0248 32.7649 71.4148 31.5149L71.0148 31.8249C71.3748 31.7949 71.6548 31.8849 71.9048 32.1449C72.2848 32.5249 72.8648 31.9349 72.4948 31.5549C72.0948 31.1449 71.5848 30.9449 71.0148 30.9849C70.8248 30.9949 70.6748 31.1049 70.6148 31.2949C70.2348 32.4749 69.7648 33.6149 69.1948 34.7149H69.9148C69.4548 33.6549 68.9748 32.5949 68.6148 31.4949C68.5048 31.1749 68.1648 31.1149 67.9248 31.3149C67.1548 31.9149 66.3148 32.4049 65.4348 32.8149L66.0448 33.2849C66.3248 32.1849 66.6848 31.1049 67.1048 30.0549C67.2148 29.7749 66.9348 29.5649 66.7048 29.5249C65.9548 29.4249 65.2148 29.3249 64.4648 29.2249L64.7548 29.9349C65.4748 29.2749 66.2748 28.7049 67.0048 28.0549C67.2048 27.8849 67.4348 27.7049 67.4548 27.4249C67.4748 27.0849 67.2548 26.6249 67.1648 26.3049C67.0548 25.9049 66.9448 25.4949 66.8348 25.0949L66.3248 25.6049C67.3148 25.8849 68.2148 26.3449 69.0348 26.9749C69.2148 27.1149 69.5048 27.0049 69.6048 26.8249C70.1648 25.8849 70.7548 24.8849 71.0748 23.8249L70.2548 23.7149C70.2248 23.9749 70.3348 24.2649 70.3948 24.5149C70.5148 24.9549 70.6548 25.3849 70.7948 25.8149C71.0648 26.6749 71.3948 27.5549 71.5448 28.4449C71.6348 28.9749 72.4348 28.7449 72.3448 28.2249H72.3248Z" fill="black"/>
<path d="M57.785 36.3749L57.755 36.4649C57.735 36.5249 57.735 36.5749 57.755 36.6349C57.755 36.6949 57.775 36.7449 57.805 36.7849C57.835 36.8349 57.865 36.8749 57.915 36.9049C57.955 36.9449 58.005 36.9649 58.055 36.9749H58.165C58.235 36.9849 58.305 36.9749 58.375 36.9349L58.455 36.8749C58.505 36.8249 58.545 36.7649 58.565 36.6949L58.595 36.6049C58.615 36.5449 58.615 36.4949 58.595 36.4349C58.595 36.3749 58.575 36.3249 58.545 36.2849C58.515 36.2349 58.485 36.1949 58.435 36.1649C58.395 36.1249 58.345 36.1049 58.295 36.0949H58.185C58.115 36.0849 58.045 36.0949 57.975 36.1349L57.895 36.1949C57.845 36.2449 57.805 36.3049 57.785 36.3749Z" fill="black"/>
<path d="M57.7549 36.2349C57.3549 37.0149 57.1649 37.8849 56.9349 38.7249C56.7249 39.5149 56.5049 40.3049 56.2949 41.1049C55.8549 42.7449 55.4049 44.3849 54.9649 46.0249C54.8249 46.5449 55.6249 46.7649 55.7649 46.2449C56.1949 44.6649 56.6249 43.0749 57.0549 41.4849C57.2649 40.6949 57.4849 39.9049 57.6949 39.1249C57.9049 38.3449 58.0849 37.4249 58.4749 36.6549C58.7149 36.1749 58.0049 35.7549 57.7549 36.2349Z" fill="black"/>
<path d="M72.265 37.3551C71.925 38.9051 72.265 40.5751 72.345 42.1451C72.425 43.8051 72.425 45.4651 72.365 47.1251C72.345 47.6551 73.175 47.6551 73.195 47.1251C73.255 45.5251 73.255 43.9251 73.185 42.3251C73.155 41.5451 73.105 40.7551 73.035 39.9751C72.965 39.1951 72.885 38.3551 73.065 37.5651C73.185 37.0451 72.375 36.8251 72.265 37.3451V37.3551Z" fill="black"/>
<path d="M69.075 41.7049C69.605 41.1649 70.325 40.7949 71.105 40.8549C71.755 40.9049 72.425 41.3149 72.665 41.9349C72.815 42.3049 72.815 42.7149 72.745 43.1049C72.675 43.4949 72.575 43.9449 72.235 44.1749C71.895 44.4049 71.465 44.4849 71.085 44.5849C70.625 44.6949 70.165 44.7849 69.695 44.8249C69.475 44.8449 69.275 45.0049 69.275 45.2449C69.275 45.4549 69.465 45.6849 69.695 45.6649C70.565 45.5749 71.465 45.4249 72.285 45.0849C72.685 44.9249 73.025 44.6749 73.235 44.2949C73.445 43.9149 73.545 43.4849 73.595 43.0649C73.695 42.2549 73.495 41.4349 72.905 40.8449C72.385 40.3149 71.625 40.0249 70.885 40.0349C69.975 40.0549 69.125 40.4949 68.495 41.1349C68.125 41.5149 68.705 42.1049 69.085 41.7249L69.075 41.7049Z" fill="black"/>
<path d="M65.565 36.7349C64.725 36.5449 63.825 36.5849 63.005 36.8849C62.635 37.0249 62.225 37.2149 62.105 37.6249C61.985 38.0349 62.265 38.4149 62.595 38.6449C62.925 38.8749 63.335 39.0549 63.705 39.2149C64.075 39.3749 64.485 39.4749 64.895 39.4849C65.635 39.4949 66.575 39.1149 66.735 38.3049C66.915 37.3949 66.045 36.8749 65.325 36.5949C65.115 36.5149 64.865 36.6849 64.815 36.8849C64.755 37.1149 64.895 37.3149 65.105 37.3949C65.315 37.4749 65.515 37.5749 65.695 37.7049C65.745 37.7349 65.835 37.8249 65.855 37.8549C65.885 37.8949 65.915 37.9349 65.925 37.9749C65.905 37.9249 65.945 38.0949 65.935 38.0349C65.975 38.4649 65.305 38.6449 64.965 38.6449C64.395 38.6449 63.875 38.3949 63.385 38.1349C63.275 38.0749 63.145 38.0149 63.045 37.9449C63.015 37.9249 62.985 37.8949 62.955 37.8749C62.955 37.8749 62.895 37.7949 62.905 37.8049C62.925 37.8049 62.905 37.8549 62.905 37.8449C62.865 37.9249 62.925 37.8349 62.925 37.8349C62.925 37.8349 62.985 37.8049 62.995 37.7949C63.105 37.7249 63.235 37.6849 63.355 37.6449C63.995 37.4349 64.685 37.3949 65.335 37.5449C65.555 37.5949 65.785 37.4749 65.845 37.2549C65.905 37.0449 65.775 36.7949 65.555 36.7449L65.565 36.7349Z" fill="black"/>
<path d="M59.465 36.3449C58.785 36.1449 58.045 36.3149 57.495 36.7549C56.915 37.2149 56.515 38.0949 57.005 38.7649C57.445 39.3649 58.255 39.5349 58.955 39.4049C59.725 39.2649 60.355 38.6449 60.385 37.8449C60.385 37.6449 60.345 37.4649 60.285 37.2849C60.235 37.1349 60.205 36.9749 60.145 36.8249C60.085 36.6449 59.985 36.4749 59.815 36.3749C59.595 36.2449 59.365 36.2949 59.145 36.3949C58.945 36.4849 58.895 36.7849 58.995 36.9649C59.115 37.1749 59.355 37.2049 59.565 37.1149H59.525H59.495C59.495 37.1149 59.525 37.1149 59.455 37.1149C59.415 37.1049 59.375 37.0749 59.345 37.0449C59.395 37.0949 59.315 37.0149 59.325 37.0149C59.325 37.0149 59.355 37.0649 59.355 37.0749C59.385 37.1149 59.345 37.0049 59.355 37.0549C59.365 37.1049 59.395 37.1749 59.405 37.2249C59.435 37.3349 59.465 37.4349 59.505 37.5349C59.525 37.5849 59.545 37.6349 59.555 37.6849C59.555 37.6849 59.575 37.8049 59.565 37.7449C59.565 37.6949 59.565 37.8149 59.565 37.8249C59.565 37.8449 59.565 37.9349 59.565 37.8549C59.565 37.8849 59.565 37.9049 59.555 37.9349C59.545 37.9849 59.525 38.0349 59.505 38.0849C59.535 38.0149 59.505 38.0949 59.495 38.1149C59.475 38.1449 59.465 38.1749 59.445 38.2049C59.435 38.2249 59.415 38.2449 59.405 38.2749C59.445 38.2149 59.375 38.3149 59.365 38.3149C59.345 38.3349 59.325 38.3549 59.305 38.3749C59.305 38.3749 59.215 38.4549 59.255 38.4249C59.295 38.3949 59.185 38.4749 59.195 38.4649C59.175 38.4749 59.145 38.4949 59.125 38.5049C59.105 38.5149 59.075 38.5349 59.055 38.5449C59.105 38.5149 59.055 38.5449 59.035 38.5449C58.965 38.5749 58.885 38.5949 58.815 38.6049C58.785 38.6049 58.745 38.6149 58.715 38.6249C58.735 38.6249 58.785 38.6249 58.695 38.6249C58.635 38.6249 58.565 38.6249 58.505 38.6249C58.445 38.6249 58.375 38.6249 58.315 38.6149C58.335 38.6149 58.395 38.6149 58.315 38.6149C58.275 38.6149 58.245 38.6049 58.205 38.5949C58.145 38.5849 58.095 38.5649 58.045 38.5449C57.975 38.5249 58.125 38.5849 58.025 38.5449C58.005 38.5349 57.985 38.5249 57.955 38.5149C57.905 38.4849 57.855 38.4549 57.815 38.4249C57.765 38.3849 57.875 38.4949 57.795 38.4149C57.775 38.3849 57.745 38.3649 57.715 38.3349C57.675 38.2749 57.705 38.3249 57.715 38.3349C57.705 38.3149 57.685 38.2949 57.675 38.2749C57.675 38.2749 57.625 38.1749 57.645 38.2249C57.665 38.2749 57.635 38.1749 57.635 38.1749C57.615 38.1049 57.635 38.1649 57.635 38.1749C57.635 38.1449 57.635 38.1149 57.635 38.0849C57.635 38.0349 57.645 38.0049 57.665 37.9249C57.705 37.7949 57.655 37.9449 57.685 37.8749C57.705 37.8349 57.715 37.8049 57.735 37.7749C57.765 37.7249 57.795 37.6849 57.825 37.6449C57.785 37.7049 57.825 37.6449 57.845 37.6249C57.865 37.6049 57.885 37.5749 57.905 37.5549C57.945 37.5049 57.995 37.4649 58.045 37.4249C58.055 37.4249 58.105 37.3849 58.045 37.4249C58.075 37.4049 58.105 37.3849 58.135 37.3649C58.185 37.3349 58.245 37.3049 58.295 37.2749C58.295 37.2749 58.405 37.2249 58.345 37.2449C58.305 37.2649 58.405 37.2249 58.415 37.2149C58.485 37.1949 58.545 37.1749 58.615 37.1549C58.635 37.1549 58.665 37.1549 58.685 37.1449C58.805 37.1249 58.605 37.1449 58.725 37.1449C58.785 37.1449 58.845 37.1449 58.915 37.1449C58.935 37.1449 58.965 37.1449 58.985 37.1449C59.015 37.1449 59.095 37.1549 59.025 37.1449C59.095 37.1549 59.175 37.1749 59.245 37.1949C59.455 37.2549 59.705 37.1249 59.755 36.9049C59.805 36.6849 59.685 36.4549 59.465 36.3949V36.3449Z" fill="black"/>
<path d="M59.555 43.465C58.155 44.005 56.815 44.675 55.565 45.505C54.475 46.225 53.345 47.065 52.965 48.385C52.915 48.565 52.995 48.765 53.155 48.855C53.815 49.245 54.525 48.975 55.175 48.685C55.915 48.355 56.645 48.005 57.345 47.605C57.975 47.255 58.605 46.845 59.085 46.295C59.635 45.685 60.075 44.955 60.545 44.285C60.855 43.845 60.135 43.435 59.825 43.865C59.425 44.435 59.045 45.025 58.615 45.565C58.205 46.075 57.685 46.445 57.125 46.765C56.565 47.085 55.975 47.395 55.385 47.675C54.915 47.895 54.095 48.435 53.575 48.125L53.765 48.595C54.095 47.425 55.215 46.695 56.185 46.085C57.315 45.365 58.515 44.745 59.775 44.265C60.265 44.075 60.055 43.275 59.555 43.465Z" fill="black"/>
<path d="M59.835 44.395C62.015 44.825 64.375 45.365 65.975 47.025C66.235 47.295 66.865 47.905 66.675 48.325C66.455 48.835 65.535 48.445 65.185 48.325C64.115 47.965 63.095 47.455 62.175 46.805C61.725 46.485 61.265 46.095 61.055 45.575C60.845 45.055 60.825 44.515 60.395 44.115C60.005 43.745 59.415 44.335 59.805 44.705C60.005 44.895 60.065 45.145 60.135 45.405C60.215 45.695 60.305 45.985 60.465 46.245C60.775 46.775 61.255 47.175 61.755 47.525C62.845 48.295 64.095 48.895 65.385 49.255C65.975 49.425 66.655 49.485 67.145 49.045C67.635 48.605 67.595 47.995 67.345 47.465C66.815 46.375 65.645 45.535 64.605 44.985C63.185 44.245 61.615 43.885 60.055 43.575C59.535 43.475 59.305 44.275 59.835 44.375V44.395Z" fill="black"/>
<path d="M65.8749 76.0749C65.2049 77.1449 64.5149 78.1949 63.7849 79.2249C63.5149 79.6049 63.2349 79.9949 62.9449 80.3649C62.8549 80.4749 62.7749 80.5849 62.6749 80.6949C62.5549 80.8349 62.4249 80.8549 62.6149 80.8149L63.0149 80.9249C61.9249 79.9349 60.8749 78.9149 59.8349 77.8749C58.0249 76.0749 56.1849 74.2149 54.6949 72.1349C52.8349 69.5249 51.2549 66.4449 50.5949 63.2949C50.0849 60.8549 50.3149 58.3849 51.2349 56.0749C52.3449 53.2749 54.2449 50.8249 56.0949 48.4749C56.4249 48.0549 55.8349 47.4649 55.5049 47.8849C53.5349 50.3949 51.5449 52.9849 50.3849 55.9849C49.2249 58.9849 49.2649 61.8949 50.1249 64.8249C51.1649 68.3349 53.0949 71.6649 55.4649 74.4449C57.3549 76.6649 59.4449 78.7249 61.5649 80.7149C61.9649 81.0849 62.5549 81.9449 63.1249 81.4449C63.6949 80.9449 64.0849 80.2349 64.5049 79.6549C65.2349 78.6249 65.9249 77.5749 66.5949 76.5049C66.8749 76.0549 66.1649 75.6349 65.8749 76.0849V76.0749Z" fill="black"/>
<path d="M64.7151 49.085C64.9751 50.585 65.8151 52.025 66.4851 53.365C67.1551 54.705 68.0151 56.145 68.3751 57.635C68.5051 58.155 69.3051 57.935 69.1751 57.415C68.8051 55.925 67.9851 54.515 67.3051 53.155C66.6251 51.795 65.7751 50.375 65.5151 48.865C65.4251 48.335 64.6251 48.565 64.7151 49.085Z" fill="black"/>
<path d="M67.2349 48.575C69.0949 48.375 70.9049 47.905 72.6149 47.155C72.8249 47.065 72.8649 46.765 72.7649 46.585C72.6449 46.375 72.4049 46.345 72.1949 46.435C70.6249 47.125 68.9349 47.565 67.2349 47.745C67.0149 47.765 66.8149 47.915 66.8149 48.165C66.8149 48.375 67.0049 48.605 67.2349 48.585V48.575Z" fill="black"/>
<path d="M71.5349 76.775C71.2149 81.015 70.5949 85.245 69.9949 89.445C69.1349 95.575 68.1849 101.685 67.2249 107.805C66.2049 114.295 65.1549 120.775 64.0949 127.265C63.2149 132.615 62.3249 137.965 61.4449 143.315C61.0049 145.965 60.5149 148.605 60.1549 151.265C60.1449 151.365 60.1249 151.465 60.1149 151.575C60.0749 152.105 60.9049 152.105 60.9449 151.575C60.9549 151.405 60.9449 151.535 60.9649 151.445C60.9849 151.305 61.0049 151.165 61.0249 151.025C61.0949 150.555 61.1749 150.095 61.2449 149.625C61.5049 148.035 61.7649 146.445 62.0249 144.855C62.8749 139.745 63.7249 134.625 64.5649 129.515C65.6249 123.085 66.6649 116.655 67.6849 110.215C68.7049 103.775 69.6449 97.715 70.5449 91.455C71.1949 86.945 71.8449 82.425 72.2649 77.895C72.2949 77.525 72.3349 77.155 72.3549 76.795C72.3949 76.265 71.5649 76.265 71.5249 76.795L71.5349 76.775Z" fill="black"/>
<path d="M32.085 61.2249C29.695 61.7749 27.425 62.8149 25.455 64.2849C24.125 65.2849 21.565 67.5049 23.485 69.2149C23.815 69.5149 24.425 69.1149 24.135 68.7149C22.945 67.0149 21.115 65.7149 19.305 64.7349C17.495 63.7549 15.905 63.2949 13.935 63.6349C12.395 63.8949 11.065 64.7849 10.365 66.1949C9.73499 67.4449 9.57499 68.8749 9.50499 70.2549C9.36499 72.9449 8.95499 75.6049 8.79499 78.2949C8.72499 79.5649 8.67499 80.8349 8.66499 82.1049C8.64499 83.5249 8.59499 84.9749 8.72499 86.3849C8.93499 88.6249 10.035 90.7249 10.775 92.8149C11.125 93.7849 11.475 94.8149 11.495 95.8649C11.515 97.1549 11.265 98.4549 10.925 99.6949C10.325 101.815 9.29499 103.815 8.86499 105.985C8.17499 109.555 9.95499 113.115 11.535 116.225C12.445 118.025 13.465 119.785 14.695 121.395C15.165 122.005 15.665 122.615 16.255 123.125C16.925 123.695 17.555 124.215 18.055 124.945C20.095 127.905 20.285 131.875 22.675 134.605C23.185 135.185 23.815 135.665 24.515 135.975C25.705 136.495 26.975 136.455 28.255 136.405C29.535 136.355 30.795 136.475 31.955 137.135C32.965 137.715 33.795 138.555 34.545 139.445C36.035 141.225 37.125 143.355 38.835 144.925C40.375 146.335 42.515 147.605 44.675 147.415C45.645 147.325 46.505 146.925 47.225 146.265C47.615 145.905 47.025 145.315 46.635 145.675C44.895 147.285 42.455 146.495 40.695 145.335C38.755 144.055 37.585 142.125 36.235 140.285C35.005 138.605 33.595 136.885 31.625 136.055C30.535 135.595 29.415 135.535 28.245 135.575C26.995 135.615 25.725 135.695 24.585 135.095C23.155 134.335 22.345 132.845 21.735 131.405C21.045 129.775 20.545 128.075 19.825 126.465C19.465 125.665 19.045 124.885 18.515 124.185C18.035 123.545 17.465 123.065 16.855 122.555C15.595 121.485 14.655 120.025 13.805 118.635C12.755 116.915 11.835 115.105 11.035 113.255C10.425 111.825 9.78499 110.305 9.55499 108.765C9.25499 106.845 9.92499 104.935 10.585 103.155C11.375 101.025 12.135 98.9149 12.285 96.6349C12.425 94.4849 11.545 92.5049 10.785 90.5349C10.395 89.5149 9.99499 88.4848 9.73499 87.4249C9.43499 86.1949 9.48499 84.9149 9.48499 83.6549C9.46499 79.8849 9.72499 76.1349 10.185 72.3949C10.455 70.2349 10.105 67.7149 11.535 65.8949C12.605 64.5349 14.565 64.1749 16.205 64.4149C17.045 64.5349 17.855 64.9249 18.595 65.3149C19.585 65.8349 20.535 66.4349 21.405 67.1349C22.145 67.7249 22.865 68.3749 23.415 69.1549L24.065 68.6549C22.405 67.1749 25.875 64.9649 26.895 64.3049C28.555 63.2449 30.375 62.4949 32.295 62.0449C32.815 61.9249 32.595 61.1249 32.075 61.2449L32.085 61.2249Z" fill="black"/>
<path d="M46.8549 146.415C47.9949 145.025 49.8749 145.485 51.2049 146.305C52.5349 147.125 53.7049 148.315 54.5249 149.675C55.2149 150.825 55.7949 151.915 57.1049 152.455C58.2849 152.945 59.6249 152.875 60.7449 152.255C61.2149 151.995 60.7949 151.275 60.3249 151.535C59.0649 152.225 57.3949 152.035 56.3749 150.995C55.8249 150.425 55.5049 149.665 55.0849 149.005C54.6849 148.375 54.2149 147.785 53.6949 147.255C51.9449 145.455 48.3549 143.285 46.2649 145.835C45.9249 146.245 46.5149 146.835 46.8549 146.425V146.415Z" fill="black"/>
<path d="M35.095 64.0449C34.645 64.3949 33.605 64.6549 33.695 65.3849C33.765 65.9549 34.255 66.5349 34.465 67.0749C34.745 67.8049 34.915 68.5649 34.975 69.3449L35.505 68.9449C34.295 68.7049 33.095 68.4649 31.885 68.2249C31.275 68.1049 30.665 67.9349 30.045 67.8649C29.745 67.8349 29.475 67.8749 29.265 68.1149C29.025 68.3749 29.035 68.7849 28.985 69.1149C28.895 69.6949 28.775 70.2649 28.615 70.8249C28.305 71.9149 27.835 72.9449 27.265 73.9249H27.985C27.305 72.5949 26.785 71.2049 26.405 69.7549C26.345 69.5049 26.015 69.3549 25.795 69.5049C24.775 70.1949 23.715 70.8049 22.745 71.5749C22.425 71.8349 22.075 72.1149 21.705 72.2049C21.705 72.2049 21.655 72.2149 21.615 72.1449C21.475 71.8949 21.445 71.6049 21.415 71.3249C21.305 69.9249 21.525 68.4849 21.725 67.1049C21.795 66.5849 20.995 66.3549 20.925 66.8849C20.705 68.4149 20.425 70.0549 20.615 71.6049C20.685 72.1649 20.865 72.8849 21.515 73.0149C22.045 73.1249 22.555 72.7549 22.955 72.4549C24.015 71.6649 25.115 70.9749 26.205 70.2249L25.595 69.9749C25.985 71.4849 26.545 72.9449 27.255 74.3349C27.395 74.6149 27.825 74.5949 27.975 74.3349C28.905 72.7649 29.535 71.0249 29.805 69.2149C29.825 69.0649 29.805 68.8049 29.925 68.7149C30.065 68.6149 30.525 68.7849 30.705 68.8249C31.185 68.9249 31.665 69.0149 32.155 69.1149C33.195 69.3249 34.245 69.5249 35.285 69.7349C35.525 69.7849 35.835 69.6249 35.815 69.3349C35.725 68.1549 35.425 67.0249 34.885 65.9649C34.835 65.8649 34.495 65.3649 34.495 65.3849C34.525 65.2849 34.845 65.1549 34.935 65.0949C35.185 64.9349 35.455 64.7949 35.695 64.6149C36.115 64.2849 35.525 63.7049 35.105 64.0249L35.095 64.0449Z" fill="black"/>
<path d="M8.90483 84.7449C10.7548 85.6349 12.3248 87.1249 13.8348 88.4949C14.0448 88.6849 14.3348 88.6449 14.4848 88.4149C15.1048 87.4849 16.3248 86.8749 17.2648 86.3149C18.2748 85.7149 19.3248 85.1849 20.2848 84.5049L19.6548 84.1449C19.5748 86.0849 19.0048 87.9349 18.0448 89.6149C17.9148 89.8549 18.0448 90.1449 18.2948 90.2249C20.2248 90.8049 22.0348 91.6849 23.6548 92.8849L23.7548 92.1249C22.1148 92.6349 20.5248 93.2649 18.9848 94.0249C18.7848 94.1249 18.7248 94.4149 18.8348 94.5949C19.8548 96.2949 20.7548 98.0649 21.5348 99.8949L22.0048 99.2849C20.1748 98.8249 18.3348 98.3549 16.5048 97.8949C16.2748 97.8349 15.9448 98.0149 15.9748 98.2949C16.2448 100.315 16.5148 102.335 16.7848 104.355L17.3148 103.955C15.2048 103.265 13.1048 102.525 10.9948 101.845C10.4848 101.675 10.2648 102.485 10.7748 102.645C12.8848 103.335 14.9848 104.075 17.0948 104.755C17.3248 104.835 17.6548 104.625 17.6248 104.355C17.3548 102.335 17.0848 100.315 16.8148 98.2949L16.2848 98.6949C18.1148 99.1549 19.9548 99.6249 21.7848 100.085C22.1648 100.185 22.3948 99.7949 22.2548 99.4749C21.4748 97.6449 20.5748 95.8849 19.5548 94.1749L19.4048 94.7449C20.8848 94.0249 22.4048 93.4249 23.9748 92.9349C24.3448 92.8249 24.3548 92.3849 24.0748 92.1749C22.4048 90.9249 20.5148 90.0249 18.5248 89.4249L18.7748 90.0349C19.8048 88.2249 20.4148 86.2249 20.4948 84.1449C20.5048 83.8449 20.1248 83.6049 19.8648 83.7849C18.8148 84.5249 17.6548 85.1049 16.5548 85.7649C15.5648 86.3549 14.4248 87.0049 13.7748 87.9849L14.4248 87.9049C12.8748 86.4949 11.2348 84.9449 9.32483 84.0249C8.84483 83.7949 8.42483 84.5149 8.90483 84.7449Z" fill="black"/>
<path d="M67.0949 105.045C66.4749 105.915 65.8349 106.775 65.1749 107.605C64.7049 108.195 64.2449 108.945 63.6249 109.375L64.1949 109.525C63.0649 107.525 61.7649 105.635 60.3049 103.855C60.0849 103.585 59.7149 103.785 59.6149 104.035C58.7949 106.005 57.9749 107.985 57.1549 109.955L57.6649 109.665C55.7049 109.325 53.7749 108.845 51.8849 108.235C51.4549 108.095 51.2449 108.635 51.4849 108.925C52.6049 110.295 53.7249 111.665 54.8449 113.035L55.0249 112.345C52.0849 113.155 49.2349 114.235 46.4949 115.565C46.1849 115.715 46.2649 116.115 46.4949 116.285C48.6349 117.815 50.9649 119.055 53.4349 119.975L53.1849 119.365C52.3949 121.145 51.6049 122.925 50.8149 124.715C50.6649 125.045 50.9049 125.415 51.2849 125.325C53.3149 124.865 55.3449 124.395 57.3649 123.935L56.8549 123.645C57.3449 125.445 57.8349 127.235 58.3249 129.035C58.4049 129.335 58.7949 129.435 59.0149 129.215C60.2249 128.025 61.1049 126.575 61.6049 124.955L60.9149 125.135C61.9549 125.985 62.8149 126.995 63.4749 128.165C63.7349 128.635 64.4549 128.215 64.1949 127.745C63.5049 126.515 62.5949 125.435 61.5049 124.545C61.2649 124.345 60.9049 124.405 60.8149 124.725C60.3549 126.215 59.5449 127.525 58.4449 128.625L59.1349 128.805C58.6449 127.005 58.1549 125.215 57.6649 123.415C57.6049 123.195 57.3749 123.075 57.1549 123.125C55.1249 123.585 53.0949 124.055 51.0749 124.515L51.5449 125.125C52.3349 123.345 53.1249 121.565 53.9149 119.775C54.0349 119.515 53.9349 119.265 53.6649 119.165C51.2649 118.265 49.0049 117.045 46.9249 115.555V116.275C49.6049 114.975 52.3949 113.935 55.2649 113.135C55.5849 113.045 55.6449 112.675 55.4449 112.445C54.3249 111.075 53.2049 109.705 52.0849 108.335L51.6849 109.025C53.5749 109.635 55.5049 110.105 57.4649 110.455C57.7049 110.495 57.8849 110.385 57.9749 110.165C58.7949 108.195 59.6149 106.215 60.4349 104.245L59.7449 104.425C61.1549 106.145 62.4149 107.985 63.5049 109.925C63.6049 110.115 63.8849 110.195 64.0749 110.075C64.7649 109.595 65.2749 108.835 65.7949 108.175C66.5049 107.285 67.1849 106.375 67.8449 105.445C68.1549 105.005 67.4349 104.595 67.1249 105.025L67.0949 105.045Z" fill="black"/>
<path d="M4.73511 111.775C6.32511 115.225 14.4351 129.875 16.0851 132.685C17.7351 135.495 21.4151 138.005 24.3651 139.385C26.9351 140.595 29.3151 140.665 31.6451 142.285C34.2051 144.055 34.9851 147.355 37.1151 149.615C39.2151 151.845 45.3251 152.355 48.2351 151.405C49.1551 151.105 55.9951 153.915 56.9351 153.695C58.9351 153.225 59.8151 152.225 58.1251 152.715C56.2551 152.065 53.9651 148.195 52.7251 147.225C51.8051 146.505 50.1251 144.885 48.9651 144.945C48.1851 144.985 47.3051 145.825 46.5851 146.125C45.0351 146.765 43.2551 147.265 41.7251 146.585C40.9951 146.265 40.3951 145.705 39.8051 145.155C38.3151 143.755 36.8251 142.345 35.5851 140.715C34.9251 139.835 34.3351 138.895 33.5651 138.115C32.3051 136.825 30.5651 136.025 28.7651 135.885C28.1551 135.835 27.5451 135.865 26.9351 135.795C25.1051 135.585 23.4751 134.455 22.3051 133.035C21.1351 131.615 20.3651 129.905 19.6851 128.195C19.0451 126.585 18.4251 124.875 17.1451 123.705C15.4051 122.105 8.30511 114.725 8.77511 106.875" fill="black"/>
<path d="M4.38507 111.985C5.95507 115.385 7.84507 118.665 9.63507 121.955C11.5251 125.405 13.4151 128.865 15.3751 132.275C16.6151 134.425 18.3251 136.105 20.3551 137.535C21.6151 138.425 22.9651 139.215 24.3751 139.845C25.7851 140.475 27.3751 140.845 28.8751 141.375C30.4451 141.925 31.8651 142.745 32.9151 144.055C33.8351 145.205 34.4851 146.545 35.2551 147.785C35.8751 148.795 36.5751 149.845 37.5651 150.535C38.5551 151.225 39.6451 151.575 40.7451 151.835C43.0251 152.365 45.5951 152.515 47.8851 151.945C48.2151 151.865 48.3251 151.785 48.6251 151.815C48.9951 151.855 49.3651 151.965 49.7251 152.065C50.6751 152.325 51.6051 152.635 52.5451 152.945C53.4851 153.255 54.4651 153.585 55.4451 153.855C56.0551 154.025 56.6551 154.205 57.2751 154.045C57.7351 153.925 59.8951 153.335 59.3851 152.435C59.2051 152.125 58.8051 152.155 58.4951 152.205C58.1851 152.255 58.0951 152.275 57.8151 152.095C57.5451 151.935 57.3151 151.735 57.0851 151.525C56.1451 150.665 55.3651 149.635 54.5651 148.635C53.8851 147.795 53.2051 147.075 52.3751 146.385C51.5051 145.665 50.4951 144.725 49.3351 144.545C48.7151 144.455 48.1551 144.705 47.6351 145.015C46.9151 145.445 46.2551 145.835 45.4451 146.095C44.6351 146.355 43.8151 146.535 42.9751 146.465C42.0151 146.375 41.2551 145.885 40.5551 145.255C39.2251 144.065 37.9251 142.805 36.7551 141.455C35.5851 140.105 34.7651 138.525 33.4451 137.385C32.3251 136.425 30.9551 135.765 29.4951 135.535C28.6751 135.405 27.8551 135.465 27.0251 135.365C26.1551 135.265 25.3451 134.945 24.6051 134.495C23.1751 133.615 22.1351 132.255 21.3451 130.795C20.5551 129.335 20.0051 127.665 19.2951 126.105C18.7651 124.935 18.0751 123.995 17.1551 123.105C13.7951 119.865 10.8351 115.675 9.65507 111.115C9.29506 109.725 9.13507 108.295 9.21507 106.865C9.24507 106.335 8.41507 106.335 8.38507 106.865C8.10507 112.225 10.9851 117.265 14.3151 121.255C14.8951 121.945 15.4951 122.615 16.1251 123.265C16.8151 123.965 17.5251 124.605 18.0351 125.465C18.8451 126.835 19.3051 128.385 19.9551 129.835C20.6051 131.285 21.4251 132.755 22.5651 133.915C23.5951 134.965 24.9051 135.805 26.3651 136.115C27.1651 136.285 27.9751 136.235 28.7851 136.295C29.6451 136.365 30.4951 136.595 31.2651 136.965C32.8551 137.725 33.8451 138.995 34.8551 140.395C35.8651 141.795 36.9951 143.015 38.2051 144.205C39.2751 145.245 40.3851 146.555 41.8251 147.075C43.3551 147.635 45.0451 147.195 46.5051 146.615C47.1251 146.365 47.6451 145.975 48.2251 145.655C48.9251 145.265 49.4451 145.355 50.1051 145.745C51.0651 146.295 52.0351 147.075 52.8151 147.865C54.4051 149.475 55.5351 151.865 57.6151 152.945C57.7751 153.025 57.9651 153.135 58.1351 153.135C58.2651 153.135 58.4651 153.085 58.5751 153.035L58.7151 153.005C58.9551 153.025 58.9351 152.865 58.6551 152.525C58.5951 152.525 58.2351 152.805 58.1751 152.835C57.7851 153.035 57.2651 153.255 56.8251 153.295C56.8051 153.295 56.4351 153.245 56.2951 153.215C55.8951 153.125 55.5051 153.015 55.1251 152.895C53.2551 152.335 51.4351 151.625 49.5451 151.155C48.9051 150.995 48.4251 150.935 47.7951 151.105C46.7051 151.395 45.5551 151.455 44.4351 151.435C42.2151 151.395 39.3051 151.075 37.5951 149.485C35.5851 147.615 34.8651 144.745 32.9251 142.795C30.6251 140.485 27.2551 140.295 24.4351 138.955C21.6151 137.615 19.0951 135.915 17.2251 133.575C16.2651 132.375 15.5651 130.915 14.8151 129.575C13.8051 127.775 12.8051 125.975 11.8151 124.175C9.80507 120.525 7.78507 116.875 5.89507 113.155C5.62507 112.625 5.36507 112.105 5.11507 111.565C4.89507 111.085 4.17507 111.505 4.39507 111.985H4.38507Z" fill="black"/>
<path d="M63.8649 41.6751C64.4649 41.7051 65.0649 41.7451 65.6649 41.7751C65.8849 41.7851 66.0949 41.5751 66.0849 41.3551C66.0749 41.1151 65.9049 40.9551 65.6649 40.9351C65.0649 40.9051 64.4649 40.8651 63.8649 40.8351C63.6449 40.8251 63.4349 41.0351 63.4449 41.2551C63.4549 41.4951 63.6249 41.6551 63.8649 41.6751Z" fill="black"/>
<path d="M57.785 41.5249L59.175 41.7849C59.285 41.8049 59.395 41.8049 59.495 41.7449C59.585 41.6949 59.665 41.5949 59.685 41.4949C59.735 41.2949 59.625 41.0249 59.395 40.9849L58.005 40.7249C57.895 40.7049 57.785 40.7049 57.685 40.7649C57.595 40.8149 57.515 40.9149 57.495 41.0149C57.445 41.2149 57.555 41.4849 57.785 41.5249Z" fill="black"/>
<path d="M72.4249 47.335C74.3349 50.075 76.105 52.915 77.515 55.955C79.105 59.385 80.3949 63.355 79.7749 67.175C79.4449 69.185 78.545 70.955 77.195 72.475C75.745 74.095 73.8549 75.645 71.7849 76.405C70.5949 76.835 69.2349 76.625 68.0349 76.355C66.3449 75.975 64.705 75.355 63.115 74.675C59.815 73.255 56.665 71.515 53.565 69.695C53.105 69.425 52.6849 70.145 53.1449 70.415C56.0349 72.105 58.965 73.735 62.025 75.105C63.685 75.845 65.3849 76.535 67.1449 76.995C68.5149 77.355 70.0049 77.645 71.4149 77.375C73.3249 77.005 75.1649 75.565 76.5649 74.295C78.1449 72.865 79.4649 71.155 80.1449 69.125C81.4149 65.345 80.495 61.165 79.085 57.565C77.595 53.775 75.4549 50.275 73.1349 46.935C72.8349 46.495 72.1149 46.915 72.4149 47.355L72.4249 47.335Z" fill="black"/>
<path d="M54.1049 45.8651C49.695 45.9151 45.235 46.7151 41.075 48.1451C39.115 48.8251 37.1749 49.6551 35.4249 50.7651C33.9949 51.6751 32.505 52.8251 31.535 54.2351C30.635 55.5551 30.695 57.6051 30.885 59.1151C31.075 60.6251 31.625 62.0751 32.955 62.9751C35.205 64.4751 37.205 66.4051 39.285 68.1251C40.675 69.2751 42.0649 70.4251 43.5149 71.4951C44.445 72.1851 45.455 73.0051 46.575 73.3651C47.085 73.5251 47.305 72.7251 46.795 72.5651C45.935 72.2951 45.1449 71.6551 44.4249 71.1351C43.2149 70.2651 42.065 69.3251 40.915 68.3851C38.715 66.5851 36.575 64.6951 34.325 62.9451C34.005 62.6951 33.6749 62.4551 33.3349 62.2151C32.7149 61.7951 32.325 61.2351 32.065 60.5351C31.505 58.9851 31.475 57.0951 31.865 55.5051C32.045 54.7451 32.625 54.1451 33.165 53.6051C33.805 52.9751 34.495 52.4151 35.225 51.8951C36.775 50.7951 38.515 49.9751 40.285 49.3051C44.665 47.6451 49.4249 46.7351 54.1049 46.6851C54.635 46.6851 54.645 45.8451 54.1049 45.8551V45.8651Z" fill="black"/>
<path d="M48.5448 51.6749C46.8348 51.6949 45.2048 52.3149 44.0748 53.6149C43.2148 54.6049 42.8348 55.7049 42.5448 56.9549C41.6648 60.7849 41.9048 64.7949 43.4348 68.4149C43.8648 69.4349 44.3948 70.4049 44.9848 71.3449C45.7548 72.5849 46.5548 73.8549 48.0948 74.1949C50.2848 74.6849 52.1748 72.9549 52.9248 71.0549C53.1848 70.3849 53.4348 69.7249 53.4548 69.0049C53.4748 68.3449 53.3948 67.6849 53.2948 67.0349C53.0048 65.1249 52.5048 63.2549 52.0448 61.3949C51.6848 59.9149 51.1448 58.3149 51.1748 56.7749C51.1848 56.2449 50.3548 56.2449 50.3448 56.7749C50.3248 57.9249 50.6448 59.0949 50.9048 60.2049C51.2648 61.7249 51.6548 63.2249 52.0048 64.7449C52.3048 66.0849 52.6448 67.4849 52.6348 68.8749C52.6148 70.4949 51.6248 72.3549 50.1848 73.1049C47.3948 74.5749 45.6648 71.1149 44.6448 69.0549C43.1748 66.0849 42.6148 62.7549 42.9648 59.4649C43.1348 57.9149 43.3648 56.1649 44.2248 54.8149C45.1848 53.2949 46.7848 52.5349 48.5648 52.5049C49.0948 52.5049 49.1048 51.6649 48.5648 51.6749H48.5448Z" fill="black"/>
<path d="M26.305 77.3849C29.695 84.2249 30.645 92.8549 37.235 97.6549C37.665 97.9749 38.085 97.2449 37.655 96.9349C31.255 92.2749 30.325 83.6149 27.025 76.9649C26.785 76.4849 26.075 76.9049 26.305 77.3849Z" fill="black"/>
<path d="M32.595 75.4949C35.795 78.2949 40.015 79.7749 44.275 79.5449C44.805 79.5149 44.815 78.6849 44.275 78.7149C40.245 78.9349 36.225 77.5649 33.185 74.9049C32.785 74.5549 32.195 75.1349 32.595 75.4949Z" fill="black"/>
<path d="M48.8449 52.385C49.7749 51.625 50.5349 50.665 51.3649 49.795C52.2449 48.885 53.2649 48.135 54.2049 47.295C54.6549 46.895 55.0149 46.415 55.4549 45.995C55.7549 45.715 55.8549 45.735 55.9549 46.125C56.0349 46.455 56.0049 46.875 55.9549 47.215C55.8349 48.105 54.8249 48.695 54.1749 49.225C53.8349 49.505 54.2049 50.015 54.5749 49.915C55.7749 49.625 56.8949 49.085 58.0749 48.755C58.7549 48.565 59.4449 48.425 60.1549 48.415C60.5349 48.415 61.0049 48.405 61.3749 48.545C61.5049 48.595 61.7649 48.675 61.7149 48.885C61.6849 49.025 61.0549 49.185 60.9049 49.235C59.5149 49.695 58.0349 50.175 56.7649 50.925C56.3649 51.165 56.6249 51.825 57.0849 51.685C57.4549 51.575 57.8549 51.545 58.2349 51.525C58.5149 51.505 59.4049 51.425 59.0249 51.985C58.8849 52.195 58.4549 52.195 58.2249 52.255C57.4949 52.435 56.7849 52.605 56.0449 52.715C55.5849 52.785 55.6949 53.585 56.1549 53.535C56.6549 53.475 57.2249 53.325 57.7349 53.335C57.8049 53.335 58.2349 53.435 58.2349 53.415C58.3549 53.695 57.7549 53.945 57.5749 53.975C57.0649 54.045 56.5049 54.055 55.9849 54.085V54.915C56.7649 54.835 57.5449 54.755 58.3249 54.675L57.9049 54.255C57.9149 55.455 56.4049 55.065 55.6249 55.175C54.9549 55.275 54.6849 55.425 54.0649 55.605C53.3149 55.825 52.5549 56.015 51.7949 56.165C51.0749 56.295 50.2349 56.465 49.5149 56.265C49.0049 56.115 48.7849 56.915 49.2949 57.065C50.1149 57.305 51.0449 57.145 51.8749 56.995C52.7849 56.835 53.6849 56.605 54.5649 56.325C55.2449 56.115 55.8149 55.965 56.5349 55.975C57.6549 56.005 58.7549 55.535 58.7449 54.245C58.7449 54.035 58.5549 53.805 58.3249 53.825C57.5449 53.905 56.7649 53.985 55.9849 54.065C55.4649 54.115 55.4449 54.935 55.9849 54.895C56.4249 54.865 56.8549 54.815 57.3049 54.805C57.6349 54.795 57.9949 54.765 58.2949 54.605C58.7749 54.345 59.2649 53.595 58.9749 53.065C58.4749 52.145 56.9749 52.585 56.1649 52.685L56.2749 53.505C57.1349 53.375 57.9649 53.175 58.8049 52.975C59.3749 52.835 59.9049 52.475 59.9149 51.835C59.9249 50.285 57.8749 50.575 56.8649 50.885L57.1849 51.645C57.7049 51.335 58.2849 51.105 58.8449 50.875C59.5949 50.565 60.3649 50.295 61.1349 50.045C61.7849 49.825 62.5149 49.645 62.6049 48.835C62.7849 47.265 59.8249 47.555 58.9449 47.705C57.3549 47.975 55.9249 48.735 54.3649 49.115L54.7649 49.805C55.6349 49.095 56.6549 48.455 56.7849 47.265C56.8549 46.625 56.8849 45.845 56.4949 45.295C56.1349 44.785 55.4149 44.915 54.9949 45.285C54.4349 45.775 53.9849 46.395 53.4149 46.895C52.7749 47.455 52.1049 47.975 51.4749 48.535C50.3449 49.555 49.4549 50.825 48.2749 51.795C47.8649 52.135 48.4549 52.715 48.8649 52.385H48.8449Z" fill="black"/>
<path d="M49.2849 56.2749C46.9849 56.9949 44.8649 58.2349 42.5449 58.9249C42.0349 59.0749 42.2549 59.8849 42.7649 59.7249C45.0749 59.0249 47.1949 57.7849 49.5049 57.0749C50.0149 56.9149 49.7949 56.1149 49.2849 56.2749Z" fill="black"/>
<path d="M72.0251 52.8051C71.4351 52.4951 70.4851 52.5051 69.9051 52.8351C69.2151 53.2351 68.8751 54.2351 68.6551 54.9451C68.4551 55.5751 68.1351 56.4851 68.6451 57.0551C69.1551 57.6251 70.1051 57.6551 70.8051 57.5951L70.5151 56.8851C70.1151 57.2551 69.5251 57.1951 69.0251 57.2551C68.5851 57.3051 68.1651 57.4151 67.7951 57.6651C67.0251 58.1851 66.6351 59.0751 66.2951 59.9051L66.9051 59.6551C65.2051 58.7851 63.8751 57.3351 61.8851 57.1051C59.8951 56.8751 57.9251 57.5651 56.2851 58.5151C54.6451 59.4651 53.5951 60.9351 53.0051 62.6351C52.4551 64.2451 52.7151 66.0651 52.6351 67.7351C52.6051 68.2651 53.4351 68.2651 53.4651 67.7351C53.5351 66.2451 53.3351 64.6851 53.6951 63.2351C54.1051 61.5851 55.2351 60.0751 56.7051 59.2351C58.1751 58.3951 60.2051 57.6751 61.9851 57.9551C63.7651 58.2351 64.9651 59.6051 66.4851 60.3751C66.7451 60.5051 66.9851 60.3751 67.0951 60.1251C67.4451 59.2751 67.8851 58.3051 68.8851 58.1151C69.6851 57.9551 70.4551 58.0751 71.1051 57.4751C71.3551 57.2451 71.1751 56.7351 70.8151 56.7651C70.3951 56.7951 69.7351 56.8651 69.3851 56.5851C69.0351 56.3051 69.3551 55.5351 69.4751 55.1651C69.6251 54.6851 69.8351 54.0251 70.2151 53.6651C70.5251 53.3751 71.2451 53.3151 71.6251 53.5151C72.0951 53.7651 72.5151 53.0451 72.0451 52.7951L72.0251 52.8051Z" fill="black"/>
<path d="M51.605 57.0651C52.125 57.5551 52.685 58.0051 53.255 58.4451C53.825 58.8851 54.395 59.3151 55.005 59.6951C55.465 59.9751 55.875 59.2551 55.425 58.9751C54.845 58.6151 54.285 58.2051 53.755 57.7951C53.225 57.3851 52.685 56.9451 52.185 56.4851C51.795 56.1151 51.205 56.7051 51.595 57.0751L51.605 57.0651Z" fill="black"/>
<path d="M9.02485 70.925C6.81485 74.895 5.08485 79.225 4.67485 83.775C4.47485 85.995 4.64485 88.225 5.19485 90.375C5.51485 91.615 5.93485 92.855 5.99485 94.155C6.04485 95.375 5.64485 96.475 5.11485 97.555C4.12485 99.565 3.29485 101.505 3.00485 103.745C2.71485 105.985 2.82485 108.245 3.32485 110.425C3.63485 111.805 4.24485 113.125 4.85485 114.395C5.53485 115.805 6.27485 117.175 7.05485 118.535C8.39485 120.865 9.90485 123.095 11.2048 125.455C13.1348 128.965 14.8048 132.965 17.7148 135.805C20.6248 138.645 24.6548 139.905 28.3948 141.395C29.4848 141.825 30.5648 142.345 31.4448 143.135C32.1148 143.735 32.6848 144.435 33.2048 145.165C34.2248 146.615 35.0748 148.185 36.2448 149.525C37.4948 150.955 39.1048 151.875 40.9948 152.155C43.1448 152.465 45.3048 152.085 47.4548 152.075C48.5849 152.075 49.6848 152.175 50.7748 152.505C51.8648 152.835 52.8848 153.325 53.9648 153.675C55.5848 154.205 57.4148 154.345 59.0148 153.665C59.6848 153.385 60.2548 152.945 60.6248 152.305C60.8948 151.845 60.1749 151.425 59.9049 151.885C59.0948 153.295 56.9648 153.445 55.5248 153.215C53.3948 152.875 51.5448 151.635 49.3848 151.345C45.4449 150.825 40.7948 152.685 37.5148 149.655C35.0048 147.325 33.9948 143.735 31.0548 141.805C29.3148 140.655 27.2148 140.095 25.2948 139.335C23.3748 138.575 21.6248 137.765 19.9848 136.625C16.6648 134.315 14.8048 130.505 12.9648 127.025C11.6148 124.465 10.0748 122.045 8.59485 119.565C7.11485 117.085 5.62485 114.525 4.60485 111.805C3.22485 108.145 3.32485 103.705 4.80485 100.095C5.62485 98.085 6.94485 96.335 6.81485 94.055C6.68485 91.775 5.70485 89.635 5.50485 87.355C5.09485 82.855 6.34485 78.355 8.23485 74.305C8.70485 73.305 9.20485 72.325 9.74485 71.355C10.0048 70.885 9.28485 70.465 9.02485 70.935V70.925Z" fill="black"/>
<path d="M4.38487 111.175C3.79487 108.715 3.15487 105.545 3.75487 103.085C4.55487 99.785 6.55487 97.255 6.38487 93.865C6.26487 91.425 5.59487 89.115 5.38487 86.685C5.21487 84.665 5.40487 82.155 5.91487 80.185C6.26487 78.845 6.50487 77.435 6.97487 76.135C7.59487 74.435 8.86487 72.615 9.87487 71.125C8.75487 74.395 9.06487 78.485 8.92487 82.135C8.78487 85.595 10.1049 88.945 10.9449 92.305C11.2649 93.595 11.5949 94.905 11.5649 96.235C11.5349 97.545 11.1649 98.815 10.7949 100.065C10.1749 102.175 9.55487 104.295 8.92487 106.405C8.64487 107.365 8.35487 108.345 7.84487 109.205C7.07487 110.525 5.80487 111.545 4.35487 112.005C4.27487 111.655 4.20487 111.295 4.12487 110.945" fill="black"/>
<path d="M9.95488 65.4949C10.2349 65.2049 10.5149 64.9149 10.7849 64.6249C10.8549 64.5449 10.9049 64.4449 10.9049 64.3349C10.9049 64.2349 10.8549 64.1149 10.7849 64.0449C10.7149 63.9749 10.6049 63.9149 10.4949 63.9249C10.3849 63.9349 10.2749 63.9649 10.2049 64.0449C9.92488 64.3349 9.64488 64.6249 9.37488 64.9149C9.30488 64.9949 9.25488 65.0949 9.25488 65.2049C9.25488 65.3049 9.30488 65.4249 9.37488 65.4949C9.44488 65.5649 9.55488 65.6249 9.66488 65.6149C9.77488 65.6049 9.88488 65.5749 9.95488 65.4949Z" fill="black"/>
<path d="M6.25498 71.405C6.18498 71.725 6.13498 72.055 6.10498 72.385H6.93498V72.345C6.93498 72.235 6.89498 72.135 6.81498 72.055C6.74498 71.985 6.62498 71.925 6.52498 71.935C6.42498 71.945 6.30498 71.975 6.23498 72.055C6.16498 72.135 6.10498 72.235 6.11498 72.345V72.385C6.11498 72.495 6.15498 72.595 6.23498 72.675C6.30498 72.745 6.42498 72.805 6.52498 72.795C6.62498 72.785 6.74498 72.755 6.81498 72.675C6.88498 72.595 6.92498 72.495 6.93498 72.385C6.93498 72.285 6.95498 72.185 6.96498 72.085V72.195C6.97498 72.005 7.01498 71.815 7.05498 71.625C7.07498 71.515 7.06498 71.405 7.01498 71.305C6.96498 71.215 6.86498 71.135 6.76498 71.115C6.65498 71.095 6.53498 71.095 6.44498 71.155C6.35498 71.215 6.27498 71.295 6.25498 71.405Z" fill="black"/>
</g>
<defs>
<clipPath id="clip0_5_1409">
<rect width="80.68" height="153.29" fill="white" transform="translate(0.0749512 0.834961)"/>
</clipPath>
</defs>
</svg>
