<svg width="67" height="131" viewBox="0 0 67 131" fill="none" xmlns="http://www.w3.org/2000/svg">
<path d="M50.8427 90.4496C49.5412 89.3257 48.2662 88.1751 46.9381 87.0513C46.6193 86.7837 46.3006 86.5162 45.9818 86.2486C45.849 86.1415 45.6631 86.088 45.5037 86.1951C45.3709 86.2753 45.2646 86.4894 45.3177 86.6499C45.6099 87.4794 45.8224 88.3357 45.9818 89.2187C46.0615 89.6468 46.1146 90.0482 46.1412 90.4763C46.1677 90.6904 46.1677 90.9044 46.1943 91.0917C46.1943 91.1988 46.1943 91.3058 46.2209 91.4128C46.2209 91.4396 46.2209 91.4664 46.2209 91.4664C46.2474 91.4128 46.2474 91.3326 46.274 91.279C46.274 91.2523 46.3537 91.172 46.3802 91.172C46.3537 91.172 46.3006 91.2255 46.274 91.2523C46.2209 91.279 46.1412 91.3058 46.0881 91.3593C46.0084 91.3861 45.9287 91.4396 45.849 91.4664C45.7959 91.4931 45.7427 91.5199 45.7162 91.5199C45.6896 91.5199 45.6631 91.5466 45.6365 91.5466C45.7162 91.5199 45.6099 91.5466 45.6099 91.5466C45.0787 91.7607 44.5474 91.9748 44.0162 92.1621C43.4584 92.3761 42.874 92.5634 42.2896 92.6972C42.1302 92.7507 41.9974 92.9113 41.9974 93.0718C41.9974 93.2591 42.1302 93.3929 42.2896 93.4464C42.4756 93.4999 42.6615 93.5802 42.8209 93.6605C42.874 93.6873 42.9271 93.6872 42.9537 93.714C42.9802 93.714 43.0865 93.7675 43.0334 93.7408C43.1396 93.7943 43.2459 93.821 43.3256 93.8746C43.7506 94.0619 44.2021 94.2759 44.6271 94.49C45.2381 94.7843 45.9021 95.0787 46.4599 95.4533C46.4865 95.4533 46.4865 95.48 46.5131 95.48C46.5662 95.5068 46.4599 95.4265 46.4599 95.4533C46.4865 95.48 46.4599 95.48 46.4334 95.4265C46.4068 95.373 46.3006 95.1589 46.3537 95.1054L46.3271 95.1589C46.3006 95.2124 46.3271 95.1322 46.3537 95.1054C46.3271 95.1054 46.3271 95.1589 46.3271 95.1857C46.2209 95.4265 46.0881 95.6673 45.9818 95.8814C45.5834 96.6574 45.2115 97.4066 44.8396 98.1826C44.4146 99.0923 43.9631 100.002 43.6709 100.965C43.5912 101.26 43.8834 101.554 44.149 101.447C45.5834 101.019 46.9912 100.457 48.3459 99.8148C48.1599 99.7613 47.974 99.7078 47.7881 99.681C48.5318 101.179 49.0896 102.812 49.4084 104.444C49.4349 104.604 49.5943 104.711 49.7271 104.738C49.8865 104.765 50.0193 104.685 50.1256 104.551C51.0552 103.186 52.1177 101.929 53.0474 100.564C53.1802 100.377 53.074 100.109 52.9146 100.002C52.7287 99.8951 52.4896 99.9753 52.3568 100.136C51.4271 101.501 50.3646 102.758 49.4349 104.123C49.674 104.15 49.9131 104.176 50.1521 104.23C49.8068 102.491 49.249 100.832 48.4521 99.2529C48.3459 99.0388 48.0802 99.0121 47.8943 99.1191C46.5927 99.7345 45.2646 100.243 43.8834 100.671C44.0427 100.832 44.2021 100.992 44.3615 101.153C44.6271 100.27 44.9724 99.574 45.3709 98.7177C45.7693 97.915 46.1677 97.1123 46.5662 96.3095C46.699 96.0687 46.8318 95.8011 46.9381 95.5603C47.0443 95.3195 47.1506 95.0519 46.9381 94.8378C46.7787 94.6773 46.5396 94.5703 46.3537 94.4632C46.0084 94.2759 45.6365 94.0886 45.2646 93.9013C44.3349 93.4464 43.3787 92.9648 42.3693 92.6169C42.3693 92.8845 42.3693 93.1253 42.3693 93.3929C43.4849 93.1253 44.6006 92.6972 45.6631 92.2423C46.0084 92.1085 46.3802 91.9748 46.6724 91.7607C46.9912 91.5466 46.9115 91.1453 46.8849 90.8242C46.8584 90.3425 46.8052 89.8876 46.7256 89.406C46.5662 88.3624 46.3271 87.3456 45.9818 86.3556C45.7693 86.4894 45.5302 86.6232 45.3177 86.757C46.6459 87.8273 47.9209 88.9779 49.2224 90.1285C49.5412 90.396 49.8599 90.6904 50.1787 90.958C50.3381 91.0917 50.5771 91.1185 50.7365 90.958C50.9756 90.8777 51.0021 90.5833 50.8427 90.4496Z" fill="black"/>
<path d="M59.3162 129.917C60.4584 128.526 61.6271 127.108 62.7693 125.716C62.9287 125.529 62.9287 125.235 62.6896 125.074C61.5209 124.352 60.4052 123.576 59.3162 122.719C59.263 122.933 59.2099 123.174 59.1302 123.388C60.2459 123.174 61.3349 122.96 62.4505 122.746C62.9021 122.666 63.3271 122.559 63.7787 122.505C64.124 122.452 64.5224 122.398 64.8146 122.157C64.974 122.024 64.9474 121.729 64.8146 121.595C64.6552 121.435 64.4162 121.462 64.2568 121.595C64.2834 121.569 64.3365 121.515 64.2568 121.595C64.1771 121.649 64.3099 121.595 64.2302 121.595C64.1505 121.622 64.0709 121.649 63.9912 121.649C63.8318 121.676 63.6724 121.702 63.513 121.729C63.0615 121.81 62.6099 121.89 62.1318 121.997C61.0693 122.211 60.0068 122.398 58.9443 122.612C58.6787 122.666 58.5459 123.094 58.7584 123.281C59.9005 124.164 61.0693 124.994 62.2912 125.743C62.2646 125.529 62.238 125.315 62.2115 125.101C61.0693 126.492 59.9005 127.91 58.7584 129.302C58.6255 129.462 58.599 129.703 58.7584 129.864C58.8912 130.051 59.1834 130.078 59.3162 129.917Z" fill="black"/>
<path d="M16.524 72.0937C17.1084 72.0134 17.7193 71.9599 18.3037 71.8796C18.1709 71.7191 18.038 71.5318 17.9318 71.3712C17.3209 73.1908 16.7365 75.0371 16.1255 76.8566C16.0724 77.0439 16.2052 77.3115 16.3912 77.3382C17.7724 77.5791 19.1271 77.9269 20.4552 78.3283C20.4287 78.0875 20.4021 77.8466 20.349 77.6058C19.0474 78.4086 17.7459 79.2113 16.4709 80.0408C16.1787 80.2281 15.913 80.4689 15.8068 80.79C15.7005 81.1378 15.7537 81.5125 15.8334 81.8603C15.9927 82.6095 16.1521 83.3587 16.3115 84.108C16.4974 84.9375 16.7099 85.7669 16.8959 86.5964C17.0818 86.4359 17.2943 86.3021 17.4802 86.1416C15.9927 85.1783 14.4255 84.3488 12.938 83.3855C12.513 83.1179 12.1146 83.8136 12.5396 84.0812C14.0271 85.0445 15.5943 85.874 17.0818 86.8373C17.374 87.0246 17.7459 86.7035 17.6662 86.3824C17.3209 84.991 17.0021 83.5728 16.7099 82.1814C16.6568 81.8603 16.5505 81.5392 16.524 81.2181C16.524 80.9773 16.6568 80.8435 16.8427 80.7365C17.4271 80.3351 18.038 79.9605 18.649 79.5859C19.3396 79.1578 20.0302 78.7029 20.7209 78.2748C21.013 78.0875 20.9599 77.6326 20.6146 77.5523C19.2865 77.1509 17.9052 76.8298 16.5505 76.5623C16.6302 76.7228 16.7365 76.8834 16.8162 77.0439C17.4271 75.2244 18.0115 73.3781 18.6224 71.5586C18.7021 71.3445 18.4896 71.0234 18.2505 71.0502C17.6662 71.1304 17.0552 71.1839 16.4709 71.2642C16.2584 71.291 16.0724 71.4248 16.0724 71.6656C16.1255 71.9064 16.3115 72.1205 16.524 72.0937Z" fill="black"/>
<path d="M4.22566 129.703C6.03191 128.874 7.86472 128.017 9.77722 127.482C10.0694 127.402 10.1491 127.027 9.96316 126.813C8.52879 125.208 6.9616 123.576 6.16472 121.515C6.00535 121.676 5.84597 121.836 5.6866 121.997C7.14754 122.291 8.58191 122.746 10.0163 123.148C10.2553 123.201 10.4678 123.281 10.7069 123.335C10.8663 123.362 11.0522 123.415 11.2382 123.362C11.6632 123.281 12.0085 122.96 12.3007 122.666C12.6725 122.318 13.0178 121.943 13.3897 121.596C14.2132 120.766 15.0632 119.937 15.8866 119.107C15.6475 119 15.435 118.92 15.196 118.813C15.2491 119.669 15.3819 120.499 15.5678 121.355C15.6475 121.756 15.7538 122.131 15.86 122.505C15.9132 122.693 15.9397 122.853 16.0194 123.014C16.4444 123.683 17.3475 123.228 17.9053 123.067C18.7288 122.826 19.5257 122.639 20.3491 122.452C21.2788 122.238 22.2085 122.024 23.1116 121.783C22.9522 121.622 22.7928 121.462 22.6335 121.301C22.3944 122.746 21.81 124.111 20.8803 125.261C20.6678 125.529 20.8007 125.93 21.1725 125.957C23.6163 126.011 26.06 126.037 28.5038 126.091C28.3975 125.85 28.3178 125.636 28.2116 125.395C27.096 126.626 25.9804 127.884 24.8382 129.115C24.7053 129.275 24.6788 129.516 24.8382 129.676C24.9975 129.837 25.2632 129.837 25.396 129.676C26.5116 128.446 27.6272 127.188 28.7694 125.957C29.0085 125.69 28.8491 125.288 28.4772 125.261C26.0335 125.208 23.5897 125.181 21.146 125.128C21.2522 125.368 21.3319 125.582 21.4382 125.823C22.4475 124.592 23.1382 123.094 23.4038 121.515C23.4569 121.221 23.2178 120.953 22.9257 121.034C21.4116 121.408 19.871 121.756 18.3569 122.157C17.985 122.265 17.5866 122.372 17.2147 122.479C17.0819 122.532 16.896 122.586 16.7632 122.612C16.8163 122.612 16.6835 122.612 16.6835 122.612C16.6303 122.639 16.6569 122.612 16.6835 122.612L16.6303 122.586C16.6835 122.612 16.6835 122.612 16.6569 122.586C16.6304 122.559 16.6303 122.586 16.6835 122.612L16.6569 122.586C16.6569 122.612 16.6835 122.612 16.6835 122.639V122.612C16.6835 122.612 16.6303 122.532 16.6835 122.586C16.71 122.639 16.6835 122.586 16.6835 122.559C16.6569 122.479 16.6569 122.425 16.6303 122.345C16.5507 122.024 16.4444 121.703 16.3647 121.382C16.1522 120.525 16.046 119.669 15.9663 118.813C15.9397 118.465 15.5413 118.278 15.2757 118.518C14.5585 119.214 13.8679 119.937 13.1507 120.632C12.7788 120.98 12.4335 121.355 12.0616 121.703C11.796 121.97 11.5038 122.318 11.1585 122.505C11.1054 122.532 11.1319 122.532 11.0788 122.559C11.0522 122.559 11.0522 122.559 11.0257 122.586C10.946 122.612 10.946 122.612 11.0788 122.586H11.0257C10.9194 122.586 11.1054 122.612 11.0257 122.586C10.9725 122.586 10.946 122.559 10.8928 122.559C10.6804 122.505 10.4944 122.452 10.2819 122.398C9.64441 122.211 9.00691 122.024 8.36941 121.836C7.54598 121.596 6.69597 121.382 5.87254 121.194C5.60691 121.141 5.2616 121.382 5.39441 121.676C6.24441 123.87 7.83816 125.609 9.37878 127.322C9.43191 127.108 9.48504 126.867 9.56472 126.653C7.57254 127.215 5.6866 128.098 3.82722 128.954C3.64129 129.034 3.58816 129.329 3.69441 129.516C3.80066 129.757 4.01316 129.783 4.22566 129.703Z" fill="black"/>
<path d="M29.0882 32.9737C29.8585 30.5923 30.6022 28.1841 31.346 25.7759C32.0897 23.3141 32.86 20.8524 33.6038 18.4175C34.2147 16.4374 34.8788 14.4841 35.4632 12.5307C36.0475 10.6042 36.6319 8.67762 37.296 6.75106C37.9069 4.98504 38.5444 3.27254 39.4741 1.64032C39.5538 1.47977 39.66 1.31922 39.7663 1.15868C39.5272 1.0784 39.2616 1.02489 39.0225 0.944613C39.0491 2.89793 39.0491 4.85125 39.0757 6.83133C39.1022 8.9452 39.1554 11.0591 39.2085 13.1729C39.2616 15.3403 39.3413 17.4809 39.4475 19.6483C39.5538 21.7622 39.6866 23.9028 39.8725 26.0167C40.0585 27.9968 40.271 30.0036 40.5632 31.9569C40.5897 32.171 40.6429 32.4118 40.6694 32.6259C40.8022 32.4653 40.935 32.278 41.0413 32.1175C37.8272 31.9837 34.5866 32.0104 31.3725 32.2245C30.4694 32.278 29.5397 32.3583 28.6366 32.4386C28.4241 32.4653 28.2382 32.5991 28.2382 32.8399C28.2382 33.054 28.4241 33.268 28.6366 33.2413C31.8507 32.947 35.0647 32.8132 38.2788 32.8399C39.1819 32.8399 40.1116 32.8667 41.0147 32.9202C41.3069 32.9202 41.4397 32.6526 41.3866 32.4118C41.0944 30.512 40.8553 28.6122 40.696 26.6589C40.51 24.5718 40.3507 22.4579 40.2444 20.3708C40.1382 18.2034 40.0319 16.0628 39.9788 13.8954C39.9257 11.7815 39.8725 9.66766 39.846 7.55379C39.8194 5.57372 39.7928 3.59364 39.7928 1.64032C39.7928 1.3995 39.7928 1.18543 39.7928 0.944613C39.7928 0.543246 39.2616 0.409457 39.0491 0.73055C38.0663 2.25575 37.4022 3.995 36.7913 5.7075C36.1007 7.63407 35.4897 9.58739 34.8788 11.5675C34.2944 13.4673 33.6835 15.3403 33.0991 17.2401C32.3288 19.7018 31.5585 22.1636 30.8147 24.6253C30.071 27.0602 29.3272 29.4684 28.5569 31.9034C28.4772 32.1977 28.371 32.4653 28.2913 32.7597C28.2116 32.9737 28.371 33.1878 28.5569 33.2413C28.8225 33.3216 29.035 33.1878 29.0882 32.9737Z" fill="black"/>
<path d="M40.2178 24.7323C40.085 24.1704 39.846 23.6352 39.6069 23.1001C39.3678 22.5114 39.1022 21.9227 38.8897 21.3341C38.8366 21.227 38.81 21.12 38.7835 21.013C38.7835 20.9862 38.7569 20.9327 38.7569 20.9059C38.7303 20.8524 38.7569 21.013 38.7569 20.9059C38.7835 20.4511 38.0663 20.344 37.9866 20.7989C37.9335 21.0665 37.8538 21.3073 37.7741 21.5481C37.7209 21.6819 37.6678 21.8157 37.6147 21.9763C37.5616 22.1101 37.4819 22.2974 37.4553 22.3776C37.3491 22.672 37.1631 23.0198 37.0303 23.3409C37.2163 23.2874 37.4022 23.2339 37.5881 23.2071C36.7913 22.672 35.8881 22.3241 34.9319 22.1368C34.6663 22.0833 34.321 22.3241 34.4538 22.6184C34.5866 22.9395 34.6928 23.2606 34.8256 23.6085C34.8788 23.7423 34.9319 23.9028 34.985 24.0366C35.0116 24.1169 35.0381 24.1972 35.0647 24.2774C35.0913 24.3309 35.1178 24.4915 35.1444 24.5183C35.1178 24.4112 35.1178 24.3309 35.171 24.2239L35.1444 24.2507C35.2506 24.1169 35.1178 24.2774 35.0913 24.3042C34.985 24.4112 34.8788 24.5183 34.7991 24.6253C34.2678 25.1604 33.6835 25.6688 33.1788 26.2575C32.9397 26.5251 33.0991 26.9265 33.471 26.9532C34.135 26.98 34.7725 27.0067 35.4366 27.0335C35.3038 26.8729 35.171 26.6856 35.0647 26.5251C34.7725 27.4884 34.56 28.4517 34.4006 29.4417C34.3475 29.7895 34.6663 30.0839 34.985 29.8966C35.7819 29.4417 36.5256 28.9065 37.1897 28.2643C36.9772 28.2376 36.7647 28.2108 36.5522 28.1841C36.9506 29.1474 37.4819 30.0571 37.9866 30.9936C38.0663 31.1274 38.2256 31.2077 38.385 31.1809C38.5444 31.1542 38.6506 31.0472 38.7038 30.8866C39.1288 29.8431 39.4741 28.7727 39.7131 27.7024C39.6335 27.7827 39.5272 27.8897 39.4475 27.97C39.6866 27.9165 39.9522 27.9968 40.1381 28.1573C40.2975 28.2911 40.5366 28.3179 40.6959 28.1573C40.8553 27.9968 40.8553 27.7292 40.6959 27.5954C40.2975 27.2208 39.7663 27.087 39.235 27.194C39.1022 27.2208 38.9959 27.3546 38.9694 27.4616C38.7303 28.5587 38.385 29.629 37.96 30.6458C38.1991 30.619 38.4381 30.5923 38.6772 30.5388C38.1725 29.629 37.6678 28.6925 37.2428 27.7292C37.1366 27.4884 36.7913 27.4884 36.6053 27.6489C35.9944 28.2376 35.3038 28.746 34.56 29.1474C34.746 29.3079 34.9585 29.4417 35.1444 29.6022C35.3038 28.6122 35.5163 27.6489 35.8085 26.6856C35.8881 26.4181 35.6756 26.1772 35.4366 26.1772C34.7725 26.1505 34.135 26.1237 33.471 26.097C33.5772 26.3378 33.6569 26.5518 33.7631 26.7927C34.1881 26.311 34.6663 25.8829 35.1178 25.4548C35.3038 25.2675 35.5163 25.0802 35.7022 24.8661C35.9147 24.652 36.0209 24.4647 35.9147 24.1436C35.7022 23.555 35.4897 22.9663 35.2506 22.3776C35.0913 22.5382 34.9319 22.6987 34.7725 22.8593C35.6491 23.0198 36.4725 23.3409 37.2428 23.8493C37.4022 23.9563 37.6944 23.9028 37.8006 23.7155C37.96 23.3677 38.1194 23.0198 38.2788 22.6452C38.5178 22.1101 38.7569 21.5481 38.8631 20.9595C38.5975 20.9327 38.3319 20.8792 38.0928 20.8524C38.0663 21.013 38.146 21.227 38.1991 21.3876C38.2788 21.6552 38.385 21.896 38.4913 22.1636C38.7569 22.8058 39.0225 23.4212 39.2616 24.0634C39.3678 24.3309 39.4741 24.6253 39.5538 24.8929C39.5803 25.4548 40.3506 25.2407 40.2178 24.7323Z" fill="black"/>
<path d="M27.7334 34.2582C27.3084 36.7199 26.8834 39.1548 26.4318 41.6166C26.4052 41.8306 26.4849 42.0447 26.6974 42.0982C26.8834 42.1517 27.149 42.0447 27.1756 41.8306C27.6006 39.3689 28.0256 36.9339 28.4771 34.4722C28.5037 34.2582 28.424 34.0441 28.2115 33.9906C28.0256 33.9103 27.7865 34.0441 27.7334 34.2582Z" fill="black"/>
<path d="M40.7224 32.5722C40.6428 33.1342 40.6959 33.6693 40.8021 34.2045C40.9084 34.7396 41.0146 35.3015 41.0943 35.8367C41.2803 36.9605 41.4131 38.1111 41.5193 39.2349C41.5724 39.9039 41.6256 40.5728 41.6521 41.215C41.6521 41.4291 41.8381 41.6164 42.0506 41.6164C42.2631 41.6164 42.449 41.4291 42.449 41.215C42.3428 38.9406 42.0771 36.6662 41.6521 34.4185C41.5459 33.8834 41.4131 33.2947 41.4928 32.7596C41.5193 32.5455 41.4396 32.3314 41.2271 32.2779C41.0412 32.2244 40.749 32.3582 40.7224 32.5722Z" fill="black"/>
<path d="M38.4115 36.8269C38.7303 36.4256 39.1553 36.1045 39.66 35.9707C40.1381 35.8369 40.6162 35.9172 41.0147 36.1847C41.4131 36.4523 41.6522 36.8804 41.6787 37.3888C41.6787 37.6832 41.6522 37.9508 41.5725 38.2183C41.4928 38.4592 41.3865 38.6197 41.1475 38.7535C40.8553 38.914 40.5365 39.0211 40.2178 39.1281C39.8459 39.2351 39.474 39.3422 39.1022 39.4224C38.8897 39.476 38.7834 39.7168 38.8365 39.9041C38.8897 40.1181 39.1022 40.2252 39.3147 40.1717C40.0584 40.0379 40.8553 39.8238 41.5459 39.4492C41.8912 39.2619 42.1303 38.9943 42.2631 38.6197C42.3959 38.2986 42.449 37.924 42.449 37.5494C42.4756 36.8269 42.21 36.1045 41.6522 35.6496C41.1475 35.2215 40.4568 35.0074 39.7928 35.1144C39.0225 35.2215 38.3053 35.6228 37.8006 36.2383C37.6678 36.3988 37.6412 36.6396 37.8006 36.8002C37.9865 36.9607 38.2787 36.9875 38.4115 36.8269Z" fill="black"/>
<path d="M29.4069 37.0141C29.3272 36.7198 29.1944 36.3987 28.9022 36.2917C28.7428 36.2382 28.5834 36.2114 28.4506 36.2649C28.2647 36.3184 28.1053 36.4522 28.0256 36.6663C27.9459 36.8536 28.0256 37.0677 28.1053 37.2282C28.185 37.362 28.2913 37.5225 28.4506 37.6028C28.61 37.6831 28.7959 37.7098 28.9819 37.6563C29.1678 37.576 29.3538 37.4423 29.3803 37.2282C29.4069 37.1212 29.4069 37.0141 29.3803 36.9071C29.3538 36.8001 29.3006 36.7198 29.2209 36.6395C29.1678 36.5593 29.0881 36.5057 29.0084 36.4255C29.035 36.4522 29.0616 36.479 29.0616 36.5057C29.035 36.479 29.0084 36.4522 29.0084 36.4255C28.9553 36.3184 28.8225 36.2382 28.7163 36.2382C28.5834 36.2114 28.4772 36.2649 28.3709 36.3452C28.2116 36.479 28.1319 36.693 28.1319 36.9071C28.1319 37.0677 28.185 37.255 28.2647 37.4155C28.3709 37.5761 28.5303 37.7366 28.7428 37.7901C28.9022 37.8169 29.0616 37.8169 29.2209 37.7366C29.3803 37.6563 29.4866 37.469 29.5131 37.3085C29.5397 37.0677 29.46 36.8536 29.3006 36.6663C29.1944 36.5325 29.0084 36.4522 28.8491 36.4255C28.6366 36.3987 28.4241 36.3987 28.2381 36.5325C28.1319 36.6128 28.0522 36.693 27.9991 36.8001C27.9459 36.9071 27.9194 37.0141 27.8928 37.1479C27.8928 37.255 27.8928 37.3352 27.9194 37.4423C27.9725 37.5761 28.0256 37.6563 28.1053 37.7634C28.2381 37.9507 28.4772 38.0577 28.6897 38.0309C28.8491 38.0309 29.035 37.8971 29.0616 37.7366C29.1147 37.5493 29.1413 37.3085 29.0616 37.1212C29.0084 37.0141 28.9553 36.8803 28.8756 36.8001C28.7959 36.7198 28.6897 36.6663 28.5834 36.6128C28.3709 36.5325 28.1053 36.586 27.9194 36.7466C27.8397 36.8268 27.7866 36.9606 27.76 37.0677C27.76 37.1747 27.76 37.255 27.7866 37.362C27.8397 37.4958 27.9194 37.6028 28.0522 37.7098C28.185 37.7901 28.3444 37.8169 28.4772 37.7634C28.6897 37.7098 28.8225 37.469 28.7428 37.2817C28.6631 37.0677 28.4772 36.9606 28.2647 37.0141C28.2647 37.0141 28.2647 37.0141 28.2381 37.0141C28.2647 37.0141 28.3178 37.0141 28.3444 36.9874H28.3178C28.3444 36.9874 28.3975 36.9874 28.4241 37.0141H28.3975C28.4241 37.0409 28.4506 37.0409 28.5038 37.0677C28.5038 37.0677 28.4772 37.0677 28.4772 37.0409C28.5038 37.0677 28.5303 37.0944 28.5569 37.0944L28.5303 37.0677C28.5569 37.0944 28.5834 37.1212 28.5834 37.1479C28.5834 37.1212 28.5569 37.1212 28.5569 37.0944C28.5834 37.1212 28.5834 37.1479 28.61 37.2014C28.61 37.1747 28.5834 37.1479 28.5834 37.1212C28.5834 37.1479 28.5834 37.2014 28.61 37.2282C28.61 37.2014 28.61 37.1747 28.61 37.1747C28.61 37.2014 28.61 37.255 28.5834 37.2817C28.5834 37.255 28.5834 37.255 28.61 37.2282C28.5834 37.255 28.5834 37.2817 28.5569 37.3352C28.5569 37.3352 28.5569 37.3085 28.5834 37.3085C28.5569 37.3352 28.5303 37.362 28.5303 37.3887L28.5569 37.362C28.5303 37.3887 28.5038 37.4155 28.4772 37.4155C28.5038 37.4155 28.5038 37.3887 28.5303 37.3887C28.5038 37.4155 28.4772 37.4155 28.4241 37.4423C28.4506 37.4423 28.4772 37.4155 28.5038 37.4155C28.4772 37.4155 28.4241 37.4155 28.3975 37.4423C28.4241 37.4423 28.4506 37.4423 28.4772 37.4423C28.4506 37.4423 28.3975 37.4423 28.3709 37.4155C28.3975 37.4155 28.4241 37.4155 28.4506 37.4423C28.4241 37.4155 28.3975 37.4155 28.3444 37.3887C28.3709 37.4155 28.3709 37.4155 28.3975 37.4423C28.3709 37.4155 28.3444 37.3887 28.3444 37.362C28.3709 37.3887 28.3709 37.4155 28.3975 37.4423C28.3709 37.4155 28.3709 37.3887 28.3444 37.3352C28.3444 37.3887 28.3444 37.469 28.3444 37.5225C28.3444 37.4958 28.3444 37.4423 28.3709 37.4155C28.3709 37.4423 28.3709 37.4958 28.3444 37.5225C28.4772 37.4155 28.61 37.3352 28.7163 37.2282C28.6897 37.2282 28.6897 37.2282 28.6631 37.2282C28.6897 37.2282 28.7428 37.2282 28.7694 37.255C28.7428 37.255 28.7163 37.255 28.6897 37.2282C28.7163 37.255 28.7428 37.255 28.7959 37.2817C28.7694 37.255 28.7428 37.255 28.7163 37.2282C28.7428 37.255 28.7694 37.2817 28.7959 37.2817C28.7694 37.255 28.7428 37.2282 28.7163 37.2014C28.7428 37.2282 28.7694 37.255 28.7694 37.2817C28.7428 37.255 28.7163 37.2014 28.7163 37.1747C28.7428 37.2014 28.7428 37.2282 28.7694 37.2817C28.7428 37.2282 28.7428 37.2014 28.7428 37.1479C28.7428 37.1747 28.7428 37.2282 28.7694 37.255C28.7694 37.2282 28.7694 37.1747 28.7694 37.1479C28.7694 37.1747 28.7694 37.2282 28.7428 37.255C28.7428 37.2282 28.7694 37.1747 28.7694 37.1479C28.7428 37.1747 28.7428 37.2014 28.7163 37.255C28.7428 37.2282 28.7428 37.2014 28.7694 37.2014C28.7428 37.2282 28.7163 37.255 28.6897 37.255C28.7163 37.2282 28.7428 37.2282 28.7694 37.2014C28.7428 37.2282 28.7163 37.2282 28.6631 37.255C28.6897 37.255 28.7163 37.2282 28.7694 37.2282C28.7428 37.2282 28.6897 37.2282 28.6631 37.255C28.6897 37.255 28.7428 37.255 28.7694 37.255C28.7428 37.255 28.6897 37.255 28.6631 37.2282C28.7163 37.2282 28.7428 37.255 28.7959 37.255C28.7694 37.2282 28.7428 37.2282 28.6897 37.2014C28.7163 37.2282 28.7694 37.2282 28.7959 37.255C28.7694 37.2282 28.7428 37.2014 28.7163 37.2014C28.7428 37.2282 28.7694 37.255 28.7959 37.2817C28.7694 37.255 28.7428 37.2282 28.7428 37.2014C28.7694 37.2282 28.7694 37.255 28.7959 37.2817C28.7694 37.255 28.7694 37.2282 28.7428 37.1747C28.7428 37.2014 28.7694 37.2282 28.7694 37.255C28.7694 37.2282 28.7694 37.1747 28.7428 37.1479C28.7428 37.1747 28.7428 37.2014 28.7428 37.2282C28.7428 37.2014 28.7428 37.1479 28.7694 37.1212C28.7694 37.1479 28.7694 37.1479 28.7428 37.1747C28.7694 37.1479 28.7694 37.1212 28.7959 37.0677C28.7959 37.0944 28.7694 37.0944 28.7694 37.1212C28.7959 37.0944 28.8225 37.0677 28.8225 37.0409C28.8225 37.0409 28.8225 37.0677 28.7959 37.0677C28.8225 37.0409 28.8491 37.0141 28.8756 37.0141L28.8491 37.0409C28.8756 37.0141 28.9022 37.0141 28.9553 36.9874C28.9288 36.9874 28.9288 36.9874 28.9022 36.9874C28.9288 36.9874 28.9819 36.9874 29.0084 36.9606C28.9819 36.9606 28.9553 36.9606 28.9022 36.9606C28.9288 36.9606 28.9819 36.9606 29.0084 36.9874C28.9819 36.9874 28.9553 36.9874 28.9288 36.9606C28.9553 36.9874 28.9819 36.9874 29.035 37.0141C29.0084 36.9874 28.9819 36.9606 28.9553 36.9339C28.9819 36.9606 29.0084 36.9874 29.0084 37.0141C28.9819 36.9874 28.9553 36.9339 28.9288 36.9071C28.9553 36.9339 28.9553 36.9606 28.9819 37.0141C28.9553 36.9606 28.9553 36.9339 28.9553 36.8803C28.9553 36.9071 28.9553 36.9606 28.9819 36.9874C28.9819 36.9339 28.9819 36.9071 28.9819 36.8536C28.9819 36.8803 28.9819 36.9339 28.9553 36.9606C28.9553 36.9339 28.9819 36.8803 28.9819 36.8536C28.9553 36.8803 28.9553 36.9071 28.9288 36.9606C28.9553 36.9339 28.9553 36.9339 28.9819 36.9071C28.7694 36.8803 28.5569 36.8536 28.3444 36.8268C28.4241 36.9874 28.5569 37.0944 28.6631 37.2282C28.6366 37.2014 28.61 37.1747 28.61 37.1479C28.6366 37.1747 28.6366 37.2014 28.6631 37.2282C28.6366 37.2014 28.6366 37.1747 28.61 37.1212C28.61 37.1479 28.61 37.1479 28.61 37.1747C28.61 37.1479 28.61 37.0944 28.5834 37.0677C28.5834 37.0944 28.5834 37.0944 28.5834 37.1212C28.5834 37.0944 28.5834 37.0409 28.61 37.0141C28.61 37.0409 28.61 37.0409 28.61 37.0677C28.6366 37.0409 28.6366 37.0141 28.6631 36.9606C28.6631 36.9874 28.6366 36.9874 28.6366 37.0141C28.6631 36.9874 28.6897 36.9606 28.6897 36.9339L28.6631 36.9606C28.6897 36.9339 28.7163 36.9071 28.7428 36.9071C28.7163 36.9071 28.7163 36.9339 28.6897 36.9339C28.7163 36.9071 28.7428 36.9071 28.7959 36.8803C28.7694 36.8803 28.7428 36.9071 28.7163 36.9071C28.7428 36.9071 28.7959 36.9071 28.8225 36.8803C28.7959 36.8803 28.7694 36.8803 28.7428 36.8803C28.7694 36.8803 28.8225 36.8803 28.8491 36.9071C28.8225 36.9071 28.8225 36.9071 28.7959 36.8803C28.8225 36.9071 28.8491 36.9071 28.9022 36.9339C28.8756 36.9071 28.8491 36.8803 28.8225 36.8536C28.8491 36.8803 28.8756 36.9071 28.8756 36.9339C28.8225 36.8803 28.7959 36.8268 28.7694 36.7466C28.7959 36.7733 28.7959 36.8001 28.8225 36.8536C28.8225 36.8268 28.7959 36.8001 28.7959 36.7733C28.7959 36.8001 28.7959 36.8536 28.8225 36.8803C28.8225 36.8536 28.8225 36.8268 28.8225 36.8268C28.8225 36.8536 28.8225 36.9071 28.7959 36.9339C28.7959 36.9071 28.7959 36.9071 28.7959 36.9071C28.7694 36.9339 28.7694 36.9606 28.7428 37.0141C28.7428 37.0141 28.7428 36.9874 28.7694 36.9874C28.7428 37.0141 28.7163 37.0409 28.7163 37.0677L28.7428 37.0409C28.7163 37.0677 28.6897 37.0944 28.6631 37.0944C28.6897 37.0944 28.6897 37.0677 28.7163 37.0677C28.6897 37.0944 28.6631 37.0944 28.61 37.1212C28.6366 37.1212 28.6631 37.0944 28.6897 37.0944C28.6631 37.0944 28.61 37.0944 28.5834 37.1212C28.61 37.1212 28.6366 37.1212 28.6631 37.1212C28.6366 37.1212 28.5834 37.1212 28.5569 37.0944C28.5834 37.0944 28.61 37.0944 28.6366 37.1212C28.61 37.0944 28.5834 37.0944 28.5303 37.0677C28.5569 37.0677 28.5834 37.0944 28.5834 37.0944C28.5569 37.0677 28.5303 37.0409 28.5038 37.0409C28.5303 37.0677 28.5569 37.0944 28.5834 37.1212C28.5569 37.0944 28.5303 37.0677 28.5303 37.0409C28.5569 37.0677 28.5834 37.1212 28.61 37.1747C28.5834 37.1479 28.5834 37.1212 28.5569 37.0677C28.5834 37.1479 28.61 37.2282 28.6366 37.3085C28.6897 37.5225 28.9288 37.6563 29.1147 37.5761C29.3272 37.4423 29.46 37.2282 29.4069 37.0141Z" fill="black"/>
<path d="M33.8428 36.2916C33.7366 36.4522 33.6835 36.6127 33.6835 36.8C33.6835 37.0676 33.8428 37.3084 34.1085 37.3619C34.3741 37.4422 34.6397 37.2817 34.7725 37.0408C34.8257 36.9338 34.8522 36.8268 34.8522 36.693C34.8522 36.5592 34.8257 36.4522 34.746 36.3451C34.6397 36.1311 34.4538 35.9973 34.2678 35.917C34.1882 35.8902 34.0819 35.8635 34.0022 35.8635C33.8694 35.8635 33.7632 35.8902 33.6303 35.9438C33.471 36.024 33.3116 36.1846 33.2319 36.3451C33.1788 36.4522 33.1522 36.5859 33.1522 36.693C33.1522 36.9338 33.3382 37.0676 33.5507 37.1211C33.71 37.2014 33.896 37.1746 34.0819 37.1479C34.2413 37.1211 34.4007 37.0408 34.5069 36.9606C34.5866 36.907 34.6663 36.8268 34.7194 36.7465C34.7725 36.6662 34.8257 36.5859 34.8257 36.4789C34.8522 36.2916 34.8257 36.1043 34.6928 35.9705C34.56 35.8367 34.3741 35.81 34.1882 35.8635C34.0022 35.917 33.8428 36.0508 33.71 36.1846C33.5507 36.3451 33.4444 36.5592 33.4444 36.8C33.4444 37.0408 33.5507 37.2817 33.7632 37.3887C34.0022 37.5225 34.2944 37.4422 34.5335 37.3352C34.6928 37.2549 34.8522 37.1211 34.9585 36.9606C35.0913 36.7197 35.0647 36.4254 34.8788 36.2113C34.7194 36.024 34.4538 35.9973 34.2147 36.024C34.0022 36.0776 33.8163 36.2381 33.71 36.4254C33.6569 36.4789 33.6303 36.5592 33.6038 36.6127C33.5507 36.7197 33.5241 36.8268 33.5507 36.9338C33.5772 37.0141 33.6569 37.1211 33.7366 37.1746C33.9225 37.2817 34.1882 37.2281 34.2944 37.0408C34.3475 36.9606 34.3741 36.8803 34.4272 36.8C34.4007 36.8268 34.3741 36.8535 34.3741 36.8803C34.4007 36.8535 34.4272 36.8268 34.4538 36.7733C34.4272 36.8 34.4007 36.8268 34.3741 36.8268C34.4007 36.8 34.4272 36.8 34.4538 36.7733C34.4272 36.8 34.4007 36.8 34.3475 36.8268C34.3741 36.8268 34.4007 36.8 34.4272 36.8C34.4007 36.8 34.3475 36.8 34.321 36.8268C34.3475 36.8268 34.3741 36.8268 34.4272 36.8268C34.4007 36.8268 34.3475 36.8268 34.321 36.8C34.3475 36.8 34.3741 36.8 34.4007 36.8268C34.3741 36.8 34.3475 36.8 34.2944 36.7733C34.321 36.7733 34.321 36.8 34.3475 36.8C34.321 36.7733 34.2944 36.7465 34.2678 36.7465C34.2944 36.7465 34.2944 36.7733 34.2944 36.7733C34.2678 36.7465 34.2413 36.7197 34.2413 36.693C34.2413 36.7197 34.2678 36.7197 34.2678 36.7465C34.2413 36.7197 34.2413 36.693 34.2147 36.6395C34.2147 36.6662 34.2147 36.6662 34.2413 36.693C34.2413 36.6662 34.2413 36.6127 34.2147 36.5859C34.2147 36.6127 34.2147 36.6395 34.2147 36.6395C34.2147 36.6127 34.2147 36.5592 34.2413 36.5324C34.2413 36.5592 34.2413 36.5592 34.2147 36.5859C34.2413 36.5592 34.2413 36.5324 34.2678 36.4789C34.2413 36.5324 34.1882 36.5592 34.1616 36.5859C34.1882 36.5592 34.2147 36.5324 34.2413 36.5324C34.1882 36.5859 34.1085 36.6127 34.0288 36.6395C34.0553 36.6127 34.0819 36.6127 34.135 36.5859C34.0819 36.6127 34.0288 36.6395 33.9491 36.6395C33.9757 36.6395 34.0288 36.6395 34.0553 36.6127C34.0288 36.6127 34.0288 36.6127 34.0022 36.6127C34.0288 36.6127 34.0819 36.6127 34.1085 36.6395C34.0819 36.6395 34.0819 36.6395 34.0553 36.6127C34.0819 36.6395 34.1085 36.6395 34.1616 36.6662C34.135 36.6662 34.135 36.6395 34.1085 36.6395C34.135 36.6662 34.1616 36.693 34.1882 36.693L34.1616 36.6662C34.1882 36.693 34.2147 36.7197 34.2147 36.7465C34.1882 36.7197 34.1882 36.693 34.1882 36.6662C34.2147 36.693 34.2147 36.7197 34.2413 36.7733C34.2413 36.7465 34.2147 36.7197 34.2147 36.693C34.2147 36.7197 34.2147 36.7733 34.2413 36.8C34.2413 36.7733 34.2413 36.7465 34.2413 36.693C34.2413 36.7197 34.2413 36.7733 34.2147 36.8C34.2147 36.7733 34.2413 36.7465 34.2413 36.7197C34.2147 36.7465 34.2147 36.7733 34.1882 36.8268C34.2147 36.7733 34.2413 36.7465 34.2678 36.7197C34.2413 36.7465 34.2147 36.7733 34.2147 36.8C34.2678 36.7197 34.3475 36.6662 34.4272 36.5859C34.4007 36.6127 34.3741 36.6395 34.3475 36.6395C34.3741 36.6127 34.4007 36.6127 34.4272 36.5859C34.4007 36.6127 34.3741 36.6127 34.321 36.6395C34.3475 36.6395 34.3741 36.6127 34.3741 36.6127C34.3475 36.6127 34.2944 36.6127 34.2678 36.6395H34.2944C34.2678 36.6395 34.2147 36.6395 34.1882 36.6127H34.2147C34.1882 36.5859 34.1616 36.5859 34.1085 36.5592H34.135C34.1085 36.5324 34.0819 36.5057 34.0553 36.5057C34.0553 36.5057 34.0553 36.5057 34.0819 36.5324C34.0553 36.5057 34.0288 36.4789 34.0288 36.4522C34.0288 36.4522 34.0288 36.4789 34.0553 36.4789C34.0288 36.4522 34.0288 36.4254 34.0022 36.3719V36.3986C34.0022 36.3719 34.0022 36.3184 33.9757 36.2916V36.3184C33.9757 36.2916 33.9757 36.2381 34.0022 36.2113C34.0022 36.2381 34.0022 36.2649 33.9757 36.2916C34.0022 36.2649 34.0022 36.2381 34.0288 36.1846C34.0022 36.2113 34.0022 36.2649 33.9757 36.2916C34.0022 36.2649 34.0288 36.2381 34.0288 36.2113C34.0022 36.2381 33.9757 36.2916 33.9225 36.3184C33.9491 36.2916 33.9757 36.2649 34.0022 36.2649C33.9491 36.2916 33.9225 36.3184 33.8694 36.3451C33.896 36.3184 33.9225 36.3184 33.9757 36.2916C33.9225 36.3184 33.8694 36.3184 33.8163 36.3451C33.8428 36.3451 33.896 36.3451 33.9225 36.3184C33.8694 36.3184 33.8163 36.3184 33.7632 36.3184C33.7897 36.3184 33.8428 36.3184 33.8694 36.3451C33.8163 36.3451 33.7632 36.3184 33.7366 36.3184C33.7632 36.3451 33.7897 36.3451 33.8428 36.3719C33.8163 36.3451 33.7897 36.3451 33.7366 36.3184C33.7897 36.4254 33.8694 36.5592 33.9225 36.6662V36.6395C33.9225 36.6662 33.9225 36.7197 33.896 36.7465C33.896 36.693 33.9225 36.6662 33.9225 36.6395C33.896 36.6662 33.896 36.693 33.8694 36.7465C33.896 36.7197 33.896 36.6662 33.9225 36.6395C33.896 36.6662 33.8694 36.693 33.8694 36.7197C33.896 36.693 33.9225 36.6662 33.9491 36.6395C33.9225 36.6662 33.896 36.693 33.8694 36.693C33.896 36.6662 33.9491 36.6395 33.9757 36.6127C33.9491 36.6395 33.9225 36.6395 33.8694 36.6662C33.896 36.6662 33.9225 36.6395 33.9757 36.6395C33.9491 36.6395 33.896 36.6395 33.8694 36.6662C33.896 36.6662 33.9491 36.6662 33.9757 36.6662C33.9491 36.6662 33.896 36.6662 33.8694 36.6395C33.9225 36.6395 33.9491 36.6662 33.9757 36.6662C33.9491 36.6395 33.9225 36.6395 33.8694 36.6127C33.9225 36.6395 33.9491 36.6662 33.9757 36.693C33.9491 36.6662 33.9225 36.6395 33.896 36.6395C33.9225 36.6662 33.9491 36.693 33.9757 36.7197C33.9491 36.693 33.9225 36.6662 33.9225 36.6395C33.9491 36.6662 33.9757 36.7197 33.9757 36.7465C33.9491 36.7197 33.9491 36.693 33.9225 36.6395C33.9225 36.6662 33.9491 36.693 33.9491 36.7465C33.9491 36.7197 33.9491 36.6662 33.9225 36.6395C33.9225 36.6662 33.9225 36.693 33.9225 36.7197C33.9225 36.693 33.9225 36.6395 33.9491 36.6127C33.9491 36.6395 33.9491 36.6662 33.9225 36.693C33.9491 36.6662 33.9491 36.6395 33.9757 36.5859C33.9491 36.6127 33.9491 36.6127 33.9225 36.6395C33.9491 36.6127 33.9757 36.5859 34.0022 36.5859C33.9757 36.5859 33.9757 36.6127 33.9491 36.6127C33.9757 36.5859 34.0022 36.5859 34.0553 36.5592H34.0288C34.0553 36.5592 34.1085 36.5592 34.135 36.5324H34.1085C34.135 36.5324 34.1882 36.5324 34.2147 36.5592H34.1882C34.2147 36.5859 34.2413 36.5859 34.2944 36.6127C34.2678 36.6127 34.2678 36.5859 34.2413 36.5859C34.2678 36.6127 34.2944 36.6395 34.321 36.6395L34.2944 36.6127C34.321 36.6395 34.3475 36.6662 34.3475 36.693L34.321 36.6662C34.3475 36.693 34.3475 36.7197 34.3741 36.7733C34.3741 36.7465 34.3741 36.7465 34.3741 36.7197C34.3741 36.7465 34.3741 36.8 34.4007 36.8268C34.4007 36.8 34.4007 36.7733 34.4007 36.7465C34.4007 36.7733 34.4007 36.8268 34.3741 36.8535C34.3741 36.8 34.4007 36.7733 34.4007 36.7197C34.3741 36.7465 34.3741 36.7733 34.3475 36.8268C34.3741 36.7733 34.4007 36.7465 34.4272 36.693C34.4803 36.6127 34.4803 36.4789 34.4803 36.3719C34.4538 36.2916 34.3741 36.1846 34.2944 36.1311C34.2147 36.0775 34.0819 36.0508 33.9757 36.0776C33.9757 36.1311 33.896 36.2113 33.8428 36.2916Z" fill="black"/>
<path d="M34.6928 32.5456C33.9756 32.4653 33.3116 32.6794 32.7006 33.0005C32.3819 33.161 32.0366 33.4019 32.01 33.8032C31.9835 34.1511 32.2491 34.4454 32.5413 34.606C32.8335 34.7665 33.2053 34.9003 33.5241 35.0073C33.8694 35.1144 34.2413 35.1946 34.5866 35.1679C35.3038 35.1144 36.1006 34.6862 36.1538 33.8835C36.2069 33.1075 35.41 32.7062 34.7991 32.5189C34.2944 32.3851 34.0819 33.161 34.5866 33.2948C34.7991 33.3484 34.9319 33.4019 35.1178 33.5089C35.2241 33.5624 35.2241 33.5624 35.2772 33.6427C35.3303 33.6962 35.3303 33.6962 35.3569 33.7765V33.83C35.3569 33.8568 35.3303 33.9103 35.3303 33.937C35.3038 34.0173 35.2241 34.0976 35.171 34.1511C35.0116 34.2849 34.7991 34.3384 34.6131 34.3651C34.1084 34.4187 33.6038 34.2046 33.1522 34.0173C33.0725 33.9905 32.9928 33.937 32.9131 33.9103C32.9131 33.9103 32.8335 33.8567 32.86 33.8567C32.7538 33.7765 32.8335 33.8568 32.8335 33.83C32.7803 33.8032 32.8335 33.7765 32.8335 33.83C32.7803 33.937 32.8334 33.8568 32.8866 33.83C32.9663 33.7497 33.0991 33.6962 33.2053 33.6427C33.71 33.4019 34.1881 33.2681 34.7194 33.3216C34.9319 33.3483 35.1178 33.1075 35.1178 32.9202C35.0913 32.7062 34.9053 32.5724 34.6928 32.5456Z" fill="black"/>
<path d="M29.6991 32.5188C29.0881 32.5188 28.4772 32.7329 28.0522 33.161C27.5741 33.6694 27.3616 34.4454 27.8397 35.0073C28.2381 35.4622 28.9819 35.5692 29.5397 35.4086C30.2038 35.2213 30.735 34.6862 30.735 33.9637C30.735 33.7497 30.6819 33.5624 30.6022 33.375C30.6022 33.3483 30.5756 33.3215 30.5756 33.2948C30.6022 33.4018 30.5756 33.2948 30.5756 33.268C30.5491 33.2145 30.5491 33.1877 30.5225 33.1342C30.4694 32.9737 30.3631 32.8399 30.2303 32.7329C30.0709 32.6258 29.9116 32.5991 29.7522 32.5991C29.5397 32.5723 29.3538 32.8131 29.3538 33.0004C29.3538 33.2413 29.5397 33.375 29.7522 33.4018C29.646 33.4018 29.8053 33.4018 29.8319 33.4286C29.885 33.4286 29.8053 33.4286 29.8053 33.4018C29.8319 33.4286 29.885 33.4553 29.7788 33.375C29.8319 33.4286 29.7522 33.3215 29.7788 33.3483C29.7788 33.3751 29.8053 33.375 29.8053 33.4018C29.8319 33.4553 29.7788 33.2948 29.8053 33.375C29.8319 33.4821 29.885 33.5624 29.9116 33.6426C29.9381 33.6961 29.9647 33.7229 29.9647 33.7764C29.9381 33.6961 29.9647 33.7497 29.9647 33.7764C29.9647 33.8032 29.9913 33.8299 29.9913 33.8834C29.9647 33.8032 29.9913 33.8567 29.9913 33.8834C29.9913 33.9102 29.9913 33.937 29.9913 33.9637C29.9913 33.9905 29.9913 34.0172 29.9647 34.044C29.9647 34.0975 29.9381 34.151 29.9116 34.1778C29.885 34.2045 29.8585 34.2581 29.8585 34.2848C29.8053 34.3383 29.8585 34.3116 29.8585 34.2848C29.8319 34.3116 29.8319 34.3116 29.8053 34.3383C29.7788 34.3651 29.7522 34.3918 29.7256 34.4186C29.6725 34.4454 29.6194 34.4721 29.5663 34.4989C29.5397 34.4989 29.5131 34.5256 29.5131 34.5256C29.5928 34.4989 29.4866 34.5256 29.4866 34.5256C29.4335 34.5524 29.3803 34.5524 29.3272 34.5791C29.3006 34.5791 29.2741 34.5792 29.2475 34.6059C29.1413 34.6327 29.3006 34.6059 29.221 34.6059C29.1678 34.6059 29.1147 34.6059 29.0616 34.6059C29.035 34.6059 29.0084 34.6059 28.9819 34.6059C28.9819 34.6059 28.8756 34.6059 28.9288 34.6059C28.9819 34.6059 28.9022 34.6059 28.9022 34.6059C28.8756 34.6059 28.8491 34.6059 28.8491 34.5791C28.7959 34.5791 28.7428 34.5524 28.6897 34.5256C28.6631 34.5256 28.6366 34.4989 28.61 34.4989C28.5835 34.4989 28.5569 34.4721 28.5569 34.4721C28.5303 34.4454 28.4772 34.3918 28.5303 34.4721C28.5038 34.4454 28.4506 34.3918 28.4241 34.3651C28.4772 34.4186 28.4241 34.3651 28.3975 34.3116C28.3444 34.2313 28.3975 34.3918 28.3975 34.2848C28.3975 34.2581 28.3975 34.2313 28.3709 34.2045C28.3709 34.1778 28.3709 34.151 28.3709 34.1243C28.3709 34.151 28.3709 34.1778 28.3709 34.1243C28.3709 34.0708 28.3975 34.0172 28.4241 33.9637C28.4506 33.8567 28.3975 33.9905 28.4241 33.937C28.4241 33.9102 28.4506 33.8834 28.4506 33.8567C28.4772 33.8032 28.5038 33.7764 28.5303 33.7229C28.5303 33.6961 28.5835 33.6426 28.5303 33.7229C28.5569 33.6961 28.5834 33.6694 28.5834 33.6426C28.61 33.6159 28.6631 33.5624 28.6897 33.5356C28.6897 33.5356 28.7959 33.4553 28.7163 33.5088C28.7428 33.4821 28.7694 33.4821 28.796 33.4553C28.8491 33.4286 28.8756 33.4018 28.9288 33.375C28.9553 33.375 28.9819 33.3483 29.0085 33.3483C29.0881 33.2948 28.9819 33.3483 29.035 33.3215C29.1413 33.2948 29.2475 33.2413 29.3538 33.2145C29.3803 33.2145 29.4069 33.2145 29.4334 33.1877C29.3272 33.2145 29.46 33.1877 29.46 33.1877C29.5397 33.1877 29.5928 33.1877 29.6725 33.1877C29.885 33.1877 30.071 33.0004 30.071 32.7864C30.071 32.7061 29.9116 32.5188 29.6991 32.5188Z" fill="black"/>
<path d="M30.1772 39.0477C29.035 39.6097 27.9725 40.3054 26.9632 41.0813C26.06 41.777 25.1038 42.6333 24.8913 43.8106C24.8647 43.9712 24.9178 44.1852 25.0772 44.2655C25.5819 44.5331 26.1132 44.3725 26.5913 44.1317C27.0694 43.8909 27.521 43.6233 27.9725 43.329C28.8225 42.7938 29.6991 42.2052 30.2569 41.3489C30.6022 40.8138 30.8944 40.2518 31.2132 39.7167C31.4788 39.2618 30.7882 38.8604 30.5225 39.3153C30.2038 39.8772 29.9116 40.4659 29.5397 41.0011C29.2475 41.4292 28.8225 41.777 28.3975 42.0714C27.8928 42.4192 27.3882 42.7403 26.8569 43.0614C26.5913 43.222 26.3257 43.3825 26.06 43.4895C25.8741 43.5698 25.6616 43.6501 25.4757 43.543C25.5288 43.7036 25.6085 43.8374 25.6616 43.9979C25.8475 42.9276 26.7772 42.2052 27.5741 41.5897C28.5038 40.8673 29.5132 40.2251 30.5757 39.7167C30.7616 39.6097 30.8147 39.3421 30.7085 39.1548C30.6022 38.9942 30.3897 38.9675 30.1772 39.0477Z" fill="black"/>
<path d="M30.6287 39.8772C32.5678 40.0913 34.7194 40.3856 36.2069 41.8038C36.4194 42.0178 36.8975 42.4459 36.7647 42.7403C36.7115 42.8741 36.5522 42.9276 36.4194 42.9543C36.1803 42.9811 35.9147 42.9276 35.6756 42.8741C34.6662 42.66 33.71 42.2854 32.8334 41.7502C32.435 41.5094 32.01 41.2151 31.7709 40.787C31.6647 40.5729 31.585 40.3321 31.5053 40.0913C31.399 39.8237 31.2397 39.6364 31.0006 39.4491C30.8147 39.3153 30.549 39.4223 30.4428 39.5829C30.3365 39.7969 30.4162 40.011 30.5756 40.1448C30.6819 40.225 30.7615 40.4391 30.8147 40.5997C30.8944 40.8405 31.0006 41.0813 31.1334 41.3221C31.4256 41.777 31.8772 42.1249 32.3553 42.3924C33.3381 42.9811 34.4537 43.4092 35.5959 43.65C36.1803 43.7838 36.8444 43.8373 37.2694 43.3557C37.7209 42.8741 37.5881 42.2051 37.2162 41.7235C36.5522 40.8405 35.5694 40.2518 34.56 39.8504C33.3115 39.342 31.9303 39.1815 30.6022 39.0477C30.3897 39.0209 30.2037 39.2618 30.2037 39.4491C30.2303 39.7166 30.4162 39.8772 30.6287 39.8772Z" fill="black"/>
<path d="M36.2068 43.5699C37.4818 45.5232 37.8537 48.0117 38.0396 50.2861C38.2521 52.8013 38.1724 55.3433 38.1193 57.8585C38.1193 58.4204 38.1193 58.9824 38.0662 59.5175C38.0396 60.1062 37.9599 60.6681 37.8803 61.2033C37.6943 62.4341 37.3756 63.665 37.0037 64.8691C36.3396 67.0632 35.4631 69.1503 34.2943 71.1036C34.0818 71.4783 33.8428 71.8261 33.5771 72.174C33.5506 72.2007 33.524 72.2542 33.4974 72.281C33.4709 72.3077 33.4709 72.3077 33.4443 72.3345C33.3912 72.4148 33.3381 72.495 33.2584 72.5486C33.1521 72.6556 33.0459 72.7894 32.9396 72.8964C32.8865 72.9499 32.8334 72.9767 32.7803 73.0302C32.7537 73.057 32.7271 73.057 32.7006 73.0837C32.6209 73.164 32.7537 73.0302 32.674 73.0837C32.6474 73.1105 32.4084 73.271 32.3818 73.2443C32.3818 73.2443 32.5146 73.1908 32.4084 73.2443C32.3818 73.2443 32.3818 73.2443 32.3553 73.271H32.3021C32.3021 73.2443 32.4349 73.271 32.3287 73.271C32.249 73.271 32.1693 73.271 32.1162 73.271C32.0099 73.271 32.1959 73.2978 32.0896 73.271C32.0365 73.271 32.0099 73.2443 31.9568 73.2443C31.8771 73.2175 31.824 73.2175 31.7443 73.1908C31.7178 73.1908 31.6646 73.164 31.6381 73.164C31.6115 73.164 31.6115 73.1372 31.5849 73.1372C31.5053 73.1105 31.6646 73.164 31.5849 73.1372C31.4521 73.057 31.3193 73.0035 31.1865 72.9232C31.1068 72.8697 31.0537 72.8161 30.974 72.7626C31.0537 72.8161 30.974 72.7626 30.9474 72.7359C30.9209 72.7091 30.8678 72.6824 30.8412 72.6288C30.7084 72.4951 30.5756 72.3613 30.4428 72.2275C30.3896 72.174 30.3365 72.0937 30.2568 72.0134C30.2303 71.9866 30.2037 71.9331 30.1506 71.9064C30.124 71.8796 30.0443 71.7726 30.0974 71.8529C29.9646 71.6923 29.8584 71.505 29.7256 71.3177C29.4865 70.9431 29.2474 70.5417 29.0615 70.1404C28.8224 69.7122 28.6365 69.2574 28.424 68.8025C28.3974 68.749 28.3709 68.6954 28.3443 68.6419C28.2912 68.5349 28.3709 68.6687 28.3443 68.6152C28.3443 68.5884 28.3178 68.5616 28.3178 68.5349C28.2646 68.4011 28.2115 68.2941 28.1584 68.1603C28.0521 67.9195 27.9724 67.6786 27.8662 67.4111C27.5209 66.4478 27.2021 65.4577 26.8834 64.4945C26.6178 63.5847 26.3521 62.6749 26.0865 61.7919C25.874 61.0962 25.6615 60.3738 25.4756 59.6781C25.4224 59.4908 25.3693 59.3034 25.3428 59.0894C25.3162 58.9824 25.3162 58.9021 25.2896 58.795C25.2896 58.7415 25.2631 58.688 25.2631 58.6613C25.2631 58.6345 25.2365 58.5275 25.2631 58.6345C25.2631 58.6077 25.2631 58.581 25.2631 58.5275C25.2099 58.0726 25.1834 57.6177 25.1834 57.1896C25.1568 56.1193 25.2365 55.0757 25.3693 54.0054C25.449 53.4702 25.5287 52.8548 25.6349 52.2661C25.7412 51.624 25.874 50.955 26.0068 50.3128C26.299 48.8144 26.6443 47.3427 27.0162 45.871C27.2021 45.0683 27.4146 44.2923 27.6006 43.4896C27.7334 42.9812 26.9631 42.7671 26.8303 43.2755C26.0865 46.2456 25.3428 49.2425 24.8381 52.2661C24.4928 54.4068 24.2006 56.6277 24.5193 58.795C24.6256 59.571 24.8646 60.2935 25.0771 61.0159C25.3162 61.8454 25.5553 62.6749 25.7943 63.5312C26.3787 65.5648 27.0162 67.5716 27.8662 69.4982C28.2381 70.3544 28.6896 71.2107 29.2209 71.9867C29.6724 72.6556 30.2303 73.271 30.9209 73.6992C31.4521 74.0202 32.2224 74.2611 32.8068 73.9935C33.3646 73.7259 33.8162 73.164 34.1615 72.6824C34.7193 71.9331 35.1974 71.1036 35.6224 70.2474C36.1803 69.1771 36.6584 68.08 37.0834 66.9562C37.9599 64.6015 38.6506 62.113 38.8099 59.5978C38.8896 58.4472 38.8896 57.2699 38.8896 56.0925C38.9162 54.7814 38.9162 53.4702 38.8896 52.1859C38.8365 50.848 38.7568 49.5101 38.5443 48.1722C38.3584 46.9681 38.0662 45.764 37.6146 44.6402C37.4021 44.1318 37.1631 43.6234 36.8443 43.1685C36.7381 42.9812 36.499 42.9009 36.2865 43.0347C36.1803 43.115 36.1006 43.3825 36.2068 43.5699Z" fill="black"/>
<path d="M37.4021 42.9543C38.9693 42.6599 40.4834 42.098 41.8912 41.3221C42.3428 41.0812 41.9443 40.3855 41.4928 40.6263C40.1381 41.3756 38.7037 41.884 37.1896 42.1783C36.9771 42.2318 36.8443 42.4726 36.924 42.6599C36.9771 42.9008 37.1896 43.0078 37.4021 42.9543Z" fill="black"/>
<path d="M41.7053 41.5362C43.0068 44.5866 43.9897 47.7172 44.9459 50.9014C45.5568 52.935 46.2209 54.9686 46.9115 57.0022C47.4693 58.6612 48.1068 60.2934 48.6381 61.9524C49.3553 64.1465 49.9928 66.3674 50.6303 68.6151C51.4803 71.612 52.2772 74.6356 53.074 77.6592C54.0037 81.1645 54.9068 84.6698 55.7834 88.2018C56.7131 91.8944 57.6428 95.5602 58.5459 99.2528C59.4225 102.758 60.2725 106.29 61.149 109.795C61.8928 112.873 62.6365 115.923 63.3803 119C63.9381 121.274 64.4959 123.549 65.0537 125.823C65.3459 127.001 65.6115 128.178 65.9303 129.329C65.9568 129.409 65.9834 129.489 66.01 129.569C66.1693 130.051 66.9397 129.837 66.7803 129.355C66.4881 128.526 66.3287 127.643 66.1162 126.813C65.6115 124.78 65.1334 122.746 64.6287 120.713C63.9115 117.796 63.2209 114.879 62.5037 111.963C61.6537 108.511 60.8037 105.059 59.9537 101.607C59.0506 97.9416 58.1209 94.2491 57.1912 90.5833C56.2881 86.9977 55.385 83.4122 54.4287 79.8534C53.6053 76.6692 52.7553 73.5118 51.8787 70.3543C51.2147 67.8926 50.4975 65.4577 49.7537 63.0227C48.7178 59.7047 47.4428 56.467 46.4068 53.1491C45.424 50.0184 44.574 46.861 43.4053 43.8106C43.06 42.9276 42.7147 42.0446 42.3428 41.1883C42.1834 40.6532 41.4928 41.0545 41.7053 41.5362Z" fill="black"/>
<path d="M26.1131 43.6501C25.1037 46.7273 23.8553 49.6974 22.6334 52.6942C21.0397 56.5741 19.499 60.454 18.1444 64.4142C17.4272 66.5013 16.7897 68.6151 16.1522 70.729C15.2756 73.6189 14.4522 76.5087 13.6287 79.3985C12.6725 82.7433 11.7428 86.088 10.8131 89.4595C9.83029 92.9915 8.87404 96.5235 7.91779 100.056C6.9881 103.454 6.08498 106.852 5.15529 110.25C4.35842 113.194 3.58811 116.137 2.79123 119.054C2.20686 121.248 1.62248 123.442 1.03811 125.636C0.745918 126.76 0.453731 127.91 0.108418 129.034C0.0818558 129.115 0.0552925 129.195 0.02873 129.275C-0.157207 129.757 0.613105 129.971 0.799043 129.489C1.09123 128.686 1.27717 127.83 1.48967 127.001C2.02092 125.047 2.52561 123.094 3.05686 121.141C3.80061 118.358 4.54436 115.548 5.28811 112.766C6.16467 109.448 7.06779 106.13 7.97092 102.812C8.92717 99.3064 9.88342 95.7743 10.8397 92.2691C11.7959 88.8173 12.7522 85.3923 13.7084 81.9673C14.5584 78.9169 15.435 75.8933 16.3381 72.8696C17.0287 70.5417 17.7194 68.2405 18.4897 65.9394C19.6319 62.4341 20.9865 59.0091 22.3412 55.5841C23.5897 52.4267 24.9709 49.3228 26.1131 46.1386C26.3787 45.3894 26.6444 44.6401 26.8834 43.8909C27.0428 43.3558 26.2725 43.1417 26.1131 43.6501Z" fill="black"/>
<path d="M0.400592 129.757C1.3834 129.73 2.36622 129.73 3.34903 129.73C5.02247 129.73 6.69591 129.73 8.36934 129.757C10.574 129.784 12.7787 129.784 14.9834 129.81C17.56 129.837 20.1365 129.864 22.7131 129.864C25.5022 129.891 28.3178 129.917 31.1068 129.917C33.949 129.944 36.7912 129.944 39.6334 129.971C42.3693 129.998 45.1053 129.998 47.8147 129.998C50.285 129.998 52.7287 129.998 55.199 129.998C57.2178 129.998 59.2631 129.971 61.2818 129.944C62.7162 129.917 64.1772 129.891 65.6115 129.837C65.8506 129.837 66.0897 129.81 66.3553 129.81C66.86 129.784 66.86 128.981 66.3553 129.008C65.0803 129.088 63.8053 129.115 62.5303 129.141C60.6178 129.168 58.7318 129.195 56.8193 129.195C54.4553 129.222 52.0647 129.222 49.7006 129.222C47.0178 129.222 44.335 129.222 41.6522 129.195C38.81 129.168 35.9678 129.168 33.1256 129.141C30.31 129.115 27.4943 129.088 24.6787 129.088C22.0225 129.061 19.3928 129.034 16.7365 129.034C14.4256 129.008 12.1147 129.008 9.80372 128.981C7.9709 128.981 6.16465 128.954 4.33184 128.954C3.16309 128.954 1.99434 128.954 0.825591 128.954C0.666216 128.954 0.48028 128.954 0.320905 128.954C-0.104095 128.981 -0.104096 129.784 0.400592 129.757Z" fill="black"/>
<path d="M41.3865 77.8465C44.8396 77.8197 48.2662 77.6324 51.6927 77.3113C52.6756 77.2043 53.6584 77.0973 54.6146 76.9902C54.8537 76.9635 55.0927 76.7494 54.9865 76.4818C54.2427 74.1807 53.499 71.8795 52.7552 69.6051C51.9849 67.3039 51.2146 65.0295 50.4177 62.7551C49.6209 60.4539 48.7974 58.1795 47.974 55.9051C47.1506 53.6307 46.3006 51.383 45.4506 49.1353C44.6006 46.8877 43.6974 44.64 42.8209 42.3924C42.7146 42.1248 42.6084 41.8305 42.4756 41.5629C42.3959 41.3756 42.2365 41.2418 42.0506 41.2685C41.8381 41.2953 41.7052 41.4559 41.7052 41.6699C41.6521 42.4994 41.6256 43.3289 41.5724 44.1584C41.4662 46.2723 41.3599 48.3861 41.2802 50.5C41.1474 53.3631 41.0412 56.2529 40.9615 59.116C40.8818 62.1932 40.8021 65.2703 40.8021 68.3475C40.8021 71.1035 40.8021 73.8863 40.9349 76.6424C40.9615 76.9367 40.9615 77.231 40.9881 77.4986C41.0146 77.6592 41.174 77.8465 41.3865 77.8465C41.599 77.8465 41.7849 77.6592 41.7849 77.4451C41.6256 74.7693 41.599 72.0668 41.599 69.3642C41.599 66.2871 41.6521 63.2367 41.7318 60.1596C41.8115 57.2162 41.9177 54.2996 42.024 51.3562C42.1037 49.1353 42.2099 46.8877 42.3427 44.6668C42.3693 43.9711 42.4224 43.2754 42.449 42.5797C42.4756 42.2586 42.5021 41.9375 42.5021 41.6164C42.5021 41.5896 42.5021 41.5896 42.5021 41.5629C42.2365 41.5896 41.9709 41.6432 41.7318 41.6699C42.6349 43.9176 43.5115 46.1652 44.3881 48.4129C45.2646 50.6605 46.0881 52.935 46.9381 55.1826C47.7615 57.457 48.5849 59.7582 49.3818 62.0326C50.1787 64.307 50.949 66.5814 51.7193 68.8826C52.4896 71.1838 53.2334 73.4582 53.9771 75.7594C54.0568 76.0537 54.1631 76.3213 54.2427 76.6156C54.3756 76.4551 54.5084 76.2678 54.6146 76.1072C51.1881 76.5353 47.7615 76.8297 44.3084 76.9367C43.3256 76.9635 42.3427 76.9902 41.3599 76.9902C40.8818 77.0437 40.8818 77.8465 41.3865 77.8465Z" fill="black"/>
<path d="M50.896 90.9311C51.1616 90.4494 51.4803 90.0213 51.7991 89.5664C52.3038 88.844 52.7022 88.068 53.0741 87.292C53.1538 87.1047 53.1272 86.8639 52.9413 86.7301C52.7553 86.6231 52.4897 86.6766 52.3834 86.8639C52.0116 87.6399 51.6131 88.4158 51.1085 89.1383C50.7897 89.5932 50.471 90.0213 50.2053 90.5029C49.9663 90.9846 50.6569 91.386 50.896 90.9311Z" fill="black"/>
<path d="M52.6225 100.778C53.3397 101.019 54.0569 101.26 54.7741 101.42C55.5444 101.608 56.3147 101.741 57.085 101.848C57.2975 101.875 57.4834 101.634 57.4834 101.447C57.4834 101.206 57.2975 101.072 57.085 101.046C55.6241 100.885 54.2162 100.457 52.835 100.002C52.6225 99.9219 52.41 100.082 52.3569 100.27C52.2772 100.511 52.41 100.725 52.6225 100.778Z" fill="black"/>
<path d="M57.6693 94.383C56.3412 95.3731 55.0131 96.3631 53.6849 97.3531C53.4724 97.5137 53.4193 97.7813 53.6053 97.9953C54.6412 99.2797 55.7834 100.484 56.8193 101.768C56.9521 101.929 57.2443 101.902 57.3771 101.768C57.5365 101.608 57.5099 101.367 57.3771 101.206C56.3412 99.9219 55.199 98.7178 54.1631 97.4334C54.1365 97.6475 54.1099 97.8615 54.0834 98.0756C55.4115 97.0856 56.7396 96.0955 58.0678 95.1055C58.2537 94.9717 58.3334 94.7576 58.2006 94.5436C58.1209 94.3563 57.8553 94.2492 57.6693 94.383Z" fill="black"/>
<path d="M52.5162 87.1851C52.9678 89.406 53.4459 91.6002 53.9506 93.7943C53.9772 93.9548 54.1631 94.0886 54.3225 94.0886C55.4116 94.0351 56.5006 94.0351 57.5897 94.1154C57.8022 94.1421 57.9881 93.9281 57.9881 93.714C57.9881 93.4732 57.8022 93.3394 57.5897 93.3127C56.5006 93.2056 55.4116 93.2324 54.3225 93.2859C54.4553 93.3929 54.5881 93.4732 54.6944 93.5802C54.1631 91.3861 53.685 89.1652 53.26 86.9711C53.2069 86.757 52.9678 86.6232 52.7819 86.7035C52.5959 86.757 52.4897 86.9711 52.5162 87.1851Z" fill="black"/>
<path d="M49.7803 80.7632C49.7271 81.5124 49.7006 82.2616 49.5943 82.984C49.4615 83.7333 49.2225 84.429 48.824 85.0712C48.7178 85.2585 48.7975 85.526 48.9568 85.6331C49.1428 85.7401 49.3818 85.6598 49.5146 85.4993C49.9662 84.8036 50.2318 84.0276 50.3646 83.2249C50.4975 82.4221 50.524 81.5926 50.6037 80.7899C50.6303 80.5758 50.4178 80.3885 50.2053 80.3885C49.9662 80.3618 49.8068 80.5491 49.7803 80.7632Z" fill="black"/>
<path d="M47.0178 77.1508C46.6459 77.5522 46.3006 77.9803 45.9287 78.3817C45.7694 78.569 45.5834 78.783 45.3975 78.9703C45.185 79.1844 44.9725 79.452 44.9194 79.7731C44.7865 80.5491 45.5303 80.8702 46.1678 80.8702C46.7522 80.8702 47.3365 80.6293 47.735 80.2012C47.4959 80.0942 47.2834 80.0139 47.0444 79.9069C47.124 80.7899 47.0709 81.6996 46.8319 82.5559C46.5928 83.4389 46.0881 84.2684 46.2475 85.2049C46.274 85.3387 46.4069 85.4457 46.5131 85.4725C47.4162 85.6866 47.974 84.7233 48.2928 84.0276C48.6647 83.1981 48.9303 82.2883 49.1428 81.4053C49.1959 81.1912 49.249 81.0039 49.2756 80.7899C49.01 80.7631 48.7444 80.7096 48.5053 80.6829C48.5053 81.1377 48.4787 81.5659 48.4522 82.0207C48.399 82.4756 48.3725 82.877 48.2662 83.3319C48.1334 83.9205 47.8944 84.4825 47.9475 85.0979C47.974 85.419 48.0803 85.8739 48.4522 85.9809C48.824 86.0879 49.1428 85.7401 49.4084 85.526C49.5678 85.3922 49.5412 85.0979 49.4084 84.9641C49.249 84.8036 49.01 84.8303 48.8506 84.9641C48.7975 85.0176 48.7444 85.0444 48.6912 85.0979C48.6647 85.1246 48.6381 85.1514 48.6115 85.1782C48.585 85.1782 48.585 85.2049 48.5584 85.2049C48.5319 85.2317 48.5319 85.2317 48.585 85.2049C48.6647 85.2317 48.7178 85.2317 48.7975 85.2584C48.8772 85.3119 48.824 85.3387 48.824 85.2584C48.824 85.2049 48.7975 85.1514 48.7709 85.0979C48.7444 84.9909 48.7709 84.8571 48.7709 84.75C48.7975 84.536 48.8506 84.3219 48.9037 84.1078C49.01 83.7332 49.1162 83.3854 49.1694 82.984C49.2756 82.2348 49.3553 81.4588 49.3553 80.6829C49.3553 80.4955 49.1959 80.3082 49.01 80.2815C48.824 80.2547 48.6115 80.3618 48.585 80.5758C48.4787 81.0842 48.3725 81.5926 48.2131 82.0743C48.0803 82.5024 47.9475 82.9305 47.7881 83.3586C47.7881 83.3854 47.7615 83.4121 47.7615 83.4389C47.7615 83.4121 47.7881 83.3586 47.7615 83.4389C47.735 83.4924 47.7084 83.5459 47.7084 83.5727C47.6553 83.6797 47.6022 83.7868 47.549 83.867C47.4694 84.0276 47.3631 84.2149 47.2569 84.3754C47.2303 84.4289 47.31 84.2952 47.2569 84.3754C47.2303 84.4022 47.2303 84.4022 47.2037 84.4289C47.1772 84.4557 47.1506 84.5092 47.0975 84.536C47.0709 84.5627 47.0444 84.5895 46.9912 84.6162C47.0975 84.536 46.9912 84.6162 46.9647 84.643C46.9115 84.6698 46.8053 84.6965 46.9381 84.6698C46.9115 84.6698 46.8584 84.6965 46.8319 84.6965C46.7787 84.7233 46.885 84.643 46.885 84.6965C46.885 84.6965 46.8319 84.6965 46.8053 84.6965H46.7787C46.7256 84.6965 46.885 84.7233 46.8053 84.6965C46.885 84.7768 46.9912 84.8838 47.0709 84.9641C47.0178 84.5627 47.1506 84.1614 47.2834 83.8135C47.4428 83.3854 47.6022 82.984 47.7084 82.5559C47.9209 81.6729 48.0006 80.7631 47.9209 79.8534C47.8944 79.5323 47.4959 79.2914 47.2303 79.559C46.9647 79.8534 46.5928 79.9871 46.2209 79.9871C46.1147 79.9871 46.0615 79.9871 45.9553 79.9604C45.8756 79.9336 45.8225 79.9069 45.7694 79.9069C45.7162 79.8801 45.7428 79.8534 45.7428 79.8801C45.7428 79.8801 45.7428 79.8534 45.7428 79.8266C45.7694 79.7463 45.8225 79.6661 45.849 79.6125C45.9819 79.452 46.1412 79.2914 46.274 79.1577C46.4334 78.9971 46.5662 78.8098 46.7256 78.6493C47.0178 78.3282 47.2834 77.9803 47.6022 77.6592C47.9475 77.3649 47.3897 76.803 47.0178 77.1508Z" fill="black"/>
<path d="M49.3288 84.1346C49.2491 84.5895 49.435 85.2317 49.8335 85.4725C50.471 85.7936 50.9491 85.0711 51.0288 84.536C51.1616 83.7065 51.2678 82.877 51.3741 82.0207C51.4272 81.6996 51.4803 81.3785 51.4803 81.0842C51.2147 81.0842 50.9491 81.0842 50.6835 81.0842C50.6835 81.2983 50.6569 81.5391 50.6304 81.7532C50.5772 82.1278 50.5241 82.5024 50.4975 82.877C50.4444 83.2248 50.3913 83.5994 50.3647 83.9473C50.3382 84.1881 50.285 84.4289 50.3913 84.643C50.471 84.8035 50.6038 84.9641 50.7897 85.0711C51.1085 85.2317 51.4272 85.0979 51.5866 84.8303C51.7725 84.536 51.7991 84.1614 51.8522 83.8135C51.9053 83.4924 51.9585 83.1981 51.985 82.877C52.0382 82.3953 52.1178 81.9405 52.1444 81.4588C52.171 81.2448 52.1975 81.0574 52.171 80.8434C52.1178 79.5055 51.7725 78.1944 51.4538 76.8832C51.321 76.3748 50.5772 76.5889 50.6835 77.0973C50.9225 78.1408 51.2147 79.1844 51.321 80.2547C51.3475 80.5491 51.3741 80.8166 51.3475 81.111C51.321 81.4053 51.2944 81.6996 51.2678 81.994C51.2147 82.5024 51.135 82.984 51.0553 83.5192C51.0288 83.6797 51.0022 83.8403 50.9757 83.974C50.9757 84.0543 50.9491 84.1346 50.9225 84.1881C50.9225 84.2149 50.9225 84.2416 50.9225 84.2684C50.9225 84.2951 50.896 84.2951 50.896 84.3219C50.8694 84.3487 50.8694 84.3487 50.896 84.3219C50.9491 84.3219 51.0022 84.2684 51.0553 84.2951C51.0553 84.2951 51.1616 84.3219 51.1085 84.3219L51.0819 84.2951C51.1616 84.2416 51.1085 84.3754 51.1085 84.2951L51.0819 84.2416C51.135 84.2951 51.1085 84.2416 51.0819 84.2149C51.0553 84.1614 51.1085 84.2684 51.1085 84.2684C51.1085 84.2416 51.1616 84.2951 51.1085 84.3487V84.3219C51.1085 84.2951 51.1085 84.2416 51.1085 84.2149C51.1085 84.1078 51.135 84.0008 51.135 83.8938C51.1616 83.5727 51.2147 83.2516 51.2678 82.9305C51.321 82.5291 51.3741 82.1545 51.4272 81.7532C51.4538 81.5123 51.5069 81.2715 51.4803 81.0574C51.4538 80.5491 50.71 80.5491 50.6835 81.0574C50.6835 81.2715 50.6303 81.4856 50.6038 81.6996C50.5772 81.8869 50.5507 82.0742 50.5241 82.2348C50.5241 82.2615 50.4975 82.3953 50.5241 82.2883C50.5241 82.3418 50.4975 82.3953 50.4975 82.4489C50.471 82.5559 50.471 82.6629 50.4444 82.7699C50.3913 83.1446 50.3382 83.5192 50.285 83.9205C50.2585 84.1346 50.2585 84.3754 50.1788 84.5627C50.1788 84.5895 50.0725 84.7233 50.0725 84.75C50.0725 84.75 50.1788 84.7768 50.2053 84.7768C50.1522 84.75 50.2319 84.7768 50.2319 84.8035C50.2054 84.7768 50.1522 84.643 50.1788 84.7233C50.1522 84.6162 50.1257 84.536 50.0991 84.4289C50.0991 84.3754 50.0991 84.536 50.0991 84.4289C50.0991 84.4022 50.0991 84.3754 50.0991 84.3754C50.0991 84.3219 50.1257 84.2149 50.0991 84.3754C50.1522 84.1614 50.046 83.9473 49.8335 83.8938C49.621 83.7867 49.3553 83.9205 49.3288 84.1346Z" fill="black"/>
<path d="M25.5819 44.9077C25.024 45.9245 24.4928 46.9681 23.9615 48.0116C23.3506 49.2157 22.7131 50.4198 22.1022 51.6239C21.4381 52.9083 20.774 54.2194 20.11 55.5038C19.4459 56.8417 18.7553 58.1528 18.0912 59.4907C17.4537 60.7751 16.8162 62.0595 16.1522 63.3438C15.5678 64.4944 15.01 65.645 14.4256 66.7956C13.9475 67.7589 13.4694 68.7222 12.9912 69.6854C12.6459 70.3811 12.3006 71.0768 11.9553 71.7993C11.7694 72.1739 11.5834 72.5485 11.424 72.9231C11.2647 73.2977 11.4506 73.6991 11.6897 73.9934C12.1944 74.6624 12.8319 75.2511 13.549 75.6792C13.8944 75.8932 14.2662 76.0806 14.6381 76.2679C14.824 76.3481 15.0631 76.3214 15.1959 76.1341C15.3022 75.9468 15.249 75.6792 15.0631 75.5722C14.3459 75.2511 13.6819 74.8765 13.124 74.3681C12.8319 74.1005 12.4865 73.7794 12.274 73.4315C12.2475 73.4048 12.2209 73.3513 12.1944 73.3245C12.1944 73.2977 12.1678 73.1907 12.1412 73.164C12.1412 73.164 12.1147 73.271 12.1412 73.271V73.2442L12.1678 73.1907C12.1944 73.1372 12.1147 73.3245 12.1412 73.2442C12.1412 73.2175 12.1412 73.2175 12.1678 73.1907C12.1944 73.1372 12.2209 73.0569 12.2475 73.0034C12.3272 72.8161 12.4334 72.602 12.5397 72.4147C12.8584 71.7725 13.1506 71.1304 13.4694 70.4882C13.9209 69.5784 14.3725 68.6419 14.824 67.7321C15.3819 66.6083 15.9397 65.5112 16.4975 64.3874C17.1084 63.1298 17.7459 61.8989 18.3569 60.6413C19.0209 59.3302 19.685 58.019 20.349 56.7079C21.0131 55.4235 21.6506 54.1124 22.3147 52.828C22.9256 51.5972 23.5631 50.3931 24.2006 49.1622C24.7584 48.0919 25.3162 47.0216 25.874 45.978C26.0069 45.7372 26.1131 45.5231 26.2459 45.2823C26.5115 44.8542 25.8209 44.4528 25.5819 44.9077Z" fill="black"/>
<path d="M12.7787 75.0104C12.4334 75.8399 12.3006 76.6961 12.46 77.6059C12.6194 78.4889 13.0444 79.3184 13.6287 79.9873C13.7615 80.1479 14.0537 80.1211 14.1865 79.9873C14.3459 79.8268 14.3194 79.586 14.1865 79.4254C13.2303 78.3283 12.8584 76.7764 13.4428 75.4385C13.5225 75.2512 13.4959 75.0104 13.31 74.8766C13.1506 74.7695 12.8584 74.7963 12.7787 75.0104Z" fill="black"/>
</svg>
