<svg width="110" height="130" viewBox="0 0 110 130" fill="none" xmlns="http://www.w3.org/2000/svg">
<g clip-path="url(#clip0_5_3178)">
<path d="M19.2884 120.402C23.2384 122.282 27.4284 123.712 31.6584 124.802C34.1784 125.452 36.7384 125.972 39.3284 126.312C41.4584 126.592 43.6084 126.742 45.7484 126.922C54.8084 127.682 63.9584 127.962 72.9484 126.342C78.6584 125.312 84.2084 123.492 89.3484 120.792C89.8184 120.542 89.3984 119.822 88.9284 120.072C80.1084 124.712 70.1984 126.512 60.3084 126.692C55.9684 126.772 51.6284 126.552 47.2984 126.212C42.9684 125.872 38.2684 125.482 33.8384 124.472C29.0084 123.362 24.1984 121.802 19.7184 119.672C19.2384 119.442 18.8184 120.162 19.2984 120.392L19.2884 120.402Z" fill="black"/>
<path d="M28.3283 107.452C28.0583 108.322 28.0483 109.222 27.7683 110.092C27.7083 110.292 27.8483 110.562 28.0583 110.602C30.1983 111.002 32.2183 111.832 34.2983 112.462L34.1983 111.702C32.7983 112.582 31.3983 113.462 29.9883 114.332C29.3083 114.762 28.6083 115.172 27.9383 115.612C27.4583 115.932 27.0383 116.302 26.9083 116.892C26.7783 117.482 26.9683 118.142 27.0983 118.722C27.2183 119.272 27.3683 119.812 27.5283 120.352C27.8583 121.422 28.2183 122.462 28.4983 123.552C28.6283 124.072 29.4283 123.852 29.2983 123.332C29.0583 122.382 28.7583 121.452 28.4583 120.522C28.1383 119.542 27.7183 118.412 27.6983 117.382C27.6883 116.622 28.3683 116.322 28.9283 115.972C29.5583 115.582 30.1883 115.182 30.8183 114.792C32.0783 114.002 33.3383 113.212 34.5983 112.422C34.9083 112.232 34.8483 111.772 34.4983 111.662C32.4183 111.022 30.3983 110.202 28.2583 109.802L28.5483 110.312C28.8283 109.442 28.8283 108.542 29.1083 107.672C29.2683 107.162 28.4683 106.942 28.3083 107.452H28.3283Z" fill="black"/>
<path d="M45.2283 54.9418C47.7083 46.5818 50.0983 38.2018 52.5483 29.8318C53.5183 26.5318 54.4983 23.2318 55.4083 19.9118C56.2983 16.6718 57.1883 13.4418 58.2083 10.2418C59.2383 6.99176 60.3383 3.66176 62.0983 0.721764L61.3283 0.511764C61.5983 7.44176 61.8683 14.3818 62.2683 21.3018C62.6883 28.6018 63.2383 35.9018 64.1083 43.1618C64.5583 46.9018 65.0883 50.6418 65.7883 54.3418L66.1883 53.8118C59.0883 53.7318 51.9883 54.1218 44.9383 54.9918C44.4183 55.0518 44.4083 55.8918 44.9383 55.8218C51.9883 54.9518 59.0883 54.5518 66.1883 54.6418C66.4783 54.6418 66.6383 54.3718 66.5883 54.1118C65.3083 47.3118 64.5483 40.4118 63.9583 33.5118C63.3383 26.2918 62.9383 19.0418 62.6183 11.8018C62.4483 8.03176 62.2983 4.26176 62.1583 0.491764C62.1383 0.0817644 61.5983 -0.0782357 61.3883 0.281764C59.8683 2.81176 58.8583 5.64176 57.9283 8.43176C56.8283 11.7018 55.8983 15.0318 54.9783 18.3518C52.9383 25.7518 50.7283 33.1018 48.5883 40.4718C47.2083 45.2118 45.8383 49.9618 44.4283 54.6918C44.2783 55.2018 45.0783 55.4218 45.2283 54.9118V54.9418Z" fill="black"/>
<path d="M44.6382 55.1218C43.1882 59.9418 41.7382 64.7718 40.2882 69.5918C40.0182 70.4718 39.7782 71.3218 40.5782 72.0018C41.2882 72.6118 42.3482 72.9718 43.2082 73.3218C45.1382 74.0818 47.1682 74.5218 49.2282 74.7618C53.5682 75.2718 57.9682 74.8918 62.2982 74.5018C63.2682 74.4118 64.2482 74.2818 65.2282 74.3318C65.9782 74.3718 66.7482 74.4618 67.4982 74.3518C69.4382 74.0618 69.4882 72.1818 69.2182 70.5918C68.3082 65.1718 67.3382 59.7618 66.3982 54.3518C66.3082 53.8218 65.5082 54.0518 65.5982 54.5718C66.3582 58.9418 67.1182 63.3118 67.8782 67.6818C68.0682 68.7618 68.2682 69.8418 68.4382 70.9218C68.5682 71.7418 68.7582 73.0518 67.7982 73.4318C67.1582 73.6818 66.3782 73.5718 65.7082 73.5318C64.8882 73.4818 64.0982 73.5118 63.2882 73.5818C59.3182 73.9418 55.3282 74.3318 51.3382 74.1118C49.3582 74.0018 47.3882 73.7318 45.4782 73.2018C44.5582 72.9418 43.6482 72.6318 42.7782 72.2418C42.3382 72.0418 41.8982 71.8318 41.4782 71.6018C41.2682 71.4818 41.0782 71.3718 40.9582 71.1718C40.7582 70.8518 40.8982 70.5118 40.9982 70.1718C42.4682 65.2218 43.9682 60.2818 45.4482 55.3418C45.5982 54.8318 44.7982 54.6118 44.6482 55.1218H44.6382Z" fill="black"/>
<path d="M50.9583 62.8717L50.7383 62.4617C50.6283 62.2617 50.5483 62.0817 50.3083 62.0217C50.0383 61.9617 49.7583 62.0217 49.5283 62.1717C49.0683 62.4817 48.8483 63.0717 49.0783 63.5917C49.2783 64.0317 49.7983 64.2617 50.2683 64.2117C50.7883 64.1617 51.2383 63.8217 51.3583 63.2917C51.4883 62.7017 51.2283 62.0817 50.7283 61.7517C50.5683 61.6417 50.3583 61.7017 50.2283 61.8117C49.7983 62.1917 49.5683 62.8117 49.6983 63.3817C49.7583 63.6617 49.9383 63.9217 50.1783 64.0717C50.4083 64.2117 50.6783 64.2417 50.9383 64.1917C51.4083 64.1217 51.8683 63.7217 51.8383 63.2117C51.7983 62.5717 51.1183 62.1917 50.5383 62.1917C50.0183 62.1917 49.4683 62.4517 49.2483 62.9317C48.9883 63.4817 49.2283 64.0817 49.7183 64.3917C50.2383 64.7317 50.9183 64.5517 51.1783 63.9817C51.4383 63.4117 51.2983 62.8117 50.9083 62.3617C50.4783 61.8717 49.7683 61.7417 49.1883 62.0517C48.6083 62.3617 48.2783 63.0517 48.4083 63.7017C48.4483 63.8817 48.6383 64.0017 48.8083 64.0117C49.1383 64.0117 49.4783 64.0217 49.8083 64.0317C50.0283 64.0317 50.2383 63.8417 50.2283 63.6117C50.2183 63.3817 50.0483 63.2017 49.8083 63.1917C49.4783 63.1917 49.1383 63.1817 48.8083 63.1717L49.2083 63.4817C49.2083 63.4617 49.2083 63.4317 49.2083 63.4117C49.2083 63.3717 49.2083 63.3317 49.2083 63.2917C49.2083 63.2417 49.2083 63.3117 49.2083 63.3217C49.2083 63.3017 49.2083 63.2817 49.2183 63.2517C49.2283 63.2117 49.2483 63.1617 49.2583 63.1217C49.2283 63.2117 49.2783 63.0817 49.2883 63.0617C49.3083 63.0217 49.3283 62.9917 49.3583 62.9617C49.3183 63.0017 49.3883 62.9117 49.3583 62.9617C49.3683 62.9517 49.3783 62.9317 49.3883 62.9217C49.4283 62.8817 49.4583 62.8517 49.4983 62.8117C49.5283 62.7817 49.4883 62.8117 49.4783 62.8217C49.4983 62.8117 49.5183 62.7917 49.5383 62.7817C49.5683 62.7617 49.6083 62.7417 49.6483 62.7217C49.5883 62.7317 49.6983 62.6917 49.6483 62.7217C49.6683 62.7217 49.6883 62.7117 49.7183 62.7017C49.7383 62.7017 49.7483 62.7017 49.7683 62.6917C49.7183 62.6917 49.8683 62.6617 49.7683 62.6917C49.8083 62.6917 49.8483 62.6917 49.8883 62.6917C49.9683 62.6917 49.8883 62.6917 49.8783 62.6917C49.8983 62.6917 49.9183 62.6917 49.9483 62.7017C49.9883 62.7017 50.0183 62.7317 50.0583 62.7317C50.0083 62.6917 50.1083 62.7417 50.0583 62.7317C50.0783 62.7517 50.1083 62.7617 50.1283 62.7717C50.1383 62.7717 50.2383 62.8417 50.1983 62.8117C50.1583 62.7817 50.2383 62.8517 50.2583 62.8617C50.2883 62.8917 50.3083 62.9217 50.3383 62.9517C50.3083 62.9017 50.3783 62.9917 50.3383 62.9517C50.3483 62.9717 50.3683 63.0017 50.3883 63.0217C50.4083 63.0517 50.4183 63.0917 50.4483 63.1217C50.4283 63.0617 50.4783 63.1617 50.4483 63.1217C50.4483 63.1417 50.4583 63.1517 50.4683 63.1717C50.4783 63.2117 50.4883 63.2617 50.4983 63.3017C50.4883 63.2417 50.4983 63.3317 50.4983 63.3417C50.4983 63.3817 50.4983 63.4217 50.4983 63.4617C50.4983 63.5117 50.5183 63.4017 50.4983 63.4517C50.4983 63.4717 50.4983 63.4917 50.4883 63.5217C50.4883 63.5417 50.4483 63.6417 50.4683 63.5817C50.4583 63.6017 50.4383 63.6317 50.4283 63.6517C50.4183 63.6717 50.3983 63.7017 50.4283 63.6617C50.4083 63.6817 50.3883 63.7017 50.3683 63.7217C50.3783 63.7117 50.4283 63.6817 50.3683 63.7217C50.3583 63.7217 50.3383 63.7317 50.3283 63.7417C50.2983 63.7717 50.3883 63.7417 50.3483 63.7417C50.3483 63.7417 50.3183 63.7417 50.3083 63.7517C50.2283 63.7717 50.3383 63.7417 50.3383 63.7517C50.3383 63.7517 50.2883 63.7517 50.2783 63.7517C50.2083 63.7517 50.3283 63.7717 50.2883 63.7517C50.2583 63.7417 50.2183 63.7317 50.1883 63.7217C50.2683 63.7417 50.2083 63.7217 50.1683 63.7117C50.1283 63.7017 50.0783 63.6517 50.1383 63.7017C50.1083 63.6717 50.0683 63.6417 50.0383 63.6117C49.9683 63.5417 50.0583 63.6517 50.0183 63.5917C49.9983 63.5617 49.9783 63.5217 49.9583 63.4917C49.9983 63.5617 49.9683 63.5117 49.9583 63.4617C49.9583 63.4617 49.9483 63.4217 49.9583 63.4217C49.9383 63.4417 49.9683 63.5017 49.9583 63.4217C49.9583 63.4017 49.9483 63.3517 49.9583 63.4017C49.9583 63.4517 49.9583 63.4017 49.9583 63.3817C49.9683 63.3417 49.9983 63.2717 49.9583 63.3517C49.9783 63.3217 49.9883 63.2917 50.0083 63.2617C50.0083 63.2517 50.0583 63.2017 50.0183 63.2417C49.9783 63.2917 50.0483 63.2217 50.0483 63.2117C50.0583 63.2017 50.1483 63.1317 50.0983 63.1617C50.0583 63.1917 50.1383 63.1317 50.1583 63.1217C50.1783 63.1117 50.2983 63.0617 50.1983 63.0917C50.2383 63.0817 50.2783 63.0617 50.3183 63.0517C50.3583 63.0517 50.3883 63.0417 50.4283 63.0317C50.4783 63.0117 50.3583 63.0317 50.4183 63.0317C50.4383 63.0317 50.4483 63.0317 50.4683 63.0317C50.5083 63.0317 50.5583 63.0317 50.5983 63.0317C50.6183 63.0317 50.6383 63.0317 50.6583 63.0317C50.6283 63.0317 50.5883 63.0217 50.6383 63.0317C50.6783 63.0417 50.7183 63.0517 50.7583 63.0617C50.7083 63.0417 50.7683 63.0617 50.7883 63.0717C50.8283 63.0917 50.8683 63.1117 50.9083 63.1417C50.8483 63.1017 50.9483 63.1817 50.9683 63.2017C50.9083 63.1417 51.0083 63.2917 50.9783 63.2117L50.9883 63.2617C50.9883 63.2617 50.9883 63.1717 50.9883 63.2117C50.9683 63.3217 51.0083 63.2117 50.9883 63.2117C50.9883 63.2117 50.9783 63.2517 50.9783 63.2617C50.9583 63.3317 51.0183 63.2117 50.9783 63.2417C50.9783 63.2417 50.9683 63.2617 50.9583 63.2717C50.9183 63.3417 50.9783 63.2417 50.9783 63.2417C50.9783 63.2417 50.9183 63.3117 50.9083 63.3117C50.9083 63.3117 50.9783 63.2617 50.9383 63.2817C50.9183 63.2817 50.9083 63.3017 50.8983 63.3117C50.8883 63.3117 50.8783 63.3217 50.8683 63.3317C50.8583 63.3317 50.8483 63.3417 50.8283 63.3517C50.8083 63.3517 50.8083 63.3517 50.8383 63.3517C50.8383 63.3517 50.8783 63.3417 50.8283 63.3517C50.8083 63.3517 50.7883 63.3617 50.7583 63.3717C50.7483 63.3717 50.7283 63.3717 50.7183 63.3717C50.6783 63.3917 50.8083 63.3717 50.7383 63.3717C50.7183 63.3717 50.6983 63.3717 50.6883 63.3717C50.6583 63.3717 50.6083 63.3517 50.6683 63.3717C50.6983 63.3717 50.7083 63.3917 50.6683 63.3717C50.6483 63.3717 50.6283 63.3617 50.6083 63.3517C50.5183 63.3317 50.6783 63.3817 50.5783 63.3317C50.5383 63.3117 50.5783 63.3117 50.5783 63.3317C50.6083 63.3517 50.6083 63.3517 50.5783 63.3317L50.5583 63.3117C50.5483 63.2917 50.5283 63.2617 50.5183 63.2417C50.5183 63.2317 50.5083 63.2117 50.4983 63.2017C50.4983 63.2117 50.5383 63.2817 50.4983 63.2017C50.4983 63.1817 50.4883 63.1617 50.4783 63.1417C50.4783 63.0517 50.4783 63.1117 50.4783 63.1417C50.4783 63.1017 50.4783 63.0517 50.4783 63.0017C50.4783 62.9817 50.4783 62.9517 50.4783 62.9317C50.4783 62.9717 50.4783 62.9817 50.4783 62.9317C50.4883 62.8817 50.5083 62.8317 50.5183 62.7817C50.5183 62.7717 50.5483 62.7017 50.5283 62.7517C50.5083 62.8017 50.5483 62.7017 50.5483 62.7017C50.5683 62.6617 50.5983 62.6217 50.6183 62.5817C50.6283 62.5617 50.6483 62.5417 50.6583 62.5217C50.6383 62.5517 50.6383 62.5517 50.6583 62.5217C50.6983 62.4817 50.7383 62.4417 50.7883 62.4017L50.2883 62.4617C50.2883 62.4617 50.3583 62.5217 50.3083 62.4717C50.3283 62.4917 50.3583 62.5117 50.3783 62.5417C50.3983 62.5717 50.4383 62.6217 50.3983 62.5617C50.4183 62.5917 50.4383 62.6217 50.4583 62.6617C50.4583 62.6717 50.5083 62.7617 50.4883 62.7117C50.4683 62.6617 50.4983 62.7517 50.5083 62.7717C50.5183 62.8117 50.5283 62.8417 50.5383 62.8817C50.5283 62.8217 50.5383 62.8917 50.5383 62.9117C50.5383 62.9417 50.5383 62.9717 50.5383 63.0117C50.5383 63.0317 50.5383 63.0417 50.5383 63.0617C50.5383 63.0617 50.5583 62.9917 50.5383 63.0317C50.5383 63.0617 50.5283 63.0917 50.5183 63.1217C50.5183 63.1417 50.5083 63.1517 50.5083 63.1717C50.5083 63.1417 50.5383 63.1217 50.5083 63.1617C50.4883 63.1917 50.4783 63.2217 50.4583 63.2417C50.4183 63.3017 50.4983 63.2117 50.4483 63.2517C50.4283 63.2717 50.4083 63.2917 50.3883 63.3117C50.4483 63.2617 50.3983 63.3017 50.3683 63.3117C50.3483 63.3117 50.2683 63.3517 50.3283 63.3317C50.3883 63.3217 50.2983 63.3317 50.2783 63.3417C50.2483 63.3417 50.2183 63.3517 50.1883 63.3617C50.1383 63.3717 50.2283 63.3617 50.2283 63.3617C50.2283 63.3617 50.1783 63.3617 50.1683 63.3617C50.1383 63.3617 50.0983 63.3617 50.0683 63.3617C50.0183 63.3617 50.1083 63.3617 50.1083 63.3617H50.0683C50.0383 63.3617 50.0083 63.3517 49.9883 63.3417C49.8983 63.3117 50.0283 63.3717 49.9683 63.3417C49.9483 63.3317 49.9183 63.3117 49.8983 63.3017C49.8383 63.2617 49.9383 63.3517 49.8983 63.3017C49.8783 63.2817 49.8583 63.2617 49.8383 63.2417C49.8883 63.3017 49.8583 63.2417 49.8383 63.2117C49.8183 63.1817 49.8383 63.2317 49.8483 63.2417C49.8483 63.2217 49.8483 63.2117 49.8383 63.1917C49.8283 63.1717 49.8383 63.1617 49.8283 63.1417C49.8283 63.1517 49.8283 63.2117 49.8283 63.1717C49.8283 63.1617 49.8283 63.0617 49.8283 63.1217C49.8283 63.1817 49.8383 63.0717 49.8483 63.0517C49.8283 63.1117 49.8483 63.0417 49.8583 63.0317C49.8583 63.0217 49.8783 63.0017 49.8783 62.9917C49.8783 62.9817 49.9383 62.9117 49.8983 62.9517C49.8683 62.9917 49.9383 62.9117 49.9483 62.9017C49.9583 62.8917 49.9683 62.8817 49.9883 62.8717C49.9383 62.9017 50.0183 62.8417 49.9883 62.8717C50.0183 62.8617 50.0483 62.8317 50.0783 62.8217C50.0083 62.8617 50.0783 62.8317 50.1083 62.8217C50.1483 62.8017 50.0783 62.8217 50.0683 62.8217C50.0883 62.8217 50.1083 62.8217 50.1283 62.8217C50.1483 62.8217 50.1683 62.8417 50.1283 62.8217C50.0683 62.8017 50.1583 62.8317 50.1683 62.8417L49.9183 62.6517L50.2583 63.2917C50.3583 63.4817 50.6383 63.5617 50.8283 63.4417C51.0183 63.3117 51.0883 63.0817 50.9783 62.8717H50.9583Z" fill="black"/>
<path d="M60.7382 61.2318C60.2182 62.0518 60.5682 63.3718 61.5882 63.5718C61.8582 63.6218 62.1682 63.6118 62.3682 63.3918C62.5582 63.1918 62.5882 62.9018 62.5082 62.6518C62.4182 62.3818 62.2382 62.1818 62.0582 61.9618C61.8982 61.7618 61.7582 61.5518 61.4782 61.5418C61.1482 61.5318 60.9482 61.8918 60.8882 62.1718C60.8282 62.4518 60.8882 62.7618 61.0382 63.0018C61.3582 63.5018 61.9982 63.7218 62.5382 63.4218C63.0082 63.1518 63.3082 62.5018 63.0882 61.9718C62.8682 61.4418 62.3382 61.2018 61.8282 61.1518C61.3182 61.1018 60.8082 61.3618 60.5282 61.8018C60.2482 62.2418 60.2282 62.8118 60.4382 63.2818C60.4882 63.4018 60.5682 63.4918 60.6482 63.5918C60.7882 63.7618 61.0982 63.7418 61.2382 63.5918C61.3982 63.4118 61.3882 63.1818 61.2382 63.0018C61.1882 62.9318 61.2882 63.0818 61.2382 63.0018C61.2382 62.9918 61.2182 62.9718 61.2082 62.9618C61.1882 62.9318 61.1782 62.8818 61.1582 62.8618C61.2082 62.9218 61.1882 62.9318 61.1682 62.8818C61.1682 62.8618 61.1582 62.8418 61.1482 62.8218C61.1382 62.7818 61.1282 62.7418 61.1182 62.6918C61.0982 62.6418 61.1182 62.8018 61.1182 62.7218C61.1182 62.7018 61.1182 62.6818 61.1182 62.6618C61.1182 62.6218 61.1182 62.5918 61.1182 62.5518C61.1182 62.5318 61.1182 62.5018 61.1182 62.4818C61.1182 62.4418 61.1382 62.4518 61.1182 62.5218C61.1382 62.4818 61.1382 62.4318 61.1482 62.3818C61.1582 62.3418 61.1782 62.3118 61.1882 62.2718C61.1882 62.2718 61.1482 62.3618 61.1782 62.3018C61.1782 62.2818 61.1982 62.2718 61.2082 62.2518C61.2282 62.2218 61.2482 62.1818 61.2682 62.1518C61.2982 62.1118 61.3082 62.1318 61.2482 62.1718C61.2582 62.1718 61.2782 62.1318 61.2982 62.1218C61.3182 62.0918 61.3682 62.0718 61.3882 62.0418C61.3482 62.1018 61.3282 62.0818 61.3682 62.0618C61.3882 62.0518 61.3982 62.0418 61.4182 62.0318C61.4282 62.0318 61.4482 62.0118 61.4582 62.0118C61.4982 61.9918 61.5382 61.9918 61.4482 62.0118C61.4882 62.0118 61.5182 61.9818 61.5582 61.9718C61.5982 61.9618 61.6382 61.9618 61.6682 61.9518C61.5582 61.9818 61.6082 61.9518 61.6482 61.9518C61.6682 61.9518 61.6782 61.9518 61.6982 61.9518C61.7382 61.9518 61.7782 61.9518 61.8182 61.9518C61.8282 61.9518 61.9082 61.9518 61.8282 61.9518C61.7482 61.9518 61.8482 61.9518 61.8682 61.9518C61.8982 61.9518 61.9382 61.9718 61.9682 61.9818C61.9882 61.9818 62.0082 61.9918 62.0282 62.0018C62.1082 62.0318 61.9582 61.9618 62.0082 61.9918C62.0382 62.0118 62.0682 62.0218 62.0982 62.0418C62.1182 62.0518 62.1382 62.0618 62.1582 62.0818C62.1882 62.1018 62.2182 62.1518 62.1582 62.0818C62.1782 62.1118 62.2182 62.1318 62.2482 62.1618C62.2582 62.1718 62.2682 62.1818 62.2782 62.1918C62.3082 62.2218 62.3182 62.2718 62.2782 62.1818C62.2882 62.2118 62.3182 62.2418 62.3382 62.2718C62.3782 62.3318 62.3182 62.2818 62.3382 62.2518C62.3382 62.2518 62.3482 62.3118 62.3582 62.3218V62.2618C62.3582 62.2618 62.3582 62.2918 62.3582 62.3118C62.3582 62.3318 62.3582 62.3418 62.3582 62.3618C62.3582 62.3818 62.3482 62.4518 62.3582 62.3818C62.3682 62.3118 62.3582 62.3818 62.3582 62.3918C62.3582 62.4318 62.3382 62.4718 62.3282 62.5018C62.3082 62.5718 62.3282 62.4718 62.3382 62.4718C62.3182 62.4818 62.3082 62.5318 62.2982 62.5418C62.2882 62.5518 62.2782 62.5718 62.2682 62.5918C62.2282 62.6518 62.2782 62.5718 62.2882 62.5618C62.2582 62.5718 62.2282 62.6218 62.2082 62.6518L62.1882 62.6718C62.1882 62.6718 62.1682 62.6918 62.2182 62.6518C62.2182 62.6518 62.1882 62.6718 62.1782 62.6818C62.1582 62.6918 62.1482 62.7018 62.1282 62.7118C62.0482 62.7618 62.2082 62.6918 62.1282 62.7118C62.0882 62.7118 62.0482 62.7218 62.0182 62.7418C62.0282 62.7418 62.1182 62.7418 62.0582 62.7418C62.0382 62.7418 62.0182 62.7418 61.9982 62.7418C61.9482 62.7418 62.1082 62.7618 62.0282 62.7418C62.0082 62.7418 61.9982 62.7418 61.9782 62.7318C61.9582 62.7318 61.9282 62.7118 61.9082 62.7118C61.9682 62.7418 61.9782 62.7418 61.9482 62.7318C61.9382 62.7318 61.9282 62.7218 61.9182 62.7118C61.8982 62.7118 61.8882 62.6918 61.8682 62.6818C61.8182 62.6518 61.8682 62.6518 61.8882 62.6918C61.8882 62.6718 61.8182 62.6218 61.7982 62.6118C61.7682 62.5818 61.7882 62.5718 61.8182 62.6418C61.8182 62.6218 61.7882 62.6018 61.7782 62.5818C61.7782 62.5718 61.7582 62.5518 61.7582 62.5418C61.7182 62.4718 61.7582 62.5118 61.7582 62.5518C61.7582 62.5218 61.7282 62.4718 61.7182 62.4418C61.6982 62.3618 61.7182 62.5418 61.7182 62.4618C61.7182 62.4418 61.7182 62.4318 61.7182 62.4118C61.7182 62.3918 61.7182 62.3718 61.7182 62.3518C61.7182 62.3018 61.6882 62.4618 61.7182 62.3818C61.7182 62.3618 61.7182 62.3518 61.7282 62.3318C61.7282 62.3118 61.7382 62.2918 61.7482 62.2818C61.7582 62.2418 61.7582 62.2418 61.7482 62.2818C61.7482 62.3418 61.7482 62.2818 61.7482 62.2718C61.7482 62.2518 61.7982 62.2018 61.7482 62.2718L61.7282 62.3018C61.7282 62.3018 61.7382 62.2918 61.6682 62.3418C61.5782 62.3918 61.4882 62.4018 61.3982 62.3818C61.3482 62.3718 61.2982 62.3418 61.2682 62.3018C61.2682 62.3018 61.2882 62.3118 61.2882 62.3218C61.3182 62.3518 61.3382 62.3818 61.3682 62.4118C61.4182 62.4718 61.4682 62.5418 61.5182 62.6018C61.5482 62.6418 61.5882 62.6818 61.6182 62.7218C61.6382 62.7918 61.6482 62.7518 61.6182 62.7218C61.6182 62.7418 61.6482 62.7718 61.6682 62.7918C61.6882 62.8318 61.7082 62.8618 61.7282 62.9018C61.7682 62.9718 61.7082 62.8218 61.7182 62.8718C61.7182 62.8918 61.7282 62.9018 61.7382 62.9218C61.7382 62.9318 61.7382 62.9518 61.7482 62.9618C61.7682 63.0318 61.7482 62.8518 61.7482 62.9218V62.9518C61.7582 63.0218 61.7682 62.8418 61.7482 62.9018C61.7282 62.9918 61.8082 62.8118 61.7482 62.8818C61.8282 62.7618 61.8082 62.8218 61.7782 62.8418C61.7782 62.8418 61.8782 62.7718 61.8282 62.8018C61.7782 62.8318 61.9282 62.7718 61.8782 62.7818C61.8682 62.7818 61.8482 62.7818 61.8382 62.7918C61.7682 62.8118 61.9282 62.7918 61.8782 62.7918C61.8582 62.7918 61.8282 62.7918 61.8082 62.7918C61.7582 62.7918 61.8082 62.7718 61.8482 62.7918C61.8282 62.7818 61.7882 62.7818 61.7682 62.7718C61.7382 62.7718 61.7082 62.7518 61.6882 62.7518C61.6382 62.7318 61.6282 62.7118 61.7082 62.7518C61.6782 62.7318 61.6282 62.7118 61.5982 62.6918C61.5882 62.6918 61.5782 62.6718 61.5582 62.6718C61.6582 62.7218 61.6082 62.7118 61.5782 62.6818C61.5482 62.6518 61.5182 62.6218 61.4882 62.5918C61.4382 62.5318 61.5382 62.6618 61.5082 62.6118C61.4982 62.5918 61.4782 62.5718 61.4682 62.5518C61.4482 62.5218 61.4282 62.4818 61.4082 62.4418C61.3882 62.4018 61.4082 62.3818 61.4182 62.4718C61.4182 62.4518 61.3982 62.4318 61.3982 62.4118C61.3882 62.3718 61.3682 62.3218 61.3682 62.2818C61.3682 62.2718 61.3682 62.2518 61.3682 62.2418C61.3482 62.1618 61.3682 62.3518 61.3682 62.2418C61.3682 62.1518 61.3682 62.0718 61.3682 61.9818C61.3682 61.9118 61.3682 62.0218 61.3682 62.0218C61.3682 62.0018 61.3682 61.9718 61.3782 61.9418C61.3782 61.9018 61.3982 61.8618 61.4082 61.8218C61.4082 61.8018 61.4182 61.7818 61.4282 61.7718C61.3882 61.8518 61.4582 61.6818 61.4282 61.7718C61.4482 61.7318 61.4682 61.6918 61.4982 61.6518C61.6182 61.4718 61.5382 61.1818 61.3482 61.0818C61.1482 60.9718 60.9082 61.0318 60.7782 61.2318H60.7382Z" fill="black"/>
<path d="M47.7583 55.4119C46.6283 55.5819 46.4583 57.5919 47.1383 57.9619C47.8483 58.3519 48.5183 58.7519 49.3183 58.6619C50.4583 58.5219 51.5583 58.0919 52.4783 57.4119C52.8683 57.1219 53.2583 56.6419 53.0483 56.2119C52.9383 55.9819 52.6883 55.8619 52.4483 55.7619C50.8783 55.1119 49.1083 54.9519 47.4483 55.3319" fill="#F1E0C6"/>
<path d="M47.6384 55.0118C46.7184 55.1818 46.2884 56.2018 46.3184 57.0418C46.3284 57.4318 46.4284 57.8518 46.6984 58.1418C46.8684 58.3218 47.1184 58.4318 47.3284 58.5418C47.6384 58.7118 47.9684 58.8618 48.3084 58.9718C48.9984 59.1818 49.7284 59.0518 50.4084 58.8618C51.0884 58.6718 51.7484 58.3818 52.3484 57.9918C52.8584 57.6618 53.4684 57.2018 53.5084 56.5318C53.5584 55.7718 52.8584 55.4518 52.2584 55.2318C50.6884 54.6518 48.9684 54.5618 47.3384 54.9118C46.8184 55.0218 47.0384 55.8218 47.5584 55.7118C48.6584 55.4718 49.8184 55.4618 50.9184 55.7118C51.4384 55.8218 52.0084 55.9618 52.4684 56.2218C52.9884 56.5118 52.3484 57.0018 52.0484 57.1918C51.2084 57.7618 50.0884 58.2618 49.0484 58.2618C48.5084 58.2618 48.0184 57.9918 47.5584 57.7318C47.2784 57.5718 47.2184 57.5618 47.1584 57.2318C47.0684 56.7218 47.2484 55.9218 47.8584 55.8118C48.3884 55.7118 48.1584 54.9118 47.6384 55.0118Z" fill="black"/>
<path d="M60.9181 54.6619C60.2581 54.8019 59.5581 54.9519 59.0481 55.4119C58.5381 55.8719 58.3481 56.7319 58.8281 57.2219C59.0781 57.4719 59.4481 57.5719 59.7981 57.6319C60.7981 57.8219 61.8281 57.9119 62.8481 57.8919C63.6781 57.8719 64.7181 57.6219 64.8981 56.8119C65.0981 55.9219 64.1681 55.5219 63.4081 55.0119C62.6481 54.4919 61.7881 54.5619 60.9081 54.6619" fill="#F1E0C6"/>
<path d="M60.8082 54.2618C59.6482 54.5018 58.2882 54.9617 58.1582 56.3417C58.0982 56.9017 58.3482 57.4418 58.8382 57.7418C59.3882 58.0718 60.1282 58.1218 60.7482 58.2018C61.4882 58.2918 62.2382 58.3418 62.9782 58.3118C63.4982 58.2918 64.0482 58.1918 64.5082 57.9318C64.9682 57.6718 65.2782 57.2517 65.3382 56.7317C65.3982 56.2117 65.1382 55.7517 64.7582 55.4318C64.5182 55.2318 64.2582 55.0617 63.9882 54.8917C63.6882 54.7017 63.4082 54.5018 63.0782 54.3818C62.3882 54.1118 61.6382 54.1718 60.9182 54.2618C60.6982 54.2918 60.5082 54.4318 60.4982 54.6818C60.4982 54.8818 60.6882 55.1218 60.9182 55.1018C61.3982 55.0418 61.9082 54.9818 62.3882 55.0618C62.8682 55.1418 63.2082 55.4017 63.6082 55.6417C63.8982 55.8317 64.2982 56.0318 64.4582 56.3518C64.5982 56.6218 64.4782 56.9417 64.2382 57.1217C63.5682 57.6417 62.4482 57.5117 61.6782 57.4617C61.1082 57.4317 60.5382 57.3617 59.9782 57.2517C59.6082 57.1817 59.0982 57.1118 58.9982 56.6718C58.8982 56.2318 59.1682 55.8317 59.4982 55.5917C59.9482 55.2717 60.5182 55.1718 61.0382 55.0618C61.5582 54.9518 61.3382 54.1518 60.8182 54.2618H60.8082Z" fill="black"/>
<path d="M43.4584 61.3518C43.4984 60.1618 42.4884 59.1718 41.3484 59.0218C40.0584 58.8418 38.8584 59.6418 38.1284 60.6518C37.7184 61.2218 37.4384 61.8918 37.2184 62.5618C36.9984 63.2318 36.7684 63.9618 36.7384 64.6818C36.6884 65.9218 37.5684 66.8718 38.7484 67.1218C39.3684 67.2618 39.9484 67.1018 40.5784 67.1218C41.1084 67.1418 41.4684 67.0118 41.9084 66.7118C42.3484 66.4118 41.9284 65.6918 41.4884 65.9918C41.2284 66.1718 41.0284 66.3118 40.7284 66.3018C40.3384 66.2818 39.9784 66.3418 39.5984 66.3618C38.8084 66.3918 37.8384 66.0418 37.6184 65.2018C37.4784 64.6418 37.6484 64.0418 37.7984 63.5018C37.9484 62.9618 38.1084 62.4318 38.3384 61.9318C38.7684 61.0018 39.4784 60.1218 40.5284 59.8718C41.4884 59.6418 42.6584 60.2718 42.6184 61.3418C42.5984 61.8718 43.4284 61.8718 43.4484 61.3418L43.4584 61.3518Z" fill="black"/>
<path d="M67.2083 59.5918C67.7083 59.0018 68.5183 58.9718 69.1983 59.2618C70.0183 59.6118 70.4783 60.4218 70.7183 61.2418C70.9683 62.1018 71.0983 63.0918 71.0383 63.9918C71.0083 64.3718 70.9083 64.8218 70.6083 65.0818C70.4383 65.2318 70.1683 65.3518 69.9383 65.4318C69.5983 65.5518 69.2483 65.6418 68.8883 65.6618C68.7483 65.6618 68.6083 65.6618 68.4883 65.6318C68.4283 65.6118 68.4183 65.6118 68.4083 65.6018C68.3783 65.5918 68.4183 65.6418 68.4083 65.5918C68.2683 65.0718 67.4683 65.2918 67.6083 65.8118C67.8283 66.6518 68.9683 66.5318 69.6183 66.3918C70.4683 66.2018 71.3083 65.8318 71.6583 64.9818C71.8883 64.4218 71.9083 63.8018 71.8683 63.2118C71.8283 62.6218 71.7583 62.0018 71.6283 61.4118C71.3783 60.3118 70.8383 59.1818 69.7983 58.6318C68.7583 58.0818 67.4083 58.0818 66.6183 59.0118C66.2783 59.4218 66.8583 60.0118 67.2083 59.6018V59.5918Z" fill="black"/>
<path d="M49.5381 72.2816C46.4681 80.7216 44.2181 91.3116 42.3581 100.112C41.8281 102.632 41.2881 105.222 41.6981 107.762C42.0281 109.862 42.9881 111.792 43.9381 113.682C46.0781 117.912 48.2681 122.112 50.5281 126.272C51.2781 127.652 52.4581 129.242 53.9681 128.912C54.4181 128.812 54.8081 128.552 55.1881 128.282C59.1981 125.472 62.7481 122.002 65.6881 118.052C66.5281 116.922 67.3281 115.732 67.7881 114.392C68.3281 112.852 68.3881 111.192 68.4181 109.562C68.6081 97.0216 66.6981 82.8916 62.3881 71.1516" fill="#F1E0C6"/>
<path d="M49.1482 72.1717C46.3282 79.9417 44.5182 88.0617 42.7882 96.1317C42.3382 98.2117 41.8582 100.282 41.4982 102.382C41.1382 104.482 40.9782 106.732 41.5182 108.872C42.0582 111.012 43.0782 112.862 44.0382 114.762C45.0882 116.842 46.1582 118.912 47.2382 120.972C48.2882 122.962 49.2782 125.022 50.4382 126.952C51.1782 128.182 52.3882 129.632 53.9982 129.332C54.8882 129.162 55.6582 128.482 56.3682 127.952C57.1782 127.352 57.9682 126.722 58.7382 126.072C60.3082 124.742 61.7882 123.312 63.1682 121.782C64.5482 120.252 65.8382 118.682 66.9482 116.982C68.1282 115.172 68.6682 113.232 68.7882 111.082C69.0282 106.942 68.8082 102.732 68.4882 98.6017C67.8382 90.2217 66.3682 81.8517 63.7682 73.8617C63.4582 72.9217 63.1382 71.9817 62.7982 71.0517C62.6182 70.5617 61.8182 70.7717 62.0082 71.2717C64.7582 78.7817 66.4082 86.6817 67.2982 94.6217C67.7382 98.5917 67.9882 102.592 68.0282 106.592C68.0482 108.622 68.1382 110.722 67.7982 112.722C67.4382 114.852 66.2982 116.602 65.0182 118.282C62.5882 121.462 59.7382 124.342 56.5582 126.782C55.8282 127.342 55.0482 128.062 54.1882 128.412C53.3282 128.762 52.5282 128.272 51.9482 127.632C51.3282 126.952 50.9182 126.122 50.4782 125.312C49.9582 124.342 49.4382 123.372 48.9182 122.392C47.8882 120.442 46.8682 118.492 45.8582 116.522C44.8582 114.562 43.7682 112.622 42.9482 110.582C42.1282 108.542 41.8382 106.472 42.0582 104.282C42.2682 102.162 42.7882 100.072 43.2282 97.9917C44.8682 90.2717 46.5582 82.5217 49.0282 75.0117C49.3182 74.1317 49.6182 73.2517 49.9382 72.3817C50.1182 71.8817 49.3282 71.6717 49.1482 72.1617V72.1717Z" fill="black"/>
<path d="M56.2984 68.3018C51.4884 68.9218 45.5984 70.3418 41.3584 72.6918C43.0984 73.8418 48.7884 73.6718 49.7884 73.5018C52.0184 73.1218 53.8784 71.6518 55.6284 70.2318C56.2084 69.7618 56.5984 68.9918 56.2984 68.3018Z" fill="#F1E0C6"/>
<path d="M56.2984 67.8818C51.1084 68.5618 45.7684 69.7918 41.1484 72.3218C40.8684 72.4718 40.8884 72.8818 41.1484 73.0418C42.2384 73.7318 43.6884 73.8418 44.9384 73.9418C46.3184 74.0518 47.7184 74.0718 49.0984 73.9818C50.7184 73.8718 52.1884 73.2218 53.5284 72.3318C54.3584 71.7818 55.1784 71.1718 55.9184 70.5218C56.5884 69.9318 57.0084 69.0818 56.6984 68.1918C56.5284 67.6918 55.7184 67.9018 55.8984 68.4118C56.2584 69.4418 55.1384 70.1018 54.4484 70.6418C53.6884 71.2318 52.9084 71.8018 52.0584 72.2518C50.9484 72.8518 49.8284 73.1318 48.5884 73.1818C47.3484 73.2318 46.1584 73.2118 44.9384 73.1218C43.8384 73.0318 42.5284 72.9418 41.5684 72.3318V73.0518C46.0584 70.5918 51.2684 69.3818 56.2984 68.7218C56.8184 68.6518 56.8284 67.8218 56.2984 67.8918V67.8818Z" fill="black"/>
<path d="M56.9082 68.3218C61.2282 68.1518 65.9982 68.9718 68.7782 72.2818C68.9082 72.4418 69.0482 72.6118 69.0982 72.8118C69.2182 73.2918 68.8082 73.7818 68.3382 73.9218C67.8682 74.0718 67.3482 73.9718 66.8682 73.8718C65.1182 73.5118 63.3682 73.1518 61.6282 72.8018C61.0282 72.6818 57.5982 70.4418 56.6182 69.2418" fill="#F1E0C6"/>
<path d="M56.9082 68.7317C60.4182 68.6117 64.3282 69.0417 67.1782 71.3017C67.4882 71.5417 67.7782 71.8117 68.0582 72.0917C68.2082 72.2417 68.3682 72.4017 68.4882 72.5717C68.7782 72.9717 68.6882 73.3417 68.2282 73.5217C67.7182 73.7217 67.0082 73.4817 66.4982 73.3717C65.9382 73.2617 65.3882 73.1417 64.8282 73.0317C63.7982 72.8217 62.6582 72.7117 61.6682 72.3817C61.2582 72.2417 60.8682 71.9717 60.4982 71.7417C59.2382 70.9617 57.8682 70.0917 56.9082 68.9517C56.5582 68.5417 55.9782 69.1317 56.3182 69.5417C57.3182 70.7317 58.7682 71.6517 60.0782 72.4617C60.5182 72.7317 60.9882 73.0517 61.4882 73.2017C62.8082 73.5817 64.2182 73.7617 65.5582 74.0317C66.5582 74.2317 67.8982 74.7417 68.8382 74.1417C69.6782 73.6117 69.6482 72.6917 69.0682 71.9917C67.7782 70.4317 65.9582 69.3917 64.0582 68.7617C61.7682 68.0117 59.3082 67.8217 56.9082 67.9017C56.3782 67.9217 56.3682 68.7517 56.9082 68.7317Z" fill="black"/>
<path d="M63.7782 38.8119C62.3082 37.9319 60.6482 37.3719 58.9582 37.1019C58.6882 37.0619 58.3182 37.2819 58.4482 37.6119C58.7282 38.3019 59.0082 38.9819 59.2882 39.6719C59.4382 40.0319 59.6682 40.4319 59.7482 40.8119C59.8382 41.2219 59.5882 41.2919 59.2682 41.5219C58.2082 42.2919 57.2582 43.1719 56.4082 44.1619C56.1782 44.4319 56.3282 44.8619 56.6982 44.8719C57.8282 44.8919 58.9582 44.9019 60.0882 44.9219L59.6882 44.3919C59.2282 46.0719 58.8982 47.7719 58.6682 49.4919C58.6282 49.8119 59.0482 50.0019 59.2982 49.8519C60.6282 49.0519 61.8382 48.1019 62.9382 47.0019L62.2882 46.9219C63.0282 48.4519 64.1982 49.7219 64.9382 51.2519C65.1682 51.7319 65.8882 51.3119 65.6582 50.8319C64.9182 49.3019 63.7482 48.0319 63.0082 46.5019C62.8882 46.2619 62.5282 46.2419 62.3582 46.4219C61.3082 47.4619 60.1482 48.3719 58.8882 49.1419L59.5182 49.5019C59.7382 47.8519 60.0682 46.2219 60.5082 44.6219C60.5782 44.3619 60.3782 44.1019 60.1082 44.0919C58.9782 44.0719 57.8482 44.0619 56.7182 44.0419L57.0082 44.7519C57.5282 44.1419 58.0782 43.5719 58.6782 43.0519C59.0082 42.7619 59.3482 42.4919 59.6982 42.2419C59.9382 42.0719 60.2482 41.9219 60.4382 41.6919C60.9182 41.1519 60.4982 40.4619 60.2782 39.9019C59.9382 39.0619 59.5982 38.2319 59.2582 37.3919L58.7482 37.9019C60.3682 38.1519 61.9582 38.6819 63.3682 39.5219C63.8282 39.8019 64.2482 39.0819 63.7882 38.8019L63.7782 38.8119Z" fill="black"/>
<path d="M41.3883 71.9819C38.2283 72.4119 35.1783 74.1619 32.4983 75.7819C28.4683 78.2119 24.7083 81.0819 21.1483 84.1519C13.4783 90.7919 6.20835 98.8119 2.34835 108.312C1.09835 111.392 0.278347 114.812 1.03835 118.122C1.12835 118.512 1.75835 118.522 1.83835 118.122C2.09835 116.872 3.00835 115.722 3.77835 114.742C5.05835 113.112 6.52835 111.622 8.06835 110.232C11.8683 106.792 16.2983 103.792 21.1483 102.052C23.8083 101.102 26.6283 100.552 29.4683 100.792C29.9983 100.832 29.9983 100.002 29.4683 99.9619C24.2083 99.5219 19.0183 101.632 14.6083 104.312C10.4683 106.822 6.55835 110.032 3.48835 113.792C2.52835 114.962 1.36835 116.362 1.04835 117.892H1.84835C1.21835 115.152 1.77835 112.312 2.70835 109.702C4.38835 105.002 7.17835 100.602 10.2283 96.6819C13.2783 92.7619 16.7583 89.1719 20.4583 85.8619C23.9783 82.7019 27.7283 79.7619 31.7283 77.2319C33.5083 76.1019 35.3383 75.0419 37.2583 74.1719C38.6383 73.5419 40.1083 72.9719 41.6183 72.7719C42.1483 72.7019 41.9183 71.9019 41.3983 71.9719L41.3883 71.9819Z" fill="black"/>
<path d="M1.26822 116.712C1.26822 117.292 1.14822 117.882 1.11822 118.462C1.07822 119.302 1.15822 120.172 1.45822 120.972C2.43822 123.632 5.33822 124.512 7.91822 124.742C10.1282 124.942 12.2382 123.842 14.1282 122.822C17.0782 121.252 19.8482 119.312 22.3482 117.102C25.1582 114.622 27.8182 111.662 29.1282 108.092C29.3182 107.592 28.5082 107.372 28.3282 107.872C27.2282 110.862 25.0782 113.392 22.7982 115.562C20.4382 117.802 17.7882 119.752 14.9882 121.392C13.8782 122.042 12.7382 122.642 11.5482 123.152C10.7582 123.492 9.89822 123.832 9.03822 123.942C7.69822 124.102 6.05822 123.732 4.81822 123.212C3.82822 122.792 2.94822 122.132 2.43822 121.162C2.01822 120.362 1.91822 119.452 1.93822 118.562C1.95822 117.942 2.09822 117.322 2.08822 116.702C2.08822 116.172 1.24822 116.162 1.25822 116.702L1.26822 116.712Z" fill="black"/>
<path d="M38.1782 102.032C38.2982 102.142 43.9182 101.082 43.9182 101.082L40.8982 107.672L38.5282 108.192L38.1682 102.032H38.1782Z" fill="#F1E0C6"/>
<path d="M39.2783 100.202C41.6083 99.312 40.4483 98.752 43.9183 99.612C45.5883 100.022 44.9483 101.402 43.3383 101.942C43.0583 102.032 39.8683 103.432 39.5783 103.522" fill="#F1E0C6"/>
<path d="M39.3882 100.602C39.8282 100.432 40.2482 100.242 40.6482 100.012C40.7682 99.9419 40.8882 99.8619 41.0082 99.7919C41.0582 99.7619 41.1082 99.7319 41.1582 99.7019C41.1782 99.6919 41.1982 99.6819 41.2182 99.6719C41.1782 99.6819 41.3082 99.6219 41.2182 99.6719C41.2682 99.6519 41.3182 99.6419 41.3682 99.6219C41.3982 99.6219 41.4282 99.6119 41.4582 99.6019C41.5182 99.5919 41.3782 99.6019 41.4782 99.6019C41.6382 99.6019 41.7982 99.6019 41.9582 99.6219C42.0482 99.6219 42.0682 99.6319 42.1882 99.6519C42.3282 99.6719 42.4682 99.7019 42.5982 99.7319C42.9382 99.8019 43.2782 99.8819 43.6182 99.9619C43.8782 100.022 44.1582 100.102 44.3482 100.252C44.4082 100.302 44.4382 100.352 44.4582 100.392C44.4382 100.352 44.4782 100.512 44.4682 100.422C44.4682 100.452 44.4682 100.582 44.4682 100.502C44.4382 100.682 44.3482 100.802 44.2182 100.952C44.0282 101.142 43.8082 101.282 43.5682 101.402C43.3082 101.532 43.0282 101.612 42.7582 101.732C42.3682 101.902 41.9682 102.062 41.5782 102.232C41.1182 102.432 40.6582 102.622 40.1982 102.822C40.2482 102.802 40.1282 102.852 40.1082 102.862C40.0582 102.882 40.0182 102.902 39.9682 102.922C39.8882 102.952 39.8082 102.992 39.7282 103.022C39.6382 103.062 39.5482 103.102 39.4482 103.132C38.9382 103.282 39.1582 104.092 39.6682 103.932C39.9282 103.852 40.1682 103.732 40.4182 103.632C40.8782 103.432 41.3482 103.242 41.8082 103.042C42.0282 102.942 42.2482 102.852 42.4782 102.752C42.5682 102.712 42.6682 102.672 42.7582 102.632C42.8082 102.612 42.8582 102.592 42.9082 102.572C42.9282 102.562 43.0582 102.512 42.9782 102.542C43.3182 102.402 43.6782 102.282 44.0182 102.122C44.5382 101.862 45.0482 101.452 45.2382 100.882C45.4282 100.312 45.1682 99.8019 44.6882 99.5019C44.3782 99.3119 44.0182 99.2319 43.6682 99.1419C43.3182 99.0519 42.9882 98.9819 42.6482 98.9119C42.2282 98.8319 41.7782 98.7519 41.3482 98.8019C41.0182 98.8419 40.7282 98.9919 40.4482 99.1619C40.0382 99.4119 39.6082 99.6419 39.1582 99.8119C38.9482 99.8919 38.8082 100.092 38.8682 100.322C38.9282 100.522 39.1682 100.692 39.3782 100.612L39.3882 100.602Z" fill="black"/>
<path d="M43.8884 101.762C43.8284 102.422 44.1584 103.192 43.7084 103.752C43.2584 104.312 40.8584 106.072 39.8184 106.042" fill="#F1E0C6"/>
<path d="M43.4783 101.762C43.4583 102.042 43.4883 102.322 43.5183 102.602C43.5383 102.842 43.5683 103.112 43.4783 103.342C43.4283 103.472 43.3783 103.522 43.2583 103.632C43.1383 103.742 43.0283 103.842 42.9083 103.942C42.2983 104.452 41.5583 104.952 40.8083 105.322C40.6083 105.422 40.4883 105.472 40.2783 105.542C40.1883 105.572 40.0883 105.592 39.9983 105.612C39.9083 105.632 40.0183 105.612 39.9583 105.612C39.9183 105.612 39.8783 105.612 39.8383 105.612C39.3083 105.612 39.2983 106.432 39.8383 106.442C40.2483 106.442 40.6483 106.292 41.0183 106.122C41.4483 105.932 41.8583 105.692 42.2583 105.432C42.6583 105.172 43.0583 104.882 43.4283 104.582C43.6983 104.362 43.9983 104.122 44.1783 103.812C44.5483 103.162 44.2683 102.442 44.3183 101.752C44.3383 101.532 44.1183 101.332 43.8983 101.332C43.6583 101.332 43.4983 101.522 43.4783 101.752V101.762Z" fill="black"/>
<path d="M42.7984 107.282C42.8484 108.002 41.4784 109.852 40.4784 109.892C39.1784 109.942 37.7284 110.122 37.3884 110.072C36.6784 109.962 31.3584 108.482 29.8384 107.452" fill="#F1E0C6"/>
<path d="M42.3783 107.282C42.3783 107.822 41.8783 108.412 41.5283 108.782C41.2983 109.032 41.0183 109.292 40.6883 109.422C40.3583 109.552 39.9483 109.502 39.5883 109.522C38.8983 109.572 38.1283 109.732 37.4383 109.662C37.1783 109.632 36.8383 109.522 36.5583 109.452C35.4083 109.152 34.2683 108.802 33.1383 108.422C32.0883 108.062 30.9583 107.712 30.0283 107.092C29.5783 106.802 29.1583 107.522 29.6083 107.812C30.6683 108.502 31.9483 108.902 33.1383 109.292C34.3283 109.682 35.6083 110.082 36.8583 110.382C37.2883 110.482 37.6783 110.502 38.1183 110.472C38.6083 110.442 39.0983 110.392 39.5883 110.362C39.9983 110.332 40.4483 110.362 40.8483 110.252C41.9183 109.932 43.2083 108.452 43.1983 107.302C43.1983 106.772 42.3683 106.762 42.3683 107.302L42.3783 107.282Z" fill="black"/>
<path d="M43.9083 103.992C44.0183 104.922 43.4583 105.892 42.8283 106.722C42.4583 107.202 39.6283 108.152 39.2583 108.202" fill="#F1E0C6"/>
<path d="M43.4884 103.992C43.5484 104.632 43.3084 105.222 42.9784 105.762C42.8384 106.002 42.6684 106.262 42.4884 106.462C42.4684 106.482 42.4484 106.492 42.4384 106.512C42.4284 106.512 42.4984 106.472 42.4384 106.512C42.3784 106.552 42.3184 106.592 42.2484 106.632C41.5484 107.032 40.7884 107.292 40.0184 107.542C39.8384 107.602 39.6584 107.662 39.4784 107.712C39.4184 107.732 39.3484 107.752 39.2784 107.762C39.2284 107.772 39.0584 107.802 39.2384 107.782C39.0184 107.812 38.8184 107.952 38.8184 108.202C38.8184 108.402 39.0084 108.642 39.2384 108.622C39.5384 108.582 39.8184 108.492 40.0984 108.402C40.5384 108.262 40.9684 108.102 41.3984 107.932C41.8284 107.762 42.2384 107.592 42.6384 107.372C43.0684 107.122 43.3284 106.752 43.5984 106.332C44.0384 105.642 44.3884 104.832 44.3084 104.002C44.2884 103.782 44.1284 103.582 43.8884 103.582C43.6784 103.582 43.4484 103.772 43.4684 104.002L43.4884 103.992Z" fill="black"/>
<path d="M30.0883 107.162C29.3283 107.042 28.5883 106.752 27.8583 106.512C26.6283 106.102 25.4083 105.662 24.1883 105.222C22.2483 104.512 20.2083 103.872 18.3583 102.942C17.8783 102.702 17.4583 103.422 17.9383 103.662C19.8183 104.602 21.8783 105.262 23.8483 105.972C25.0783 106.422 26.2983 106.862 27.5383 107.272C28.2983 107.522 29.0783 107.832 29.8683 107.962C30.3883 108.042 30.6183 107.242 30.0883 107.162Z" fill="black"/>
<path d="M32.0483 100.662C31.4483 100.642 30.8383 100.612 30.2583 100.502C29.6783 100.392 29.0583 100.192 28.4783 99.9819C28.2683 99.9019 28.0283 100.072 27.9683 100.272C27.9083 100.502 28.0483 100.712 28.2583 100.782C28.8583 100.992 29.4683 101.192 30.0883 101.312C30.7083 101.432 31.3883 101.472 32.0483 101.492C32.5783 101.502 32.5783 100.672 32.0483 100.662Z" fill="black"/>
<path d="M32.4083 101.292C32.5483 100.992 32.8183 100.742 33.0483 100.512C33.2983 100.262 33.5683 99.9918 33.8683 99.8018C34.7283 99.2618 35.6883 98.9018 36.3383 98.0818C37.7183 96.3518 37.3983 93.9718 38.3183 92.0418L38.0683 92.2318C38.8183 91.9718 39.0383 93.0718 39.1483 93.5818C39.3183 94.3618 39.4483 95.1718 39.3283 95.9618C39.2183 96.6818 38.9483 97.3518 38.8483 98.0718C38.7483 98.7918 38.7683 99.5518 38.8683 100.302L39.6683 100.082C39.6183 99.7618 39.5783 99.4418 39.5283 99.1218C39.4483 98.5918 38.6483 98.8218 38.7283 99.3418C38.7783 99.6618 38.8183 99.9818 38.8683 100.302C38.9483 100.832 39.7383 100.602 39.6683 100.082C39.5383 99.1618 39.5983 98.2218 39.8383 97.3218C40.0583 96.4818 40.2483 95.7018 40.1783 94.8318C40.0783 93.6718 39.8083 91.1918 38.1283 91.3618C37.4283 91.4318 37.2683 92.3218 37.1183 92.9018C36.9283 93.6118 36.8183 94.3418 36.6683 95.0518C36.5183 95.7618 36.3483 96.4818 35.9883 97.1118C35.6283 97.7418 35.0283 98.1918 34.3783 98.5618C33.8183 98.8818 33.2883 99.1418 32.8083 99.5618C32.4083 99.9218 31.8983 100.352 31.6683 100.852C31.4383 101.352 32.1683 101.762 32.3883 101.272L32.4083 101.292Z" fill="black"/>
<path d="M8.31836 109.552C10.4584 108.802 22.1184 105.012 24.0884 106.132C23.9684 104.482 19.0484 105.312 19.1684 103.662C17.4984 103.242 16.4984 103.592 14.8684 104.592C14.3884 104.892 12.2784 105.962 11.9284 106.402" fill="black"/>
<path d="M34.5884 81.3318C32.5384 83.4818 31.0184 86.0518 30.1084 88.8818C29.9684 89.3118 30.5084 89.5318 30.7984 89.2818C30.8684 89.2218 30.7684 89.2518 30.8284 89.2818C30.9384 89.3318 31.0184 89.5018 31.0784 89.5918C31.3284 90.0018 31.4784 90.4718 31.6184 90.9318C31.9584 92.0618 32.1884 93.2218 32.3684 94.3918C32.4984 95.2918 32.6484 96.2218 32.4584 97.1218C32.1384 98.6418 31.1184 99.9618 29.4684 99.9718C28.9384 99.9718 28.9284 100.812 29.4684 100.802C32.1184 100.782 33.5384 98.1418 33.3584 95.7418C33.1984 93.6718 32.8584 91.3218 31.9384 89.4318C31.6084 88.7518 30.9584 88.0718 30.2184 88.6918L30.9084 89.0918C31.7784 86.4018 33.2284 83.9618 35.1784 81.9118C35.5484 81.5218 34.9584 80.9318 34.5884 81.3218V81.3318Z" fill="black"/>
<path d="M68.7984 72.1017C71.8684 72.5117 74.7784 74.2917 77.3384 75.9117C81.2284 78.3717 84.8484 81.2617 88.2684 84.3417C91.9884 87.6817 95.4884 91.2917 98.6384 95.1817C101.848 99.1517 104.768 103.512 106.758 108.242C108.028 111.262 108.948 114.642 108.198 117.912H108.998C108.718 116.592 107.788 115.382 106.978 114.342C105.658 112.642 104.148 111.102 102.558 109.662C98.6384 106.122 94.1084 103.062 89.1084 101.272C86.3884 100.292 83.4684 99.7417 80.5684 99.9817C80.0384 100.022 80.0384 100.862 80.5684 100.812C85.6884 100.382 90.7084 102.442 95.0084 105.052C99.0284 107.492 102.798 110.592 105.818 114.222C106.738 115.332 107.888 116.682 108.198 118.132C108.278 118.532 108.908 118.522 108.998 118.132C109.638 115.342 109.158 112.462 108.238 109.792C106.578 104.962 103.748 100.482 100.668 96.4317C97.5684 92.3617 94.0684 88.6017 90.3384 85.1117C86.8184 81.8217 83.0784 78.7317 79.0684 76.0517C77.2884 74.8617 75.4584 73.7417 73.5184 72.8217C72.0984 72.1417 70.5884 71.5217 69.0184 71.3117C68.4984 71.2417 68.2684 72.0417 68.7984 72.1117V72.1017Z" fill="black"/>
<path d="M107.958 116.282C107.948 117.612 108.288 118.842 107.858 120.162C107.008 122.742 103.848 123.482 101.448 123.532C100.708 123.552 99.9783 123.292 99.2983 123.042C98.1583 122.622 97.0583 122.072 95.9883 121.492C93.1883 119.962 90.5583 118.102 88.1683 115.982C85.5183 113.632 82.9683 110.822 81.7283 107.452C81.5483 106.952 80.7383 107.172 80.9283 107.672C82.0783 110.802 84.2783 113.462 86.6683 115.732C89.1583 118.102 91.9783 120.162 94.9583 121.872C96.1283 122.542 97.3383 123.152 98.5883 123.662C99.4083 123.992 100.298 124.322 101.198 124.372C102.708 124.452 104.428 124.072 105.798 123.452C106.828 122.982 107.738 122.242 108.288 121.242C108.778 120.352 108.948 119.332 108.938 118.332C108.938 117.652 108.778 116.972 108.778 116.292C108.778 115.762 107.948 115.752 107.948 116.292L107.958 116.282Z" fill="black"/>
<path d="M71.8482 102.032C71.7282 102.142 66.1082 101.082 66.1082 101.082L69.1282 107.672L71.4982 108.192L71.8582 102.032H71.8482Z" fill="#F1E0C6"/>
<path d="M70.7482 100.202C68.4182 99.312 69.5782 98.752 66.1082 99.612C64.4382 100.022 65.0782 101.402 66.6882 101.942C66.9682 102.032 70.1582 103.432 70.4482 103.522" fill="#F1E0C6"/>
<path d="M70.8583 99.8019C70.4383 99.6419 70.0483 99.4419 69.6683 99.2119C69.4183 99.0619 69.1783 98.9019 68.8983 98.8319C68.5283 98.7319 68.1483 98.7719 67.7683 98.8319C67.4883 98.8719 67.2083 98.9319 66.9383 98.9919C66.5483 99.0819 66.1483 99.1519 65.7683 99.2819C65.2283 99.4719 64.7283 99.8619 64.7183 100.472C64.7183 101.062 65.1483 101.532 65.5983 101.852C65.9683 102.122 66.3983 102.252 66.8183 102.422C66.8883 102.452 66.9583 102.482 67.0283 102.512C66.9683 102.482 67.0883 102.532 67.0283 102.512C67.0483 102.512 67.0583 102.522 67.0783 102.532C67.1283 102.552 67.1883 102.582 67.2383 102.602C67.4483 102.692 67.6583 102.782 67.8683 102.872C68.3683 103.092 68.8783 103.302 69.3783 103.522C69.6983 103.652 70.0183 103.812 70.3483 103.912C70.8583 104.072 71.0783 103.262 70.5683 103.112C70.3483 103.042 70.1283 102.942 69.9083 102.852C69.7983 102.802 69.8183 102.812 69.6983 102.762C69.5983 102.722 69.4983 102.682 69.3983 102.632C69.1883 102.542 68.9783 102.452 68.7583 102.362C68.1083 102.082 67.4683 101.782 66.8183 101.542C66.3583 101.372 65.8683 101.132 65.6283 100.722C65.5783 100.642 65.5783 100.632 65.5583 100.522C65.5483 100.452 65.5583 100.582 65.5583 100.522C65.5583 100.502 65.5583 100.482 65.5583 100.462C65.5583 100.462 65.5583 100.392 65.5583 100.442C65.5583 100.492 65.5783 100.392 65.5783 100.382C65.5483 100.442 65.5983 100.352 65.6083 100.342C65.6383 100.302 65.6083 100.332 65.6683 100.282C65.7283 100.222 65.8183 100.172 65.9183 100.122C66.2383 99.9719 66.6283 99.9219 66.9683 99.8419C67.2483 99.7719 67.5383 99.7119 67.8183 99.6619C67.9983 99.6319 68.1183 99.6119 68.3283 99.6019C68.3983 99.6019 68.4583 99.6019 68.5283 99.6019C68.5783 99.6019 68.6283 99.6119 68.5383 99.6019C68.5683 99.6019 68.6083 99.6119 68.6383 99.6219C68.6983 99.6319 68.7483 99.6519 68.8083 99.6719C68.7483 99.6419 68.7883 99.6719 68.8083 99.6719C68.8383 99.6819 68.8683 99.7019 68.8983 99.7119C69.0283 99.7819 69.1483 99.8619 69.2683 99.9319C69.7083 100.202 70.1683 100.412 70.6483 100.592C70.8583 100.672 71.1083 100.502 71.1583 100.302C71.2183 100.072 71.0783 99.8719 70.8683 99.7919L70.8583 99.8019Z" fill="black"/>
<path d="M66.1381 101.762C66.1981 102.422 65.8681 103.192 66.3181 103.752C66.7681 104.312 69.1681 106.072 70.2081 106.042" fill="#F1E0C6"/>
<path d="M65.7182 101.762C65.7682 102.372 65.5382 102.992 65.7582 103.582C65.8982 103.962 66.1782 104.232 66.4782 104.482C67.1982 105.092 68.0082 105.652 68.8682 106.062C69.2782 106.262 69.7382 106.452 70.1982 106.452C70.7282 106.452 70.7382 105.612 70.1982 105.622C70.1582 105.622 69.9882 105.602 70.0882 105.622C69.9982 105.612 69.9182 105.592 69.8382 105.562C69.6682 105.512 69.5182 105.452 69.3782 105.392C68.9782 105.212 68.5982 104.982 68.2282 104.742C67.8882 104.522 67.5282 104.262 67.2382 104.032C67.1082 103.932 66.9882 103.822 66.8682 103.712C66.8182 103.662 66.7682 103.622 66.7282 103.572C66.7082 103.552 66.6282 103.462 66.6482 103.482C66.4882 103.262 66.4982 102.982 66.5182 102.722C66.5382 102.402 66.5982 102.082 66.5682 101.752C66.5482 101.532 66.3882 101.332 66.1482 101.332C65.9382 101.332 65.7182 101.522 65.7282 101.752L65.7182 101.762Z" fill="black"/>
<path d="M67.2384 107.282C67.1884 108.002 68.5584 109.852 69.5584 109.892C70.8584 109.942 72.3084 110.122 72.6484 110.072C73.3584 109.962 78.6784 108.482 80.1984 107.452" fill="#F1E0C6"/>
<path d="M66.8184 107.282C66.8184 108.422 68.0684 109.872 69.1184 110.222C69.5384 110.362 70.0084 110.322 70.4384 110.352C70.8984 110.382 71.3684 110.422 71.8284 110.462C72.2884 110.502 72.7084 110.492 73.1684 110.382C74.3984 110.092 75.6184 109.712 76.8184 109.312C78.0184 108.912 79.3484 108.512 80.4184 107.802C80.8684 107.512 80.4484 106.792 79.9984 107.082C79.0784 107.682 77.9884 108.032 76.9584 108.382C75.8084 108.772 74.6484 109.132 73.4684 109.442C73.1884 109.512 72.8684 109.622 72.5884 109.652C71.9484 109.722 71.1984 109.572 70.5484 109.522C69.6984 109.462 69.1784 109.462 68.5584 108.832C68.1884 108.462 67.6584 107.842 67.6584 107.282C67.6584 106.722 66.8284 106.742 66.8284 107.282H66.8184Z" fill="black"/>
<path d="M66.1184 103.992C66.0084 104.922 66.5684 105.892 67.1984 106.722C67.5684 107.202 70.3984 108.152 70.7684 108.202" fill="#F1E0C6"/>
<path d="M65.7084 103.992C65.6384 104.722 65.9084 105.452 66.2684 106.072C66.5284 106.522 66.8184 107.012 67.2684 107.292C68.0284 107.762 68.9284 108.052 69.7684 108.332C70.0984 108.442 70.4384 108.562 70.7784 108.602C70.9984 108.632 71.1984 108.392 71.1984 108.182C71.1984 107.932 71.0084 107.792 70.7784 107.762C70.8384 107.762 70.9084 107.782 70.7784 107.762C70.7184 107.752 70.6684 107.732 70.6084 107.722C70.4584 107.682 70.3084 107.632 70.1584 107.582C69.7584 107.452 69.3684 107.312 68.9784 107.162C68.5884 107.012 68.2584 106.872 67.8984 106.682C67.8284 106.642 67.7684 106.612 67.6984 106.572C67.6584 106.552 67.5084 106.432 67.5984 106.502C67.4384 106.362 67.3284 106.172 67.2084 105.992C66.8084 105.392 66.4684 104.722 66.5384 103.982C66.5584 103.762 66.3284 103.562 66.1184 103.562C65.8784 103.562 65.7284 103.752 65.6984 103.982L65.7084 103.992Z" fill="black"/>
<path d="M80.1583 107.962C80.9483 107.832 81.7283 107.532 82.4883 107.272C83.7283 106.862 84.9583 106.422 86.1783 105.972C88.1483 105.252 90.2083 104.602 92.0883 103.662C92.5683 103.422 92.1483 102.702 91.6683 102.942C89.8183 103.872 87.7783 104.512 85.8383 105.222C84.6183 105.662 83.3983 106.102 82.1683 106.512C81.4483 106.752 80.6983 107.042 79.9383 107.162C79.4083 107.242 79.6383 108.042 80.1583 107.962Z" fill="black"/>
<path d="M77.9782 101.492C78.6382 101.472 79.2882 101.432 79.9382 101.312C80.5882 101.192 81.1682 101.002 81.7682 100.782C81.9782 100.702 82.1182 100.502 82.0582 100.272C81.9982 100.072 81.7582 99.9019 81.5482 99.9819C80.9682 100.192 80.3782 100.382 79.7682 100.502C79.1582 100.622 78.5882 100.642 77.9782 100.662C77.4482 100.672 77.4382 101.512 77.9782 101.492Z" fill="black"/>
<path d="M78.3383 100.872C78.1483 100.442 77.7383 100.082 77.4083 99.7619C77.0283 99.4019 76.6483 99.1119 76.1883 98.8719C75.5383 98.5319 74.8383 98.1719 74.3583 97.6019C73.8783 97.0319 73.6483 96.3119 73.4683 95.6119C73.2883 94.9119 73.1883 94.1719 73.0283 93.4619C72.9483 93.1219 72.8683 92.7719 72.7483 92.4419C72.6583 92.1619 72.5483 91.7019 72.3083 91.5119C71.8183 91.1219 71.0183 91.4819 70.6683 91.8919C70.1483 92.4719 70.0383 93.3919 69.9183 94.1319C69.7683 95.0919 69.7983 96.0019 70.0583 96.9419C70.3483 97.9819 70.4883 99.0119 70.3383 100.092C70.2683 100.612 71.0683 100.842 71.1383 100.312C71.1883 99.9919 71.2283 99.6719 71.2783 99.3519C71.3583 98.8319 70.5483 98.6019 70.4783 99.1319C70.4283 99.4519 70.3883 99.7719 70.3383 100.092L71.1383 100.312C71.2383 99.5819 71.2583 98.8719 71.1683 98.1419C71.0783 97.4119 70.7883 96.7119 70.6783 95.9719C70.5683 95.2919 70.6783 91.8019 71.9383 92.2319L71.6883 92.0419C72.6083 93.9719 72.2783 96.3519 73.6683 98.0819C74.3283 98.9019 75.2783 99.2619 76.1383 99.8019C76.4283 99.9819 76.6783 100.232 76.9183 100.472C77.1583 100.712 77.4583 100.972 77.5983 101.292C77.8183 101.782 78.5283 101.352 78.3183 100.872H78.3383Z" fill="black"/>
<path d="M101.648 109.192C99.5082 108.442 87.8482 104.652 85.8782 105.772C85.9982 104.122 90.9182 104.952 90.7982 103.302C92.4682 102.882 93.4682 103.232 95.0982 104.232C95.5782 104.532 97.6882 105.602 98.0382 106.042" fill="black"/>
<path d="M74.8484 81.9218C76.7984 83.9718 78.2484 86.4118 79.1184 89.1018L79.8084 88.7018C78.2584 87.3918 77.4484 91.2218 77.2584 92.0418C76.8084 94.0318 76.2584 96.3418 77.0784 98.3018C77.6884 99.7818 78.9384 100.792 80.5684 100.812C81.0984 100.812 81.1084 99.9818 80.5684 99.9818C78.9084 99.9718 77.8984 98.6418 77.5784 97.1318C77.3884 96.2318 77.5284 95.3018 77.6684 94.4018C77.8384 93.2418 78.0684 92.0718 78.4184 90.9418C78.5584 90.4918 78.6984 90.0418 78.9384 89.6318C78.9984 89.5218 79.0884 89.3418 79.2084 89.2818C79.2684 89.2518 79.1684 89.2318 79.2384 89.2818C79.5284 89.5318 80.0684 89.3018 79.9284 88.8818C79.0184 86.0518 77.4884 83.4818 75.4484 81.3318C75.0784 80.9418 74.4884 81.5318 74.8584 81.9218H74.8484Z" fill="black"/>
<path d="M34.2283 51.5718C32.0383 50.9918 29.9083 50.1918 27.8783 49.1818C27.3983 48.9418 26.9783 49.6618 27.4583 49.9018C29.5583 50.9418 31.7483 51.7718 34.0083 52.3718C34.5283 52.5118 34.7483 51.7118 34.2283 51.5718Z" fill="#0666FF"/>
<path d="M37.1083 46.0817C35.6783 44.8617 34.4683 43.4217 33.5083 41.8117C33.2383 41.3517 32.5183 41.7717 32.7883 42.2317C33.7783 43.9017 35.0483 45.4117 36.5183 46.6717C36.6883 46.8217 36.9383 46.8417 37.1083 46.6717C37.2583 46.5217 37.2783 46.2317 37.1083 46.0817Z" fill="#0666FF"/>
<path d="M76.5383 48.3119L79.6483 46.3119C79.8383 46.1919 79.9183 45.9419 79.7983 45.7419C79.6883 45.5519 79.4183 45.4719 79.2283 45.5919L76.1183 47.5919C75.9283 47.7119 75.8483 47.9619 75.9683 48.1619C76.0783 48.3519 76.3483 48.4319 76.5383 48.3119Z" fill="#0666FF"/>
<path d="M78.7782 55.7217L86.3382 55.2817C86.8682 55.2517 86.8782 54.4217 86.3382 54.4517L78.7782 54.8917C78.2482 54.9217 78.2382 55.7517 78.7782 55.7217Z" fill="#0666FF"/>
<path d="M86.7583 115.712C87.1583 116.502 87.5883 117.272 87.9383 118.082C88.2883 118.892 88.5183 119.712 88.7283 120.552C88.8583 121.072 89.6583 120.852 89.5283 120.332C89.2983 119.442 89.0383 118.562 88.6783 117.722C88.3183 116.882 87.8883 116.102 87.4783 115.292C87.2383 114.812 86.5183 115.232 86.7583 115.712Z" fill="black"/>
<path d="M76.1182 37.4917C75.2282 38.6817 74.3482 39.8617 73.4582 41.0517C73.2982 41.2717 73.4183 41.6117 73.6383 41.7317C73.8983 41.8817 74.1583 41.7717 74.3183 41.5517C75.2083 40.3617 76.0882 39.1817 76.9782 37.9917C77.1382 37.7717 77.0182 37.4317 76.7982 37.3117C76.5382 37.1617 76.2782 37.2717 76.1182 37.4917Z" fill="#0666FF"/>
<path d="M38.9983 36.4618C39.6783 37.5618 40.3484 38.6718 41.0284 39.7718C41.1684 40.0018 41.4784 40.0918 41.7084 39.9518C41.9384 39.8118 42.0284 39.5018 41.8884 39.2718C41.2084 38.1718 40.5383 37.0618 39.8583 35.9618C39.7183 35.7318 39.4083 35.6418 39.1783 35.7818C38.9483 35.9218 38.8583 36.2318 38.9983 36.4618Z" fill="#0666FF"/>
</g>
<defs>
<clipPath id="clip0_5_3178">
<rect width="108.55" height="129.25" fill="white" transform="translate(0.738281 0.111816)"/>
</clipPath>
</defs>
</svg>
