<svg width="55" height="77" viewBox="0 0 55 77" fill="none" xmlns="http://www.w3.org/2000/svg">
<g clip-path="url(#clip0_1_572)">
<path d="M19.7754 42.1746C17.369 42.6134 15.7288 44.6535 14.7291 46.7292C14.1604 47.9094 13.7235 49.1548 13.2446 50.3706C12.7657 51.5863 12.2509 52.814 11.7181 54.0238C10.7065 56.3189 9.60505 58.5725 8.42579 60.7846C7.24654 62.9967 5.88171 65.3037 4.55879 67.5336C4.2535 68.0495 3.99012 68.6189 4.12181 69.2238C4.23555 69.7635 4.6426 70.1964 5.0736 70.5226C6.03137 71.2639 7.16872 71.8273 8.27016 72.3255C10.5928 73.3811 13.071 74.0631 15.5791 74.5079C18.0873 74.9527 20.7631 75.2077 23.373 75.3263C26.1386 75.4568 28.9161 75.4272 31.6817 75.2433C37.1769 74.8815 42.6362 73.9267 47.9159 72.3789C48.5744 72.1831 49.2268 71.9815 49.8793 71.7739C50.005 71.7324 50.0948 71.602 50.0529 71.4715C48.6462 67.1718 47.1976 62.8781 45.6292 58.6318C44.0609 54.3856 42.4506 50.4002 40.6548 46.3734C40.4034 45.81 40.1639 45.2407 39.8886 44.6891C39.6491 44.2028 39.3558 43.7165 38.9488 43.3488C38.5776 43.0108 38.1167 42.7795 37.6019 42.821C37.0871 42.8625 36.6621 43.1116 36.3448 43.4852C36.1413 43.7284 36.4885 44.0783 36.698 43.8351C36.9734 43.5149 37.3445 43.2895 37.7875 43.3132C38.2304 43.3369 38.5956 43.6513 38.8709 43.9834C39.1762 44.3451 39.3917 44.7781 39.5893 45.2051C39.8227 45.7032 40.0442 46.2014 40.2657 46.6996C41.1456 48.6685 41.9897 50.6552 42.7978 52.6598C44.3841 56.5739 45.8327 60.5355 47.2095 64.5268C48.0236 66.8812 48.8078 69.2416 49.58 71.6079L49.7536 71.3054C44.6116 72.966 39.29 74.0691 33.9085 74.5791C28.6048 75.0832 23.2174 75.0535 17.9317 74.3774C15.4654 74.0631 13.0111 73.565 10.6586 72.7465C9.49131 72.3433 8.34798 71.857 7.25851 71.2758C6.71378 70.9852 6.17503 70.6768 5.66023 70.3328C5.24121 70.0481 4.78028 69.6864 4.63661 69.1823C4.45703 68.5714 4.86408 67.9962 5.16937 67.498C5.51656 66.9287 5.85777 66.3593 6.19299 65.7841C6.8335 64.6988 7.45605 63.6076 8.06064 62.5104C9.2399 60.3754 10.3473 58.2048 11.3769 55.9927C12.4065 53.7806 13.4062 51.3373 14.3281 48.965C15.1841 46.7648 16.2197 44.3985 18.3986 43.1946C18.8715 42.9337 19.3803 42.7498 19.9131 42.6549C20.2303 42.5956 20.0926 42.1212 19.7814 42.1805L19.7754 42.1746Z" fill="black"/>
<path d="M8.76709 61.2234C10.4911 61.0159 12.2151 60.8083 13.9331 60.6066L13.6936 60.2923C13.113 62.0359 12.5263 63.7854 11.9457 65.529C11.9038 65.6476 11.9936 65.8077 12.1193 65.8315C13.4542 66.0746 14.7711 66.3889 16.0701 66.7744L16.0102 66.3237C15.1722 66.8456 14.3341 67.3675 13.4901 67.8834C13.083 68.1384 12.664 68.3816 12.263 68.6425C11.9756 68.8323 11.7242 69.0518 11.6464 69.4017C11.5686 69.7516 11.6823 70.1489 11.7601 70.4988C11.8439 70.8665 11.9397 71.2283 12.0534 71.59C12.2749 72.3136 12.5144 73.0252 12.7059 73.7606C12.7837 74.069 13.2626 73.9385 13.1848 73.6301C13.0232 72.9956 12.8197 72.3729 12.6221 71.7442C12.4246 71.1156 12.1313 70.3683 12.1193 69.6982C12.1133 69.2475 12.5204 69.0695 12.8556 68.862C13.2327 68.6307 13.6098 68.3935 13.9869 68.1622C14.7412 67.6937 15.4954 67.2251 16.2497 66.7566C16.4293 66.6439 16.3993 66.3652 16.1898 66.3059C14.8908 65.9204 13.5739 65.6061 12.239 65.3629L12.4126 65.6654C12.9933 63.9218 13.5799 62.1723 14.1605 60.4287C14.2084 60.2923 14.0767 60.0966 13.9211 60.1144C12.1971 60.322 10.4731 60.5296 8.75512 60.7312C8.44384 60.7668 8.43785 61.2649 8.75512 61.2234H8.76709Z" fill="black"/>
<path d="M11.0956 45.4838C11.5386 46.4327 11.1615 47.5536 10.5928 48.3898C10.2815 48.8464 9.89839 49.2556 9.51528 49.653C9.13218 50.0503 8.74308 50.4417 8.37195 50.851C7.64164 51.6516 6.94726 52.4819 6.25288 53.3181C5.55849 54.1543 4.87009 54.9845 4.14578 55.7852C3.42147 56.5858 2.66722 57.3508 1.84713 58.0447C1.6436 58.2167 1.43409 58.3887 1.21859 58.5547C1.12282 58.6259 1.02105 58.703 0.919289 58.7801C0.8714 58.8157 0.817526 58.8572 0.763651 58.8868C0.709777 58.9165 0.679846 58.9343 0.637944 58.9402C0.637944 58.9402 0.596041 58.9402 0.625972 58.9402C0.661888 58.9402 0.613999 58.9402 0.619986 58.9402C0.619986 58.9402 0.661888 58.958 0.631958 58.9402C0.619985 58.9402 0.613999 58.9284 0.608013 58.9224C0.64393 58.9402 0.608013 58.9224 0.596041 58.9106C0.596041 58.9106 0.572097 58.8809 0.590055 58.9046C0.608013 58.9284 0.572097 58.875 0.572097 58.875C0.560125 58.8572 0.548153 58.8335 0.542167 58.8157C0.560125 58.8513 0.542167 58.7979 0.536181 58.786C0.530195 58.7623 0.524208 58.7386 0.518222 58.7149C0.518222 58.6971 0.50625 58.62 0.50625 58.6615C0.482306 58.4124 0.548153 58.1515 0.625972 57.9142C0.793581 57.3864 1.0869 56.8942 1.35029 56.4019C1.61367 55.9097 1.86509 55.459 2.12847 54.9905C2.65525 54.0653 3.21794 53.1579 3.81655 52.2743C4.41515 51.3906 5.04369 50.5841 5.73808 49.7953C6.43246 49.0066 7.19868 48.2534 8.02475 47.5773C8.22229 47.4172 8.41983 47.257 8.62336 47.1088C8.73111 47.0257 8.78498 46.8953 8.71315 46.7707C8.65329 46.664 8.47969 46.5987 8.37195 46.6818C7.48002 47.3519 6.64796 48.0932 5.88174 48.9057C5.11552 49.7182 4.42713 50.5663 3.78662 51.4618C3.14611 52.3573 2.55349 53.2825 1.99678 54.2314C1.71544 54.7058 1.44606 55.1862 1.18268 55.6725C0.919289 56.1588 0.619986 56.6807 0.380543 57.2026C0.248849 57.4872 0.135114 57.7778 0.0692672 58.0862C0.0153925 58.3531 -0.0205239 58.6318 0.057295 58.8987C0.129128 59.1419 0.302724 59.3791 0.578083 59.4147C0.889359 59.4562 1.14077 59.2308 1.37423 59.0529C2.27214 58.3768 3.09822 57.6177 3.87641 56.8052C4.6546 55.9927 5.37292 55.1447 6.09125 54.2907C6.80958 53.4367 7.51594 52.5649 8.25821 51.7227C8.62935 51.3017 9.00048 50.8925 9.38958 50.4951C9.77867 50.0978 10.2097 49.6648 10.5868 49.22C11.3171 48.3423 11.9217 47.2392 11.778 46.0591C11.7421 45.7625 11.6643 45.4897 11.5386 45.2229C11.4847 45.1042 11.3051 45.0746 11.1974 45.1339C11.0717 45.2051 11.0537 45.3474 11.1076 45.4719L11.0956 45.4838Z" fill="black"/>
<path d="M11.5804 45.193C11.8199 45.1515 12.0713 45.1752 12.3107 45.2405C12.5681 45.3117 12.7956 45.4184 13.035 45.5489C13.2865 45.6853 13.5319 45.8395 13.7713 45.9937C13.897 46.0767 14.0287 46.1716 14.1664 46.225C14.352 46.2902 14.5375 46.2368 14.6513 46.0767C14.6932 46.0233 14.7171 45.964 14.7411 45.8988C14.7231 45.9344 14.759 45.8573 14.7411 45.8988C14.7411 45.8869 14.7471 45.881 14.753 45.8691C14.765 45.8454 14.777 45.8217 14.783 45.798C14.8309 45.6971 14.8787 45.5963 14.9326 45.4955C15.0464 45.2761 15.1781 45.0685 15.3217 44.8669C15.3696 44.8016 15.4474 44.7127 15.5193 44.6356C15.5552 44.6 15.5971 44.5585 15.633 44.5229C15.651 44.5051 15.6749 44.4873 15.6988 44.4695C15.6689 44.4932 15.7228 44.4577 15.7288 44.4517C15.9024 44.339 16.1059 44.256 16.2915 44.1671C16.7703 43.9358 17.2253 43.7045 17.7461 43.5859C17.8778 43.5562 17.9556 43.4079 17.9197 43.2834C17.8838 43.1529 17.7461 43.0818 17.6144 43.1114C17.1475 43.2241 16.6985 43.4317 16.2615 43.6392C15.8605 43.829 15.4355 43.9951 15.1242 44.3272C14.7949 44.683 14.5435 45.1219 14.34 45.5607C14.3161 45.6082 14.2981 45.6616 14.2742 45.709C14.2682 45.7268 14.2622 45.7446 14.2562 45.7564C14.2562 45.7683 14.2442 45.7802 14.2382 45.792C14.2203 45.8395 14.2382 45.7861 14.2622 45.7742C14.328 45.7387 14.3161 45.7742 14.2981 45.7564C14.2801 45.7387 14.2382 45.7209 14.2143 45.709C14.1544 45.6675 14.0886 45.6319 14.0287 45.5904C13.7833 45.4362 13.5439 45.282 13.2924 45.1397C12.7178 44.8194 12.0892 44.6 11.4248 44.7245C11.2931 44.7482 11.2153 44.9084 11.2512 45.027C11.2871 45.1634 11.4248 45.2227 11.5565 45.199L11.5804 45.193Z" fill="black"/>
<path d="M0.428453 59.379C0.895366 59.4857 1.28446 59.7823 1.64961 60.0966C2.05068 60.4465 2.43379 60.8142 2.88274 61.1048C3.85847 61.7394 4.98984 62.113 6.14515 62.2197C6.79763 62.279 7.4561 62.2494 8.09661 62.1308C8.34204 62.0893 8.33006 61.7097 8.09661 61.6563C8.06668 61.6504 8.03076 61.6445 8.00083 61.6326C7.86914 61.603 7.73146 61.6741 7.69554 61.8046C7.65962 61.9291 7.73744 62.0774 7.86914 62.1071C7.89907 62.113 7.93498 62.1189 7.96491 62.1308V61.6563C6.88742 61.852 5.75605 61.7631 4.70849 61.431C4.1877 61.2649 3.69086 61.0336 3.22395 60.743C2.78696 60.4702 2.43977 60.1381 2.03871 59.7941C1.60771 59.4146 1.12882 59.035 0.55416 58.9105C0.422467 58.8808 0.284787 58.952 0.248871 59.0825C0.212954 59.207 0.290773 59.3553 0.422467 59.3849L0.428453 59.379Z" fill="black"/>
<path d="M44.9648 45.2287C44.3662 46.225 44.5398 47.4645 45.0187 48.4667C45.4976 49.469 46.3296 50.3645 47.0061 51.2838C47.6825 52.203 48.2871 53.1104 48.9036 54.0355C49.5202 54.9607 50.1368 55.9037 50.7952 56.8051C51.4537 57.7065 52.1541 58.5902 52.9323 59.4027C53.1238 59.5984 53.3214 59.7941 53.5189 59.9839C53.7164 60.1737 53.9559 60.4524 54.2612 60.482C54.5246 60.5117 54.752 60.3338 54.8658 60.1084C54.9975 59.8593 55.0154 59.5747 54.9915 59.3019C54.9436 58.6851 54.7041 58.1098 54.4767 57.5405C54.2731 57.0305 54.0636 56.5204 53.8481 56.0104C53.4112 54.9903 52.9502 53.9822 52.4354 52.9977C51.9206 52.0132 51.3759 51.0999 50.7533 50.2103C50.1308 49.3207 49.4184 48.443 48.6462 47.6543C48.4547 47.4585 48.2631 47.2688 48.0656 47.0849C47.9698 46.996 47.8082 46.99 47.7124 47.0849C47.6166 47.1798 47.6166 47.3399 47.7124 47.4348C48.4846 48.1584 49.197 48.9471 49.8315 49.7833C50.466 50.6195 51.0347 51.5032 51.5555 52.4165C52.0763 53.3298 52.5432 54.2846 52.9802 55.2513C53.4171 56.218 53.8481 57.2262 54.2253 58.2403C54.327 58.5131 54.4168 58.7918 54.4707 59.0824C54.4946 59.2188 54.5066 59.3552 54.5066 59.4916C54.5066 59.5272 54.5066 59.5628 54.5066 59.5925C54.5066 59.6102 54.5066 59.6755 54.5066 59.6636C54.5066 59.6458 54.5006 59.7051 54.4946 59.717C54.4886 59.7466 54.4827 59.7704 54.4707 59.8C54.4707 59.8119 54.4467 59.8653 54.4587 59.8356C54.4467 59.8593 54.4348 59.889 54.4168 59.9127C54.4108 59.9246 54.4048 59.9305 54.3989 59.9424C54.3989 59.9424 54.3749 59.972 54.3929 59.9542C54.4048 59.9424 54.3629 59.9839 54.351 59.9957C54.3809 59.972 54.351 59.9957 54.333 60.0076C54.3689 59.9898 54.333 60.0076 54.315 60.0076C54.339 60.0017 54.345 60.0135 54.315 60.0076C54.315 60.0076 54.2791 60.0076 54.3031 60.0076C54.327 60.0076 54.2851 60.0017 54.2851 60.0017C54.3031 60.0135 54.2731 59.9898 54.2672 59.9898C54.1774 59.9364 54.0876 59.8415 53.9978 59.7585C53.896 59.6636 53.8002 59.5747 53.7045 59.4798C52.9383 58.7385 52.2499 57.92 51.6093 57.0779C50.9688 56.2358 50.3523 55.3225 49.7537 54.421C49.1551 53.5196 48.5624 52.6122 47.9339 51.7285C47.6226 51.2838 47.2994 50.8449 46.9642 50.4179C46.6289 49.9909 46.2638 49.5402 45.9465 49.0776C45.6293 48.615 45.3719 48.1524 45.2222 47.6365C45.0845 47.162 45.0307 46.6461 45.1324 46.1716C45.1863 45.9225 45.2701 45.715 45.3958 45.5015C45.5574 45.2287 45.1324 44.9796 44.9648 45.2524V45.2287Z" fill="black"/>
<path d="M45.0845 44.6949C44.4979 44.5229 43.8873 44.6474 43.3366 44.8728C43.0493 44.9855 42.7739 45.1219 42.4985 45.2583C42.4327 45.2879 42.3668 45.3235 42.301 45.3532C42.2651 45.3709 42.2292 45.3887 42.1992 45.4006C42.1813 45.4125 42.1394 45.4184 42.1214 45.4302C42.0915 45.454 42.1573 45.4302 42.1813 45.448L42.1992 45.4599C42.2112 45.4599 42.2112 45.4955 42.2052 45.4658C42.2052 45.454 42.1992 45.4421 42.1932 45.4302C42.1753 45.365 42.1513 45.3057 42.1274 45.2405C41.9179 44.7186 41.5228 44.3094 41.0559 44.001C40.7207 43.7816 40.3136 43.6511 39.9305 43.5265C39.4935 43.3783 39.0446 43.2597 38.6136 43.1114C38.4879 43.0699 38.3442 43.1588 38.3083 43.2834C38.2724 43.4198 38.3562 43.5443 38.4819 43.5858C38.859 43.7163 39.2481 43.8231 39.6252 43.9476C39.8407 44.0188 40.0502 44.0899 40.2598 44.167C40.3076 44.1848 40.3555 44.2026 40.4034 44.2204C40.4154 44.2204 40.4214 44.2263 40.4333 44.2323C40.3914 44.2145 40.4274 44.2323 40.4333 44.2323C40.4573 44.2441 40.4812 44.2501 40.4992 44.2619C40.577 44.2975 40.6488 44.3331 40.7207 44.3746C41.1217 44.6118 41.4929 44.9914 41.6545 45.4065C41.7024 45.537 41.7263 45.6734 41.8221 45.7861C41.9478 45.9284 42.1513 45.9403 42.319 45.8691C42.6003 45.7564 42.8697 45.6022 43.145 45.4718C43.7077 45.2108 44.3303 44.9795 44.9409 45.1574C45.0726 45.193 45.2102 45.11 45.2461 44.9855C45.2821 44.8609 45.2042 44.7186 45.0726 44.683L45.0845 44.6949Z" fill="black"/>
<path d="M54.4108 60.1797C53.3094 60.3042 52.4773 61.0515 51.5135 61.52C50.5498 61.9885 49.5142 62.1961 48.4726 62.1783C47.868 62.1664 47.2874 62.0775 46.7067 61.9055L46.6409 62.3918C46.6708 62.3918 46.7067 62.3859 46.7367 62.3799C46.8684 62.3621 46.9881 62.2791 46.9881 62.1308C46.9881 62.0122 46.8743 61.8699 46.7367 61.8818C46.7067 61.8818 46.6708 61.8877 46.6409 61.8936C46.5152 61.9055 46.4134 61.9766 46.3955 62.1071C46.3835 62.2317 46.4553 62.3443 46.575 62.3799C47.6346 62.6942 48.76 62.7476 49.8554 62.5638C50.4001 62.4689 50.9269 62.3147 51.4357 62.1012C51.9445 61.8877 52.3935 61.6089 52.8544 61.3302C53.3154 61.0515 53.8601 60.7431 54.4108 60.6838C54.5425 60.666 54.6622 60.583 54.6622 60.4347C54.6622 60.3102 54.5485 60.1738 54.4108 60.1856V60.1797Z" fill="black"/>
<path d="M48.6223 37.9045C48.6582 37.0386 48.8318 36.1906 49.1311 35.3722C49.4005 34.6368 49.9752 33.7946 49.5202 33.0177C49.3227 32.6797 48.9635 32.4662 48.5684 32.5255C48.2033 32.5789 47.9339 32.8754 47.7483 33.1779C47.5867 33.4447 47.479 33.7413 47.3712 34.0319C47.2515 34.3462 47.1437 34.6605 47.048 34.9807C46.8265 35.6805 46.617 36.3863 46.4733 37.1098L46.9642 37.175C46.9642 36.5049 47.042 35.8347 47.054 35.1646C47.054 34.8443 47.048 34.5241 46.9821 34.2098C46.8983 33.7887 46.7546 33.3498 46.4434 33.0355C46.156 32.7449 45.6891 32.5729 45.2821 32.6975C45.1743 32.7271 45.0307 32.7864 44.9708 32.8873C44.9289 32.9525 44.9349 33.0474 44.9229 33.1185C44.9109 33.1897 44.905 33.2668 44.893 33.338C44.863 33.593 44.8271 33.848 44.7972 34.103C44.7014 34.874 44.6056 35.639 44.5458 36.41C44.4859 37.181 44.4021 37.946 44.2944 38.7051C44.2764 38.8356 44.3243 38.972 44.468 39.0076C44.5877 39.0372 44.7553 38.9661 44.7733 38.8356C44.875 38.1239 44.9588 37.4063 45.0187 36.6887C45.0726 36.0186 45.1384 35.3484 45.2222 34.6842C45.294 34.1267 45.3599 33.5633 45.4317 33.0059L45.306 33.2194C45.4257 33.1482 45.5574 33.1304 45.6891 33.1601C45.8388 33.1956 45.9645 33.2609 46.0662 33.3617C46.3356 33.6167 46.4314 34.0022 46.5032 34.364C46.5092 34.3995 46.5152 34.4351 46.5212 34.4707C46.5212 34.4707 46.5332 34.53 46.5212 34.4885C46.5092 34.447 46.5212 34.5063 46.5212 34.5122C46.5272 34.5775 46.5332 34.6486 46.5391 34.7139C46.5451 34.8681 46.5451 35.0163 46.5451 35.1705C46.5451 35.5145 46.5212 35.8585 46.5032 36.2024C46.4853 36.5227 46.4613 36.8489 46.4613 37.1691C46.4613 37.4419 46.8923 37.5131 46.9522 37.2343C47.0719 36.6413 47.2335 36.0601 47.4131 35.4848C47.5089 35.1705 47.6107 34.8562 47.7184 34.5419C47.7663 34.3995 47.8202 34.2572 47.874 34.1149C47.898 34.0556 47.9219 33.9903 47.9459 33.931C47.9578 33.9014 47.9698 33.8717 47.9818 33.8421C47.9878 33.8243 48.0297 33.7353 48.0057 33.7887C48.0656 33.6523 48.1314 33.5159 48.2093 33.3914C48.2512 33.3261 48.2811 33.2787 48.317 33.2372C48.341 33.2075 48.3709 33.1779 48.3948 33.1541C48.4128 33.1423 48.4248 33.1245 48.4427 33.1126L48.4607 33.0948C48.4906 33.077 48.5205 33.0533 48.5565 33.0355C48.5624 33.0355 48.5984 33.0177 48.5624 33.0355C48.5804 33.0355 48.5924 33.0237 48.6103 33.0177C48.6283 33.0118 48.6403 33.0118 48.6582 33.0059C48.73 32.9881 48.6343 33.0059 48.6762 33.0059C48.6941 33.0059 48.7121 33.0059 48.7301 33.0059C48.742 33.0059 48.754 33.0059 48.766 33.0059C48.742 33.0059 48.742 33.0059 48.766 33.0059C48.8019 33.0118 48.8378 33.0237 48.8677 33.0355C48.8318 33.0177 48.9036 33.0592 48.9156 33.0652C48.9276 33.0711 48.9455 33.083 48.9575 33.0948C48.9276 33.0711 48.9695 33.1067 48.9755 33.1126C48.9875 33.1245 48.9994 33.1363 49.0114 33.1482C49.0174 33.1541 49.0593 33.2016 49.0473 33.1897C49.0713 33.2194 49.1191 33.3024 49.1491 33.3617C49.1371 33.332 49.1491 33.3676 49.1491 33.3736C49.1491 33.3914 49.161 33.4032 49.167 33.421C49.179 33.4625 49.191 33.504 49.197 33.5455C49.2149 33.6226 49.197 33.5218 49.197 33.5693C49.197 33.593 49.197 33.6108 49.197 33.6345C49.197 33.676 49.197 33.7235 49.197 33.765C49.191 33.848 49.167 33.937 49.1431 34.02C49.0353 34.4114 48.8318 34.7672 48.6941 35.1468C48.3589 36.0304 48.1733 36.9615 48.1314 37.9045C48.1314 38.035 48.2512 38.1536 48.3829 38.1536C48.5205 38.1536 48.6283 38.0409 48.6343 37.9045H48.6223Z" fill="black"/>
<path d="M48.5505 37.7325C48.6104 37.8037 48.6044 37.9875 48.4906 38.0468C48.4248 38.0824 48.4308 38.0706 48.4547 38.0646C48.4906 38.0528 48.3829 38.0646 48.4308 38.0646C48.4787 38.0646 48.5266 38.0646 48.5744 38.0646C48.6163 38.0646 48.5744 38.0646 48.5625 38.0646C48.5804 38.0646 48.5924 38.0646 48.6104 38.0706C48.6403 38.0706 48.6702 38.0824 48.7001 38.0884C48.766 38.1002 48.8318 38.118 48.8977 38.1299C48.9575 38.1477 49.0174 38.1595 49.0773 38.1832C49.1012 38.1892 49.1192 38.1951 49.1431 38.207C49.1551 38.207 49.1611 38.2129 49.173 38.2188C49.1252 38.201 49.185 38.2188 49.197 38.2307C49.3586 38.3078 49.4843 38.3967 49.604 38.5094C49.8555 38.7407 50.0171 39.0194 50.1009 39.3456C50.1428 39.5117 50.1548 39.6481 50.1368 39.8319C50.1308 39.915 50.1248 39.9565 50.1009 40.0514C50.0769 40.1463 50.047 40.2352 50.0111 40.3242C49.8734 40.6504 49.61 40.9469 49.2868 41.1307C49.0054 41.2849 49.2569 41.7119 49.5382 41.5577C50.3523 41.107 50.8013 40.1285 50.5858 39.227C50.484 38.7941 50.2326 38.3849 49.8854 38.1002C49.5981 37.8571 49.2748 37.7147 48.9097 37.6317C48.754 37.5961 48.5804 37.5605 48.4188 37.5724C48.3051 37.5843 48.1973 37.6198 48.1434 37.7207C48.0716 37.8452 48.1195 37.9757 48.2033 38.0765C48.2871 38.1773 48.4667 38.1654 48.5565 38.0765C48.6582 37.9757 48.6463 37.8274 48.5565 37.7266L48.5505 37.7325Z" fill="black"/>
<path d="M48.2751 39.7369C47.4789 40.4723 47.437 41.7948 48.1434 42.6014C48.2332 42.7022 48.4068 42.6903 48.4966 42.6014C48.5983 42.5006 48.5864 42.3523 48.4966 42.2515C48.4487 42.1981 48.4547 42.21 48.4128 42.1447C48.3828 42.1032 48.3529 42.0558 48.329 42.0083C48.305 41.9609 48.2811 41.9134 48.2571 41.866C48.2751 41.9075 48.2511 41.8423 48.2452 41.8304C48.2332 41.8008 48.2212 41.7711 48.2152 41.7355C48.1494 41.522 48.1314 41.3738 48.1434 41.1425C48.1494 41.0179 48.1554 40.9823 48.1853 40.8637C48.1973 40.8104 48.2152 40.7511 48.2332 40.6977C48.2392 40.674 48.2511 40.6502 48.2571 40.6265C48.2571 40.6265 48.2871 40.5553 48.2691 40.5969C48.3649 40.3774 48.4666 40.241 48.6283 40.0868C48.724 39.9979 48.7181 39.8318 48.6283 39.7369C48.5325 39.642 48.3769 39.648 48.2751 39.7369Z" fill="black"/>
<path d="M46.2936 39.7846C46.2936 39.7846 46.3355 39.8083 46.3535 39.8202C46.3655 39.8261 46.3774 39.838 46.3834 39.8439C46.3774 39.8439 46.3415 39.8083 46.3715 39.838C46.4074 39.8735 46.4493 39.9091 46.4852 39.9506C46.4912 39.9566 46.5451 40.0218 46.5271 39.9981C46.5091 39.9744 46.557 40.0396 46.563 40.0515C46.5989 40.0989 46.6289 40.1523 46.6588 40.2057C46.6887 40.259 46.7187 40.3124 46.7426 40.3717C46.7426 40.3836 46.7546 40.3954 46.7606 40.4073C46.7426 40.3598 46.7606 40.3954 46.7606 40.4073C46.7725 40.4369 46.7845 40.4725 46.7965 40.5022C46.8144 40.5615 46.8324 40.6149 46.8503 40.6742C46.8563 40.6979 46.8623 40.7216 46.8683 40.7513C46.8683 40.775 46.8863 40.858 46.8803 40.7987C46.8863 40.8521 46.8922 40.9055 46.8922 40.9529C46.8922 40.9766 46.8922 40.9944 46.8922 41.0181C46.8922 41.03 46.8922 41.0359 46.8922 41.0478C46.8982 40.9766 46.8922 41.0241 46.8922 41.0419C46.8922 41.0597 46.8803 41.0834 46.8743 41.1012C46.8623 41.1486 46.9042 41.0597 46.8743 41.1071C46.8743 41.113 46.8623 41.1249 46.8623 41.1308C46.8444 41.1664 46.8743 41.1071 46.8803 41.113C46.8803 41.113 46.8683 41.1308 46.8623 41.1308C46.8204 41.1664 46.8743 41.1249 46.8743 41.1249C46.8803 41.1368 46.7845 41.1427 46.8743 41.1308C46.8563 41.1308 46.8324 41.1427 46.8144 41.1486C46.7546 41.1664 46.8503 41.1486 46.8144 41.1486C46.7905 41.1486 46.7606 41.1486 46.7366 41.1486C46.7127 41.1486 46.6887 41.1486 46.6588 41.1486C46.6468 41.1486 46.6289 41.1486 46.6169 41.1486C46.6229 41.1486 46.6768 41.1605 46.6289 41.1486C46.575 41.1368 46.5151 41.1249 46.4613 41.1071C46.4313 41.0952 46.4014 41.0834 46.3655 41.0715C46.3715 41.0715 46.4134 41.0893 46.3655 41.0715C46.3475 41.0656 46.3355 41.0537 46.3176 41.0478C46.2877 41.03 46.2577 41.0122 46.2278 40.9944C46.2158 40.9826 46.1979 40.9766 46.1859 40.9648C46.162 40.947 46.2098 40.9885 46.1739 40.9588C46.144 40.9292 46.1141 40.9055 46.0841 40.8758C46.0722 40.8639 46.0662 40.8521 46.0542 40.8402C46.0482 40.8343 46.0362 40.8224 46.0303 40.8165C46.0422 40.8343 46.0422 40.8343 46.0303 40.8165C46.0063 40.7809 45.9824 40.7513 45.9644 40.7157C45.9584 40.7038 45.9465 40.686 45.9405 40.6742C45.9405 40.6682 45.9045 40.5971 45.9165 40.6267C45.8686 40.5022 45.7489 40.4192 45.6112 40.4547C45.4915 40.4844 45.3897 40.6327 45.4376 40.7572C45.5753 41.0952 45.8148 41.374 46.15 41.5222C46.4014 41.6349 46.7187 41.7002 46.994 41.6112C47.6345 41.3977 47.3831 40.52 47.1736 40.087C47.0419 39.8083 46.8384 39.5177 46.557 39.3694C46.4373 39.3042 46.2877 39.3398 46.2158 39.4584C46.144 39.577 46.1859 39.7312 46.3056 39.7964L46.2936 39.7846Z" fill="black"/>
<path d="M44.2763 38.7111C44.1147 39.2212 43.9531 39.7371 43.7915 40.2472C43.6299 40.7572 43.4563 41.2494 43.4982 41.7654C43.5281 42.1746 43.6897 42.5482 43.9651 42.8625C44.2045 43.1413 44.5278 43.3488 44.851 43.5149C45.2401 43.7165 45.6531 43.8648 46.0662 44.0071C46.1919 44.0486 46.3356 43.9597 46.3715 43.8351C46.4074 43.6987 46.3236 43.5742 46.1979 43.5327C46.0243 43.4734 45.8567 43.4141 45.6891 43.3488C45.6472 43.331 45.6053 43.3192 45.5693 43.3014C45.5514 43.2955 45.5394 43.2895 45.5215 43.2836C45.5215 43.2836 45.4436 43.2539 45.4855 43.2658C45.4077 43.2302 45.3239 43.1946 45.2461 43.159C45.0845 43.082 44.9288 42.9989 44.7792 42.904C44.6295 42.8091 44.5517 42.7498 44.42 42.6194C44.3661 42.566 44.3183 42.5126 44.2704 42.4533C44.3003 42.4948 44.2524 42.4296 44.2524 42.4296C44.2404 42.4177 44.2344 42.4059 44.2285 42.394C44.2045 42.3525 44.1806 42.3169 44.1566 42.2754C44.1387 42.2398 44.1207 42.2042 44.1028 42.1686C44.0848 42.1271 44.0968 42.1509 44.1028 42.1627C44.0968 42.139 44.0848 42.1153 44.0788 42.0975C44.0489 42.0145 44.0309 41.9314 44.013 41.8484C43.9411 41.3858 44.1147 40.9114 44.2524 40.4784C44.426 39.9388 44.5936 39.3932 44.7672 38.8535C44.8091 38.7289 44.7193 38.5866 44.5936 38.551C44.4619 38.5154 44.3302 38.5985 44.2883 38.723L44.2763 38.7111Z" fill="black"/>
<path d="M50.2145 39.3456C50.5976 39.4227 50.885 39.6303 51.0765 39.9505C51.1843 40.1284 51.2322 40.2589 51.286 40.4724C51.31 40.5792 51.322 40.6563 51.3339 40.7393C51.3459 40.8401 51.3459 40.9409 51.3399 41.0477C51.3399 41.0951 51.3339 41.1426 51.3279 41.1841C51.3279 41.1366 51.3279 41.1841 51.3279 41.2019C51.3279 41.2197 51.322 41.2434 51.316 41.2612C51.298 41.3679 51.2681 41.4688 51.2381 41.5755C51.1723 41.7771 51.1124 41.9135 51.0047 42.0974C50.9508 42.1863 50.8969 42.2694 50.8371 42.3524C50.861 42.3168 50.8131 42.3821 50.8131 42.3821C50.7952 42.3998 50.7832 42.4176 50.7652 42.4354C50.7293 42.4769 50.6874 42.5185 50.6455 42.56C50.6096 42.5956 50.5737 42.6252 50.5378 42.6549C50.5198 42.6667 50.5019 42.6845 50.4839 42.6964C50.448 42.7201 50.4061 42.7438 50.3702 42.7675C50.3522 42.7794 50.3283 42.7913 50.3103 42.7972C50.2983 42.8031 50.2864 42.8091 50.2684 42.815C50.2924 42.8031 50.2924 42.8031 50.2684 42.815C49.9272 42.9277 49.604 43.1234 49.3466 43.3725C49.0353 43.669 48.8078 44.0485 48.6282 44.434C48.4367 44.8432 48.287 45.2702 48.1314 45.6972C47.9757 46.1242 47.8201 46.4919 47.6465 46.8774C47.2275 47.8204 46.7725 48.7515 46.2158 49.6233C46.144 49.7359 46.1919 49.8961 46.3056 49.9613C46.4253 50.0325 46.575 49.985 46.6468 49.8723C47.1556 49.0776 47.5807 48.2236 47.9698 47.3696C48.1673 46.9367 48.3529 46.5038 48.5265 46.059C48.6043 45.8574 48.6761 45.6557 48.7479 45.4541C48.7839 45.3473 48.8258 45.2406 48.8677 45.1398C48.9036 45.0449 48.9515 44.9203 48.9814 44.861C49.0712 44.6594 49.167 44.4577 49.2807 44.268C49.3944 44.0782 49.4902 43.9418 49.6459 43.7817C49.8015 43.6215 49.9332 43.5207 50.1367 43.4199C50.1966 43.3902 50.2564 43.3665 50.3163 43.3369C50.3402 43.325 50.3702 43.3132 50.3941 43.3013C50.4061 43.3013 50.3342 43.325 50.3821 43.3072C50.4121 43.2954 50.442 43.2835 50.4719 43.2716C50.873 43.1056 51.1843 42.7735 51.4117 42.4117C51.6392 42.0499 51.7949 41.5992 51.8427 41.1604C51.9385 40.3064 51.5195 39.3278 50.6874 38.9838C50.5797 38.9423 50.4719 38.9068 50.3642 38.883C50.2325 38.8593 50.0948 38.9186 50.0589 39.055C50.023 39.1796 50.1008 39.3338 50.2325 39.3575L50.2145 39.3456Z" fill="black"/>
<path d="M46.0662 43.5978C45.6412 44.0664 45.27 44.5882 44.9767 45.1457C44.9169 45.2584 44.9408 45.4185 45.0665 45.4838C45.1803 45.5431 45.3419 45.5193 45.4077 45.3948C45.6951 44.8611 46.0243 44.3807 46.4194 43.9477C46.5092 43.8529 46.5211 43.6927 46.4194 43.5978C46.3236 43.5089 46.162 43.497 46.0662 43.5978Z" fill="black"/>
<path d="M46.3656 39.2566C46.0782 39.2744 45.7849 39.2982 45.4976 39.316C45.3719 39.3219 45.2462 39.3278 45.1265 39.316C45.1684 39.316 45.0905 39.31 45.0905 39.31C45.0546 39.3041 45.0247 39.2922 44.9888 39.2863C44.9828 39.2863 44.9169 39.2566 44.9529 39.2744C44.9229 39.2626 44.893 39.2448 44.8631 39.227C44.7493 39.1558 44.5877 39.2033 44.5219 39.316C44.45 39.4346 44.4979 39.5828 44.6117 39.654C44.8631 39.8082 45.1564 39.8378 45.4437 39.826C45.749 39.8141 46.0603 39.7845 46.3656 39.7667C46.4973 39.7607 46.623 39.6599 46.617 39.5176C46.617 39.393 46.5092 39.2626 46.3656 39.2685V39.2566Z" fill="black"/>
<path d="M46.1141 41.5222C46.1141 41.5222 46.144 41.54 46.138 41.54C46.138 41.54 46.0961 41.4984 46.132 41.54C46.15 41.5577 46.162 41.5755 46.1799 41.5874C46.15 41.5399 46.2039 41.6111 46.1799 41.5874C46.1859 41.5993 46.1919 41.6052 46.1979 41.617C46.2099 41.6348 46.2218 41.6586 46.2338 41.6823C46.2398 41.6941 46.2458 41.7119 46.2518 41.7238C46.2518 41.7238 46.2697 41.7653 46.2578 41.7357C46.2458 41.706 46.2578 41.7416 46.2578 41.7475C46.2578 41.7594 46.2697 41.7712 46.2697 41.7831C46.2877 41.8365 46.3056 41.8899 46.3236 41.9432C46.4014 42.2042 46.4613 42.471 46.5271 42.732C46.5571 42.8565 46.7067 42.9455 46.8324 42.904C46.9581 42.8625 47.0419 42.732 47.006 42.6015C46.9342 42.3228 46.8743 42.0381 46.7845 41.7594C46.7067 41.5044 46.587 41.2434 46.3535 41.0952C46.2458 41.024 46.0722 41.0714 46.0123 41.1841C45.9465 41.3087 45.9824 41.4451 46.1021 41.5222H46.1141Z" fill="black"/>
<path d="M8.25226 37.7621C8.21634 36.9259 8.06669 36.0897 7.79732 35.295C7.66562 34.9036 7.48604 34.5418 7.33639 34.1563C7.27054 33.9843 7.2047 33.8005 7.18674 33.6166C7.18674 33.5751 7.18674 33.5277 7.18674 33.4862C7.18674 33.4684 7.18674 33.4506 7.18674 33.4328C7.18674 33.3557 7.18674 33.4565 7.18674 33.4091C7.19272 33.3735 7.19871 33.332 7.21068 33.2964C7.21068 33.2786 7.22265 33.2608 7.22864 33.249C7.22864 33.243 7.25857 33.1778 7.24061 33.2134C7.27054 33.1541 7.30047 33.0888 7.34238 33.0355C7.31843 33.0651 7.35435 33.0236 7.36033 33.0177C7.37231 33.0058 7.38428 32.9939 7.39625 32.9821C7.40822 32.9702 7.42618 32.9524 7.44414 32.9406C7.42019 32.9643 7.45012 32.9406 7.4621 32.9287C7.56985 32.8575 7.65365 32.8457 7.76739 32.8753C7.78534 32.8753 7.80929 32.8872 7.82725 32.8931C7.81527 32.8931 7.79133 32.8753 7.83323 32.8931C7.86316 32.9109 7.88711 32.9228 7.91704 32.9406C7.95894 32.9643 7.935 32.9524 7.92901 32.9406C7.94697 32.9524 7.95894 32.9702 7.9769 32.9821C8.00683 33.0117 8.03676 33.0414 8.06669 33.077C8.11458 33.1303 8.13254 33.16 8.17444 33.2312C8.21634 33.3023 8.25824 33.3794 8.30015 33.4565C8.33008 33.5158 8.36001 33.5811 8.38395 33.6404C8.36001 33.5929 8.39592 33.6641 8.40191 33.676C8.41388 33.7115 8.43184 33.7412 8.44381 33.7768C8.49769 33.9072 8.54558 34.0436 8.59346 34.18C8.70121 34.4825 8.80298 34.7909 8.90474 35.0993C9.10827 35.7576 9.29982 36.4159 9.4375 37.0919C9.49137 37.3707 9.92836 37.2995 9.92836 37.0267C9.92836 36.404 9.85652 35.7754 9.84455 35.1527C9.84455 34.9925 9.84455 34.8383 9.84455 34.6782C9.84455 34.613 9.84455 34.5418 9.85652 34.4766C9.85652 34.4469 9.85652 34.4173 9.86251 34.3876C9.86251 34.3698 9.86251 34.358 9.86251 34.3402C9.85054 34.3935 9.86251 34.3164 9.86251 34.3402C9.92836 33.9843 10.0062 33.5989 10.2277 33.3201C10.3414 33.1719 10.4791 33.0829 10.6407 33.0355C10.7425 33.0058 10.7724 32.9999 10.8861 33.0058C10.8981 33.0058 10.952 33.0177 10.9101 33.0058C10.934 33.0058 10.958 33.0177 10.9819 33.0236C10.9999 33.0236 11.0178 33.0355 11.0298 33.0414C10.9999 33.0295 11.0777 33.071 11.0837 33.077L10.958 32.8635C11.0717 33.7708 11.1974 34.6782 11.2872 35.5915C11.3411 36.1609 11.383 36.7361 11.4428 37.3114C11.4907 37.774 11.5506 38.2365 11.6224 38.6932C11.6404 38.8237 11.808 38.8948 11.9277 38.8652C12.0714 38.8237 12.1193 38.6932 12.1013 38.5627C11.9995 37.8688 11.9217 37.169 11.8619 36.4692C11.802 35.7694 11.7242 35.04 11.6344 34.3224C11.6045 34.0674 11.5685 33.8124 11.5386 33.5573C11.5207 33.4387 11.5087 33.3142 11.4907 33.1956C11.4847 33.1363 11.4728 33.077 11.4668 33.0117C11.4548 32.9228 11.4608 32.816 11.4129 32.7389C11.353 32.6381 11.2094 32.5847 11.1016 32.5491C10.9999 32.5195 10.8861 32.5076 10.7784 32.5136C10.5689 32.5254 10.3594 32.5907 10.1798 32.7033C9.80265 32.9406 9.59314 33.3438 9.47342 33.753C9.37764 34.0852 9.33574 34.4291 9.32975 34.7731C9.31778 35.5263 9.41954 36.2735 9.41954 37.0267L9.9104 36.9615C9.78469 36.3328 9.60511 35.7161 9.41954 35.1052C9.23397 34.4944 9.03045 33.8598 8.75509 33.2727C8.61142 32.9643 8.40191 32.6322 8.08465 32.472C7.73147 32.2941 7.31843 32.3653 7.04307 32.644C6.76771 32.9228 6.65996 33.3083 6.70187 33.6819C6.75574 34.1207 6.95927 34.5003 7.12688 34.9036C7.49801 35.8109 7.71351 36.7776 7.75541 37.7562C7.75541 37.8866 7.86316 38.0053 8.00683 38.0053C8.13852 38.0053 8.26423 37.8926 8.25824 37.7562L8.25226 37.7621Z" fill="black"/>
<path d="M8.18046 37.9399C8.25229 37.8569 8.30018 37.7561 8.27025 37.6493C8.24032 37.5485 8.15651 37.4773 8.05475 37.4477C7.91109 37.4121 7.74348 37.4477 7.59981 37.4714C7.26459 37.5307 6.93536 37.6374 6.66 37.8391C5.91174 38.3847 5.54659 39.3573 5.86385 40.241C6.04343 40.7332 6.38464 41.1602 6.84556 41.4152C7.12691 41.5694 7.37832 41.1424 7.09698 40.9882C6.79768 40.8222 6.57619 40.5849 6.41457 40.2765C6.2709 39.9978 6.20506 39.6301 6.25893 39.3395C6.31281 39.0015 6.46246 38.7049 6.68394 38.4677C6.80965 38.3313 6.91141 38.2483 7.06705 38.1593C7.10895 38.1356 7.14487 38.1178 7.18677 38.0941C7.20473 38.0882 7.22269 38.0763 7.23466 38.0704C7.19276 38.0941 7.2167 38.0763 7.23466 38.0704C7.28853 38.0526 7.34241 38.0348 7.39628 38.017C7.53396 37.9755 7.67164 37.9518 7.81531 37.928C7.75545 37.928 7.85122 37.9221 7.81531 37.928C7.83327 37.928 7.85122 37.928 7.8632 37.928C7.88714 37.928 7.91707 37.928 7.94102 37.928C7.89313 37.9162 8.01285 37.928 7.94102 37.928C7.89313 37.9103 7.84524 37.8747 7.81531 37.8332C7.74946 37.7442 7.79136 37.6434 7.83327 37.5959C7.74348 37.6968 7.7315 37.845 7.83327 37.9458C7.92306 38.0348 8.09665 38.0467 8.18644 37.9458L8.18046 37.9399Z" fill="black"/>
<path d="M7.7494 39.9504C7.7913 39.9919 7.8332 40.0334 7.86912 40.0749C7.91701 40.1283 7.91102 40.1164 7.94694 40.1698C8.01278 40.2587 8.06666 40.3596 8.10856 40.4604C8.0906 40.4248 8.12053 40.49 8.12053 40.49C8.12652 40.5138 8.13849 40.5375 8.14448 40.5612C8.16244 40.6146 8.18039 40.6739 8.19237 40.7273C8.20434 40.7747 8.21032 40.8221 8.2223 40.8755C8.21631 40.8281 8.2223 40.923 8.22828 40.9348C8.22828 40.9586 8.22828 40.9823 8.22828 41.0119C8.24025 41.2492 8.22828 41.3915 8.15645 41.605C8.15046 41.6346 8.13849 41.6584 8.12652 41.688C8.12652 41.6939 8.09659 41.771 8.10856 41.7295C8.0906 41.777 8.06666 41.8185 8.04271 41.86C8.01278 41.9134 7.98285 41.9608 7.95292 42.0083C7.94095 42.0261 7.92299 42.0498 7.91102 42.0676C7.93496 42.0379 7.8751 42.1091 7.86912 42.115C7.77933 42.2158 7.76735 42.3641 7.86912 42.4649C7.95891 42.5539 8.1325 42.5657 8.2223 42.4649C8.92865 41.6643 8.88675 40.3358 8.0906 39.6005C7.99483 39.5115 7.83919 39.5056 7.73742 39.6005C7.63566 39.6953 7.64165 39.8555 7.73742 39.9504H7.7494Z" fill="black"/>
<path d="M9.83261 39.215C9.58119 39.3514 9.39563 39.5945 9.26393 39.8436C9.12027 40.1105 9.0185 40.4129 8.99456 40.7154C8.9766 40.9764 9.04843 41.2729 9.29386 41.4093C9.53929 41.5457 9.86852 41.5042 10.108 41.4211C10.509 41.2847 10.7964 40.9941 10.958 40.6027C11.0059 40.4782 10.9041 40.3299 10.7844 40.3003C10.6407 40.2647 10.527 40.3477 10.4791 40.4723C10.4911 40.4426 10.4731 40.49 10.4671 40.496C10.4611 40.5138 10.4552 40.5256 10.4432 40.5434C10.4252 40.5731 10.4073 40.6087 10.3893 40.6383C10.3833 40.6502 10.3714 40.662 10.3594 40.6798C10.3354 40.7095 10.3115 40.7332 10.2816 40.7628C10.2696 40.7747 10.2516 40.7866 10.2397 40.7984C10.2397 40.7984 10.1978 40.834 10.2217 40.8162C10.2516 40.7925 10.1918 40.834 10.1978 40.834C10.1858 40.8399 10.1738 40.8518 10.1618 40.8577C10.1379 40.8755 10.114 40.8874 10.09 40.8993C10.078 40.9052 10.0661 40.9111 10.0541 40.917C10.0361 40.9289 10.0002 40.9408 10.0421 40.923C9.98825 40.9467 9.93437 40.9645 9.87451 40.9763C9.85057 40.9763 9.82662 40.9882 9.80268 40.9941C9.79071 40.9941 9.77873 40.9941 9.76676 40.9941C9.77873 40.9941 9.83261 40.9823 9.76676 40.9941C9.71887 40.9941 9.67098 40.9941 9.61711 40.9941C9.55126 40.9941 9.64704 41.006 9.61112 40.9941C9.58718 40.9941 9.56922 40.9823 9.54528 40.9763C9.49739 40.9645 9.59317 40.9941 9.56324 40.9823C9.55725 40.9823 9.54528 40.9764 9.53929 40.9704C9.51535 40.9526 9.58119 41.0179 9.55725 40.9823C9.55725 40.9823 9.54528 40.9704 9.53929 40.9645C9.51535 40.9467 9.56324 41.0119 9.53929 40.9645C9.53929 40.9586 9.53331 40.9467 9.52732 40.9408C9.50337 40.9052 9.53929 40.9941 9.52732 40.9526C9.52732 40.9348 9.51535 40.9111 9.50936 40.8933C9.50936 40.8815 9.50936 40.8696 9.50337 40.8577C9.50337 40.8577 9.50337 40.917 9.50337 40.8755C9.50337 40.8281 9.50337 40.7747 9.50337 40.7273C9.50337 40.7035 9.50337 40.6739 9.50936 40.6502C9.49739 40.7095 9.50936 40.6146 9.50936 40.6502C9.50936 40.6383 9.50936 40.6264 9.51535 40.6146C9.52732 40.5553 9.53929 40.5019 9.55725 40.4426C9.57521 40.3833 9.59317 40.324 9.61711 40.2706C9.61711 40.2588 9.62908 40.2469 9.63507 40.235C9.61711 40.2825 9.63507 40.2469 9.63507 40.235C9.64704 40.2054 9.665 40.1698 9.67697 40.1401C9.7069 40.0808 9.74282 40.0215 9.77873 39.9622C9.79669 39.9326 9.81465 39.9088 9.83261 39.8792C9.84458 39.8673 9.85057 39.8555 9.86254 39.8377C9.83261 39.8673 9.8805 39.814 9.86254 39.8377C9.90444 39.7902 9.94634 39.7428 9.99423 39.7013C10.0002 39.6953 10.0122 39.6894 10.0182 39.6776C9.97627 39.7072 10.0301 39.6598 10.0182 39.6776C10.0421 39.6598 10.0661 39.6479 10.09 39.636C10.2097 39.5708 10.2456 39.4107 10.1798 39.298C10.108 39.1794 9.95832 39.1438 9.83859 39.209L9.83261 39.215Z" fill="black"/>
<path d="M11.6164 38.6992C11.7661 39.1795 11.9217 39.654 12.0714 40.1344C12.221 40.6147 12.4006 41.0595 12.3886 41.5399C12.3886 41.6289 12.3767 41.7178 12.3527 41.8068C12.3407 41.8483 12.3347 41.8839 12.3168 41.9254C12.3108 41.9491 12.2988 41.9728 12.2928 41.9906C12.2749 42.0381 12.3048 41.9669 12.2809 42.0203C12.245 42.0914 12.209 42.1626 12.1671 42.2279C12.1432 42.2575 12.1252 42.2931 12.1013 42.3227C12.1073 42.3168 12.1252 42.2931 12.1013 42.3227C12.0833 42.3465 12.0654 42.3643 12.0474 42.382C11.9995 42.4354 11.9457 42.4888 11.8858 42.5422C11.808 42.6133 11.7721 42.6371 11.7062 42.6845C11.5625 42.7853 11.4189 42.8684 11.2632 42.9514C10.9101 43.1293 10.5689 43.2538 10.1798 43.3902C10.0541 43.4318 9.97025 43.5563 10.0062 43.6927C10.0421 43.8172 10.1858 43.9062 10.3115 43.8647C11.0178 43.6215 11.784 43.3547 12.3228 42.815C12.5862 42.554 12.7837 42.216 12.8496 41.8483C12.9453 41.3145 12.8017 40.7927 12.64 40.2826C12.4605 39.7133 12.2809 39.138 12.0953 38.5687C12.0534 38.4442 11.9217 38.3611 11.79 38.3967C11.6583 38.4323 11.5745 38.5746 11.6164 38.6992Z" fill="black"/>
<path d="M6.03142 38.7348C5.09161 38.9246 4.57681 39.832 4.54089 40.7275C4.52293 41.1604 4.64864 41.5934 4.82822 41.9788C5.0078 42.3643 5.28915 42.7379 5.64831 42.9811C5.73212 43.0404 5.82191 43.0819 5.91769 43.1234C5.94163 43.1353 5.97156 43.1472 6.00149 43.1531C6.01945 43.1531 6.04938 43.1709 6.00149 43.1531C6.03142 43.159 6.05537 43.1768 6.07931 43.1887C6.23495 43.2598 6.39059 43.3369 6.52827 43.4378C6.5582 43.4615 6.52827 43.4378 6.5582 43.4615C6.58214 43.4793 6.60608 43.4971 6.62404 43.5208C6.66595 43.5564 6.70785 43.5979 6.74376 43.6335C6.77968 43.669 6.8156 43.7106 6.84553 43.7461C6.88743 43.7936 6.90539 43.8173 6.92933 43.847C7.06103 44.0249 7.16877 44.2147 7.27054 44.4104C7.37829 44.6179 7.44413 44.784 7.52794 44.9975C7.61174 45.211 7.68358 45.4186 7.7614 45.6261C7.91703 46.0531 8.09063 46.4742 8.2762 46.8893C8.66529 47.773 9.0903 48.6448 9.58715 49.4691C9.64102 49.5581 9.6949 49.6411 9.74877 49.7301C9.8206 49.8427 9.97026 49.8902 10.09 49.819C10.2097 49.7479 10.2516 49.5937 10.1798 49.481C9.68292 48.7041 9.2639 47.8679 8.88079 47.0317C8.68924 46.6225 8.5336 46.2488 8.36599 45.8278C8.19838 45.4067 8.07866 45.0212 7.91105 44.6239C7.73147 44.2028 7.52794 43.7936 7.23462 43.4378C6.98919 43.1412 6.6839 42.9218 6.33073 42.7617C6.26488 42.732 6.19305 42.7024 6.12121 42.6786C6.05537 42.6549 6.16312 42.7024 6.09727 42.6668C6.07931 42.6549 6.05537 42.649 6.03741 42.6371C5.98952 42.6134 5.94762 42.5838 5.89973 42.5541C5.88177 42.5422 5.86381 42.5304 5.84585 42.5126C5.85184 42.5185 5.87578 42.5363 5.84585 42.5126C5.81592 42.4889 5.77402 42.4533 5.7381 42.4177C5.70219 42.3821 5.67226 42.3465 5.63634 42.3109C5.61838 42.2932 5.60641 42.2754 5.58845 42.2576C5.58845 42.2516 5.52859 42.1805 5.55254 42.2101C5.29514 41.8721 5.15147 41.534 5.07365 41.1189C5.07365 41.1011 5.07365 41.0893 5.06766 41.0715C5.06766 41.0537 5.06766 41.0418 5.06168 41.024C5.06168 41.0477 5.06168 41.0477 5.06168 41.024C5.06168 40.9706 5.04971 40.9173 5.04971 40.8639C5.04971 40.7512 5.04971 40.6385 5.06766 40.5259C5.06168 40.5733 5.07365 40.4903 5.07365 40.4903C5.07365 40.4547 5.08562 40.425 5.09161 40.3895C5.10358 40.342 5.11555 40.2886 5.12753 40.2412C5.14548 40.1819 5.16344 40.1285 5.1814 40.0751C5.1814 40.0751 5.21133 39.998 5.19337 40.0395C5.20534 40.0099 5.2233 39.9802 5.23527 39.9506C5.33704 39.743 5.43282 39.6185 5.6124 39.4702C5.6124 39.4702 5.67824 39.4228 5.63634 39.4465C5.66029 39.4287 5.69022 39.4109 5.71416 39.3931C5.76205 39.3635 5.80994 39.3338 5.86381 39.3101C5.86381 39.3101 5.94163 39.2804 5.89374 39.2923C5.92367 39.2804 5.95959 39.2686 5.98952 39.2567C6.04938 39.2389 6.10924 39.2211 6.1691 39.2093C6.3008 39.1855 6.37861 39.0254 6.3427 38.9068C6.30678 38.7704 6.1691 38.7052 6.03741 38.7348H6.03142Z" fill="black"/>
<path d="M9.95831 43.8053C10.3534 44.2442 10.6886 44.7187 10.97 45.2524C11.0298 45.3651 11.2034 45.4125 11.3112 45.3414C11.4309 45.2643 11.4668 45.1279 11.4009 45.0033C11.1016 44.4458 10.7365 43.924 10.3115 43.4554C10.2217 43.3606 10.0481 43.3606 9.95831 43.4554C9.86253 43.5563 9.86253 43.6986 9.95831 43.8053Z" fill="black"/>
<path d="M10.0061 39.6124C10.3114 39.6362 10.6227 39.6599 10.928 39.6718C11.2153 39.6836 11.5146 39.654 11.7601 39.4998C11.8738 39.4286 11.9157 39.2803 11.8498 39.1617C11.784 39.0431 11.6224 39.0016 11.5086 39.0728C11.4787 39.0906 11.4488 39.1084 11.4188 39.1202C11.4548 39.1024 11.3829 39.1321 11.3829 39.1321C11.353 39.1439 11.3171 39.1499 11.2812 39.1558C11.2752 39.1558 11.2034 39.1677 11.2453 39.1617C11.1195 39.1795 10.9998 39.1736 10.8741 39.1617C10.5868 39.1439 10.2935 39.1202 10.0061 39.1024C9.87444 39.0965 9.74874 39.221 9.75472 39.3515C9.76071 39.4938 9.86247 39.5887 10.0061 39.6006V39.6124Z" fill="black"/>
<path d="M10.0121 40.9586C9.77867 41.1068 9.65895 41.3678 9.58113 41.6228C9.49733 41.9015 9.43148 42.1862 9.35965 42.4649C9.32972 42.5895 9.40155 42.7377 9.53324 42.7674C9.66494 42.797 9.80262 42.7318 9.83853 42.5954C9.90438 42.3345 9.96424 42.0676 10.0421 41.8066C10.054 41.7533 10.072 41.7058 10.0899 41.6524C10.0959 41.6287 10.1079 41.605 10.1199 41.5813C10.0959 41.6347 10.1259 41.5635 10.1378 41.5457C10.1498 41.522 10.1618 41.5042 10.1738 41.4805C10.1797 41.4686 10.1917 41.4567 10.1977 41.4449C10.2157 41.4152 10.1977 41.4449 10.1917 41.4508C10.1977 41.433 10.2216 41.4152 10.2396 41.4034C10.2396 41.4034 10.2516 41.3915 10.2576 41.3856C10.2695 41.3796 10.2635 41.3796 10.2516 41.3856C10.2336 41.3974 10.2396 41.3974 10.2516 41.3856C10.2576 41.3856 10.2635 41.3737 10.2695 41.3737C10.3773 41.3025 10.4312 41.1543 10.3593 41.0357C10.2875 40.9289 10.1378 40.8755 10.0181 40.9467L10.0121 40.9586Z" fill="black"/>
<path d="M22.6128 33.3201C24.0974 28.3622 25.5281 23.3924 26.9946 18.4285C27.5753 16.4714 28.1619 14.5144 28.7067 12.5454C29.2514 10.5765 29.7722 8.70836 30.3828 6.81058C30.9933 4.91281 31.6578 2.90828 32.7113 1.1647L32.2504 1.04016C32.412 5.15003 32.5737 9.26583 32.8131 13.3698C33.0645 17.6991 33.3938 22.0284 33.9145 26.334C34.1839 28.552 34.5012 30.77 34.9202 32.9643L35.1596 32.65C30.9095 32.6025 26.6594 32.8338 22.4393 33.3498C22.128 33.3854 22.122 33.8835 22.4393 33.842C26.6594 33.3261 30.9095 33.0889 35.1596 33.1422C35.3332 33.1422 35.429 32.9821 35.3991 32.8279C34.6329 28.7951 34.1779 24.7031 33.8248 20.611C33.4716 16.5189 33.2142 12.0295 33.0226 7.73575C32.9209 5.49993 32.8311 3.26411 32.7473 1.0283C32.7353 0.785143 32.412 0.690254 32.2863 0.903754C31.3765 2.40418 30.7719 4.08253 30.2152 5.73715C29.5567 7.67644 29 9.65132 28.4493 11.6203C27.2281 16.0089 25.9052 20.3678 24.6242 24.7386C23.7981 27.5497 22.978 30.3667 22.134 33.1719C22.0442 33.4743 22.5231 33.6048 22.6128 33.3023V33.3201Z" fill="black"/>
<path d="M22.2597 32.7745C21.3917 35.633 20.5237 38.4975 19.6557 41.356C19.4941 41.8779 19.3504 42.382 19.8293 42.7853C20.2543 43.147 20.8889 43.3605 21.4037 43.5681C22.559 44.0188 23.7741 44.2798 25.0073 44.4221C27.6052 44.7246 30.2391 44.4992 32.8311 44.2679C33.4117 44.2145 33.9983 44.1374 34.585 44.1671C35.0339 44.1908 35.4949 44.2442 35.9438 44.1789C37.1051 44.007 37.135 42.892 36.9734 41.9491C36.4287 38.7347 35.848 35.5263 35.2853 32.3178C35.2315 32.0035 34.7526 32.1399 34.8065 32.4483C35.2614 35.04 35.7163 37.6316 36.1713 40.2233C36.285 40.8638 36.4047 41.5043 36.5065 42.1448C36.5843 42.6311 36.6981 43.408 36.1234 43.6333C35.7403 43.7816 35.2734 43.7164 34.8723 43.6926C34.3814 43.663 33.9086 43.6808 33.4237 43.7223C31.0472 43.9358 28.6588 44.1671 26.2703 44.0366C25.0851 43.9714 23.9058 43.8112 22.7625 43.4969C22.2118 43.3427 21.667 43.1589 21.1463 42.9276C20.8829 42.809 20.6195 42.6844 20.3681 42.548C20.2424 42.4769 20.1286 42.4116 20.0568 42.293C19.9371 42.1032 20.0209 41.9016 20.0807 41.7C20.9607 38.7643 21.8586 35.8347 22.7445 32.905C22.8343 32.6025 22.3554 32.472 22.2656 32.7745H22.2597Z" fill="black"/>
<path d="M26.0428 37.3649L25.9111 37.1217C25.8453 37.0031 25.7974 36.8963 25.6537 36.8608C25.4921 36.8252 25.3245 36.8608 25.1868 36.9497C24.9115 37.1336 24.7798 37.4835 24.9174 37.7918C25.0372 38.0528 25.3484 38.1892 25.6298 38.1595C25.9411 38.1299 26.2104 37.9283 26.2823 37.6139C26.3601 37.264 26.2045 36.8963 25.9051 36.7006C25.8094 36.6354 25.6837 36.671 25.6058 36.7362C25.3484 36.9616 25.2108 37.3293 25.2886 37.6673C25.3245 37.8334 25.4322 37.9876 25.5759 38.0765C25.7136 38.1595 25.8752 38.1773 26.0309 38.1477C26.3122 38.1062 26.5876 37.8689 26.5696 37.5665C26.5457 37.1869 26.1386 36.9616 25.7914 36.9616C25.4801 36.9616 25.1509 37.1158 25.0192 37.4004C24.8636 37.7266 25.0072 38.0824 25.3006 38.2663C25.6118 38.4679 26.0189 38.3612 26.1745 38.0231C26.3302 37.6851 26.2464 37.3293 26.0129 37.0624C25.7555 36.7718 25.3305 36.6947 24.9833 36.8785C24.6361 37.0624 24.4386 37.4716 24.5164 37.8571C24.5403 37.9638 24.6541 38.035 24.7558 38.0409C24.9534 38.0409 25.1569 38.0469 25.3544 38.0528C25.4861 38.0528 25.6118 37.9401 25.6058 37.8037C25.5999 37.6673 25.4981 37.5606 25.3544 37.5546C25.1569 37.5546 24.9534 37.5487 24.7558 37.5428L24.9953 37.7266C24.9953 37.7148 24.9953 37.697 24.9953 37.6851C24.9953 37.6614 24.9953 37.6377 24.9953 37.6139C24.9953 37.5843 24.9953 37.6258 24.9953 37.6317C24.9953 37.6199 24.9953 37.608 25.0013 37.5902C25.0072 37.5665 25.0192 37.5368 25.0252 37.5131C25.0072 37.5665 25.0372 37.4894 25.0432 37.4775C25.0551 37.4538 25.0671 37.436 25.0851 37.4182C25.0611 37.4419 25.103 37.3886 25.0851 37.4182C25.091 37.4123 25.097 37.4004 25.103 37.3945C25.127 37.3708 25.1449 37.353 25.1689 37.3293C25.1868 37.3115 25.1629 37.3293 25.1569 37.3352C25.1689 37.3293 25.1808 37.3174 25.1928 37.3115C25.2108 37.2996 25.2347 37.2878 25.2587 37.2759C25.2227 37.2818 25.2886 37.2581 25.2587 37.2759C25.2706 37.2759 25.2826 37.27 25.3006 37.264C25.3125 37.264 25.3185 37.264 25.3305 37.2581C25.3006 37.2581 25.3903 37.2403 25.3305 37.2581C25.3544 37.2581 25.3784 37.2581 25.4023 37.2581C25.4502 37.2581 25.4023 37.2581 25.3963 37.2581C25.4083 37.2581 25.4203 37.2581 25.4382 37.264C25.4622 37.264 25.4801 37.2818 25.5041 37.2818C25.4742 37.2581 25.534 37.2878 25.5041 37.2818C25.5161 37.2937 25.534 37.2996 25.546 37.3055C25.552 37.3055 25.6118 37.3471 25.5879 37.3293C25.5639 37.3115 25.6118 37.353 25.6238 37.3589C25.6418 37.3767 25.6537 37.3945 25.6717 37.4123C25.6537 37.3826 25.6956 37.436 25.6717 37.4123C25.6777 37.4242 25.6896 37.4419 25.7016 37.4538C25.7136 37.4716 25.7196 37.4953 25.7375 37.5131C25.7256 37.4775 25.7555 37.5368 25.7375 37.5131C25.7375 37.525 25.7435 37.5309 25.7495 37.5428C25.7555 37.5665 25.7615 37.5961 25.7675 37.6199C25.7615 37.5843 25.7675 37.6377 25.7675 37.6436C25.7675 37.6673 25.7675 37.691 25.7675 37.7148C25.7675 37.7444 25.7794 37.6792 25.7675 37.7088C25.7675 37.7207 25.7675 37.7325 25.7615 37.7503C25.7615 37.7622 25.7375 37.8215 25.7495 37.7859C25.7435 37.7978 25.7316 37.8156 25.7256 37.8274C25.7196 37.8393 25.7076 37.8571 25.7256 37.8334C25.7136 37.8452 25.7016 37.8571 25.6896 37.8689C25.6956 37.863 25.7256 37.8452 25.6896 37.8689C25.6837 37.8689 25.6717 37.8749 25.6657 37.8808C25.6477 37.8986 25.7016 37.8808 25.6777 37.8808C25.6777 37.8808 25.6597 37.8808 25.6537 37.8867C25.6058 37.8986 25.6717 37.8808 25.6717 37.8867C25.6717 37.8867 25.6418 37.8867 25.6358 37.8867C25.5939 37.8867 25.6657 37.8986 25.6418 37.8867C25.6238 37.8808 25.5999 37.8749 25.5819 37.8689C25.6298 37.8808 25.5939 37.8689 25.5699 37.863C25.546 37.8571 25.5161 37.8274 25.552 37.8571C25.534 37.8393 25.5101 37.8215 25.4921 37.8037C25.4502 37.7622 25.5041 37.8274 25.4801 37.7918C25.4682 37.7741 25.4562 37.7503 25.4442 37.7325C25.4682 37.7741 25.4502 37.7444 25.4442 37.7148C25.4442 37.7148 25.4382 37.691 25.4442 37.691C25.4322 37.7029 25.4502 37.7385 25.4442 37.691C25.4442 37.6792 25.4382 37.6495 25.4442 37.6792C25.4442 37.7088 25.4442 37.6792 25.4442 37.6673C25.4502 37.6436 25.4682 37.6021 25.4442 37.6495C25.4562 37.6317 25.4622 37.6139 25.4742 37.5961C25.4742 37.5902 25.5041 37.5606 25.4801 37.5843C25.4562 37.6139 25.4981 37.5724 25.4981 37.5665C25.5041 37.5606 25.558 37.519 25.528 37.5368C25.5041 37.5546 25.552 37.519 25.5639 37.5131C25.5759 37.5072 25.6477 37.4775 25.5879 37.4953C25.6118 37.4894 25.6358 37.4775 25.6597 37.4716C25.6837 37.4716 25.7016 37.4657 25.7256 37.4597C25.7555 37.4479 25.6837 37.4597 25.7196 37.4597C25.7316 37.4597 25.7375 37.4597 25.7495 37.4597C25.7735 37.4597 25.8034 37.4597 25.8273 37.4597C25.8393 37.4597 25.8513 37.4597 25.8632 37.4597C25.8453 37.4597 25.8213 37.4538 25.8513 37.4597C25.8752 37.4657 25.8992 37.4716 25.9231 37.4775C25.8932 37.4657 25.9291 37.4775 25.9411 37.4835C25.965 37.4953 25.989 37.5072 26.0129 37.525C25.977 37.5013 26.0368 37.5487 26.0488 37.5606C26.0129 37.525 26.0728 37.6139 26.0548 37.5665L26.0608 37.5961C26.0608 37.5961 26.0608 37.5428 26.0608 37.5665C26.0488 37.6317 26.0728 37.5665 26.0608 37.5665C26.0608 37.5665 26.0548 37.5902 26.0548 37.5961C26.0428 37.6377 26.0787 37.5665 26.0548 37.5843C26.0548 37.5843 26.0488 37.5961 26.0428 37.6021C26.0189 37.6436 26.0548 37.5843 26.0548 37.5843C26.0548 37.5843 26.0189 37.6258 26.0129 37.6258C26.0129 37.6258 26.0548 37.5961 26.0309 37.608C26.0189 37.608 26.0129 37.6199 26.0069 37.6258C26.0009 37.6258 25.9949 37.6317 25.989 37.6377C25.983 37.6377 25.977 37.6436 25.965 37.6495C25.953 37.6495 25.953 37.6495 25.971 37.6495C25.971 37.6495 25.9949 37.6436 25.965 37.6495C25.953 37.6495 25.9411 37.6554 25.9231 37.6614C25.9171 37.6614 25.9051 37.6614 25.8992 37.6614C25.8752 37.6732 25.953 37.6614 25.9111 37.6614C25.8992 37.6614 25.8872 37.6614 25.8812 37.6614C25.8632 37.6614 25.8333 37.6495 25.8692 37.6614C25.8872 37.6614 25.8932 37.6732 25.8692 37.6614C25.8573 37.6614 25.8453 37.6554 25.8333 37.6495C25.7794 37.6377 25.8752 37.6673 25.8154 37.6377C25.7914 37.6258 25.8154 37.6258 25.8154 37.6377C25.8333 37.6495 25.8333 37.6495 25.8154 37.6377L25.8034 37.6258C25.7974 37.6139 25.7854 37.5961 25.7794 37.5843C25.7794 37.5783 25.7735 37.5665 25.7675 37.5606C25.7675 37.5665 25.7914 37.608 25.7675 37.5606C25.7675 37.5487 25.7615 37.5368 25.7555 37.525C25.7555 37.4716 25.7555 37.5072 25.7555 37.525C25.7555 37.5013 25.7555 37.4716 25.7555 37.4419C25.7555 37.4301 25.7555 37.4123 25.7555 37.4004C25.7555 37.4242 25.7555 37.4301 25.7555 37.4004C25.7615 37.3708 25.7735 37.3411 25.7794 37.3115C25.7794 37.3055 25.7974 37.264 25.7854 37.2937C25.7735 37.3233 25.7974 37.264 25.7974 37.264C25.8094 37.2403 25.8273 37.2166 25.8393 37.1929C25.8453 37.181 25.8573 37.1691 25.8632 37.1573C25.8513 37.1751 25.8513 37.1751 25.8632 37.1573C25.8872 37.1336 25.9111 37.1098 25.9411 37.0861L25.6418 37.1217C25.6418 37.1217 25.6837 37.1573 25.6537 37.1276C25.6657 37.1395 25.6837 37.1513 25.6956 37.1691C25.7076 37.1869 25.7316 37.2166 25.7076 37.181C25.7196 37.1988 25.7316 37.2166 25.7435 37.2403C25.7435 37.2462 25.7735 37.2996 25.7615 37.27C25.7495 37.2403 25.7675 37.2937 25.7735 37.3055C25.7794 37.3293 25.7854 37.3471 25.7914 37.3708C25.7854 37.3352 25.7914 37.3767 25.7914 37.3886C25.7914 37.4064 25.7914 37.4242 25.7914 37.4479C25.7914 37.4597 25.7914 37.4657 25.7914 37.4775C25.7914 37.4775 25.8034 37.436 25.7914 37.4597C25.7914 37.4775 25.7854 37.4953 25.7794 37.5131C25.7794 37.525 25.7735 37.5309 25.7735 37.5428C25.7735 37.525 25.7914 37.5131 25.7735 37.5368C25.7615 37.5546 25.7555 37.5724 25.7435 37.5843C25.7196 37.6199 25.7675 37.5665 25.7375 37.5902C25.7256 37.6021 25.7136 37.6139 25.7016 37.6258C25.7375 37.5961 25.7076 37.6199 25.6896 37.6258C25.6777 37.6258 25.6298 37.6495 25.6657 37.6377C25.7016 37.6317 25.6477 37.6377 25.6358 37.6436C25.6178 37.6436 25.5999 37.6495 25.5819 37.6554C25.552 37.6614 25.6058 37.6554 25.6058 37.6554C25.6058 37.6554 25.5759 37.6554 25.5699 37.6554C25.552 37.6554 25.528 37.6554 25.5101 37.6554C25.4801 37.6554 25.534 37.6554 25.534 37.6554H25.5101C25.4921 37.6554 25.4742 37.6495 25.4622 37.6436C25.4083 37.6258 25.4861 37.6614 25.4502 37.6436C25.4382 37.6377 25.4203 37.6258 25.4083 37.6199C25.3724 37.5961 25.4322 37.6495 25.4083 37.6199C25.3963 37.608 25.3844 37.5961 25.3724 37.5843C25.4023 37.6199 25.3844 37.5843 25.3724 37.5665C25.3604 37.5487 25.3724 37.5783 25.3784 37.5843C25.3784 37.5724 25.3784 37.5665 25.3724 37.5546C25.3664 37.5428 25.3724 37.5368 25.3664 37.525C25.3664 37.5309 25.3664 37.5665 25.3664 37.5428C25.3664 37.5368 25.3664 37.4775 25.3664 37.5131C25.3664 37.5487 25.3724 37.4835 25.3784 37.4716C25.3664 37.5072 25.3784 37.4657 25.3844 37.4597C25.3844 37.4538 25.3963 37.4419 25.3963 37.436C25.3963 37.4301 25.4322 37.3886 25.4083 37.4123C25.3903 37.436 25.4322 37.3886 25.4382 37.3826C25.4442 37.3767 25.4502 37.3708 25.4622 37.3649C25.4322 37.3826 25.4801 37.3471 25.4622 37.3649C25.4801 37.3589 25.4981 37.3411 25.5161 37.3352C25.4742 37.3589 25.5161 37.3411 25.534 37.3352C25.558 37.3233 25.5161 37.3352 25.5101 37.3352C25.522 37.3352 25.534 37.3352 25.546 37.3352C25.558 37.3352 25.5699 37.3471 25.546 37.3352C25.5101 37.3233 25.5639 37.3411 25.5699 37.3471L25.4203 37.2344L25.6238 37.6139C25.6837 37.7266 25.8513 37.7741 25.965 37.7029C26.0787 37.6258 26.1206 37.4894 26.0548 37.3649H26.0428Z" fill="black"/>
<path d="M31.8972 36.3922C31.5859 36.8785 31.7954 37.6614 32.406 37.78C32.5676 37.8096 32.7532 37.8037 32.8729 37.6732C32.9867 37.5546 33.0046 37.3826 32.9567 37.2344C32.9029 37.0743 32.7951 36.9556 32.6874 36.8252C32.5916 36.7066 32.5078 36.582 32.3402 36.5761C32.1426 36.5702 32.0229 36.7837 31.987 36.9497C31.9511 37.1158 31.987 37.2996 32.0768 37.4419C32.2683 37.7385 32.6515 37.869 32.9747 37.691C33.256 37.5309 33.4356 37.1454 33.3039 36.8311C33.1722 36.5168 32.855 36.3745 32.5497 36.3448C32.2444 36.3151 31.9391 36.4693 31.7715 36.7303C31.6039 36.9912 31.5919 37.3293 31.7176 37.608C31.7476 37.6792 31.7954 37.7325 31.8433 37.7919C31.9271 37.8927 32.1127 37.8808 32.1965 37.7919C32.2923 37.6851 32.2863 37.5487 32.1965 37.4419C32.1666 37.4004 32.2264 37.4894 32.1965 37.4419C32.1965 37.436 32.1845 37.4242 32.1785 37.4182C32.1666 37.4004 32.1606 37.3708 32.1486 37.3589C32.1786 37.3945 32.1666 37.4004 32.1546 37.3708C32.1546 37.3589 32.1486 37.3471 32.1426 37.3352C32.1366 37.3115 32.1307 37.2878 32.1247 37.2581C32.1127 37.2285 32.1247 37.3233 32.1247 37.2759C32.1247 37.264 32.1247 37.2522 32.1247 37.2403C32.1247 37.2166 32.1247 37.1988 32.1247 37.1751C32.1247 37.1632 32.1247 37.1454 32.1247 37.1336C32.1247 37.1098 32.1366 37.1158 32.1247 37.1573C32.1366 37.1336 32.1366 37.1039 32.1426 37.0743C32.1486 37.0505 32.1606 37.0327 32.1666 37.009C32.1666 37.009 32.1426 37.0624 32.1606 37.0268C32.1606 37.015 32.1726 37.009 32.1785 36.9972C32.1905 36.9794 32.2025 36.9556 32.2145 36.9379C32.2324 36.9141 32.2384 36.926 32.2025 36.9497C32.2085 36.9497 32.2205 36.926 32.2324 36.9201C32.2444 36.9023 32.2743 36.8904 32.2863 36.8726C32.2624 36.9082 32.2504 36.8963 32.2743 36.8845C32.2863 36.8785 32.2923 36.8726 32.3043 36.8667C32.3102 36.8667 32.3222 36.8548 32.3282 36.8548C32.3521 36.843 32.3761 36.843 32.3222 36.8548C32.3462 36.8548 32.3641 36.837 32.3881 36.8311C32.412 36.8252 32.436 36.8252 32.4539 36.8192C32.3881 36.837 32.418 36.8192 32.4419 36.8192C32.4539 36.8192 32.4599 36.8192 32.4719 36.8192C32.4958 36.8192 32.5198 36.8192 32.5437 36.8192C32.5497 36.8192 32.5976 36.8192 32.5497 36.8192C32.5018 36.8192 32.5617 36.8192 32.5736 36.8192C32.5916 36.8192 32.6155 36.8311 32.6335 36.837C32.6455 36.837 32.6574 36.843 32.6694 36.8489C32.7173 36.8667 32.6275 36.8252 32.6574 36.843C32.6754 36.8548 32.6934 36.8608 32.7113 36.8726C32.7233 36.8785 32.7353 36.8845 32.7472 36.8963C32.7652 36.9082 32.7831 36.9379 32.7472 36.8963C32.7592 36.9141 32.7831 36.926 32.8011 36.9438C32.8071 36.9497 32.8131 36.9556 32.8191 36.9616C32.837 36.9794 32.843 37.009 32.8191 36.9556C32.825 36.9734 32.843 36.9912 32.855 37.009C32.8789 37.0446 32.843 37.0149 32.855 36.9972C32.855 36.9972 32.861 37.0327 32.8669 37.0387V37.0031C32.8669 37.0031 32.8669 37.0209 32.8669 37.0327C32.8669 37.0446 32.8669 37.0505 32.8669 37.0624C32.8669 37.0743 32.861 37.1158 32.8669 37.0743C32.8729 37.0327 32.8669 37.0743 32.8669 37.0802C32.8669 37.1039 32.855 37.1276 32.849 37.1454C32.837 37.1869 32.849 37.1276 32.855 37.1276C32.843 37.1336 32.837 37.1632 32.831 37.1691C32.825 37.1751 32.8191 37.1869 32.8131 37.1988C32.7891 37.2344 32.8191 37.1869 32.825 37.181C32.8071 37.1869 32.7891 37.2166 32.7772 37.2344L32.7652 37.2462C32.7652 37.2462 32.7532 37.2581 32.7831 37.2344C32.7831 37.2344 32.7652 37.2462 32.7592 37.2522C32.7472 37.2581 32.7412 37.264 32.7293 37.27C32.6814 37.2996 32.7772 37.2581 32.7293 37.27C32.7053 37.27 32.6814 37.2759 32.6634 37.2878C32.6694 37.2878 32.7233 37.2878 32.6874 37.2878C32.6754 37.2878 32.6634 37.2878 32.6514 37.2878C32.6215 37.2878 32.7173 37.2996 32.6694 37.2878C32.6574 37.2878 32.6514 37.2878 32.6395 37.2818C32.6275 37.2818 32.6095 37.27 32.5976 37.27C32.6335 37.2878 32.6395 37.2878 32.6215 37.2818C32.6155 37.2818 32.6095 37.2759 32.6036 37.27C32.5916 37.27 32.5856 37.2581 32.5736 37.2522C32.5437 37.2344 32.5736 37.2344 32.5856 37.2581C32.5856 37.2462 32.5437 37.2166 32.5317 37.2107C32.5138 37.1929 32.5257 37.1869 32.5437 37.2284C32.5437 37.2166 32.5257 37.2047 32.5198 37.1929C32.5198 37.1869 32.5078 37.1751 32.5078 37.1691C32.4838 37.1276 32.5078 37.1514 32.5078 37.1751C32.5078 37.1573 32.4898 37.1276 32.4838 37.1098C32.4719 37.0624 32.4838 37.1691 32.4838 37.1217C32.4838 37.1098 32.4838 37.1039 32.4838 37.092C32.4838 37.0802 32.4838 37.0683 32.4838 37.0565C32.4838 37.0268 32.4659 37.1217 32.4838 37.0743C32.4838 37.0624 32.4838 37.0565 32.4898 37.0446C32.4898 37.0327 32.4958 37.0209 32.5018 37.015C32.5078 36.9912 32.5078 36.9912 32.5018 37.015C32.5018 37.0505 32.5018 37.015 32.5018 37.009C32.5018 36.9972 32.5317 36.9675 32.5018 37.009L32.4898 37.0268C32.4898 37.0268 32.4958 37.0209 32.4539 37.0505C32.4 37.0802 32.3462 37.0861 32.2923 37.0743C32.2624 37.0683 32.2324 37.0505 32.2145 37.0268C32.2145 37.0268 32.2264 37.0327 32.2264 37.0387C32.2444 37.0565 32.2564 37.0743 32.2743 37.092C32.3043 37.1276 32.3342 37.1691 32.3641 37.2047C32.3821 37.2285 32.406 37.2522 32.424 37.2759C32.436 37.3174 32.4419 37.2937 32.424 37.2759C32.424 37.2878 32.4419 37.3055 32.4539 37.3174C32.4659 37.3411 32.4779 37.3589 32.4898 37.3826C32.5138 37.4242 32.4779 37.3352 32.4838 37.3649C32.4838 37.3767 32.4898 37.3826 32.4958 37.3945C32.4958 37.4004 32.4958 37.4123 32.5018 37.4182C32.5138 37.4597 32.5018 37.353 32.5018 37.3945V37.4123C32.5078 37.4538 32.5138 37.3471 32.5018 37.3826C32.4898 37.436 32.5377 37.3293 32.5018 37.3708C32.5497 37.2996 32.5377 37.3352 32.5198 37.3471C32.5198 37.3471 32.5796 37.3055 32.5497 37.3233C32.5198 37.3411 32.6095 37.3055 32.5796 37.3115C32.5736 37.3115 32.5617 37.3115 32.5557 37.3174C32.5138 37.3293 32.6095 37.3174 32.5796 37.3174C32.5676 37.3174 32.5497 37.3174 32.5377 37.3174C32.5078 37.3174 32.5377 37.3055 32.5617 37.3174C32.5497 37.3115 32.5257 37.3115 32.5138 37.3055C32.4958 37.3055 32.4779 37.2937 32.4659 37.2937C32.436 37.2818 32.43 37.27 32.4779 37.2937C32.4599 37.2818 32.43 37.27 32.412 37.2581C32.406 37.2581 32.4 37.2462 32.3881 37.2462C32.4479 37.2759 32.418 37.27 32.4 37.2522C32.3821 37.2344 32.3641 37.2166 32.3462 37.1988C32.3162 37.1632 32.3761 37.2403 32.3581 37.2107C32.3521 37.1988 32.3402 37.1869 32.3342 37.1751C32.3222 37.1573 32.3102 37.1336 32.2983 37.1098C32.2863 37.0861 32.2983 37.0743 32.3043 37.1276C32.3043 37.1158 32.2923 37.1039 32.2923 37.092C32.2863 37.0683 32.2743 37.0387 32.2743 37.015C32.2743 37.009 32.2743 36.9972 32.2743 36.9912C32.2624 36.9438 32.2743 37.0565 32.2743 36.9912C32.2743 36.9379 32.2743 36.8904 32.2743 36.837C32.2743 36.7955 32.2743 36.8608 32.2743 36.8608C32.2743 36.8489 32.2743 36.8311 32.2803 36.8133C32.2803 36.7896 32.2923 36.7659 32.2983 36.7421C32.2983 36.7303 32.3043 36.7184 32.3102 36.7125C32.2863 36.7599 32.3282 36.6591 32.3102 36.7125C32.3222 36.6888 32.3342 36.665 32.3521 36.6413C32.424 36.5346 32.3761 36.3626 32.2624 36.3033C32.1426 36.238 31.999 36.2736 31.9212 36.3922H31.8972Z" fill="black"/>
<path d="M23.81 33.3735C23.2592 33.4743 23.0018 34.0792 23.0198 34.5774C23.0258 34.8087 23.0856 35.0577 23.2473 35.2297C23.349 35.3365 23.4987 35.4017 23.6244 35.467C23.81 35.5678 24.0075 35.6567 24.211 35.722C24.6241 35.8465 25.061 35.7694 25.4681 35.6567C25.8752 35.5441 26.2702 35.3721 26.6294 35.1408C26.9347 34.9451 27.2998 34.6723 27.3238 34.2749C27.3537 33.8242 26.9347 33.6344 26.5755 33.5039C25.6357 33.16 24.6061 33.1066 23.6304 33.3142C23.3191 33.3794 23.4508 33.8538 23.7621 33.7886C24.4205 33.6463 25.1149 33.6403 25.7734 33.7886C26.0847 33.8538 26.4259 33.9369 26.7012 34.0911C27.0125 34.2631 26.6294 34.5537 26.4498 34.6663C25.947 35.0044 25.2765 35.3009 24.654 35.3009C24.3307 35.3009 24.0374 35.1408 23.7621 34.9866C23.5945 34.8917 23.5585 34.8858 23.5226 34.6901C23.4688 34.3876 23.5765 33.9132 23.9417 33.8479C24.2589 33.7886 24.1212 33.3142 23.81 33.3735Z" fill="black"/>
<path d="M31.3046 32.7509C30.6102 32.8932 29.7961 33.166 29.7183 33.9844C29.6823 34.3165 29.832 34.6368 30.1253 34.8147C30.4546 35.0104 30.8975 35.0401 31.2687 35.0875C31.7116 35.1409 32.1606 35.1705 32.6035 35.1527C32.9148 35.1409 33.2441 35.0816 33.5194 34.9274C33.7948 34.7732 33.9803 34.5241 34.0163 34.2157C34.0522 33.9073 33.8965 33.6345 33.6691 33.4447C33.5254 33.3261 33.3698 33.2253 33.2081 33.1245C33.0286 33.0118 32.8609 32.8932 32.6634 32.822C32.2504 32.6619 31.8014 32.6975 31.3704 32.7509C31.2387 32.7687 31.125 32.8517 31.119 32.9999C31.119 33.1186 31.2327 33.2609 31.3704 33.249C31.6578 33.2134 31.963 33.1779 32.2504 33.2253C32.5377 33.2727 32.7412 33.4269 32.9807 33.5693C33.1543 33.682 33.3937 33.8006 33.4895 33.9903C33.5733 34.1505 33.5015 34.3402 33.3578 34.447C32.9567 34.7554 32.2863 34.6783 31.8254 34.6486C31.4842 34.6308 31.1429 34.5893 30.8077 34.5241C30.5862 34.4826 30.281 34.4411 30.2211 34.1801C30.1612 33.9192 30.3229 33.682 30.5204 33.5396C30.7898 33.3498 31.131 33.2905 31.4423 33.2253C31.7535 33.1601 31.6218 32.6856 31.3106 32.7509H31.3046Z" fill="black"/>
<path d="M21.5533 36.4633C21.5772 35.7576 20.9726 35.1704 20.2902 35.0815C19.518 34.9747 18.7997 35.4492 18.3627 36.0482C18.1173 36.3862 17.9497 36.7836 17.818 37.1809C17.6863 37.5782 17.5486 38.0112 17.5306 38.4382C17.5007 39.1736 18.0275 39.737 18.7338 39.8852C19.105 39.9683 19.4522 39.8734 19.8293 39.8852C20.1465 39.8971 20.362 39.82 20.6254 39.6421C20.8888 39.4642 20.6374 39.0372 20.374 39.2151C20.2184 39.3218 20.0987 39.4049 19.9191 39.3989C19.6856 39.3871 19.4701 39.4226 19.2426 39.4345C18.7697 39.4523 18.1891 39.2447 18.0574 38.7466C17.9736 38.4145 18.0754 38.0586 18.1652 37.7384C18.2549 37.4181 18.3507 37.1038 18.4884 36.8073C18.7458 36.2557 19.1708 35.7338 19.7994 35.5856C20.374 35.4492 21.0744 35.8228 21.0504 36.4574C21.0385 36.7717 21.5353 36.7717 21.5473 36.4574L21.5533 36.4633Z" fill="black"/>
<path d="M35.7702 35.4195C36.0695 35.0696 36.5543 35.0518 36.9614 35.2237C37.4522 35.4313 37.7276 35.9117 37.8713 36.398C38.0209 36.908 38.0987 37.4952 38.0628 38.0289C38.0449 38.2543 37.985 38.5211 37.8054 38.6753C37.7037 38.7643 37.542 38.8355 37.4044 38.8829C37.2008 38.9541 36.9913 39.0074 36.7758 39.0193C36.692 39.0193 36.6082 39.0193 36.5364 39.0015C36.5005 38.9897 36.4945 38.9896 36.4885 38.9837C36.4705 38.9778 36.4945 39.0074 36.4885 38.9778C36.4047 38.6694 35.9258 38.7999 36.0096 39.1083C36.1413 39.6064 36.8237 39.5353 37.2128 39.4522C37.7216 39.3396 38.2244 39.1201 38.434 38.616C38.5716 38.2839 38.5836 37.9162 38.5597 37.5663C38.5357 37.2164 38.4938 36.8487 38.416 36.4988C38.2663 35.8465 37.9431 35.1763 37.3205 34.8501C36.698 34.5239 35.8899 34.5239 35.417 35.0755C35.2134 35.3186 35.5606 35.6685 35.7702 35.4254V35.4195Z" fill="black"/>
<path d="M24.8037 43.9298C23.0378 48.6743 21.9184 53.6203 20.8469 58.5546C20.5776 59.7881 20.2723 61.0217 20.1885 62.2849C20.1047 63.5481 20.3142 64.669 20.7811 65.7958C21.248 66.9226 21.8586 68.0257 22.4333 69.1169C23.0438 70.2793 23.6664 71.4416 24.2949 72.5981C24.5942 73.1556 24.8995 73.713 25.2048 74.2646C25.4802 74.7628 25.7316 75.2787 26.0728 75.7354C26.5816 76.4292 27.3658 77.0519 28.2697 76.702C28.7486 76.5182 29.1736 76.1564 29.5806 75.854C30.0296 75.5278 30.4666 75.1838 30.8976 74.828C31.7895 74.0926 32.6335 73.3038 33.4237 72.4617C34.9322 70.8605 36.6023 69.0279 36.9136 66.7802C37.0812 65.5704 37.0452 64.3191 37.0213 63.1033C36.9974 61.8875 36.9375 60.6421 36.8417 59.4145C36.4466 54.4803 35.441 49.5935 33.8427 44.9084C33.6392 44.3153 33.4297 43.7223 33.2082 43.1351C33.1004 42.8386 32.6156 42.9691 32.7293 43.2656C34.3994 47.7076 35.5427 52.3453 36.1114 57.0601C36.3928 59.4145 36.5364 61.7867 36.5364 64.153C36.5364 65.3391 36.5723 66.5845 36.2012 67.7291C35.854 68.7966 35.1237 69.7159 34.4233 70.5758C33.0645 72.2482 31.5081 73.7664 29.7961 75.083C29.3472 75.427 28.8862 75.7828 28.4014 76.0853C27.9165 76.3877 27.4735 76.3818 27.0306 76.0378C26.6415 75.7354 26.3661 75.3143 26.1267 74.8932C25.8274 74.3713 25.54 73.8376 25.2527 73.3098C24.0674 71.1451 22.8882 68.9745 21.7808 66.7743C21.248 65.7187 20.7811 64.6156 20.6913 63.4235C20.6015 62.2315 20.8469 60.9386 21.1043 59.7288C22.116 55.02 23.1396 50.2992 24.69 45.7327C24.8816 45.1752 25.0791 44.6178 25.2826 44.0662C25.3964 43.7697 24.9115 43.6392 24.8037 43.9358V43.9298Z" fill="black"/>
<path d="M29.6405 39.1321C26.7313 40.2767 23.8161 41.7653 21.4995 43.8884C21.3558 44.0189 21.4396 44.2443 21.6072 44.2977C22.3555 44.5349 23.2294 44.3807 23.9777 44.2561C24.7978 44.1197 25.6179 43.924 26.402 43.6631C27.3239 43.3606 28.0781 42.7557 28.7187 42.05C29.1018 41.623 29.4789 41.1663 29.8081 40.6978C30.1134 40.2589 30.2271 39.7074 29.9159 39.2448C29.7423 38.9839 29.3113 39.227 29.4849 39.4939C29.85 40.0395 29.2694 40.6029 28.9461 41.0181C28.6229 41.4332 28.2637 41.8483 27.8686 42.216C27.3059 42.732 26.7014 43.07 25.983 43.2895C25.2647 43.5089 24.5643 43.669 23.846 43.7936C23.1815 43.9062 22.3974 44.0486 21.7389 43.8351L21.8466 44.2443C24.0914 42.1804 26.9408 40.7275 29.7662 39.6125C30.0595 39.4998 29.9338 39.0195 29.6345 39.1381L29.6405 39.1321Z" fill="black"/>
<path d="M30.2451 39.5947C32.2504 40.2411 34.3515 41.2909 35.4829 43.1293C35.6625 43.4259 36.297 44.3569 35.7583 44.5349C35.4709 44.6298 35.1656 44.4281 34.9322 44.2917C34.6209 44.1019 34.3096 43.9122 33.9984 43.7224C33.6871 43.5326 33.4057 43.3606 33.1064 43.1768C32.8071 42.9929 32.448 42.8209 32.1606 42.6015C32.011 42.4888 31.8134 42.2338 31.6698 42.0559C31.1191 41.3679 30.4965 40.5792 30.1912 39.7489C30.0835 39.4524 29.6046 39.5829 29.7123 39.8794C30.0356 40.763 30.6581 41.5696 31.2328 42.299C31.4303 42.5481 31.6279 42.8269 31.8913 43.0166C32.5617 43.4911 33.304 43.8825 34.0044 44.3095C34.5132 44.6179 35.1597 45.1694 35.8062 45.033C36.4527 44.8966 36.5784 44.3629 36.3748 43.8291C35.9379 42.6964 35.1357 41.7475 34.172 41.0121C33.0406 40.1463 31.7237 39.5532 30.3708 39.1203C30.0655 39.0195 29.9338 39.4998 30.2391 39.5947H30.2451Z" fill="black"/>
<path d="M33.7169 23.7542C32.837 23.2323 31.8433 22.9002 30.8316 22.7401C30.67 22.7164 30.4485 22.8468 30.5264 23.0425C30.694 23.4517 30.8616 23.855 31.0292 24.2642C31.119 24.4777 31.2567 24.715 31.3045 24.9403C31.3584 25.1835 31.2088 25.225 31.0172 25.3614C30.3827 25.818 29.814 26.3399 29.3052 26.9271C29.1675 27.0872 29.2573 27.3422 29.4788 27.3481C30.1552 27.36 30.8316 27.3659 31.5081 27.3778L31.2686 27.0635C30.9933 28.0598 30.7957 29.068 30.658 30.088C30.6341 30.2778 30.8855 30.3905 31.0352 30.3015C31.8313 29.8271 32.5556 29.2637 33.2141 28.6113L32.825 28.5639C33.268 29.4713 33.9683 30.2244 34.4113 31.1318C34.549 31.4165 34.98 31.1674 34.8423 30.8827C34.3993 29.9754 33.699 29.2222 33.256 28.3148C33.1842 28.1725 32.9687 28.1606 32.8669 28.2674C32.2384 28.8841 31.544 29.4238 30.7897 29.8805L31.1669 30.094C31.2986 29.1154 31.4961 28.1487 31.7595 27.1999C31.8014 27.0457 31.6817 26.8915 31.52 26.8855C30.8436 26.8737 30.1672 26.8677 29.4908 26.8559L29.6644 27.277C29.9756 26.9152 30.3049 26.5771 30.664 26.2688C30.8616 26.0968 31.0651 25.9367 31.2746 25.7884C31.4183 25.6876 31.6038 25.5986 31.7176 25.4622C32.0049 25.142 31.7535 24.7327 31.6218 24.4006C31.4183 23.9025 31.2147 23.4102 31.0112 22.9121L30.7059 23.2145C31.6757 23.3628 32.6275 23.6771 33.4715 24.1753C33.7469 24.3413 33.9983 23.9143 33.7229 23.7483L33.7169 23.7542Z" fill="black"/>
<path d="M47.1377 49.2496L47.7662 51.6515L48.2451 51.521L47.9817 50.6136C47.8979 50.329 47.838 50.0265 47.7183 49.7537C47.6106 49.5046 47.3592 49.2971 47.0718 49.386C46.9461 49.4275 46.8324 49.5165 46.7725 49.6292C46.6947 49.7834 46.7306 49.9316 46.8324 50.0621C46.8922 50.1392 47.0239 50.1451 47.1018 50.1155C47.1916 50.074 47.2574 49.9909 47.2574 49.8901C47.2574 49.7418 47.2514 49.5876 47.2454 49.4394C47.2454 49.3148 47.1556 49.214 47.0299 49.1962C46.9222 49.1844 46.7785 49.2496 46.7546 49.3741C46.7486 49.4275 46.7366 49.469 46.7187 49.4928C46.7187 49.4987 46.6768 49.5521 46.6947 49.5283C46.6947 49.5283 46.6408 49.5758 46.6648 49.5639C46.581 49.6232 46.5151 49.73 46.551 49.8427C46.7486 50.412 47.0419 50.9339 47.431 51.4024L47.6704 50.9932C47.6704 50.9932 47.6166 50.9695 47.6465 50.9932C47.6764 51.011 47.6585 51.0051 47.6465 50.9873C47.6345 50.9695 47.6585 51.0169 47.6465 50.9754C47.6225 50.9102 47.6585 51.0228 47.6345 50.9517C47.6226 50.9161 47.6106 50.8746 47.6046 50.839C47.5866 50.7678 47.6046 50.8805 47.6046 50.8093C47.6046 50.7856 47.6046 50.7678 47.6046 50.7441C47.5866 50.4832 47.5747 50.2163 47.5627 49.9553C47.5328 49.4275 47.5028 48.8997 47.4729 48.3719H46.9761C47.1377 49.6944 47.4789 50.9932 47.9937 52.2208C48.0476 52.3454 48.1613 52.4284 48.299 52.3928C48.4187 52.3631 48.5264 52.2149 48.4726 52.0903C47.9757 50.9042 47.6285 49.647 47.4729 48.3719C47.4549 48.2414 47.3711 48.1228 47.2215 48.1228C47.0898 48.1228 46.9641 48.2355 46.9701 48.3719C47.006 48.959 47.0359 49.5461 47.0718 50.1392C47.0898 50.412 47.0838 50.6967 47.1317 50.9695C47.1736 51.1948 47.3113 51.4261 47.5507 51.4736C47.7902 51.521 47.9518 51.2541 47.7902 51.0644C47.4609 50.667 47.2035 50.2104 47.0359 49.724L46.9222 50.0028C47.0838 49.8842 47.2095 49.7241 47.2454 49.5165L46.7546 49.4512C46.7546 49.5995 46.7606 49.7537 46.7665 49.902L47.1916 49.73C47.2155 49.7596 47.2335 49.7952 47.2275 49.8367C47.2275 49.8486 47.2275 49.8545 47.2215 49.8664C47.2155 49.8842 47.2155 49.8842 47.2215 49.8664L47.2095 49.8842L47.2275 49.8723C47.2275 49.8723 47.2035 49.8901 47.2215 49.8782C47.2335 49.8723 47.2335 49.8723 47.2215 49.8782C47.2095 49.8782 47.2095 49.8782 47.2215 49.8782C47.2394 49.8782 47.2335 49.8782 47.2095 49.8782H47.2275C47.2275 49.8782 47.2095 49.8782 47.2035 49.8782C47.1796 49.8664 47.1856 49.8664 47.2035 49.8782C47.2155 49.8842 47.2155 49.8842 47.2035 49.8782C47.1856 49.8605 47.2275 49.902 47.2335 49.9079C47.2095 49.8842 47.2335 49.9138 47.2454 49.9257C47.2514 49.9376 47.2634 49.9553 47.2694 49.9672C47.2694 49.9791 47.2933 50.0206 47.2813 49.9909C47.2873 50.0087 47.2993 50.0324 47.3053 50.0502C47.3352 50.1451 47.3651 50.2459 47.3951 50.3468C47.5208 50.7856 47.6525 51.2304 47.7782 51.6693C47.868 51.9717 48.3409 51.8472 48.2571 51.5388L47.6285 49.1369C47.5926 49.0065 47.449 48.9294 47.3232 48.9649C47.1975 49.0005 47.1137 49.1369 47.1496 49.2674L47.1377 49.2496Z" fill="black"/>
<path d="M8.72516 47.7493C8.13254 48.8702 7.71352 50.0741 7.504 51.3254C7.48605 51.4441 7.52795 51.5686 7.64767 51.616C7.7614 51.6635 7.8931 51.622 7.95895 51.5152C8.42586 50.7383 8.73713 49.8665 8.86284 48.9651L8.37198 48.8998C8.41987 49.3387 8.39593 49.7776 8.28818 50.2046C8.25825 50.335 8.33008 50.4714 8.46178 50.507C8.59347 50.5426 8.73115 50.4655 8.76706 50.335C8.87481 49.9377 8.9227 49.5226 8.91073 49.1074L8.41987 49.1727C8.54558 49.5522 8.52762 49.9377 8.38396 50.3113L8.87481 50.3766C8.87481 50.0148 8.94665 49.653 9.10228 49.3209L8.71319 49.3684C8.80897 49.4573 8.88679 49.5581 8.9227 49.6708C8.95862 49.7716 9.04841 49.8547 9.16215 49.8547C9.26989 49.8547 9.37764 49.7776 9.40159 49.6708C9.47941 49.3268 9.43152 48.9888 9.28187 48.6745L8.85087 48.9236C8.97059 49.1727 9.0963 49.4158 9.21602 49.6649C9.33574 49.914 9.73681 49.742 9.67096 49.4751C9.59913 49.1964 9.47941 48.9295 9.3118 48.6982C9.19806 48.5381 8.99454 48.544 8.8808 48.6982C8.74312 48.8821 8.80298 49.1133 8.90474 49.2972C8.94665 49.3743 8.99454 49.4455 9.03644 49.5226C9.03644 49.5226 9.06637 49.5819 9.06038 49.5641C9.0544 49.5463 9.07235 49.5997 9.07235 49.6056C9.07235 49.6174 9.08433 49.6827 9.07834 49.6293C9.07834 49.6471 9.07834 49.6649 9.07834 49.6827C9.07834 49.7123 9.0963 49.6352 9.07834 49.6886C9.07834 49.6886 9.06038 49.7479 9.07235 49.7183C9.08433 49.6886 9.06038 49.742 9.0544 49.7479C9.04242 49.7657 9.03644 49.7776 9.02447 49.7954C9.01249 49.8132 9.04242 49.7776 9.01249 49.8072C8.99454 49.825 8.98256 49.8428 8.9646 49.8547C8.95263 49.8665 8.93467 49.8843 8.91672 49.8962C8.8808 49.9258 8.9646 49.8665 8.89876 49.908C8.73713 50.0148 8.6234 50.0682 8.44382 50.1215L8.68326 50.5307C8.78502 50.4003 8.88679 50.2757 8.98855 50.1453C9.07235 50.0385 9.09031 49.8962 8.98855 49.7954C8.89277 49.7005 8.73713 49.7064 8.63537 49.7954C8.08465 50.3113 7.67161 50.94 7.39625 51.6398C7.34837 51.7643 7.45013 51.9126 7.56985 51.9422C7.70753 51.9778 7.82725 51.8948 7.87514 51.7702C8.11458 51.1594 8.49769 50.596 8.98256 50.1453L8.62938 49.7954C8.52762 49.9258 8.42586 50.0504 8.3241 50.1808C8.25226 50.2698 8.22233 50.3766 8.28818 50.4774C8.34205 50.5663 8.46177 50.6256 8.56952 50.5901C8.95263 50.4714 9.38962 50.2579 9.53927 49.8606C9.61709 49.653 9.56321 49.4395 9.46145 49.2498C9.41356 49.1667 9.35969 49.0837 9.31778 49.0007C9.3118 48.9888 9.29982 48.9473 9.3118 48.9829C9.3118 48.971 9.29384 48.9058 9.29982 48.9651C9.29982 48.9532 9.29982 48.9473 9.29982 48.9354C9.29982 48.9176 9.29982 48.9236 9.29982 48.9532L9.28785 48.971C9.28785 48.971 9.30581 48.9473 9.3118 48.9354H8.8808C9.02447 49.1371 9.12623 49.3565 9.19208 49.5997L9.64702 49.4099C9.5273 49.1608 9.40159 48.9176 9.28187 48.6686C9.22201 48.5499 9.0544 48.5144 8.94066 48.5796C8.81495 48.6508 8.79699 48.7931 8.85087 48.9176C8.94066 49.1074 8.9646 49.3328 8.91672 49.5344H9.3956C9.32377 49.3328 9.21602 49.1549 9.0544 49.0125C8.94665 48.9117 8.73713 48.9117 8.6653 49.06C8.47375 49.4692 8.366 49.914 8.366 50.3647C8.366 50.4892 8.46178 50.5901 8.5815 50.6078C8.71319 50.6256 8.80897 50.5485 8.85686 50.4299C9.03045 49.9851 9.04242 49.481 8.89277 49.0303C8.80897 48.7753 8.39593 48.805 8.40191 49.0956C8.41389 49.4692 8.37198 49.8309 8.27621 50.1927L8.75509 50.3232C8.87481 49.8547 8.91073 49.3684 8.85686 48.888C8.84488 48.7634 8.77305 48.6626 8.64136 48.6448C8.53361 48.633 8.38396 48.6982 8.366 48.8228C8.24628 49.6827 7.96493 50.507 7.51598 51.2543L7.97092 51.4441C8.17444 50.2402 8.56952 49.0718 9.14419 47.9865C9.20405 47.8679 9.17412 47.7197 9.0544 47.6485C8.94066 47.5833 8.77904 47.6188 8.71319 47.7375L8.72516 47.7493Z" fill="black"/>
</g>
<defs>
<clipPath id="clip0_1_572">
<rect width="55" height="76" fill="white" transform="translate(-0.00256348 0.802979)"/>
</clipPath>
</defs>
</svg>
